<svg xmlns="http://www.w3.org/2000/svg" width="2300" height="1600" viewBox="0 0 2300 1600">
<defs>
<marker id="arrow" markerWidth="10" markerHeight="10" refX="8" refY="3" orient="auto" markerUnits="strokeWidth"><path d="M0,0 L0,6 L9,3 z" fill="#4B5563"/></marker>
<marker id="arrowDashed" markerWidth="10" markerHeight="10" refX="8" refY="3" orient="auto" markerUnits="strokeWidth"><path d="M0,0 L0,6 L9,3 z" fill="#F97316"/></marker>
<style>
.title { font: 700 24px Arial, sans-serif; fill: white; }
.h { font: 700 13px Arial, sans-serif; fill: #111827; }
.t { font: 400 12px Arial, sans-serif; fill: #111827; }
.small { font: 400 11px Arial, sans-serif; fill: #4B5563; }
</style>
</defs>
<rect x="40" y="30" width="2220" height="60" rx="14" fill="#022C22"/>
<text x="1150.0" y="69" text-anchor="middle" class="title">Viaverse Business Subscription / Billing — Activity Diagram</text>

<rect x="80" y="160" width="280" height="60" rx="14" fill="#022C22" stroke="#022C22" stroke-width="2"/>
<text x="220.0" y="181.0" text-anchor="middle" class="h">START</text>
<text x="220.0" y="201.0" text-anchor="middle" class="t">business selects plan</text>
<rect x="450" y="140" width="330" height="90" rx="14" fill="#ECFDF5" stroke="#064E3B" stroke-width="2"/>
<text x="615.0" y="176.0" text-anchor="middle" class="h">Check eligibility</text>
<text x="615.0" y="196.0" text-anchor="middle" class="t">business publish state</text>
<rect x="900" y="140" width="250" height="80" rx="14" fill="#EEF2FF" stroke="#6366F1" stroke-width="2"/>
<text x="1025.0" y="180.0" text-anchor="middle" class="h">Trial available?</text>
<rect x="1260" y="140" width="300" height="75" rx="14" fill="#FFF7ED" stroke="#F97316" stroke-width="2"/>
<text x="1410.0" y="177.5" text-anchor="middle" class="h">Start first-month trial</text>
<rect x="1640" y="140" width="320" height="90" rx="14" fill="#FEF3C7" stroke="#F59E0B" stroke-width="2"/>
<text x="1800.0" y="176.0" text-anchor="middle" class="h">Collect payment method</text>
<text x="1800.0" y="196.0" text-anchor="middle" class="t">if required</text>
<rect x="1260" y="360" width="350" height="90" rx="14" fill="#FFFFFF" stroke="#064E3B" stroke-width="2"/>
<text x="1435.0" y="396.0" text-anchor="middle" class="h">Create billing profile</text>
<text x="1435.0" y="416.0" text-anchor="middle" class="t">plan + invoice cycle</text>
<rect x="900" y="360" width="300" height="75" rx="14" fill="#ECFDF5" stroke="#064E3B" stroke-width="2"/>
<text x="1050.0" y="397.5" text-anchor="middle" class="h">Activate subscription</text>
<rect x="450" y="360" width="330" height="90" rx="14" fill="#FFFFFF" stroke="#064E3B" stroke-width="2"/>
<text x="615.0" y="396.0" text-anchor="middle" class="h">Apply feature gates</text>
<text x="615.0" y="416.0" text-anchor="middle" class="t">leads/ads/insights</text>
<rect x="450" y="600" width="300" height="75" rx="14" fill="#FFF7ED" stroke="#F97316" stroke-width="2"/>
<text x="600.0" y="637.5" text-anchor="middle" class="h">Renewal date reached</text>
<rect x="900" y="600" width="260" height="75" rx="14" fill="#FFFFFF" stroke="#064E3B" stroke-width="2"/>
<text x="1030.0" y="637.5" text-anchor="middle" class="h">Charge provider</text>
<rect x="1260" y="600" width="220" height="80" rx="14" fill="#EEF2FF" stroke="#6366F1" stroke-width="2"/>
<text x="1370.0" y="640.0" text-anchor="middle" class="h">Paid?</text>
<rect x="1640" y="600" width="300" height="80" rx="14" fill="#FEF3C7" stroke="#F59E0B" stroke-width="2"/>
<text x="1790.0" y="640.0" text-anchor="middle" class="h">Dunning / grace period</text>
<rect x="1260" y="840" width="320" height="80" rx="14" fill="#FEF3C7" stroke="#F59E0B" stroke-width="2"/>
<text x="1420.0" y="880.0" text-anchor="middle" class="h">Limit business features</text>
<rect x="900" y="840" width="320" height="80" rx="14" fill="#FFF7ED" stroke="#F97316" stroke-width="2"/>
<text x="1060.0" y="880.0" text-anchor="middle" class="h">Emit subscription events</text>
<rect x="450" y="860" width="150" height="55" rx="14" fill="#022C22" stroke="#022C22" stroke-width="2"/>
<text x="525.0" y="887.5" text-anchor="middle" class="h">END</text>
<polyline points="360,190 450,185" fill="none" stroke="#4B5563" stroke-width="2" marker-end="url(#arrow)"/>
<polyline points="780,185 900,180" fill="none" stroke="#4B5563" stroke-width="2" marker-end="url(#arrow)"/>
<polyline points="1150,180 1260,177" fill="none" stroke="#4B5563" stroke-width="2" marker-end="url(#arrow)"/>
<text x="1268" y="169" class="small">yes</text>
<polyline points="1025,220 1025,290 1800,290 1800,230" fill="none" stroke="#F97316" stroke-width="2" marker-end="url(#arrowDashed)" stroke-dasharray="6 5"/>
<text x="1808" y="282" class="small">no</text>
<polyline points="1410,215 1410,360" fill="none" stroke="#4B5563" stroke-width="2" marker-end="url(#arrow)"/>
<polyline points="1640,185 1560,185 1560,405" fill="none" stroke="#4B5563" stroke-width="2" marker-end="url(#arrow)"/>
<polyline points="1260,405 1200,397" fill="none" stroke="#4B5563" stroke-width="2" marker-end="url(#arrow)"/>
<polyline points="900,397 780,405" fill="none" stroke="#4B5563" stroke-width="2" marker-end="url(#arrow)"/>
<polyline points="615,450 615,600" fill="none" stroke="#4B5563" stroke-width="2" marker-end="url(#arrow)"/>
<polyline points="750,637 900,637" fill="none" stroke="#4B5563" stroke-width="2" marker-end="url(#arrow)"/>
<polyline points="1160,637 1260,640" fill="none" stroke="#4B5563" stroke-width="2" marker-end="url(#arrow)"/>
<polyline points="1480,640 1640,640" fill="none" stroke="#F97316" stroke-width="2" marker-end="url(#arrowDashed)" stroke-dasharray="6 5"/>
<text x="1648" y="632" class="small">no</text>
<polyline points="1370,680 1370,780 1060,780 1060,840" fill="none" stroke="#4B5563" stroke-width="2" marker-end="url(#arrow)"/>
<text x="1068" y="772" class="small">yes</text>
<polyline points="1640,640 1420,840" fill="none" stroke="#F97316" stroke-width="2" marker-end="url(#arrowDashed)" stroke-dasharray="6 5"/>
<text x="1428" y="832" class="small">grace expired</text>
<polyline points="1260,880 1220,880" fill="none" stroke="#4B5563" stroke-width="2" marker-end="url(#arrow)"/>
<polyline points="900,880 600,888" fill="none" stroke="#4B5563" stroke-width="2" marker-end="url(#arrow)"/>
<rect x="330" y="1080" width="1580" height="60" rx="12" fill="#FEF3C7" stroke="#F59E0B" stroke-width="2"/>
<text x="346" y="1104" class="t">Billing rule:</text>
<text x="346" y="1122" class="t">Plan, trial length, monthly price, free rights and feature gates must be admin-configurable; do not hardcode 500 TL or trial duration in business logic.</text>
</svg>
