<svg xmlns="http://www.w3.org/2000/svg" width="2300" height="1600" viewBox="0 0 2300 1600">
<defs>
<marker id="arrow" markerWidth="10" markerHeight="10" refX="8" refY="3" orient="auto" markerUnits="strokeWidth"><path d="M0,0 L0,6 L9,3 z" fill="#4B5563"/></marker>
<marker id="arrowDashed" markerWidth="10" markerHeight="10" refX="8" refY="3" orient="auto" markerUnits="strokeWidth"><path d="M0,0 L0,6 L9,3 z" fill="#F97316"/></marker>
<style>
.title { font: 700 24px Arial, sans-serif; fill: white; }
.h { font: 700 13px Arial, sans-serif; fill: #111827; }
.t { font: 400 12px Arial, sans-serif; fill: #111827; }
.small { font: 400 11px Arial, sans-serif; fill: #4B5563; }
</style>
</defs>
<rect x="40" y="30" width="2220" height="60" rx="14" fill="#022C22"/>
<text x="1150.0" y="69" text-anchor="middle" class="title">Viaverse Monetization / Billing / Ads — Component Diagram</text>

<rect x="80" y="170" width="340" height="140" rx="14" fill="#FFF7ED" stroke="#F97316" stroke-width="2"/>
<text x="250.0" y="204.0" text-anchor="middle" class="h">KMP / Business UI</text>
<text x="250.0" y="224.0" text-anchor="middle" class="t">--</text>
<text x="250.0" y="244.0" text-anchor="middle" class="t">plans</text>
<text x="250.0" y="264.0" text-anchor="middle" class="t">billing</text>
<text x="250.0" y="284.0" text-anchor="middle" class="t">ads dashboard</text>
<rect x="80" y="470" width="340" height="140" rx="14" fill="#EEF2FF" stroke="#6366F1" stroke-width="2"/>
<text x="250.0" y="513.0" text-anchor="middle" class="h">Admin UI</text>
<text x="250.0" y="533.0" text-anchor="middle" class="t">--</text>
<text x="250.0" y="553.0" text-anchor="middle" class="t">plans/fees/coupons</text>
<text x="250.0" y="573.0" text-anchor="middle" class="t">campaign config</text>
<rect x="520" y="170" width="340" height="120" rx="14" fill="#ECFDF5" stroke="#064E3B" stroke-width="2"/>
<text x="690.0" y="212.0" text-anchor="middle" class="h">API Gateway / BFF</text>
<text x="690.0" y="232.0" text-anchor="middle" class="t">--</text>
<text x="690.0" y="252.0" text-anchor="middle" class="t">Monetization API</text>
<rect x="960" y="140" width="380" height="110" rx="14" fill="#FFFFFF" stroke="#064E3B" stroke-width="2"/>
<text x="1150.0" y="177.0" text-anchor="middle" class="h">MonetizationController</text>
<text x="1150.0" y="197.0" text-anchor="middle" class="t">SubscriptionController</text>
<text x="1150.0" y="217.0" text-anchor="middle" class="t">AdCampaignController</text>
<rect x="960" y="330" width="400" height="190" rx="14" fill="#FFFFFF" stroke="#064E3B" stroke-width="2"/>
<text x="1160.0" y="380.0" text-anchor="middle" class="h">Monetization Use Cases</text>
<text x="1160.0" y="400.0" text-anchor="middle" class="t">--</text>
<text x="1160.0" y="420.0" text-anchor="middle" class="t">StartSubscription</text>
<text x="1160.0" y="440.0" text-anchor="middle" class="t">CalculateCommission</text>
<text x="1160.0" y="460.0" text-anchor="middle" class="t">CreateSponsoredPlacement</text>
<text x="1160.0" y="480.0" text-anchor="middle" class="t">ApplyPromotion</text>
<rect x="960" y="620" width="400" height="190" rx="14" fill="#FFFFFF" stroke="#064E3B" stroke-width="2"/>
<text x="1160.0" y="670.0" text-anchor="middle" class="h">Monetization Policies</text>
<text x="1160.0" y="690.0" text-anchor="middle" class="t">--</text>
<text x="1160.0" y="710.0" text-anchor="middle" class="t">plan gates</text>
<text x="1160.0" y="730.0" text-anchor="middle" class="t">commission rules</text>
<text x="1160.0" y="750.0" text-anchor="middle" class="t">ad safety/relevance</text>
<text x="1160.0" y="770.0" text-anchor="middle" class="t">refund adjustment</text>
<rect x="960" y="900" width="400" height="190" rx="14" fill="#FFFFFF" stroke="#064E3B" stroke-width="2"/>
<text x="1160.0" y="941.0" text-anchor="middle" class="h">Ports</text>
<text x="1160.0" y="961.0" text-anchor="middle" class="t">BillingRepo</text>
<text x="1160.0" y="981.0" text-anchor="middle" class="t">PaymentPort</text>
<text x="1160.0" y="1001.0" text-anchor="middle" class="t">LedgerPort</text>
<text x="1160.0" y="1021.0" text-anchor="middle" class="t">SearchAdsPort</text>
<text x="1160.0" y="1041.0" text-anchor="middle" class="t">ConfigPort</text>
<text x="1160.0" y="1061.0" text-anchor="middle" class="t">OutboxPort</text>
<rect x="1440" y="210" width="380" height="170" rx="14" fill="#FEF3C7" stroke="#F59E0B" stroke-width="2"/>
<text x="1630.0" y="268.0" text-anchor="middle" class="h">payment-service</text>
<text x="1630.0" y="288.0" text-anchor="middle" class="t">--</text>
<text x="1630.0" y="308.0" text-anchor="middle" class="t">Iyzico/Stripe/Masterpass</text>
<text x="1630.0" y="328.0" text-anchor="middle" class="t">charge/refund/payout</text>
<rect x="1440" y="510" width="380" height="160" rx="14" fill="#FFFFFF" stroke="#064E3B" stroke-width="2"/>
<text x="1630.0" y="554.0" text-anchor="middle" class="h">ledger/accounting</text>
<text x="1630.0" y="574.0" text-anchor="middle" class="t">--</text>
<text x="1630.0" y="594.0" text-anchor="middle" class="t">fee records</text>
<text x="1630.0" y="614.0" text-anchor="middle" class="t">invoices</text>
<text x="1630.0" y="634.0" text-anchor="middle" class="t">revenue reports</text>
<rect x="1440" y="800" width="380" height="150" rx="14" fill="#EEF2FF" stroke="#6366F1" stroke-width="2"/>
<text x="1630.0" y="848.0" text-anchor="middle" class="h">search/ads-service</text>
<text x="1630.0" y="868.0" text-anchor="middle" class="t">--</text>
<text x="1630.0" y="888.0" text-anchor="middle" class="t">sponsored placement</text>
<text x="1630.0" y="908.0" text-anchor="middle" class="t">relevance gates</text>
<rect x="1840" y="210" width="380" height="180" rx="14" fill="#FFFFFF" stroke="#064E3B" stroke-width="2"/>
<text x="2030.0" y="255.0" text-anchor="middle" class="h">PostgreSQL</text>
<text x="2030.0" y="275.0" text-anchor="middle" class="t">--</text>
<text x="2030.0" y="295.0" text-anchor="middle" class="t">plan</text>
<text x="2030.0" y="315.0" text-anchor="middle" class="t">subscription</text>
<text x="2030.0" y="335.0" text-anchor="middle" class="t">commission_rule</text>
<text x="2030.0" y="355.0" text-anchor="middle" class="t">ad_campaign</text>
<rect x="1840" y="540" width="380" height="170" rx="14" fill="#FFF7ED" stroke="#F97316" stroke-width="2"/>
<text x="2030.0" y="589.0" text-anchor="middle" class="h">Kafka / Outbox</text>
<text x="2030.0" y="609.0" text-anchor="middle" class="t">--</text>
<text x="2030.0" y="629.0" text-anchor="middle" class="t">SubscriptionStarted</text>
<text x="2030.0" y="649.0" text-anchor="middle" class="t">CommissionCharged</text>
<text x="2030.0" y="669.0" text-anchor="middle" class="t">AdBudgetSpent</text>
<rect x="1840" y="850" width="380" height="160" rx="14" fill="#FFFFFF" stroke="#064E3B" stroke-width="2"/>
<text x="2030.0" y="885.0" text-anchor="middle" class="h">analytics/reporting</text>
<text x="2030.0" y="905.0" text-anchor="middle" class="t">--</text>
<text x="2030.0" y="925.0" text-anchor="middle" class="t">MRR</text>
<text x="2030.0" y="945.0" text-anchor="middle" class="t">GMV</text>
<text x="2030.0" y="965.0" text-anchor="middle" class="t">take rate</text>
<text x="2030.0" y="985.0" text-anchor="middle" class="t">LTV/CAC</text>
<polyline points="420,240 520,230" fill="none" stroke="#4B5563" stroke-width="2" marker-end="url(#arrow)"/>
<text x="528" y="222" class="small">HTTPS</text>
<polyline points="420,540 470,540 470,230 520,230" fill="none" stroke="#4B5563" stroke-width="2" marker-end="url(#arrow)"/>
<text x="478" y="222" class="small">HTTPS admin</text>
<polyline points="860,230 910,230 910,195 960,195" fill="none" stroke="#4B5563" stroke-width="2" marker-end="url(#arrow)"/>
<text x="918" y="187" class="small">REST</text>
<polyline points="1150,250 1150,330" fill="none" stroke="#4B5563" stroke-width="2" marker-end="url(#arrow)"/>
<text x="1158" y="322" class="small">command/query</text>
<polyline points="1160,520 1160,620" fill="none" stroke="#4B5563" stroke-width="2" marker-end="url(#arrow)"/>
<text x="1168" y="612" class="small">validate</text>
<polyline points="1160,810 1160,900" fill="none" stroke="#4B5563" stroke-width="2" marker-end="url(#arrow)"/>
<text x="1168" y="892" class="small">ports</text>
<polyline points="1360,995 1400,995 1400,295 1440,295" fill="none" stroke="#4B5563" stroke-width="2" marker-end="url(#arrow)"/>
<text x="1408" y="287" class="small">money ops</text>
<polyline points="1360,995 1400,995 1400,590 1440,590" fill="none" stroke="#4B5563" stroke-width="2" marker-end="url(#arrow)"/>
<text x="1408" y="582" class="small">financial records</text>
<polyline points="1360,995 1440,875" fill="none" stroke="#4B5563" stroke-width="2" marker-end="url(#arrow)"/>
<text x="1448" y="867" class="small">ads placement</text>
<polyline points="1360,995 1780,995 1780,300 1840,300" fill="none" stroke="#4B5563" stroke-width="2" marker-end="url(#arrow)"/>
<text x="1788" y="292" class="small">config/state</text>
<polyline points="1360,425 1840,625" fill="none" stroke="#4B5563" stroke-width="2" marker-end="url(#arrow)"/>
<text x="1848" y="617" class="small">events</text>
<polyline points="1820,590 1840,930" fill="none" stroke="#4B5563" stroke-width="2" marker-end="url(#arrow)"/>
<text x="1848" y="922" class="small">reports</text>
<rect x="80" y="1240" width="1800" height="65" rx="12" fill="#FEF3C7" stroke="#F59E0B" stroke-width="2"/>
<text x="96" y="1264" class="t">Component rule:</text>
<text x="96" y="1282" class="t">Payments, billing rules, ledger, and ads ranking stay separated. Monetization orchestrates rules but payment-service owns provider integrations and money movement.</text>
</svg>
