<svg xmlns="http://www.w3.org/2000/svg" width="2200" height="1550" viewBox="0 0 2200 1550">
<defs>
<marker id="arrow" markerWidth="10" markerHeight="10" refX="8" refY="3" orient="auto" markerUnits="strokeWidth"><path d="M0,0 L0,6 L9,3 z" fill="#4B5563"/></marker>
<marker id="arrowDashed" markerWidth="10" markerHeight="10" refX="8" refY="3" orient="auto" markerUnits="strokeWidth"><path d="M0,0 L0,6 L9,3 z" fill="#F97316"/></marker>
<style>
.title { font: 700 24px Arial, sans-serif; fill: white; }
.h { font: 700 13px Arial, sans-serif; fill: #111827; }
.t { font: 400 12px Arial, sans-serif; fill: #111827; }
.small { font: 400 11px Arial, sans-serif; fill: #4B5563; }
</style>
</defs>
<rect x="40" y="30" width="2120" height="60" rx="14" fill="#022C22"/>
<text x="1100.0" y="69" text-anchor="middle" class="title">Viaverse Observability / Trace / Log / Metric — Sequence Diagram</text>

<rect x="80" y="140" width="185" height="60" rx="14" fill="#FFFFFF" stroke="#064E3B" stroke-width="2"/>
<text x="172.5" y="170.0" text-anchor="middle" class="h">Client</text>
<rect x="171" y="220" width="2" height="1030" rx="14" fill="#E5E7EB" stroke="#E5E7EB" stroke-width="2"/>
<text x="172.0" y="735.0" text-anchor="middle" class="h"></text>
<rect x="330" y="140" width="185" height="60" rx="14" fill="#FFFFFF" stroke="#064E3B" stroke-width="2"/>
<text x="422.5" y="170.0" text-anchor="middle" class="h">API Gateway</text>
<rect x="421" y="220" width="2" height="1030" rx="14" fill="#E5E7EB" stroke="#E5E7EB" stroke-width="2"/>
<text x="422.0" y="735.0" text-anchor="middle" class="h"></text>
<rect x="600" y="140" width="185" height="60" rx="14" fill="#FFFFFF" stroke="#064E3B" stroke-width="2"/>
<text x="692.5" y="170.0" text-anchor="middle" class="h">Domain Service</text>
<rect x="691" y="220" width="2" height="1030" rx="14" fill="#E5E7EB" stroke="#E5E7EB" stroke-width="2"/>
<text x="692.0" y="735.0" text-anchor="middle" class="h"></text>
<rect x="870" y="140" width="185" height="60" rx="14" fill="#ECFDF5" stroke="#064E3B" stroke-width="2"/>
<text x="962.5" y="170.0" text-anchor="middle" class="h">OpenTelemetry SDK/Collector</text>
<rect x="961" y="220" width="2" height="1030" rx="14" fill="#E5E7EB" stroke="#E5E7EB" stroke-width="2"/>
<text x="962.0" y="735.0" text-anchor="middle" class="h"></text>
<rect x="1140" y="140" width="185" height="60" rx="14" fill="#FFFFFF" stroke="#064E3B" stroke-width="2"/>
<text x="1232.5" y="170.0" text-anchor="middle" class="h">Prometheus</text>
<rect x="1231" y="220" width="2" height="1030" rx="14" fill="#E5E7EB" stroke="#E5E7EB" stroke-width="2"/>
<text x="1232.0" y="735.0" text-anchor="middle" class="h"></text>
<rect x="1410" y="140" width="185" height="60" rx="14" fill="#FFFFFF" stroke="#064E3B" stroke-width="2"/>
<text x="1502.5" y="170.0" text-anchor="middle" class="h">Jaeger</text>
<rect x="1501" y="220" width="2" height="1030" rx="14" fill="#E5E7EB" stroke="#E5E7EB" stroke-width="2"/>
<text x="1502.0" y="735.0" text-anchor="middle" class="h"></text>
<rect x="1680" y="140" width="185" height="60" rx="14" fill="#FFFFFF" stroke="#064E3B" stroke-width="2"/>
<text x="1772.5" y="170.0" text-anchor="middle" class="h">OpenSearch Logs</text>
<rect x="1771" y="220" width="2" height="1030" rx="14" fill="#E5E7EB" stroke="#E5E7EB" stroke-width="2"/>
<text x="1772.0" y="735.0" text-anchor="middle" class="h"></text>
<rect x="1940" y="140" width="185" height="60" rx="14" fill="#FFFFFF" stroke="#064E3B" stroke-width="2"/>
<text x="2032.5" y="170.0" text-anchor="middle" class="h">Alerting / Ops</text>
<rect x="2031" y="220" width="2" height="1030" rx="14" fill="#E5E7EB" stroke="#E5E7EB" stroke-width="2"/>
<text x="2032.0" y="735.0" text-anchor="middle" class="h"></text>
<polyline points="265,260 330,260" fill="none" stroke="#4B5563" stroke-width="2" marker-end="url(#arrow)"/>
<text x="338" y="252" class="small">request + traceparent</text>
<polyline points="515,310 600,310" fill="none" stroke="#4B5563" stroke-width="2" marker-end="url(#arrow)"/>
<text x="608" y="302" class="small">forward with correlationId</text>
<polyline points="785,370 870,370" fill="none" stroke="#4B5563" stroke-width="2" marker-end="url(#arrow)"/>
<text x="878" y="362" class="small">create span + attributes</text>
<polyline points="785,470 870,470" fill="none" stroke="#4B5563" stroke-width="2" marker-end="url(#arrow)"/>
<text x="878" y="462" class="small">record metric/log context</text>
<polyline points="1055,560 1140,560" fill="none" stroke="#4B5563" stroke-width="2" marker-end="url(#arrow)"/>
<text x="1148" y="552" class="small">export metrics</text>
<polyline points="1055,650 1410,650" fill="none" stroke="#4B5563" stroke-width="2" marker-end="url(#arrow)"/>
<text x="1418" y="642" class="small">export traces</text>
<polyline points="1055,740 1680,740" fill="none" stroke="#4B5563" stroke-width="2" marker-end="url(#arrow)"/>
<text x="1688" y="732" class="small">export structured logs</text>
<polyline points="1325,840 1940,840" fill="none" stroke="#4B5563" stroke-width="2" marker-end="url(#arrow)"/>
<text x="1948" y="832" class="small">SLO/error threshold</text>
<polyline points="1865,930 1940,930" fill="none" stroke="#4B5563" stroke-width="2" marker-end="url(#arrow)"/>
<text x="1948" y="922" class="small">error pattern/anomaly</text>
<polyline points="1595,1020 1940,1020" fill="none" stroke="#4B5563" stroke-width="2" marker-end="url(#arrow)"/>
<text x="1948" y="1012" class="small">latency regression</text>
<rect x="80" y="1320" width="1700" height="60" rx="12" fill="#FEF3C7" stroke="#F59E0B" stroke-width="2"/>
<text x="96" y="1344" class="t">Sequence focus:</text>
<text x="96" y="1362" class="t">CorrelationId and traceparent travel from gateway to every service. Logs, traces and metrics must be joinable without exposing secrets.</text>
</svg>
