<svg xmlns="http://www.w3.org/2000/svg" width="2200" height="1550" viewBox="0 0 2200 1550">
<defs>
<marker id="arrow" markerWidth="10" markerHeight="10" refX="8" refY="3" orient="auto" markerUnits="strokeWidth"><path d="M0,0 L0,6 L9,3 z" fill="#4B5563"/></marker>
<marker id="arrowDashed" markerWidth="10" markerHeight="10" refX="8" refY="3" orient="auto" markerUnits="strokeWidth"><path d="M0,0 L0,6 L9,3 z" fill="#F97316"/></marker>
<style>
.title { font: 700 24px Arial, sans-serif; fill: white; }
.h { font: 700 13px Arial, sans-serif; fill: #111827; }
.t { font: 400 12px Arial, sans-serif; fill: #111827; }
.small { font: 400 11px Arial, sans-serif; fill: #4B5563; }
</style>
</defs>
<rect x="40" y="30" width="2120" height="60" rx="14" fill="#022C22"/>
<text x="1100.0" y="69" text-anchor="middle" class="title">Viaverse Analytics / Observability — Class Model</text>

<rect x="80" y="150" width="420" height="300" rx="14" fill="#FFFFFF" stroke="#064E3B" stroke-width="2"/>
<text x="290.0" y="210.0" text-anchor="middle" class="h">ProductEvent</text>
<text x="290.0" y="230.0" text-anchor="middle" class="t">--</text>
<text x="290.0" y="250.0" text-anchor="middle" class="t">id: UUID</text>
<text x="290.0" y="270.0" text-anchor="middle" class="t">eventName: String</text>
<text x="290.0" y="290.0" text-anchor="middle" class="t">schemaVersion: Int</text>
<text x="290.0" y="310.0" text-anchor="middle" class="t">anonymousId: String?</text>
<text x="290.0" y="330.0" text-anchor="middle" class="t">accountIdHash: String?</text>
<text x="290.0" y="350.0" text-anchor="middle" class="t">sessionId: String</text>
<text x="290.0" y="370.0" text-anchor="middle" class="t">properties: Json</text>
<text x="290.0" y="390.0" text-anchor="middle" class="t">sensitivity: Sensitivity</text>
<text x="290.0" y="410.0" text-anchor="middle" class="t">occurredAt: Instant</text>
<rect x="600" y="150" width="390" height="230" rx="14" fill="#FFFFFF" stroke="#064E3B" stroke-width="2"/>
<text x="795.0" y="202.0" text-anchor="middle" class="h">EventSchema</text>
<text x="795.0" y="222.0" text-anchor="middle" class="t">--</text>
<text x="795.0" y="242.0" text-anchor="middle" class="t">eventName: String</text>
<text x="795.0" y="262.0" text-anchor="middle" class="t">version: Int</text>
<text x="795.0" y="282.0" text-anchor="middle" class="t">ownerTeam: String</text>
<text x="795.0" y="302.0" text-anchor="middle" class="t">requiredFields: Set&lt;String&gt;</text>
<text x="795.0" y="322.0" text-anchor="middle" class="t">retentionClass: RetentionClass</text>
<text x="795.0" y="342.0" text-anchor="middle" class="t">status: ACTIVE | DEPRECATED</text>
<rect x="1090" y="150" width="380" height="210" rx="14" fill="#FFFFFF" stroke="#064E3B" stroke-width="2"/>
<text x="1280.0" y="201.0" text-anchor="middle" class="h">AnalyticsConsent</text>
<text x="1280.0" y="221.0" text-anchor="middle" class="t">--</text>
<text x="1280.0" y="241.0" text-anchor="middle" class="t">accountId: AccountId?</text>
<text x="1280.0" y="261.0" text-anchor="middle" class="t">anonymousId: String</text>
<text x="1280.0" y="281.0" text-anchor="middle" class="t">analyticsEnabled: Boolean</text>
<text x="1280.0" y="301.0" text-anchor="middle" class="t">marketingEnabled: Boolean</text>
<text x="1280.0" y="321.0" text-anchor="middle" class="t">updatedAt: Instant</text>
<rect x="1580" y="150" width="380" height="220" rx="14" fill="#FFFFFF" stroke="#064E3B" stroke-width="2"/>
<text x="1770.0" y="197.0" text-anchor="middle" class="h">ServiceMetric</text>
<text x="1770.0" y="217.0" text-anchor="middle" class="t">--</text>
<text x="1770.0" y="237.0" text-anchor="middle" class="t">name: String</text>
<text x="1770.0" y="257.0" text-anchor="middle" class="t">service: String</text>
<text x="1770.0" y="277.0" text-anchor="middle" class="t">tags: Map&lt;String,String&gt;</text>
<text x="1770.0" y="297.0" text-anchor="middle" class="t">value: Decimal</text>
<text x="1770.0" y="317.0" text-anchor="middle" class="t">timestamp: Instant</text>
<text x="1770.0" y="337.0" text-anchor="middle" class="t">sloName: String?</text>
<rect x="80" y="560" width="420" height="220" rx="14" fill="#FFFFFF" stroke="#064E3B" stroke-width="2"/>
<text x="290.0" y="607.0" text-anchor="middle" class="h">TraceContext</text>
<text x="290.0" y="627.0" text-anchor="middle" class="t">--</text>
<text x="290.0" y="647.0" text-anchor="middle" class="t">traceId: String</text>
<text x="290.0" y="667.0" text-anchor="middle" class="t">spanId: String</text>
<text x="290.0" y="687.0" text-anchor="middle" class="t">correlationId: String</text>
<text x="290.0" y="707.0" text-anchor="middle" class="t">serviceName: String</text>
<text x="290.0" y="727.0" text-anchor="middle" class="t">operationName: String</text>
<text x="290.0" y="747.0" text-anchor="middle" class="t">sampled: Boolean</text>
<rect x="600" y="560" width="390" height="250" rx="14" fill="#FFFFFF" stroke="#064E3B" stroke-width="2"/>
<text x="795.0" y="613.0" text-anchor="middle" class="h">StructuredLog</text>
<text x="795.0" y="633.0" text-anchor="middle" class="t">--</text>
<text x="795.0" y="653.0" text-anchor="middle" class="t">timestamp: Instant</text>
<text x="795.0" y="673.0" text-anchor="middle" class="t">level: LogLevel</text>
<text x="795.0" y="693.0" text-anchor="middle" class="t">service: String</text>
<text x="795.0" y="713.0" text-anchor="middle" class="t">message: String</text>
<text x="795.0" y="733.0" text-anchor="middle" class="t">traceId: String?</text>
<text x="795.0" y="753.0" text-anchor="middle" class="t">correlationId: String?</text>
<text x="795.0" y="773.0" text-anchor="middle" class="t">redactionStatus: RedactionStatus</text>
<rect x="1090" y="560" width="380" height="250" rx="14" fill="#FFFFFF" stroke="#064E3B" stroke-width="2"/>
<text x="1280.0" y="613.0" text-anchor="middle" class="h">AlertRule</text>
<text x="1280.0" y="633.0" text-anchor="middle" class="t">--</text>
<text x="1280.0" y="653.0" text-anchor="middle" class="t">id: UUID</text>
<text x="1280.0" y="673.0" text-anchor="middle" class="t">name: String</text>
<text x="1280.0" y="693.0" text-anchor="middle" class="t">source: METRIC | LOG | TRACE</text>
<text x="1280.0" y="713.0" text-anchor="middle" class="t">condition: String</text>
<text x="1280.0" y="733.0" text-anchor="middle" class="t">severity: Severity</text>
<text x="1280.0" y="753.0" text-anchor="middle" class="t">runbookUrl: String</text>
<text x="1280.0" y="773.0" text-anchor="middle" class="t">enabled: Boolean</text>
<rect x="1580" y="560" width="400" height="230" rx="14" fill="#FFFFFF" stroke="#064E3B" stroke-width="2"/>
<text x="1780.0" y="621.0" text-anchor="middle" class="h">Observability Events</text>
<text x="1780.0" y="641.0" text-anchor="middle" class="t">--</text>
<text x="1780.0" y="661.0" text-anchor="middle" class="t">ProductEventIngested</text>
<text x="1780.0" y="681.0" text-anchor="middle" class="t">SchemaValidationFailed</text>
<text x="1780.0" y="701.0" text-anchor="middle" class="t">SloBreached</text>
<text x="1780.0" y="721.0" text-anchor="middle" class="t">AlertRaised</text>
<text x="1780.0" y="741.0" text-anchor="middle" class="t">RetentionApplied</text>
<polyline points="500,260 600,250" fill="none" stroke="#4B5563" stroke-width="2" marker-end="url(#arrow)"/>
<text x="608" y="242" class="small">validated by</text>
<polyline points="1090,250 500,250" fill="none" stroke="#F97316" stroke-width="2" marker-end="url(#arrowDashed)" stroke-dasharray="6 5"/>
<text x="508" y="242" class="small">controls</text>
<polyline points="1770,370 1280,560" fill="none" stroke="#4B5563" stroke-width="2" marker-end="url(#arrow)"/>
<text x="1288" y="552" class="small">triggers</text>
<polyline points="500,670 600,675" fill="none" stroke="#4B5563" stroke-width="2" marker-end="url(#arrow)"/>
<text x="608" y="667" class="small">correlates</text>
<polyline points="290,560 290,470 1770,470 1770,370" fill="none" stroke="#F97316" stroke-width="2" marker-end="url(#arrowDashed)" stroke-dasharray="6 5"/>
<text x="1778" y="462" class="small">exemplars</text>
<polyline points="990,675 1090,680" fill="none" stroke="#4B5563" stroke-width="2" marker-end="url(#arrow)"/>
<text x="1098" y="672" class="small">triggers</text>
<polyline points="500,410 1780,410 1780,560" fill="none" stroke="#4B5563" stroke-width="2" marker-end="url(#arrow)"/>
<text x="1788" y="402" class="small">emits</text>
<polyline points="990,260 1780,560" fill="none" stroke="#4B5563" stroke-width="2" marker-end="url(#arrow)"/>
<text x="1788" y="552" class="small">validation failures</text>
<polyline points="1470,680 1580,680" fill="none" stroke="#4B5563" stroke-width="2" marker-end="url(#arrow)"/>
<text x="1588" y="672" class="small">emits</text>
<rect x="80" y="1030" width="1500" height="60" rx="12" fill="#FEF3C7" stroke="#F59E0B" stroke-width="2"/>
<text x="96" y="1054" class="t">Data rule:</text>
<text x="96" y="1072" class="t">Analytics properties must be allowlisted by schema. Free-form client payloads are not accepted into trusted metrics.</text>
</svg>
