<svg xmlns="http://www.w3.org/2000/svg" width="2200" height="1550" viewBox="0 0 2200 1550">
<defs>
<marker id="arrow" markerWidth="10" markerHeight="10" refX="8" refY="3" orient="auto" markerUnits="strokeWidth"><path d="M0,0 L0,6 L9,3 z" fill="#4B5563"/></marker>
<marker id="arrowDashed" markerWidth="10" markerHeight="10" refX="8" refY="3" orient="auto" markerUnits="strokeWidth"><path d="M0,0 L0,6 L9,3 z" fill="#F97316"/></marker>
<style>
.title { font: 700 24px Arial, sans-serif; fill: white; }
.h { font: 700 13px Arial, sans-serif; fill: #111827; }
.t { font: 400 12px Arial, sans-serif; fill: #111827; }
.small { font: 400 11px Arial, sans-serif; fill: #4B5563; }
</style>
</defs>
<rect x="40" y="30" width="2120" height="60" rx="14" fill="#022C22"/>
<text x="1100.0" y="69" text-anchor="middle" class="title">Viaverse Privacy / KVKK Data Subject Request — Sequence Diagram</text>

<rect x="80" y="140" width="185" height="60" rx="14" fill="#FFFFFF" stroke="#064E3B" stroke-width="2"/>
<text x="172.5" y="170.0" text-anchor="middle" class="h">User</text>
<rect x="171" y="220" width="2" height="1030" rx="14" fill="#E5E7EB" stroke="#E5E7EB" stroke-width="2"/>
<text x="172.0" y="735.0" text-anchor="middle" class="h"></text>
<rect x="330" y="140" width="185" height="60" rx="14" fill="#FFFFFF" stroke="#064E3B" stroke-width="2"/>
<text x="422.5" y="170.0" text-anchor="middle" class="h">Client</text>
<rect x="421" y="220" width="2" height="1030" rx="14" fill="#E5E7EB" stroke="#E5E7EB" stroke-width="2"/>
<text x="422.0" y="735.0" text-anchor="middle" class="h"></text>
<rect x="600" y="140" width="185" height="60" rx="14" fill="#FFFFFF" stroke="#064E3B" stroke-width="2"/>
<text x="692.5" y="170.0" text-anchor="middle" class="h">API Gateway / BFF</text>
<rect x="691" y="220" width="2" height="1030" rx="14" fill="#E5E7EB" stroke="#E5E7EB" stroke-width="2"/>
<text x="692.0" y="735.0" text-anchor="middle" class="h"></text>
<rect x="870" y="140" width="185" height="60" rx="14" fill="#ECFDF5" stroke="#064E3B" stroke-width="2"/>
<text x="962.5" y="170.0" text-anchor="middle" class="h">privacy-service</text>
<rect x="961" y="220" width="2" height="1030" rx="14" fill="#E5E7EB" stroke="#E5E7EB" stroke-width="2"/>
<text x="962.0" y="735.0" text-anchor="middle" class="h"></text>
<rect x="1140" y="140" width="185" height="60" rx="14" fill="#FFFFFF" stroke="#064E3B" stroke-width="2"/>
<text x="1232.5" y="170.0" text-anchor="middle" class="h">identity-service</text>
<rect x="1231" y="220" width="2" height="1030" rx="14" fill="#E5E7EB" stroke="#E5E7EB" stroke-width="2"/>
<text x="1232.0" y="735.0" text-anchor="middle" class="h"></text>
<rect x="1410" y="140" width="185" height="60" rx="14" fill="#FFFFFF" stroke="#064E3B" stroke-width="2"/>
<text x="1502.5" y="170.0" text-anchor="middle" class="h">Domain Services</text>
<rect x="1501" y="220" width="2" height="1030" rx="14" fill="#E5E7EB" stroke="#E5E7EB" stroke-width="2"/>
<text x="1502.0" y="735.0" text-anchor="middle" class="h"></text>
<rect x="1680" y="140" width="185" height="60" rx="14" fill="#FFFFFF" stroke="#064E3B" stroke-width="2"/>
<text x="1772.5" y="170.0" text-anchor="middle" class="h">audit-service</text>
<rect x="1771" y="220" width="2" height="1030" rx="14" fill="#E5E7EB" stroke="#E5E7EB" stroke-width="2"/>
<text x="1772.0" y="735.0" text-anchor="middle" class="h"></text>
<rect x="1940" y="140" width="185" height="60" rx="14" fill="#FFFFFF" stroke="#064E3B" stroke-width="2"/>
<text x="2032.5" y="170.0" text-anchor="middle" class="h">Outbox / Kafka</text>
<rect x="2031" y="220" width="2" height="1030" rx="14" fill="#E5E7EB" stroke="#E5E7EB" stroke-width="2"/>
<text x="2032.0" y="735.0" text-anchor="middle" class="h"></text>
<polyline points="265,260 330,260" fill="none" stroke="#4B5563" stroke-width="2" marker-end="url(#arrow)"/>
<text x="338" y="252" class="small">request export/delete/correction</text>
<polyline points="515,310 600,310" fill="none" stroke="#4B5563" stroke-width="2" marker-end="url(#arrow)"/>
<text x="608" y="302" class="small">POST /privacy/requests</text>
<polyline points="785,360 870,360" fill="none" stroke="#4B5563" stroke-width="2" marker-end="url(#arrow)"/>
<text x="878" y="352" class="small">createDSAR(command)</text>
<polyline points="1055,430 1140,430" fill="none" stroke="#4B5563" stroke-width="2" marker-end="url(#arrow)"/>
<text x="1148" y="422" class="small">verify account ownership</text>
<polyline points="1055,530 1410,530" fill="none" stroke="#4B5563" stroke-width="2" marker-end="url(#arrow)"/>
<text x="1418" y="522" class="small">collect/export or delete/anonymize commands</text>
<polyline points="1410,620 1055,620" fill="none" stroke="#4B5563" stroke-width="2" marker-end="url(#arrow)"/>
<text x="1063" y="612" class="small">completion receipts</text>
<polyline points="1055,720 1680,720" fill="none" stroke="#4B5563" stroke-width="2" marker-end="url(#arrow)"/>
<text x="1688" y="712" class="small">write DSAR audit log</text>
<polyline points="1055,820 1940,820" fill="none" stroke="#4B5563" stroke-width="2" marker-end="url(#arrow)"/>
<text x="1948" y="812" class="small">DataExportReady / DataDeleted / ConsentChanged</text>
<polyline points="870,950 785,950" fill="none" stroke="#4B5563" stroke-width="2" marker-end="url(#arrow)"/>
<text x="793" y="942" class="small">request status/result</text>
<polyline points="600,1010 515,1010" fill="none" stroke="#4B5563" stroke-width="2" marker-end="url(#arrow)"/>
<text x="523" y="1002" class="small">show result / download link</text>
<rect x="80" y="1320" width="1700" height="60" rx="12" fill="#FEF3C7" stroke="#F59E0B" stroke-width="2"/>
<text x="96" y="1344" class="t">Sequence focus:</text>
<text x="96" y="1362" class="t">privacy-service coordinates user rights. Domain services execute their own export/delete/anonymize logic and return receipts.</text>
</svg>
