<svg xmlns="http://www.w3.org/2000/svg" width="2200" height="1550" viewBox="0 0 2200 1550">
<defs>
<marker id="arrow" markerWidth="10" markerHeight="10" refX="8" refY="3" orient="auto" markerUnits="strokeWidth"><path d="M0,0 L0,6 L9,3 z" fill="#4B5563"/></marker>
<marker id="arrowDashed" markerWidth="10" markerHeight="10" refX="8" refY="3" orient="auto" markerUnits="strokeWidth"><path d="M0,0 L0,6 L9,3 z" fill="#F97316"/></marker>
<style>
.title { font: 700 24px Arial, sans-serif; fill: white; }
.h { font: 700 13px Arial, sans-serif; fill: #111827; }
.t { font: 400 12px Arial, sans-serif; fill: #111827; }
.small { font: 400 11px Arial, sans-serif; fill: #4B5563; }
</style>
</defs>
<rect x="40" y="30" width="2120" height="60" rx="14" fill="#022C22"/>
<text x="1100.0" y="69" text-anchor="middle" class="title">Viaverse Security / Privacy / Compliance — Component Diagram</text>

<rect x="80" y="170" width="320" height="140" rx="14" fill="#FFF7ED" stroke="#F97316" stroke-width="2"/>
<text x="240.0" y="204.0" text-anchor="middle" class="h">KMP / Next.js Client</text>
<text x="240.0" y="224.0" text-anchor="middle" class="t">--</text>
<text x="240.0" y="244.0" text-anchor="middle" class="t">secure storage</text>
<text x="240.0" y="264.0" text-anchor="middle" class="t">consent UI</text>
<text x="240.0" y="284.0" text-anchor="middle" class="t">privacy center</text>
<rect x="500" y="170" width="320" height="150" rx="14" fill="#ECFDF5" stroke="#064E3B" stroke-width="2"/>
<text x="660.0" y="200.0" text-anchor="middle" class="h">AWS Edge</text>
<text x="660.0" y="220.0" text-anchor="middle" class="t">--</text>
<text x="660.0" y="240.0" text-anchor="middle" class="t">WAF</text>
<text x="660.0" y="260.0" text-anchor="middle" class="t">TLS</text>
<text x="660.0" y="280.0" text-anchor="middle" class="t">rate limit</text>
<text x="660.0" y="300.0" text-anchor="middle" class="t">CDN rules</text>
<rect x="930" y="170" width="360" height="150" rx="14" fill="#FFFFFF" stroke="#064E3B" stroke-width="2"/>
<text x="1110.0" y="209.0" text-anchor="middle" class="h">API Gateway</text>
<text x="1110.0" y="229.0" text-anchor="middle" class="t">--</text>
<text x="1110.0" y="249.0" text-anchor="middle" class="t">JWT validation</text>
<text x="1110.0" y="269.0" text-anchor="middle" class="t">correlationId</text>
<text x="1110.0" y="289.0" text-anchor="middle" class="t">request policy</text>
<rect x="930" y="470" width="360" height="180" rx="14" fill="#FFFFFF" stroke="#064E3B" stroke-width="2"/>
<text x="1110.0" y="515.0" text-anchor="middle" class="h">identity-service</text>
<text x="1110.0" y="535.0" text-anchor="middle" class="t">--</text>
<text x="1110.0" y="555.0" text-anchor="middle" class="t">OTP/social login</text>
<text x="1110.0" y="575.0" text-anchor="middle" class="t">JWT/refresh</text>
<text x="1110.0" y="595.0" text-anchor="middle" class="t">capabilities</text>
<text x="1110.0" y="615.0" text-anchor="middle" class="t">admin MFA</text>
<rect x="930" y="770" width="360" height="180" rx="14" fill="#FFFFFF" stroke="#064E3B" stroke-width="2"/>
<text x="1110.0" y="815.0" text-anchor="middle" class="h">privacy-service</text>
<text x="1110.0" y="835.0" text-anchor="middle" class="t">--</text>
<text x="1110.0" y="855.0" text-anchor="middle" class="t">consent</text>
<text x="1110.0" y="875.0" text-anchor="middle" class="t">DSAR</text>
<text x="1110.0" y="895.0" text-anchor="middle" class="t">retention</text>
<text x="1110.0" y="915.0" text-anchor="middle" class="t">data map</text>
<rect x="1400" y="210" width="360" height="160" rx="14" fill="#FFFFFF" stroke="#064E3B" stroke-width="2"/>
<text x="1580.0" y="254.0" text-anchor="middle" class="h">Domain Services</text>
<text x="1580.0" y="274.0" text-anchor="middle" class="t">--</text>
<text x="1580.0" y="294.0" text-anchor="middle" class="t">policy enforcement</text>
<text x="1580.0" y="314.0" text-anchor="middle" class="t">ownership checks</text>
<text x="1580.0" y="334.0" text-anchor="middle" class="t">redaction</text>
<rect x="1400" y="500" width="360" height="160" rx="14" fill="#FEF3C7" stroke="#F59E0B" stroke-width="2"/>
<text x="1580.0" y="544.0" text-anchor="middle" class="h">External Secrets + KMS</text>
<text x="1580.0" y="564.0" text-anchor="middle" class="t">--</text>
<text x="1580.0" y="584.0" text-anchor="middle" class="t">secret sync</text>
<text x="1580.0" y="604.0" text-anchor="middle" class="t">encryption keys</text>
<text x="1580.0" y="624.0" text-anchor="middle" class="t">rotation</text>
<rect x="1400" y="800" width="360" height="160" rx="14" fill="#FFFFFF" stroke="#064E3B" stroke-width="2"/>
<text x="1580.0" y="844.0" text-anchor="middle" class="h">audit-service</text>
<text x="1580.0" y="864.0" text-anchor="middle" class="t">--</text>
<text x="1580.0" y="884.0" text-anchor="middle" class="t">sensitive access</text>
<text x="1580.0" y="904.0" text-anchor="middle" class="t">admin actions</text>
<text x="1580.0" y="924.0" text-anchor="middle" class="t">DSAR receipts</text>
<rect x="1800" y="210" width="360" height="170" rx="14" fill="#FFFFFF" stroke="#064E3B" stroke-width="2"/>
<text x="1980.0" y="259.0" text-anchor="middle" class="h">PostgreSQL / Cassandra</text>
<text x="1980.0" y="279.0" text-anchor="middle" class="t">--</text>
<text x="1980.0" y="299.0" text-anchor="middle" class="t">row ownership</text>
<text x="1980.0" y="319.0" text-anchor="middle" class="t">retention tags</text>
<text x="1980.0" y="339.0" text-anchor="middle" class="t">encrypted fields</text>
<rect x="1800" y="520" width="360" height="170" rx="14" fill="#FFF7ED" stroke="#F97316" stroke-width="2"/>
<text x="1980.0" y="569.0" text-anchor="middle" class="h">Kafka / Outbox</text>
<text x="1980.0" y="589.0" text-anchor="middle" class="t">--</text>
<text x="1980.0" y="609.0" text-anchor="middle" class="t">ConsentChanged</text>
<text x="1980.0" y="629.0" text-anchor="middle" class="t">DataDeleted</text>
<text x="1980.0" y="649.0" text-anchor="middle" class="t">SecurityIncidentRaised</text>
<rect x="1800" y="840" width="360" height="140" rx="14" fill="#EEF2FF" stroke="#6366F1" stroke-width="2"/>
<text x="1980.0" y="874.0" text-anchor="middle" class="h">Security Monitoring</text>
<text x="1980.0" y="894.0" text-anchor="middle" class="t">--</text>
<text x="1980.0" y="914.0" text-anchor="middle" class="t">anomaly</text>
<text x="1980.0" y="934.0" text-anchor="middle" class="t">incident queue</text>
<text x="1980.0" y="954.0" text-anchor="middle" class="t">alerts</text>
<polyline points="400,240 500,245" fill="none" stroke="#4B5563" stroke-width="2" marker-end="url(#arrow)"/>
<text x="508" y="237" class="small">HTTPS</text>
<polyline points="820,245 930,245" fill="none" stroke="#4B5563" stroke-width="2" marker-end="url(#arrow)"/>
<text x="938" y="237" class="small">forward</text>
<polyline points="1110,320 1110,470" fill="none" stroke="#4B5563" stroke-width="2" marker-end="url(#arrow)"/>
<text x="1118" y="462" class="small">token/introspection</text>
<polyline points="1290,245 1400,290" fill="none" stroke="#4B5563" stroke-width="2" marker-end="url(#arrow)"/>
<text x="1408" y="282" class="small">authorized request</text>
<polyline points="1760,290 1800,295" fill="none" stroke="#4B5563" stroke-width="2" marker-end="url(#arrow)"/>
<text x="1808" y="287" class="small">persist/read</text>
<polyline points="1580,370 1580,500" fill="none" stroke="#4B5563" stroke-width="2" marker-end="url(#arrow)"/>
<text x="1588" y="492" class="small">secret/key usage</text>
<polyline points="1580,370 1580,800" fill="none" stroke="#4B5563" stroke-width="2" marker-end="url(#arrow)"/>
<text x="1588" y="792" class="small">sensitive audit</text>
<polyline points="1290,860 1340,860 1340,290 1400,290" fill="none" stroke="#4B5563" stroke-width="2" marker-end="url(#arrow)"/>
<text x="1348" y="282" class="small">DSAR/retention commands</text>
<polyline points="1290,860 1740,860 1740,605 1800,605" fill="none" stroke="#4B5563" stroke-width="2" marker-end="url(#arrow)"/>
<text x="1748" y="597" class="small">privacy events</text>
<polyline points="1760,880 1800,910" fill="none" stroke="#4B5563" stroke-width="2" marker-end="url(#arrow)"/>
<text x="1808" y="902" class="small">risk signals</text>
<polyline points="1290,560 1800,605" fill="none" stroke="#4B5563" stroke-width="2" marker-end="url(#arrow)"/>
<text x="1808" y="597" class="small">auth/security events</text>
<rect x="80" y="1190" width="1700" height="65" rx="12" fill="#FEF3C7" stroke="#F59E0B" stroke-width="2"/>
<text x="96" y="1214" class="t">Component rule:</text>
<text x="96" y="1232" class="t">Security is not one service. Edge, gateway, identity, domain policies, secrets, audit, privacy and monitoring work as layered controls.</text>
</svg>
