<svg xmlns="http://www.w3.org/2000/svg" width="2300" height="1600" viewBox="0 0 2300 1600">
<defs>
<marker id="arrow" markerWidth="10" markerHeight="10" refX="8" refY="3" orient="auto" markerUnits="strokeWidth"><path d="M0,0 L0,6 L9,3 z" fill="#4B5563"/></marker>
<marker id="arrowDashed" markerWidth="10" markerHeight="10" refX="8" refY="3" orient="auto" markerUnits="strokeWidth"><path d="M0,0 L0,6 L9,3 z" fill="#F97316"/></marker>
<style>
.title { font: 700 24px Arial, sans-serif; fill: white; }
.h { font: 700 13px Arial, sans-serif; fill: #111827; }
.t { font: 400 12px Arial, sans-serif; fill: #111827; }
.small { font: 400 11px Arial, sans-serif; fill: #4B5563; }
</style>
</defs>
<rect x="40" y="30" width="2220" height="60" rx="14" fill="#022C22"/>
<text x="1150.0" y="69" text-anchor="middle" class="title">Viaverse Business Account Onboarding — Sequence Diagram</text>

<rect x="80" y="140" width="200" height="60" rx="14" fill="#FFFFFF" stroke="#064E3B" stroke-width="2"/>
<text x="180.0" y="170.0" text-anchor="middle" class="h">Client / Business UI</text>
<rect x="179" y="220" width="2" height="1030" rx="14" fill="#E5E7EB" stroke="#E5E7EB" stroke-width="2"/>
<text x="180.0" y="735.0" text-anchor="middle" class="h"></text>
<rect x="350" y="140" width="200" height="60" rx="14" fill="#FFFFFF" stroke="#064E3B" stroke-width="2"/>
<text x="450.0" y="170.0" text-anchor="middle" class="h">API Gateway / BFF</text>
<rect x="449" y="220" width="2" height="1030" rx="14" fill="#E5E7EB" stroke="#E5E7EB" stroke-width="2"/>
<text x="450.0" y="735.0" text-anchor="middle" class="h"></text>
<rect x="620" y="140" width="200" height="60" rx="14" fill="#ECFDF5" stroke="#064E3B" stroke-width="2"/>
<text x="720.0" y="170.0" text-anchor="middle" class="h">business-service</text>
<rect x="719" y="220" width="2" height="1030" rx="14" fill="#E5E7EB" stroke="#E5E7EB" stroke-width="2"/>
<text x="720.0" y="735.0" text-anchor="middle" class="h"></text>
<rect x="890" y="140" width="200" height="60" rx="14" fill="#FFFFFF" stroke="#064E3B" stroke-width="2"/>
<text x="990.0" y="170.0" text-anchor="middle" class="h">identity-service</text>
<rect x="989" y="220" width="2" height="1030" rx="14" fill="#E5E7EB" stroke="#E5E7EB" stroke-width="2"/>
<text x="990.0" y="735.0" text-anchor="middle" class="h"></text>
<rect x="1160" y="140" width="200" height="60" rx="14" fill="#FFFFFF" stroke="#064E3B" stroke-width="2"/>
<text x="1260.0" y="170.0" text-anchor="middle" class="h">media-service</text>
<rect x="1259" y="220" width="2" height="1030" rx="14" fill="#E5E7EB" stroke="#E5E7EB" stroke-width="2"/>
<text x="1260.0" y="735.0" text-anchor="middle" class="h"></text>
<rect x="1430" y="140" width="200" height="60" rx="14" fill="#FFFFFF" stroke="#064E3B" stroke-width="2"/>
<text x="1530.0" y="170.0" text-anchor="middle" class="h">billing/payment-service</text>
<rect x="1529" y="220" width="2" height="1030" rx="14" fill="#E5E7EB" stroke="#E5E7EB" stroke-width="2"/>
<text x="1530.0" y="735.0" text-anchor="middle" class="h"></text>
<rect x="1700" y="140" width="200" height="60" rx="14" fill="#FFFFFF" stroke="#064E3B" stroke-width="2"/>
<text x="1800.0" y="170.0" text-anchor="middle" class="h">search-service</text>
<rect x="1799" y="220" width="2" height="1030" rx="14" fill="#E5E7EB" stroke="#E5E7EB" stroke-width="2"/>
<text x="1800.0" y="735.0" text-anchor="middle" class="h"></text>
<rect x="1970" y="140" width="200" height="60" rx="14" fill="#FFFFFF" stroke="#064E3B" stroke-width="2"/>
<text x="2070.0" y="170.0" text-anchor="middle" class="h">Outbox / Kafka</text>
<rect x="2069" y="220" width="2" height="1030" rx="14" fill="#E5E7EB" stroke="#E5E7EB" stroke-width="2"/>
<text x="2070.0" y="735.0" text-anchor="middle" class="h"></text>
<polyline points="280,260 350,260" fill="none" stroke="#4B5563" stroke-width="2" marker-end="url(#arrow)"/>
<text x="358" y="252" class="small">POST /businesses</text>
<polyline points="550,310 620,310" fill="none" stroke="#4B5563" stroke-width="2" marker-end="url(#arrow)"/>
<text x="628" y="302" class="small">createBusiness(command)</text>
<polyline points="820,390 890,390" fill="none" stroke="#4B5563" stroke-width="2" marker-end="url(#arrow)"/>
<text x="898" y="382" class="small">grant/check OPERATE_BUSINESS capability</text>
<polyline points="820,480 1160,480" fill="none" stroke="#4B5563" stroke-width="2" marker-end="url(#arrow)"/>
<text x="1168" y="472" class="small">attach logo/photos mediaIds</text>
<polyline points="820,570 1430,570" fill="none" stroke="#4B5563" stroke-width="2" marker-end="url(#arrow)"/>
<text x="1438" y="562" class="small">create trial/subscription profile</text>
<polyline points="720,660 820,660 820,720 720,720 720,660" fill="none" stroke="#4B5563" stroke-width="2" marker-end="url(#arrow)"/>
<text x="828" y="712" class="small">publish-ready policy</text>
<polyline points="820,810 1700,810" fill="none" stroke="#4B5563" stroke-width="2" marker-end="url(#arrow)"/>
<text x="1708" y="802" class="small">index public business projection</text>
<polyline points="820,910 1970,910" fill="none" stroke="#4B5563" stroke-width="2" marker-end="url(#arrow)"/>
<text x="1978" y="902" class="small">BusinessCreated/BusinessPublished</text>
<polyline points="620,1030 550,1030" fill="none" stroke="#4B5563" stroke-width="2" marker-end="url(#arrow)"/>
<text x="558" y="1022" class="small">business status DTO</text>
<polyline points="350,1110 280,1110" fill="none" stroke="#4B5563" stroke-width="2" marker-end="url(#arrow)"/>
<text x="288" y="1102" class="small">render onboarding progress</text>
<rect x="80" y="1320" width="1780" height="60" rx="12" fill="#FEF3C7" stroke="#F59E0B" stroke-width="2"/>
<text x="96" y="1344" class="t">Sequence focus:</text>
<text x="96" y="1362" class="t">business-service owns business profile/branches/catalog. Identity owns account/capability. Billing owns plan/subscription. Search owns public projection.</text>
</svg>
