<svg xmlns="http://www.w3.org/2000/svg" width="2300" height="1600" viewBox="0 0 2300 1600">
<defs>
<marker id="arrow" markerWidth="10" markerHeight="10" refX="8" refY="3" orient="auto" markerUnits="strokeWidth"><path d="M0,0 L0,6 L9,3 z" fill="#4B5563"/></marker>
<marker id="arrowDashed" markerWidth="10" markerHeight="10" refX="8" refY="3" orient="auto" markerUnits="strokeWidth"><path d="M0,0 L0,6 L9,3 z" fill="#F97316"/></marker>
<style>
.title { font: 700 24px Arial, sans-serif; fill: white; }
.h { font: 700 13px Arial, sans-serif; fill: #111827; }
.t { font: 400 12px Arial, sans-serif; fill: #111827; }
.small { font: 400 11px Arial, sans-serif; fill: #4B5563; }
</style>
</defs>
<rect x="40" y="30" width="2220" height="60" rx="14" fill="#022C22"/>
<text x="1150.0" y="69" text-anchor="middle" class="title">Viaverse Business Account / Merchant Ops — Component Diagram</text>

<rect x="80" y="170" width="340" height="140" rx="14" fill="#FFF7ED" stroke="#F97316" stroke-width="2"/>
<text x="250.0" y="195.0" text-anchor="middle" class="h">KMP / Business UI</text>
<text x="250.0" y="215.0" text-anchor="middle" class="t">--</text>
<text x="250.0" y="235.0" text-anchor="middle" class="t">profile</text>
<text x="250.0" y="255.0" text-anchor="middle" class="t">catalog</text>
<text x="250.0" y="275.0" text-anchor="middle" class="t">leads</text>
<text x="250.0" y="295.0" text-anchor="middle" class="t">insights</text>
<rect x="520" y="170" width="340" height="120" rx="14" fill="#ECFDF5" stroke="#064E3B" stroke-width="2"/>
<text x="690.0" y="212.0" text-anchor="middle" class="h">API Gateway / BFF</text>
<text x="690.0" y="232.0" text-anchor="middle" class="t">--</text>
<text x="690.0" y="252.0" text-anchor="middle" class="t">Business API facade</text>
<rect x="960" y="140" width="360" height="110" rx="14" fill="#FFFFFF" stroke="#064E3B" stroke-width="2"/>
<text x="1140.0" y="177.0" text-anchor="middle" class="h">BusinessController</text>
<text x="1140.0" y="197.0" text-anchor="middle" class="t">CatalogController</text>
<text x="1140.0" y="217.0" text-anchor="middle" class="t">StaffController</text>
<rect x="960" y="330" width="390" height="190" rx="14" fill="#FFFFFF" stroke="#064E3B" stroke-width="2"/>
<text x="1155.0" y="371.0" text-anchor="middle" class="h">Business Use Cases</text>
<text x="1155.0" y="391.0" text-anchor="middle" class="t">--</text>
<text x="1155.0" y="411.0" text-anchor="middle" class="t">CreateBusiness</text>
<text x="1155.0" y="431.0" text-anchor="middle" class="t">VerifyBusiness</text>
<text x="1155.0" y="451.0" text-anchor="middle" class="t">ManageCatalog</text>
<text x="1155.0" y="471.0" text-anchor="middle" class="t">ManageStaff</text>
<text x="1155.0" y="491.0" text-anchor="middle" class="t">PublishBusiness</text>
<rect x="960" y="620" width="390" height="190" rx="14" fill="#FFFFFF" stroke="#064E3B" stroke-width="2"/>
<text x="1155.0" y="670.0" text-anchor="middle" class="h">Business Policies</text>
<text x="1155.0" y="690.0" text-anchor="middle" class="t">--</text>
<text x="1155.0" y="710.0" text-anchor="middle" class="t">owner/staff permissions</text>
<text x="1155.0" y="730.0" text-anchor="middle" class="t">publish-ready</text>
<text x="1155.0" y="750.0" text-anchor="middle" class="t">regional verification</text>
<text x="1155.0" y="770.0" text-anchor="middle" class="t">subscription gates</text>
<rect x="960" y="900" width="390" height="190" rx="14" fill="#FFFFFF" stroke="#064E3B" stroke-width="2"/>
<text x="1155.0" y="941.0" text-anchor="middle" class="h">Ports</text>
<text x="1155.0" y="961.0" text-anchor="middle" class="t">BusinessRepo</text>
<text x="1155.0" y="981.0" text-anchor="middle" class="t">IdentityPort</text>
<text x="1155.0" y="1001.0" text-anchor="middle" class="t">MediaPort</text>
<text x="1155.0" y="1021.0" text-anchor="middle" class="t">BillingPort</text>
<text x="1155.0" y="1041.0" text-anchor="middle" class="t">SearchPort</text>
<text x="1155.0" y="1061.0" text-anchor="middle" class="t">OutboxPort</text>
<rect x="1430" y="210" width="360" height="150" rx="14" fill="#FFFFFF" stroke="#064E3B" stroke-width="2"/>
<text x="1610.0" y="249.0" text-anchor="middle" class="h">identity-service</text>
<text x="1610.0" y="269.0" text-anchor="middle" class="t">--</text>
<text x="1610.0" y="289.0" text-anchor="middle" class="t">account capability</text>
<text x="1610.0" y="309.0" text-anchor="middle" class="t">staff users</text>
<text x="1610.0" y="329.0" text-anchor="middle" class="t">roles</text>
<rect x="1430" y="480" width="360" height="150" rx="14" fill="#FFFFFF" stroke="#064E3B" stroke-width="2"/>
<text x="1610.0" y="528.0" text-anchor="middle" class="h">media-service</text>
<text x="1610.0" y="548.0" text-anchor="middle" class="t">--</text>
<text x="1610.0" y="568.0" text-anchor="middle" class="t">logo/photos</text>
<text x="1610.0" y="588.0" text-anchor="middle" class="t">gallery moderation</text>
<rect x="1430" y="760" width="360" height="150" rx="14" fill="#FEF3C7" stroke="#F59E0B" stroke-width="2"/>
<text x="1610.0" y="808.0" text-anchor="middle" class="h">billing-service</text>
<text x="1610.0" y="828.0" text-anchor="middle" class="t">--</text>
<text x="1610.0" y="848.0" text-anchor="middle" class="t">trial/plan</text>
<text x="1610.0" y="868.0" text-anchor="middle" class="t">invoice/payment state</text>
<rect x="1810" y="210" width="360" height="170" rx="14" fill="#FFFFFF" stroke="#064E3B" stroke-width="2"/>
<text x="1990.0" y="250.0" text-anchor="middle" class="h">PostgreSQL</text>
<text x="1990.0" y="270.0" text-anchor="middle" class="t">--</text>
<text x="1990.0" y="290.0" text-anchor="middle" class="t">business</text>
<text x="1990.0" y="310.0" text-anchor="middle" class="t">branch</text>
<text x="1990.0" y="330.0" text-anchor="middle" class="t">catalog</text>
<text x="1990.0" y="350.0" text-anchor="middle" class="t">staff_role</text>
<rect x="1810" y="520" width="360" height="160" rx="14" fill="#EEF2FF" stroke="#6366F1" stroke-width="2"/>
<text x="1990.0" y="573.0" text-anchor="middle" class="h">search/trust</text>
<text x="1990.0" y="593.0" text-anchor="middle" class="t">--</text>
<text x="1990.0" y="613.0" text-anchor="middle" class="t">public projection</text>
<text x="1990.0" y="633.0" text-anchor="middle" class="t">ranking signals</text>
<rect x="1810" y="830" width="360" height="160" rx="14" fill="#FFF7ED" stroke="#F97316" stroke-width="2"/>
<text x="1990.0" y="874.0" text-anchor="middle" class="h">Kafka / Outbox</text>
<text x="1990.0" y="894.0" text-anchor="middle" class="t">--</text>
<text x="1990.0" y="914.0" text-anchor="middle" class="t">BusinessCreated</text>
<text x="1990.0" y="934.0" text-anchor="middle" class="t">CatalogUpdated</text>
<text x="1990.0" y="954.0" text-anchor="middle" class="t">BusinessPublished</text>
<polyline points="420,240 520,230" fill="none" stroke="#4B5563" stroke-width="2" marker-end="url(#arrow)"/>
<text x="528" y="222" class="small">HTTPS</text>
<polyline points="860,230 910,230 910,195 960,195" fill="none" stroke="#4B5563" stroke-width="2" marker-end="url(#arrow)"/>
<text x="918" y="187" class="small">REST</text>
<polyline points="1140,250 1140,330" fill="none" stroke="#4B5563" stroke-width="2" marker-end="url(#arrow)"/>
<text x="1148" y="322" class="small">command/query</text>
<polyline points="1155,520 1155,620" fill="none" stroke="#4B5563" stroke-width="2" marker-end="url(#arrow)"/>
<text x="1163" y="612" class="small">validate</text>
<polyline points="1155,810 1155,900" fill="none" stroke="#4B5563" stroke-width="2" marker-end="url(#arrow)"/>
<text x="1163" y="892" class="small">ports</text>
<polyline points="1350,995 1390,995 1390,285 1430,285" fill="none" stroke="#4B5563" stroke-width="2" marker-end="url(#arrow)"/>
<text x="1398" y="277" class="small">capability/staff</text>
<polyline points="1350,995 1390,995 1390,555 1430,555" fill="none" stroke="#4B5563" stroke-width="2" marker-end="url(#arrow)"/>
<text x="1398" y="547" class="small">media refs</text>
<polyline points="1350,995 1430,835" fill="none" stroke="#4B5563" stroke-width="2" marker-end="url(#arrow)"/>
<text x="1438" y="827" class="small">subscription gates</text>
<polyline points="1350,995 1750,995 1750,295 1810,295" fill="none" stroke="#4B5563" stroke-width="2" marker-end="url(#arrow)"/>
<text x="1758" y="287" class="small">persist</text>
<polyline points="1350,995 1750,995 1750,600 1810,600" fill="none" stroke="#4B5563" stroke-width="2" marker-end="url(#arrow)"/>
<text x="1758" y="592" class="small">publish projection</text>
<polyline points="1350,425 1810,910" fill="none" stroke="#4B5563" stroke-width="2" marker-end="url(#arrow)"/>
<text x="1818" y="902" class="small">events</text>
<rect x="80" y="1240" width="1780" height="65" rx="12" fill="#FEF3C7" stroke="#F59E0B" stroke-width="2"/>
<text x="96" y="1264" class="t">Component rule:</text>
<text x="96" y="1282" class="t">Business UI may be one app flow today and a separate store app later. The backend business bounded context should not depend on that client packaging choice.</text>
</svg>
