<svg xmlns="http://www.w3.org/2000/svg" width="2200" height="1550" viewBox="0 0 2200 1550">
<defs>
<marker id="arrow" markerWidth="10" markerHeight="10" refX="8" refY="3" orient="auto" markerUnits="strokeWidth"><path d="M0,0 L0,6 L9,3 z" fill="#4B5563"/></marker>
<marker id="arrowDashed" markerWidth="10" markerHeight="10" refX="8" refY="3" orient="auto" markerUnits="strokeWidth"><path d="M0,0 L0,6 L9,3 z" fill="#F97316"/></marker>
<style>
.title { font: 700 24px Arial, sans-serif; fill: white; }
.h { font: 700 13px Arial, sans-serif; fill: #111827; }
.t { font: 400 12px Arial, sans-serif; fill: #111827; }
.small { font: 400 11px Arial, sans-serif; fill: #4B5563; }
</style>
</defs>
<rect x="40" y="30" width="2120" height="60" rx="14" fill="#022C22"/>
<text x="1100.0" y="69" text-anchor="middle" class="title">Viaverse Review / Trust / Badge / Gamification — Activity Diagram</text>

<rect x="80" y="160" width="220" height="60" rx="14" fill="#022C22" stroke="#022C22" stroke-width="2"/>
<text x="190.0" y="181.0" text-anchor="middle" class="h">START</text>
<text x="190.0" y="201.0" text-anchor="middle" class="t">JobCompleted</text>
<rect x="400" y="140" width="300" height="90" rx="14" fill="#ECFDF5" stroke="#064E3B" stroke-width="2"/>
<text x="550.0" y="176.0" text-anchor="middle" class="h">Create two-sided</text>
<text x="550.0" y="196.0" text-anchor="middle" class="t">review prompts</text>
<rect x="820" y="140" width="330" height="90" rx="14" fill="#FFF7ED" stroke="#F97316" stroke-width="2"/>
<text x="985.0" y="176.0" text-anchor="middle" class="h">User submits review</text>
<text x="985.0" y="196.0" text-anchor="middle" class="t">rating + tags + comment</text>
<rect x="1260" y="140" width="330" height="90" rx="14" fill="#EEF2FF" stroke="#6366F1" stroke-width="2"/>
<text x="1425.0" y="176.0" text-anchor="middle" class="h">Validate eligibility</text>
<text x="1425.0" y="196.0" text-anchor="middle" class="t">job participant + one review</text>
<rect x="1680" y="150" width="280" height="75" rx="14" fill="#FEF3C7" stroke="#F59E0B" stroke-width="2"/>
<text x="1820.0" y="187.5" text-anchor="middle" class="h">Reject duplicate / invalid</text>
<rect x="1260" y="340" width="330" height="90" rx="14" fill="#FFFFFF" stroke="#064E3B" stroke-width="2"/>
<text x="1425.0" y="376.0" text-anchor="middle" class="h">Moderation scan</text>
<text x="1425.0" y="396.0" text-anchor="middle" class="t">abuse / PII / hate / spam</text>
<rect x="860" y="340" width="260" height="90" rx="14" fill="#EEF2FF" stroke="#6366F1" stroke-width="2"/>
<text x="990.0" y="385.0" text-anchor="middle" class="h">Safe to publish?</text>
<rect x="420" y="350" width="300" height="75" rx="14" fill="#FEF3C7" stroke="#F59E0B" stroke-width="2"/>
<text x="570.0" y="387.5" text-anchor="middle" class="h">Queue for admin review</text>
<rect x="860" y="560" width="260" height="75" rx="14" fill="#FFF7ED" stroke="#F97316" stroke-width="2"/>
<text x="990.0" y="597.5" text-anchor="middle" class="h">Publish review</text>
<rect x="1260" y="560" width="300" height="75" rx="14" fill="#FFFFFF" stroke="#064E3B" stroke-width="2"/>
<text x="1410.0" y="597.5" text-anchor="middle" class="h">Recalculate trust score</text>
<rect x="1620" y="560" width="280" height="75" rx="14" fill="#FFFFFF" stroke="#064E3B" stroke-width="2"/>
<text x="1760.0" y="597.5" text-anchor="middle" class="h">Evaluate badge rules</text>
<rect x="1260" y="780" width="300" height="75" rx="14" fill="#FFFFFF" stroke="#064E3B" stroke-width="2"/>
<text x="1410.0" y="817.5" text-anchor="middle" class="h">Award/revoke badges</text>
<rect x="860" y="780" width="300" height="75" rx="14" fill="#FFFFFF" stroke="#064E3B" stroke-width="2"/>
<text x="1010.0" y="817.5" text-anchor="middle" class="h">Update points/streaks</text>
<rect x="420" y="780" width="320" height="75" rx="14" fill="#FFFFFF" stroke="#064E3B" stroke-width="2"/>
<text x="580.0" y="817.5" text-anchor="middle" class="h">Update ranking/search signal</text>
<rect x="420" y="980" width="280" height="80" rx="14" fill="#FFF7ED" stroke="#F97316" stroke-width="2"/>
<text x="560.0" y="1020.0" text-anchor="middle" class="h">Emit trust events</text>
<rect x="860" y="1000" width="150" height="55" rx="14" fill="#022C22" stroke="#022C22" stroke-width="2"/>
<text x="935.0" y="1027.5" text-anchor="middle" class="h">END</text>
<polyline points="300,190 400,185" fill="none" stroke="#4B5563" stroke-width="2" marker-end="url(#arrow)"/>
<polyline points="700,185 820,185" fill="none" stroke="#4B5563" stroke-width="2" marker-end="url(#arrow)"/>
<polyline points="1150,185 1260,185" fill="none" stroke="#4B5563" stroke-width="2" marker-end="url(#arrow)"/>
<polyline points="1590,185 1680,188" fill="none" stroke="#F97316" stroke-width="2" marker-end="url(#arrowDashed)" stroke-dasharray="6 5"/>
<text x="1688" y="180" class="small">invalid</text>
<polyline points="1425,230 1425,340" fill="none" stroke="#4B5563" stroke-width="2" marker-end="url(#arrow)"/>
<text x="1433" y="332" class="small">valid</text>
<polyline points="1260,385 1120,385" fill="none" stroke="#4B5563" stroke-width="2" marker-end="url(#arrow)"/>
<polyline points="860,385 720,388" fill="none" stroke="#F97316" stroke-width="2" marker-end="url(#arrowDashed)" stroke-dasharray="6 5"/>
<text x="728" y="380" class="small">no</text>
<polyline points="990,430 990,560" fill="none" stroke="#4B5563" stroke-width="2" marker-end="url(#arrow)"/>
<text x="998" y="552" class="small">yes</text>
<polyline points="570,425 570,500 990,500 990,560" fill="none" stroke="#F97316" stroke-width="2" marker-end="url(#arrowDashed)" stroke-dasharray="6 5"/>
<text x="998" y="492" class="small">admin approved</text>
<polyline points="1120,598 1260,598" fill="none" stroke="#4B5563" stroke-width="2" marker-end="url(#arrow)"/>
<polyline points="1560,598 1620,598" fill="none" stroke="#4B5563" stroke-width="2" marker-end="url(#arrow)"/>
<polyline points="1760,635 1760,720 1410,720 1410,780" fill="none" stroke="#4B5563" stroke-width="2" marker-end="url(#arrow)"/>
<polyline points="1260,818 1160,818" fill="none" stroke="#4B5563" stroke-width="2" marker-end="url(#arrow)"/>
<polyline points="860,818 740,818" fill="none" stroke="#4B5563" stroke-width="2" marker-end="url(#arrow)"/>
<polyline points="580,855 580,980" fill="none" stroke="#4B5563" stroke-width="2" marker-end="url(#arrow)"/>
<polyline points="700,1020 860,1028" fill="none" stroke="#4B5563" stroke-width="2" marker-end="url(#arrow)"/>
<rect x="340" y="1160" width="1460" height="62" rx="12" fill="#FEF3C7" stroke="#F59E0B" stroke-width="2"/>
<text x="356" y="1184" class="t">Fairness rule:</text>
<text x="356" y="1202" class="t">Trust/ranking updates must be resistant to abuse: one review per side per job, duplicate prevention, suspicious review detection and admin moderation.</text>
</svg>
