<svg xmlns="http://www.w3.org/2000/svg" width="2200" height="1550" viewBox="0 0 2200 1550">
<defs>
<marker id="arrow" markerWidth="10" markerHeight="10" refX="8" refY="3" orient="auto" markerUnits="strokeWidth"><path d="M0,0 L0,6 L9,3 z" fill="#4B5563"/></marker>
<marker id="arrowDashed" markerWidth="10" markerHeight="10" refX="8" refY="3" orient="auto" markerUnits="strokeWidth"><path d="M0,0 L0,6 L9,3 z" fill="#F97316"/></marker>
<style>
.title { font: 700 24px Arial, sans-serif; fill: white; }
.h { font: 700 13px Arial, sans-serif; fill: #111827; }
.t { font: 400 12px Arial, sans-serif; fill: #111827; }
.small { font: 400 11px Arial, sans-serif; fill: #4B5563; }
</style>
</defs>
<rect x="40" y="30" width="2120" height="60" rx="14" fill="#022C22"/>
<text x="1100.0" y="69" text-anchor="middle" class="title">Viaverse Review / Trust / Badge / Gamification — Class Model</text>

<rect x="80" y="150" width="410" height="280" rx="14" fill="#FFFFFF" stroke="#064E3B" stroke-width="2"/>
<text x="285.0" y="200.0" text-anchor="middle" class="h">Review</text>
<text x="285.0" y="220.0" text-anchor="middle" class="t">--</text>
<text x="285.0" y="240.0" text-anchor="middle" class="t">id: ReviewId</text>
<text x="285.0" y="260.0" text-anchor="middle" class="t">jobId: JobId</text>
<text x="285.0" y="280.0" text-anchor="middle" class="t">reviewerAccountId: AccountId</text>
<text x="285.0" y="300.0" text-anchor="middle" class="t">revieweeType: WORKER | BUSINESS | REQUESTER</text>
<text x="285.0" y="320.0" text-anchor="middle" class="t">revieweeId: UUID</text>
<text x="285.0" y="340.0" text-anchor="middle" class="t">rating: Int</text>
<text x="285.0" y="360.0" text-anchor="middle" class="t">comment: String?</text>
<text x="285.0" y="380.0" text-anchor="middle" class="t">status: ReviewStatus</text>
<text x="285.0" y="400.0" text-anchor="middle" class="t">createdAt: Instant</text>
<rect x="590" y="150" width="340" height="150" rx="14" fill="#FFFFFF" stroke="#064E3B" stroke-width="2"/>
<text x="760.0" y="189.0" text-anchor="middle" class="h">ReviewTag</text>
<text x="760.0" y="209.0" text-anchor="middle" class="t">--</text>
<text x="760.0" y="229.0" text-anchor="middle" class="t">reviewId: ReviewId</text>
<text x="760.0" y="249.0" text-anchor="middle" class="t">tagCode: String</text>
<text x="760.0" y="269.0" text-anchor="middle" class="t">sentiment: POSITIVE | NEGATIVE | NEUTRAL</text>
<rect x="1030" y="150" width="360" height="200" rx="14" fill="#FFFFFF" stroke="#064E3B" stroke-width="2"/>
<text x="1210.0" y="187.0" text-anchor="middle" class="h">ReviewPrompt</text>
<text x="1210.0" y="207.0" text-anchor="middle" class="t">--</text>
<text x="1210.0" y="227.0" text-anchor="middle" class="t">id: UUID</text>
<text x="1210.0" y="247.0" text-anchor="middle" class="t">jobId: JobId</text>
<text x="1210.0" y="267.0" text-anchor="middle" class="t">reviewerAccountId: AccountId</text>
<text x="1210.0" y="287.0" text-anchor="middle" class="t">revieweeId: UUID</text>
<text x="1210.0" y="307.0" text-anchor="middle" class="t">status: PromptStatus</text>
<text x="1210.0" y="327.0" text-anchor="middle" class="t">expiresAt: Instant</text>
<rect x="1500" y="150" width="390" height="250" rx="14" fill="#FFFFFF" stroke="#064E3B" stroke-width="2"/>
<text x="1695.0" y="203.0" text-anchor="middle" class="h">TrustScore</text>
<text x="1695.0" y="223.0" text-anchor="middle" class="t">--</text>
<text x="1695.0" y="243.0" text-anchor="middle" class="t">subjectType: WORKER | BUSINESS | REQUESTER</text>
<text x="1695.0" y="263.0" text-anchor="middle" class="t">subjectId: UUID</text>
<text x="1695.0" y="283.0" text-anchor="middle" class="t">score: Decimal</text>
<text x="1695.0" y="303.0" text-anchor="middle" class="t">ratingAverage: Decimal</text>
<text x="1695.0" y="323.0" text-anchor="middle" class="t">completedJobs: Int</text>
<text x="1695.0" y="343.0" text-anchor="middle" class="t">disputePenalty: Decimal</text>
<text x="1695.0" y="363.0" text-anchor="middle" class="t">updatedAt: Instant</text>
<rect x="80" y="550" width="390" height="250" rx="14" fill="#FFFFFF" stroke="#064E3B" stroke-width="2"/>
<text x="275.0" y="594.0" text-anchor="middle" class="h">BadgeAward</text>
<text x="275.0" y="614.0" text-anchor="middle" class="t">--</text>
<text x="275.0" y="634.0" text-anchor="middle" class="t">id: UUID</text>
<text x="275.0" y="654.0" text-anchor="middle" class="t">subjectType</text>
<text x="275.0" y="674.0" text-anchor="middle" class="t">subjectId</text>
<text x="275.0" y="694.0" text-anchor="middle" class="t">badgeCode</text>
<text x="275.0" y="714.0" text-anchor="middle" class="t">level: BadgeLevel</text>
<text x="275.0" y="734.0" text-anchor="middle" class="t">status: ACTIVE | REVOKED</text>
<text x="275.0" y="754.0" text-anchor="middle" class="t">awardedAt: Instant</text>
<text x="275.0" y="774.0" text-anchor="middle" class="t">revokedAt: Instant?</text>
<rect x="590" y="550" width="360" height="210" rx="14" fill="#FFFFFF" stroke="#064E3B" stroke-width="2"/>
<text x="770.0" y="592.0" text-anchor="middle" class="h">GamificationAccount</text>
<text x="770.0" y="612.0" text-anchor="middle" class="t">--</text>
<text x="770.0" y="632.0" text-anchor="middle" class="t">subjectType</text>
<text x="770.0" y="652.0" text-anchor="middle" class="t">subjectId</text>
<text x="770.0" y="672.0" text-anchor="middle" class="t">points: Long</text>
<text x="770.0" y="692.0" text-anchor="middle" class="t">level: Int</text>
<text x="770.0" y="712.0" text-anchor="middle" class="t">streakCount: Int</text>
<text x="770.0" y="732.0" text-anchor="middle" class="t">lastActivityAt: Instant</text>
<rect x="1030" y="550" width="360" height="220" rx="14" fill="#FFFFFF" stroke="#064E3B" stroke-width="2"/>
<text x="1210.0" y="597.0" text-anchor="middle" class="h">BadgeRule</text>
<text x="1210.0" y="617.0" text-anchor="middle" class="t">--</text>
<text x="1210.0" y="637.0" text-anchor="middle" class="t">badgeCode</text>
<text x="1210.0" y="657.0" text-anchor="middle" class="t">criteriaExpression</text>
<text x="1210.0" y="677.0" text-anchor="middle" class="t">minCompletedJobs</text>
<text x="1210.0" y="697.0" text-anchor="middle" class="t">minRating</text>
<text x="1210.0" y="717.0" text-anchor="middle" class="t">maxDisputeRate</text>
<text x="1210.0" y="737.0" text-anchor="middle" class="t">active: Boolean</text>
<rect x="1500" y="550" width="360" height="210" rx="14" fill="#FFFFFF" stroke="#064E3B" stroke-width="2"/>
<text x="1680.0" y="601.0" text-anchor="middle" class="h">TrustPolicy</text>
<text x="1680.0" y="621.0" text-anchor="middle" class="t">--</text>
<text x="1680.0" y="641.0" text-anchor="middle" class="t">canReview()</text>
<text x="1680.0" y="661.0" text-anchor="middle" class="t">preventDuplicate()</text>
<text x="1680.0" y="681.0" text-anchor="middle" class="t">calculateTrustScore()</text>
<text x="1680.0" y="701.0" text-anchor="middle" class="t">evaluateBadges()</text>
<text x="1680.0" y="721.0" text-anchor="middle" class="t">moderateReview()</text>
<rect x="760" y="910" width="500" height="210" rx="14" fill="#FFFFFF" stroke="#064E3B" stroke-width="2"/>
<text x="1010.0" y="952.0" text-anchor="middle" class="h">Trust Events</text>
<text x="1010.0" y="972.0" text-anchor="middle" class="t">--</text>
<text x="1010.0" y="992.0" text-anchor="middle" class="t">ReviewSubmitted</text>
<text x="1010.0" y="1012.0" text-anchor="middle" class="t">ReviewPublished</text>
<text x="1010.0" y="1032.0" text-anchor="middle" class="t">TrustScoreUpdated</text>
<text x="1010.0" y="1052.0" text-anchor="middle" class="t">BadgeAwarded</text>
<text x="1010.0" y="1072.0" text-anchor="middle" class="t">BadgeRevoked</text>
<text x="1010.0" y="1092.0" text-anchor="middle" class="t">GamificationPointsUpdated</text>
<polyline points="490,250 590,225" fill="none" stroke="#4B5563" stroke-width="2" marker-end="url(#arrow)"/>
<text x="598" y="217" class="small">1 -&gt; many</text>
<polyline points="1030,250 490,250" fill="none" stroke="#F97316" stroke-width="2" marker-end="url(#arrowDashed)" stroke-dasharray="6 5"/>
<text x="498" y="242" class="small">creates/guards</text>
<polyline points="490,310 1500,270" fill="none" stroke="#4B5563" stroke-width="2" marker-end="url(#arrow)"/>
<text x="1508" y="262" class="small">updates</text>
<polyline points="1695,400 1695,480 275,480 275,550" fill="none" stroke="#4B5563" stroke-width="2" marker-end="url(#arrow)"/>
<text x="283" y="472" class="small">eligibility input</text>
<polyline points="470,675 590,655" fill="none" stroke="#4B5563" stroke-width="2" marker-end="url(#arrow)"/>
<text x="598" y="647" class="small">award affects</text>
<polyline points="1030,650 470,675" fill="none" stroke="#F97316" stroke-width="2" marker-end="url(#arrowDashed)" stroke-dasharray="6 5"/>
<text x="478" y="667" class="small">evaluates</text>
<polyline points="1500,620 1430,620 1430,470 285,470 285,430" fill="none" stroke="#F97316" stroke-width="2" marker-end="url(#arrowDashed)" stroke-dasharray="6 5"/>
<text x="1438" y="462" class="small">validates</text>
<polyline points="1680,550 1680,400" fill="none" stroke="#4B5563" stroke-width="2" marker-end="url(#arrow)"/>
<text x="1688" y="392" class="small">calculates</text>
<polyline points="1500,680 470,680" fill="none" stroke="#4B5563" stroke-width="2" marker-end="url(#arrow)"/>
<text x="478" y="672" class="small">awards/revokes</text>
<polyline points="285,430 285,850 1010,850 1010,910" fill="none" stroke="#4B5563" stroke-width="2" marker-end="url(#arrow)"/>
<text x="1018" y="842" class="small">emits</text>
<polyline points="1695,400 1695,850 1010,850 1010,910" fill="none" stroke="#4B5563" stroke-width="2" marker-end="url(#arrow)"/>
<text x="1018" y="842" class="small">emits</text>
<polyline points="275,800 275,850 1010,850" fill="none" stroke="#4B5563" stroke-width="2" marker-end="url(#arrow)"/>
<text x="283" y="842" class="small">emits</text>
<rect x="80" y="1190" width="1480" height="60" rx="12" fill="#FEF3C7" stroke="#F59E0B" stroke-width="2"/>
<text x="96" y="1214" class="t">Domain rule:</text>
<text x="96" y="1232" class="t">TrustScore is a derived aggregate. Never update it manually outside TrustPolicy/calculation use case.</text>
</svg>
