<svg xmlns="http://www.w3.org/2000/svg" width="1900" height="1300" viewBox="0 0 1900 1300">
<defs>
<marker id="arrow" markerWidth="10" markerHeight="10" refX="8" refY="3" orient="auto" markerUnits="strokeWidth"><path d="M0,0 L0,6 L9,3 z" fill="#4B5563"/></marker>
<marker id="arrowDashed" markerWidth="10" markerHeight="10" refX="8" refY="3" orient="auto" markerUnits="strokeWidth"><path d="M0,0 L0,6 L9,3 z" fill="#F97316"/></marker>
<style>
.title { font: 700 24px Arial, sans-serif; fill: white; }
.h { font: 700 13px Arial, sans-serif; fill: #111827; }
.t { font: 400 12px Arial, sans-serif; fill: #111827; }
.small { font: 400 11px Arial, sans-serif; fill: #4B5563; }
</style>
</defs>
<rect x="40" y="30" width="1820" height="60" rx="14" fill="#022C22"/>
<text x="950.0" y="69" text-anchor="middle" class="title">Viaverse Auth — Sequence Diagram — OTP Login</text>

<rect x="90" y="140" width="180" height="55" rx="14" fill="#FFFFFF" stroke="#064E3B" stroke-width="2"/>
<text x="180.0" y="167.5" text-anchor="middle" class="h">KMP / Web Client</text>
<rect x="179" y="210" width="2" height="870" rx="14" fill="#E5E7EB" stroke="#E5E7EB" stroke-width="2"/>
<text x="180.0" y="645.0" text-anchor="middle" class="h"></text>
<rect x="330" y="140" width="180" height="55" rx="14" fill="#FFFFFF" stroke="#064E3B" stroke-width="2"/>
<text x="420.0" y="167.5" text-anchor="middle" class="h">API Gateway / BFF</text>
<rect x="419" y="210" width="2" height="870" rx="14" fill="#E5E7EB" stroke="#E5E7EB" stroke-width="2"/>
<text x="420.0" y="645.0" text-anchor="middle" class="h"></text>
<rect x="590" y="140" width="180" height="55" rx="14" fill="#ECFDF5" stroke="#064E3B" stroke-width="2"/>
<text x="680.0" y="167.5" text-anchor="middle" class="h">identity-service</text>
<rect x="679" y="210" width="2" height="870" rx="14" fill="#E5E7EB" stroke="#E5E7EB" stroke-width="2"/>
<text x="680.0" y="645.0" text-anchor="middle" class="h"></text>
<rect x="850" y="140" width="180" height="55" rx="14" fill="#FFFFFF" stroke="#064E3B" stroke-width="2"/>
<text x="940.0" y="167.5" text-anchor="middle" class="h">Valkey / Redis</text>
<rect x="939" y="210" width="2" height="870" rx="14" fill="#E5E7EB" stroke="#E5E7EB" stroke-width="2"/>
<text x="940.0" y="645.0" text-anchor="middle" class="h"></text>
<rect x="1110" y="140" width="180" height="55" rx="14" fill="#FFFFFF" stroke="#064E3B" stroke-width="2"/>
<text x="1200.0" y="167.5" text-anchor="middle" class="h">Netgsm / SES</text>
<rect x="1199" y="210" width="2" height="870" rx="14" fill="#E5E7EB" stroke="#E5E7EB" stroke-width="2"/>
<text x="1200.0" y="645.0" text-anchor="middle" class="h"></text>
<rect x="1370" y="140" width="180" height="55" rx="14" fill="#FFFFFF" stroke="#064E3B" stroke-width="2"/>
<text x="1460.0" y="167.5" text-anchor="middle" class="h">PostgreSQL</text>
<rect x="1459" y="210" width="2" height="870" rx="14" fill="#E5E7EB" stroke="#E5E7EB" stroke-width="2"/>
<text x="1460.0" y="645.0" text-anchor="middle" class="h"></text>
<rect x="1630" y="140" width="180" height="55" rx="14" fill="#FFFFFF" stroke="#064E3B" stroke-width="2"/>
<text x="1720.0" y="167.5" text-anchor="middle" class="h">Kafka / Outbox</text>
<rect x="1719" y="210" width="2" height="870" rx="14" fill="#E5E7EB" stroke="#E5E7EB" stroke-width="2"/>
<text x="1720.0" y="645.0" text-anchor="middle" class="h"></text>
<polyline points="270,250 330,250" fill="none" stroke="#4B5563" stroke-width="2" marker-end="url(#arrow)"/>
<text x="338" y="242" class="small">POST /auth/otp/request</text>
<polyline points="510,290 590,290" fill="none" stroke="#4B5563" stroke-width="2" marker-end="url(#arrow)"/>
<text x="598" y="282" class="small">requestOtp()</text>
<polyline points="770,330 850,330" fill="none" stroke="#4B5563" stroke-width="2" marker-end="url(#arrow)"/>
<text x="858" y="322" class="small">rate limit + challenge ttl</text>
<polyline points="770,370 1110,370" fill="none" stroke="#4B5563" stroke-width="2" marker-end="url(#arrow)"/>
<text x="1118" y="362" class="small">send OTP</text>
<polyline points="770,410 1370,410" fill="none" stroke="#4B5563" stroke-width="2" marker-end="url(#arrow)"/>
<text x="1378" y="402" class="small">store challenge hash/ref</text>
<polyline points="770,450 1630,450" fill="none" stroke="#4B5563" stroke-width="2" marker-end="url(#arrow)"/>
<text x="1638" y="442" class="small">OtpRequested</text>
<polyline points="270,560 330,560" fill="none" stroke="#4B5563" stroke-width="2" marker-end="url(#arrow)"/>
<text x="338" y="552" class="small">POST /auth/otp/verify</text>
<polyline points="510,600 590,600" fill="none" stroke="#4B5563" stroke-width="2" marker-end="url(#arrow)"/>
<text x="598" y="592" class="small">verifyOtp()</text>
<polyline points="770,640 850,640" fill="none" stroke="#4B5563" stroke-width="2" marker-end="url(#arrow)"/>
<text x="858" y="632" class="small">check attempts/ttl</text>
<polyline points="770,680 1370,680" fill="none" stroke="#4B5563" stroke-width="2" marker-end="url(#arrow)"/>
<text x="1378" y="672" class="small">find/create Account</text>
<polyline points="770,720 1370,720" fill="none" stroke="#4B5563" stroke-width="2" marker-end="url(#arrow)"/>
<text x="1378" y="712" class="small">create Session + RefreshTokenFamily</text>
<polyline points="770,760 1630,760" fill="none" stroke="#4B5563" stroke-width="2" marker-end="url(#arrow)"/>
<text x="1638" y="752" class="small">OtpVerified / SessionCreated</text>
<polyline points="590,840 510,840" fill="none" stroke="#4B5563" stroke-width="2" marker-end="url(#arrow)"/>
<text x="518" y="832" class="small">access JWT + refresh token</text>
<polyline points="330,880 270,880" fill="none" stroke="#4B5563" stroke-width="2" marker-end="url(#arrow)"/>
<text x="278" y="872" class="small">auth result</text>
<rect x="110" y="1110" width="1560" height="60" rx="12" fill="#FEF3C7" stroke="#F59E0B" stroke-width="2"/>
<text x="126" y="1134" class="t">Sequence focus: OTP login. OAuth login follows same account/session creation after provider callback verification.</text>
</svg>
