<svg xmlns="http://www.w3.org/2000/svg" width="2150" height="1500" viewBox="0 0 2150 1500">
<defs>
<marker id="arrow" markerWidth="10" markerHeight="10" refX="8" refY="3" orient="auto" markerUnits="strokeWidth"><path d="M0,0 L0,6 L9,3 z" fill="#4B5563"/></marker>
<marker id="arrowDashed" markerWidth="10" markerHeight="10" refX="8" refY="3" orient="auto" markerUnits="strokeWidth"><path d="M0,0 L0,6 L9,3 z" fill="#F97316"/></marker>
<style>
.title { font: 700 24px Arial, sans-serif; fill: white; }
.h { font: 700 13px Arial, sans-serif; fill: #111827; }
.t { font: 400 12px Arial, sans-serif; fill: #111827; }
.small { font: 400 11px Arial, sans-serif; fill: #4B5563; }
</style>
</defs>
<rect x="40" y="30" width="2070" height="60" rx="14" fill="#022C22"/>
<text x="1075.0" y="69" text-anchor="middle" class="title">Viaverse Chat / Messaging — Use Case Diagram</text>

<rect x="260" y="135" width="1530" height="1080" rx="10" fill="none" stroke="#022C22" stroke-width="2"/>
<text x="276" y="160" class="h">Job / Quote Linked Messaging Boundary</text>
<rect x="60" y="330" width="180" height="78" rx="14" fill="#FFF7ED" stroke="#F97316" stroke-width="2"/>
<text x="150.0" y="360.0" text-anchor="middle" class="h">«actor»</text>
<text x="150.0" y="380.0" text-anchor="middle" class="t">Requester</text>
<rect x="60" y="760" width="180" height="78" rx="14" fill="#FFF7ED" stroke="#F97316" stroke-width="2"/>
<text x="150.0" y="790.0" text-anchor="middle" class="h">«actor»</text>
<text x="150.0" y="810.0" text-anchor="middle" class="t">Worker / Business</text>
<rect x="1870" y="260" width="180" height="78" rx="14" fill="#FFF7ED" stroke="#F97316" stroke-width="2"/>
<text x="1960.0" y="290.0" text-anchor="middle" class="h">«actor»</text>
<text x="1960.0" y="310.0" text-anchor="middle" class="t">media-service</text>
<rect x="1870" y="560" width="180" height="78" rx="14" fill="#FFF7ED" stroke="#F97316" stroke-width="2"/>
<text x="1960.0" y="590.0" text-anchor="middle" class="h">«actor»</text>
<text x="1960.0" y="610.0" text-anchor="middle" class="t">Safety / Moderation</text>
<rect x="1870" y="860" width="180" height="78" rx="14" fill="#FFF7ED" stroke="#F97316" stroke-width="2"/>
<text x="1960.0" y="890.0" text-anchor="middle" class="h">«actor»</text>
<text x="1960.0" y="910.0" text-anchor="middle" class="t">Support Admin</text>
<rect x="350" y="190" width="255" height="78" rx="14" fill="#FFFFFF" stroke="#064E3B" stroke-width="2"/>
<text x="477.5" y="220.0" text-anchor="middle" class="h">Create conversation</text>
<text x="477.5" y="240.0" text-anchor="middle" class="t">from quote/job context</text>
<rect x="680" y="190" width="255" height="78" rx="14" fill="#FFFFFF" stroke="#064E3B" stroke-width="2"/>
<text x="807.5" y="229.0" text-anchor="middle" class="h">Open conversation</text>
<rect x="1010" y="190" width="255" height="78" rx="14" fill="#FFFFFF" stroke="#064E3B" stroke-width="2"/>
<text x="1137.5" y="220.0" text-anchor="middle" class="h">View context card</text>
<text x="1137.5" y="240.0" text-anchor="middle" class="t">request / quote / job</text>
<rect x="350" y="430" width="255" height="78" rx="14" fill="#FFFFFF" stroke="#064E3B" stroke-width="2"/>
<text x="477.5" y="469.0" text-anchor="middle" class="h">Send message</text>
<rect x="680" y="430" width="255" height="78" rx="14" fill="#FFFFFF" stroke="#064E3B" stroke-width="2"/>
<text x="807.5" y="460.0" text-anchor="middle" class="h">Detect contact/payment</text>
<text x="807.5" y="480.0" text-anchor="middle" class="t">bypass attempt</text>
<rect x="1010" y="430" width="255" height="78" rx="14" fill="#FFFFFF" stroke="#064E3B" stroke-width="2"/>
<text x="1137.5" y="460.0" text-anchor="middle" class="h">Show safety warning</text>
<text x="1137.5" y="480.0" text-anchor="middle" class="t">or block</text>
<rect x="1340" y="430" width="255" height="78" rx="14" fill="#FFFFFF" stroke="#064E3B" stroke-width="2"/>
<text x="1467.5" y="469.0" text-anchor="middle" class="h">Attach media</text>
<rect x="350" y="660" width="255" height="78" rx="14" fill="#FFFFFF" stroke="#064E3B" stroke-width="2"/>
<text x="477.5" y="699.0" text-anchor="middle" class="h">Read messages</text>
<rect x="680" y="660" width="255" height="78" rx="14" fill="#FFFFFF" stroke="#064E3B" stroke-width="2"/>
<text x="807.5" y="699.0" text-anchor="middle" class="h">Mark as read</text>
<rect x="1010" y="660" width="255" height="78" rx="14" fill="#FFFFFF" stroke="#064E3B" stroke-width="2"/>
<text x="1137.5" y="699.0" text-anchor="middle" class="h">Report message</text>
<rect x="1340" y="660" width="255" height="78" rx="14" fill="#FFFFFF" stroke="#064E3B" stroke-width="2"/>
<text x="1467.5" y="699.0" text-anchor="middle" class="h">Block participant</text>
<rect x="1010" y="890" width="255" height="78" rx="14" fill="#FFFFFF" stroke="#064E3B" stroke-width="2"/>
<text x="1137.5" y="929.0" text-anchor="middle" class="h">Escalate to support</text>
<rect x="1340" y="890" width="255" height="78" rx="14" fill="#FFFFFF" stroke="#064E3B" stroke-width="2"/>
<text x="1467.5" y="929.0" text-anchor="middle" class="h">Audited support review</text>
<polyline points="240,370 260,370 260,229 680,229" fill="none" stroke="#4B5563" stroke-width="2" marker-end="url(#arrow)"/>
<polyline points="240,800 290,800 290,229 680,229" fill="none" stroke="#4B5563" stroke-width="2" marker-end="url(#arrow)"/>
<polyline points="605,229 680,229" fill="none" stroke="#4B5563" stroke-width="2" marker-end="url(#arrow)"/>
<polyline points="935,229 1010,229" fill="none" stroke="#4B5563" stroke-width="2" marker-end="url(#arrow)"/>
<polyline points="240,370 260,370 260,469 350,469" fill="none" stroke="#4B5563" stroke-width="2" marker-end="url(#arrow)"/>
<polyline points="240,800 280,800 280,469 350,469" fill="none" stroke="#4B5563" stroke-width="2" marker-end="url(#arrow)"/>
<polyline points="605,469 680,469" fill="none" stroke="#F97316" stroke-width="2" marker-end="url(#arrowDashed)" stroke-dasharray="6 5"/>
<text x="688" y="461" class="small">«include»</text>
<polyline points="935,469 1010,469" fill="none" stroke="#4B5563" stroke-width="2" marker-end="url(#arrow)"/>
<text x="1018" y="461" class="small">if unsafe</text>
<polyline points="475,508 475,560 1465,560 1465,508" fill="none" stroke="#F97316" stroke-width="2" marker-end="url(#arrowDashed)" stroke-dasharray="6 5"/>
<text x="1473" y="552" class="small">optional</text>
<polyline points="240,370 300,370 300,699 350,699" fill="none" stroke="#4B5563" stroke-width="2" marker-end="url(#arrow)"/>
<polyline points="240,800 300,800 300,699 350,699" fill="none" stroke="#4B5563" stroke-width="2" marker-end="url(#arrow)"/>
<polyline points="605,699 680,699" fill="none" stroke="#4B5563" stroke-width="2" marker-end="url(#arrow)"/>
<polyline points="605,699 1010,699" fill="none" stroke="#4B5563" stroke-width="2" marker-end="url(#arrow)"/>
<polyline points="1265,699 1340,699" fill="none" stroke="#4B5563" stroke-width="2" marker-end="url(#arrow)"/>
<text x="1348" y="691" class="small">optional</text>
<polyline points="1135,738 1135,890" fill="none" stroke="#4B5563" stroke-width="2" marker-end="url(#arrow)"/>
<text x="1143" y="882" class="small">if serious</text>
<polyline points="1265,929 1340,929" fill="none" stroke="#4B5563" stroke-width="2" marker-end="url(#arrow)"/>
<polyline points="1870,300 1740,300 1740,469 1595,469" fill="none" stroke="#4B5563" stroke-width="2" marker-end="url(#arrow)"/>
<text x="1748" y="461" class="small">presigned media</text>
<polyline points="1870,600 1740,600 1740,469 935,469" fill="none" stroke="#4B5563" stroke-width="2" marker-end="url(#arrow)"/>
<text x="1748" y="461" class="small">policy</text>
<polyline points="1870,900 1790,900 1790,929 1595,929" fill="none" stroke="#4B5563" stroke-width="2" marker-end="url(#arrow)"/>
<text x="1798" y="921" class="small">audited</text>
<rect x="350" y="1140" width="1340" height="58" rx="12" fill="#FEF3C7" stroke="#F59E0B" stroke-width="2"/>
<text x="366" y="1164" class="t">Rules:</text>
<text x="366" y="1182" class="t">Messaging is quote/job-linked, not generic social DM. Contact sharing before allowed state is detected. Support/admin review is scoped and audited.</text>
</svg>
