<svg xmlns="http://www.w3.org/2000/svg" width="2150" height="1500" viewBox="0 0 2150 1500">
<defs>
<marker id="arrow" markerWidth="10" markerHeight="10" refX="8" refY="3" orient="auto" markerUnits="strokeWidth"><path d="M0,0 L0,6 L9,3 z" fill="#4B5563"/></marker>
<marker id="arrowDashed" markerWidth="10" markerHeight="10" refX="8" refY="3" orient="auto" markerUnits="strokeWidth"><path d="M0,0 L0,6 L9,3 z" fill="#F97316"/></marker>
<style>
.title { font: 700 24px Arial, sans-serif; fill: white; }
.h { font: 700 13px Arial, sans-serif; fill: #111827; }
.t { font: 400 12px Arial, sans-serif; fill: #111827; }
.small { font: 400 11px Arial, sans-serif; fill: #4B5563; }
</style>
</defs>
<rect x="40" y="30" width="2070" height="60" rx="14" fill="#022C22"/>
<text x="1075.0" y="69" text-anchor="middle" class="title">Viaverse Chat / Messaging — Component Diagram</text>

<rect x="80" y="170" width="300" height="130" rx="14" fill="#FFF7ED" stroke="#F97316" stroke-width="2"/>
<text x="230.0" y="199.0" text-anchor="middle" class="h">KMP / Next.js Client</text>
<text x="230.0" y="219.0" text-anchor="middle" class="t">--</text>
<text x="230.0" y="239.0" text-anchor="middle" class="t">Chat list</text>
<text x="230.0" y="259.0" text-anchor="middle" class="t">Conversation screen</text>
<text x="230.0" y="279.0" text-anchor="middle" class="t">Context card</text>
<rect x="480" y="170" width="300" height="120" rx="14" fill="#ECFDF5" stroke="#064E3B" stroke-width="2"/>
<text x="630.0" y="203.0" text-anchor="middle" class="h">API Gateway / App BFF</text>
<text x="630.0" y="223.0" text-anchor="middle" class="t">--</text>
<text x="630.0" y="243.0" text-anchor="middle" class="t">Conversation API</text>
<text x="630.0" y="263.0" text-anchor="middle" class="t">Message API</text>
<rect x="890" y="140" width="260" height="70" rx="14" fill="#FFFFFF" stroke="#064E3B" stroke-width="2"/>
<text x="1020.0" y="175.0" text-anchor="middle" class="h">MessagingController</text>
<rect x="890" y="260" width="310" height="140" rx="14" fill="#FFFFFF" stroke="#064E3B" stroke-width="2"/>
<text x="1045.0" y="285.0" text-anchor="middle" class="h">Messaging Use Cases</text>
<text x="1045.0" y="305.0" text-anchor="middle" class="t">--</text>
<text x="1045.0" y="325.0" text-anchor="middle" class="t">CreateConversation</text>
<text x="1045.0" y="345.0" text-anchor="middle" class="t">SendMessage</text>
<text x="1045.0" y="365.0" text-anchor="middle" class="t">MarkRead</text>
<text x="1045.0" y="385.0" text-anchor="middle" class="t">ReportMessage</text>
<rect x="890" y="470" width="310" height="150" rx="14" fill="#FFFFFF" stroke="#064E3B" stroke-width="2"/>
<text x="1045.0" y="500.0" text-anchor="middle" class="h">Messaging Policies</text>
<text x="1045.0" y="520.0" text-anchor="middle" class="t">--</text>
<text x="1045.0" y="540.0" text-anchor="middle" class="t">participants</text>
<text x="1045.0" y="560.0" text-anchor="middle" class="t">context state</text>
<text x="1045.0" y="580.0" text-anchor="middle" class="t">contact sharing</text>
<text x="1045.0" y="600.0" text-anchor="middle" class="t">reporting</text>
<rect x="890" y="700" width="310" height="120" rx="14" fill="#FFFFFF" stroke="#064E3B" stroke-width="2"/>
<text x="1045.0" y="733.0" text-anchor="middle" class="h">Ports</text>
<text x="1045.0" y="753.0" text-anchor="middle" class="t">ConversationRepo</text>
<text x="1045.0" y="773.0" text-anchor="middle" class="t">MessageRepo</text>
<text x="1045.0" y="793.0" text-anchor="middle" class="t">OutboxPort</text>
<rect x="1300" y="220" width="340" height="120" rx="14" fill="#FFFFFF" stroke="#064E3B" stroke-width="2"/>
<text x="1470.0" y="253.0" text-anchor="middle" class="h">marketplace-service</text>
<text x="1470.0" y="273.0" text-anchor="middle" class="t">--</text>
<text x="1470.0" y="293.0" text-anchor="middle" class="t">quote/job context</text>
<text x="1470.0" y="313.0" text-anchor="middle" class="t">allowed sharing state</text>
<rect x="1300" y="430" width="340" height="110" rx="14" fill="#FFFFFF" stroke="#064E3B" stroke-width="2"/>
<text x="1470.0" y="458.0" text-anchor="middle" class="h">media-service</text>
<text x="1470.0" y="478.0" text-anchor="middle" class="t">--</text>
<text x="1470.0" y="498.0" text-anchor="middle" class="t">attachments</text>
<text x="1470.0" y="518.0" text-anchor="middle" class="t">moderation status</text>
<rect x="1300" y="650" width="350" height="130" rx="14" fill="#FFFFFF" stroke="#064E3B" stroke-width="2"/>
<text x="1475.0" y="688.0" text-anchor="middle" class="h">PostgreSQL + Cassandra</text>
<text x="1475.0" y="708.0" text-anchor="middle" class="t">--</text>
<text x="1475.0" y="728.0" text-anchor="middle" class="t">conversation metadata</text>
<text x="1475.0" y="748.0" text-anchor="middle" class="t">messages/read models</text>
<rect x="1740" y="260" width="280" height="100" rx="14" fill="#FFFFFF" stroke="#064E3B" stroke-width="2"/>
<text x="1880.0" y="292.0" text-anchor="middle" class="h">notification-service</text>
<text x="1880.0" y="312.0" text-anchor="middle" class="t">--</text>
<text x="1880.0" y="332.0" text-anchor="middle" class="t">recipient alerts</text>
<rect x="1740" y="500" width="280" height="130" rx="14" fill="#FEF3C7" stroke="#F59E0B" stroke-width="2"/>
<text x="1880.0" y="529.0" text-anchor="middle" class="h">Safety / Moderation</text>
<text x="1880.0" y="549.0" text-anchor="middle" class="t">--</text>
<text x="1880.0" y="569.0" text-anchor="middle" class="t">contact sharing</text>
<text x="1880.0" y="589.0" text-anchor="middle" class="t">reports</text>
<text x="1880.0" y="609.0" text-anchor="middle" class="t">risk signals</text>
<rect x="1740" y="720" width="320" height="140" rx="14" fill="#FFF7ED" stroke="#F97316" stroke-width="2"/>
<text x="1900.0" y="754.0" text-anchor="middle" class="h">Kafka / Outbox</text>
<text x="1900.0" y="774.0" text-anchor="middle" class="t">--</text>
<text x="1900.0" y="794.0" text-anchor="middle" class="t">MessageSent</text>
<text x="1900.0" y="814.0" text-anchor="middle" class="t">MessageReported</text>
<text x="1900.0" y="834.0" text-anchor="middle" class="t">SupportEscalationRequested</text>
<polyline points="380,235 480,235" fill="none" stroke="#4B5563" stroke-width="2" marker-end="url(#arrow)"/>
<text x="488" y="227" class="small">HTTPS</text>
<polyline points="780,235 840,235 840,175 890,175" fill="none" stroke="#4B5563" stroke-width="2" marker-end="url(#arrow)"/>
<text x="848" y="167" class="small">REST</text>
<polyline points="1020,210 1020,260" fill="none" stroke="#4B5563" stroke-width="2" marker-end="url(#arrow)"/>
<text x="1028" y="252" class="small">command/query</text>
<polyline points="1045,400 1045,470" fill="none" stroke="#4B5563" stroke-width="2" marker-end="url(#arrow)"/>
<text x="1053" y="462" class="small">validate</text>
<polyline points="1045,620 1045,700" fill="none" stroke="#4B5563" stroke-width="2" marker-end="url(#arrow)"/>
<text x="1053" y="692" class="small">ports</text>
<polyline points="1200,545 1250,545 1250,280 1300,280" fill="none" stroke="#4B5563" stroke-width="2" marker-end="url(#arrow)"/>
<text x="1258" y="272" class="small">context check</text>
<polyline points="1200,330 1260,330 1260,485 1300,485" fill="none" stroke="#4B5563" stroke-width="2" marker-end="url(#arrow)"/>
<text x="1268" y="477" class="small">attach refs</text>
<polyline points="1200,760 1300,715" fill="none" stroke="#4B5563" stroke-width="2" marker-end="url(#arrow)"/>
<text x="1308" y="707" class="small">persist/read model</text>
<polyline points="1200,330 1690,330 1690,565 1740,565" fill="none" stroke="#4B5563" stroke-width="2" marker-end="url(#arrow)"/>
<text x="1698" y="557" class="small">scan/report</text>
<polyline points="1200,330 1690,330 1690,310 1740,310" fill="none" stroke="#4B5563" stroke-width="2" marker-end="url(#arrow)"/>
<text x="1698" y="302" class="small">notify recipient</text>
<polyline points="1200,350 1680,350 1680,790 1740,790" fill="none" stroke="#4B5563" stroke-width="2" marker-end="url(#arrow)"/>
<text x="1688" y="782" class="small">outbox events</text>
<rect x="80" y="970" width="1570" height="65" rx="12" fill="#FEF3C7" stroke="#F59E0B" stroke-width="2"/>
<text x="96" y="994" class="t">Design note:</text>
<text x="96" y="1012" class="t">Future E2EE-ready boundary should be preserved, but initial implementation can use server-stored messages with strict policy, audit and report flows.</text>
</svg>
