<svg xmlns="http://www.w3.org/2000/svg" width="2150" height="1500" viewBox="0 0 2150 1500">
<defs>
<marker id="arrow" markerWidth="10" markerHeight="10" refX="8" refY="3" orient="auto" markerUnits="strokeWidth"><path d="M0,0 L0,6 L9,3 z" fill="#4B5563"/></marker>
<marker id="arrowDashed" markerWidth="10" markerHeight="10" refX="8" refY="3" orient="auto" markerUnits="strokeWidth"><path d="M0,0 L0,6 L9,3 z" fill="#F97316"/></marker>
<style>
.title { font: 700 24px Arial, sans-serif; fill: white; }
.h { font: 700 13px Arial, sans-serif; fill: #111827; }
.t { font: 400 12px Arial, sans-serif; fill: #111827; }
.small { font: 400 11px Arial, sans-serif; fill: #4B5563; }
</style>
</defs>
<rect x="40" y="30" width="2070" height="60" rx="14" fill="#022C22"/>
<text x="1075.0" y="69" text-anchor="middle" class="title">Viaverse Business Mode — Use Case Diagram</text>

<rect x="260" y="135" width="1530" height="1060" rx="10" fill="none" stroke="#022C22" stroke-width="2"/>
<text x="276" y="160" class="h">Business Account / Business Mode Boundary</text>
<rect x="60" y="310" width="180" height="78" rx="14" fill="#FFF7ED" stroke="#F97316" stroke-width="2"/>
<text x="150.0" y="331.0" text-anchor="middle" class="h">«actor»</text>
<text x="150.0" y="351.0" text-anchor="middle" class="t">Business Owner</text>
<text x="150.0" y="371.0" text-anchor="middle" class="t">OPERATE_BUSINESS</text>
<rect x="60" y="700" width="180" height="78" rx="14" fill="#FFF7ED" stroke="#F97316" stroke-width="2"/>
<text x="150.0" y="730.0" text-anchor="middle" class="h">«actor»</text>
<text x="150.0" y="750.0" text-anchor="middle" class="t">Business Manager</text>
<rect x="1870" y="300" width="180" height="78" rx="14" fill="#FFF7ED" stroke="#F97316" stroke-width="2"/>
<text x="1960.0" y="330.0" text-anchor="middle" class="h">«actor»</text>
<text x="1960.0" y="350.0" text-anchor="middle" class="t">Verification Admin</text>
<rect x="1870" y="600" width="180" height="78" rx="14" fill="#FFF7ED" stroke="#F97316" stroke-width="2"/>
<text x="1960.0" y="630.0" text-anchor="middle" class="h">«actor»</text>
<text x="1960.0" y="650.0" text-anchor="middle" class="t">Payment Provider</text>
<rect x="1870" y="900" width="180" height="78" rx="14" fill="#FFF7ED" stroke="#F97316" stroke-width="2"/>
<text x="1960.0" y="930.0" text-anchor="middle" class="h">«actor»</text>
<text x="1960.0" y="950.0" text-anchor="middle" class="t">Search / SEO</text>
<rect x="350" y="190" width="255" height="78" rx="14" fill="#FFFFFF" stroke="#064E3B" stroke-width="2"/>
<text x="477.5" y="229.0" text-anchor="middle" class="h">Start Business Mode</text>
<rect x="680" y="190" width="255" height="78" rx="14" fill="#FFFFFF" stroke="#064E3B" stroke-width="2"/>
<text x="807.5" y="229.0" text-anchor="middle" class="h">Create business profile</text>
<rect x="1010" y="190" width="255" height="78" rx="14" fill="#FFFFFF" stroke="#064E3B" stroke-width="2"/>
<text x="1137.5" y="229.0" text-anchor="middle" class="h">Submit business verification</text>
<rect x="1340" y="190" width="255" height="78" rx="14" fill="#FFFFFF" stroke="#064E3B" stroke-width="2"/>
<text x="1467.5" y="229.0" text-anchor="middle" class="h">Start subscription trial</text>
<rect x="350" y="410" width="255" height="78" rx="14" fill="#FFFFFF" stroke="#064E3B" stroke-width="2"/>
<text x="477.5" y="440.0" text-anchor="middle" class="h">Manage services</text>
<text x="477.5" y="460.0" text-anchor="middle" class="t">and categories</text>
<rect x="680" y="410" width="255" height="78" rx="14" fill="#FFFFFF" stroke="#064E3B" stroke-width="2"/>
<text x="807.5" y="440.0" text-anchor="middle" class="h">Manage packages</text>
<text x="807.5" y="460.0" text-anchor="middle" class="t">and pricing</text>
<rect x="1010" y="410" width="255" height="78" rx="14" fill="#FFFFFF" stroke="#064E3B" stroke-width="2"/>
<text x="1137.5" y="440.0" text-anchor="middle" class="h">Set operating hours</text>
<text x="1137.5" y="460.0" text-anchor="middle" class="t">and service area</text>
<rect x="1340" y="410" width="255" height="78" rx="14" fill="#FFFFFF" stroke="#064E3B" stroke-width="2"/>
<text x="1467.5" y="449.0" text-anchor="middle" class="h">Manage team roles</text>
<rect x="350" y="640" width="255" height="78" rx="14" fill="#FFFFFF" stroke="#064E3B" stroke-width="2"/>
<text x="477.5" y="679.0" text-anchor="middle" class="h">Manage business portfolio</text>
<rect x="680" y="640" width="255" height="78" rx="14" fill="#FFFFFF" stroke="#064E3B" stroke-width="2"/>
<text x="807.5" y="679.0" text-anchor="middle" class="h">Publish public business profile</text>
<rect x="1010" y="640" width="255" height="78" rx="14" fill="#FFFFFF" stroke="#064E3B" stroke-width="2"/>
<text x="1137.5" y="679.0" text-anchor="middle" class="h">Receive matched requests</text>
<rect x="1340" y="640" width="255" height="78" rx="14" fill="#FFFFFF" stroke="#064E3B" stroke-width="2"/>
<text x="1467.5" y="679.0" text-anchor="middle" class="h">Send free business offer</text>
<rect x="680" y="870" width="255" height="78" rx="14" fill="#FFFFFF" stroke="#064E3B" stroke-width="2"/>
<text x="807.5" y="900.0" text-anchor="middle" class="h">View dashboard</text>
<text x="807.5" y="920.0" text-anchor="middle" class="t">analytics / leads / jobs</text>
<rect x="1010" y="870" width="255" height="78" rx="14" fill="#FFFFFF" stroke="#064E3B" stroke-width="2"/>
<text x="1137.5" y="909.0" text-anchor="middle" class="h">Manage subscription</text>
<rect x="1340" y="870" width="255" height="78" rx="14" fill="#FFFFFF" stroke="#064E3B" stroke-width="2"/>
<text x="1467.5" y="909.0" text-anchor="middle" class="h">Pause / unpublish business</text>
<polyline points="240,350 260,350 260,229 350,229" fill="none" stroke="#4B5563" stroke-width="2" marker-end="url(#arrow)"/>
<polyline points="605,229 680,229" fill="none" stroke="#4B5563" stroke-width="2" marker-end="url(#arrow)"/>
<polyline points="935,229 1010,229" fill="none" stroke="#4B5563" stroke-width="2" marker-end="url(#arrow)"/>
<text x="1018" y="221" class="small">verification</text>
<polyline points="1265,229 1340,229" fill="none" stroke="#4B5563" stroke-width="2" marker-end="url(#arrow)"/>
<text x="1348" y="221" class="small">approved/pending</text>
<polyline points="805,268 805,330 475,330 475,410" fill="none" stroke="#4B5563" stroke-width="2" marker-end="url(#arrow)"/>
<text x="483" y="322" class="small">next</text>
<polyline points="605,449 680,449" fill="none" stroke="#4B5563" stroke-width="2" marker-end="url(#arrow)"/>
<polyline points="935,449 1010,449" fill="none" stroke="#4B5563" stroke-width="2" marker-end="url(#arrow)"/>
<polyline points="1265,449 1340,449" fill="none" stroke="#4B5563" stroke-width="2" marker-end="url(#arrow)"/>
<polyline points="240,740 280,740 280,449 1340,449" fill="none" stroke="#4B5563" stroke-width="2" marker-end="url(#arrow)"/>
<text x="288" y="441" class="small">role-limited</text>
<polyline points="1465,488 1465,570 475,570 475,640" fill="none" stroke="#4B5563" stroke-width="2" marker-end="url(#arrow)"/>
<text x="483" y="562" class="small">next</text>
<polyline points="605,679 680,679" fill="none" stroke="#4B5563" stroke-width="2" marker-end="url(#arrow)"/>
<polyline points="935,679 1010,679" fill="none" stroke="#4B5563" stroke-width="2" marker-end="url(#arrow)"/>
<polyline points="1265,679 1340,679" fill="none" stroke="#4B5563" stroke-width="2" marker-end="url(#arrow)"/>
<polyline points="240,740 300,740 300,909 680,909" fill="none" stroke="#4B5563" stroke-width="2" marker-end="url(#arrow)"/>
<text x="308" y="901" class="small">role-limited</text>
<polyline points="240,350 300,350 300,909 1010,909" fill="none" stroke="#4B5563" stroke-width="2" marker-end="url(#arrow)"/>
<text x="308" y="901" class="small">owner only</text>
<polyline points="240,350 310,350 310,909 1340,909" fill="none" stroke="#4B5563" stroke-width="2" marker-end="url(#arrow)"/>
<text x="318" y="901" class="small">owner/manager</text>
<polyline points="1870,340 1750,340 1750,229 1265,229" fill="none" stroke="#4B5563" stroke-width="2" marker-end="url(#arrow)"/>
<text x="1758" y="221" class="small">review</text>
<polyline points="1870,640 1730,640 1730,229 1595,229" fill="none" stroke="#4B5563" stroke-width="2" marker-end="url(#arrow)"/>
<text x="1738" y="221" class="small">billing setup</text>
<polyline points="1870,640 1740,640 1740,909 1265,909" fill="none" stroke="#4B5563" stroke-width="2" marker-end="url(#arrow)"/>
<text x="1748" y="901" class="small">subscription payment</text>
<polyline points="1870,940 1760,940 1760,679 935,679" fill="none" stroke="#4B5563" stroke-width="2" marker-end="url(#arrow)"/>
<text x="1768" y="671" class="small">index profile</text>
<rect x="350" y="1120" width="1310" height="60" rx="12" fill="#FEF3C7" stroke="#F59E0B" stroke-width="2"/>
<text x="366" y="1144" class="t">Business principle:</text>
<text x="366" y="1162" class="t">Subscription gives business tooling/visibility, but business offers remain free. Subscription/boost cannot bypass trust, safety or relevance gates.</text>
</svg>
