<svg xmlns="http://www.w3.org/2000/svg" width="2150" height="1500" viewBox="0 0 2150 1500">
<defs>
<marker id="arrow" markerWidth="10" markerHeight="10" refX="8" refY="3" orient="auto" markerUnits="strokeWidth"><path d="M0,0 L0,6 L9,3 z" fill="#4B5563"/></marker>
<marker id="arrowDashed" markerWidth="10" markerHeight="10" refX="8" refY="3" orient="auto" markerUnits="strokeWidth"><path d="M0,0 L0,6 L9,3 z" fill="#F97316"/></marker>
<style>
.title { font: 700 24px Arial, sans-serif; fill: white; }
.h { font: 700 13px Arial, sans-serif; fill: #111827; }
.t { font: 400 12px Arial, sans-serif; fill: #111827; }
.small { font: 400 11px Arial, sans-serif; fill: #4B5563; }
</style>
</defs>
<rect x="40" y="30" width="2070" height="60" rx="14" fill="#022C22"/>
<text x="1075.0" y="69" text-anchor="middle" class="title">Viaverse Business Mode — Activity Diagram</text>

<rect x="80" y="160" width="130" height="50" rx="14" fill="#022C22" stroke="#022C22" stroke-width="2"/>
<text x="145.0" y="185.0" text-anchor="middle" class="h">START</text>
<rect x="300" y="150" width="270" height="70" rx="14" fill="#FFF7ED" stroke="#F97316" stroke-width="2"/>
<text x="435.0" y="185.0" text-anchor="middle" class="h">Tap Start Business Mode</text>
<rect x="690" y="140" width="320" height="90" rx="14" fill="#ECFDF5" stroke="#064E3B" stroke-width="2"/>
<text x="850.0" y="176.0" text-anchor="middle" class="h">Check OPERATE_BUSINESS</text>
<text x="850.0" y="196.0" text-anchor="middle" class="t">capability eligibility</text>
<rect x="1130" y="140" width="210" height="90" rx="14" fill="#EEF2FF" stroke="#6366F1" stroke-width="2"/>
<text x="1235.0" y="185.0" text-anchor="middle" class="h">Allowed?</text>
<rect x="1510" y="140" width="260" height="80" rx="14" fill="#FEF3C7" stroke="#F59E0B" stroke-width="2"/>
<text x="1640.0" y="171.0" text-anchor="middle" class="h">Show reason</text>
<text x="1640.0" y="191.0" text-anchor="middle" class="t">support / appeal</text>
<rect x="1130" y="330" width="330" height="90" rx="14" fill="#FFFFFF" stroke="#064E3B" stroke-width="2"/>
<text x="1295.0" y="366.0" text-anchor="middle" class="h">Create business profile</text>
<text x="1295.0" y="386.0" text-anchor="middle" class="t">name / legal type / intro</text>
<rect x="690" y="330" width="300" height="80" rx="14" fill="#FFFFFF" stroke="#064E3B" stroke-width="2"/>
<text x="840.0" y="370.0" text-anchor="middle" class="h">Add services/categories</text>
<rect x="300" y="330" width="300" height="80" rx="14" fill="#FFFFFF" stroke="#064E3B" stroke-width="2"/>
<text x="450.0" y="361.0" text-anchor="middle" class="h">Add packages/pricing</text>
<text x="450.0" y="381.0" text-anchor="middle" class="t">optional</text>
<rect x="300" y="540" width="300" height="80" rx="14" fill="#FFFFFF" stroke="#064E3B" stroke-width="2"/>
<text x="450.0" y="580.0" text-anchor="middle" class="h">Set hours + service area</text>
<rect x="690" y="540" width="270" height="80" rx="14" fill="#EEF2FF" stroke="#6366F1" stroke-width="2"/>
<text x="825.0" y="580.0" text-anchor="middle" class="h">Add team members?</text>
<rect x="1060" y="540" width="280" height="80" rx="14" fill="#FFFFFF" stroke="#064E3B" stroke-width="2"/>
<text x="1200.0" y="580.0" text-anchor="middle" class="h">Assign team roles</text>
<rect x="1460" y="540" width="290" height="90" rx="14" fill="#EEF2FF" stroke="#6366F1" stroke-width="2"/>
<text x="1605.0" y="585.0" text-anchor="middle" class="h">Verification required?</text>
<rect x="1460" y="720" width="290" height="80" rx="14" fill="#FFFFFF" stroke="#064E3B" stroke-width="2"/>
<text x="1605.0" y="760.0" text-anchor="middle" class="h">Submit business docs</text>
<rect x="1060" y="720" width="310" height="90" rx="14" fill="#FFF7ED" stroke="#F97316" stroke-width="2"/>
<text x="1215.0" y="756.0" text-anchor="middle" class="h">Start 1-month trial</text>
<text x="1215.0" y="776.0" text-anchor="middle" class="t">subscription state</text>
<rect x="690" y="730" width="300" height="80" rx="14" fill="#FFFFFF" stroke="#064E3B" stroke-width="2"/>
<text x="840.0" y="770.0" text-anchor="middle" class="h">Publish public profile</text>
<rect x="300" y="730" width="300" height="80" rx="14" fill="#FFFFFF" stroke="#064E3B" stroke-width="2"/>
<text x="450.0" y="770.0" text-anchor="middle" class="h">Index SEO/search profile</text>
<rect x="300" y="910" width="210" height="55" rx="14" fill="#022C22" stroke="#022C22" stroke-width="2"/>
<text x="405.0" y="937.5" text-anchor="middle" class="h">BUSINESS READY</text>
<polyline points="210,185 300,185" fill="none" stroke="#4B5563" stroke-width="2" marker-end="url(#arrow)"/>
<polyline points="570,185 690,185" fill="none" stroke="#4B5563" stroke-width="2" marker-end="url(#arrow)"/>
<polyline points="1010,185 1130,185" fill="none" stroke="#4B5563" stroke-width="2" marker-end="url(#arrow)"/>
<polyline points="1340,185 1510,185" fill="none" stroke="#F97316" stroke-width="2" marker-end="url(#arrowDashed)" stroke-dasharray="6 5"/>
<text x="1518" y="177" class="small">no</text>
<polyline points="1235,230 1235,330" fill="none" stroke="#4B5563" stroke-width="2" marker-end="url(#arrow)"/>
<text x="1243" y="322" class="small">yes</text>
<polyline points="1130,375 990,375" fill="none" stroke="#4B5563" stroke-width="2" marker-end="url(#arrow)"/>
<polyline points="690,370 600,370" fill="none" stroke="#4B5563" stroke-width="2" marker-end="url(#arrow)"/>
<polyline points="450,410 450,540" fill="none" stroke="#4B5563" stroke-width="2" marker-end="url(#arrow)"/>
<polyline points="600,580 690,580" fill="none" stroke="#4B5563" stroke-width="2" marker-end="url(#arrow)"/>
<polyline points="960,580 1060,580" fill="none" stroke="#4B5563" stroke-width="2" marker-end="url(#arrow)"/>
<text x="1068" y="572" class="small">yes</text>
<polyline points="825,620 825,660 1605,660 1605,540" fill="none" stroke="#F97316" stroke-width="2" marker-end="url(#arrowDashed)" stroke-dasharray="6 5"/>
<text x="1613" y="652" class="small">no</text>
<polyline points="1340,580 1460,585" fill="none" stroke="#4B5563" stroke-width="2" marker-end="url(#arrow)"/>
<polyline points="1605,630 1605,720" fill="none" stroke="#4B5563" stroke-width="2" marker-end="url(#arrow)"/>
<text x="1613" y="712" class="small">yes</text>
<polyline points="1460,585 1410,585 1410,765 1370,765" fill="none" stroke="#F97316" stroke-width="2" marker-end="url(#arrowDashed)" stroke-dasharray="6 5"/>
<text x="1418" y="757" class="small">no</text>
<polyline points="1460,760 1370,765" fill="none" stroke="#4B5563" stroke-width="2" marker-end="url(#arrow)"/>
<text x="1378" y="757" class="small">approved</text>
<polyline points="1060,765 990,770" fill="none" stroke="#4B5563" stroke-width="2" marker-end="url(#arrow)"/>
<polyline points="690,770 600,770" fill="none" stroke="#4B5563" stroke-width="2" marker-end="url(#arrow)"/>
<polyline points="450,810 450,910" fill="none" stroke="#4B5563" stroke-width="2" marker-end="url(#arrow)"/>
<rect x="300" y="1040" width="1320" height="62" rx="12" fill="#FEF3C7" stroke="#F59E0B" stroke-width="2"/>
<text x="316" y="1064" class="t">Launch rule:</text>
<text x="316" y="1082" class="t">Business subscription trial starts as configurable monetization state. It must not block basic ability to send offers if marketplace policy says free offers.</text>
</svg>
