<svg xmlns="http://www.w3.org/2000/svg" width="2600" height="1800" viewBox="0 0 2600 1800">
<defs><marker id="arrow" markerWidth="10" markerHeight="10" refX="8" refY="3" orient="auto"><path d="M0,0 L0,6 L9,3 z" fill="#4B5563"/></marker><marker id="arrowD" markerWidth="10" markerHeight="10" refX="8" refY="3" orient="auto"><path d="M0,0 L0,6 L9,3 z" fill="#F97316"/></marker>
<style>.title{font:700 24px Arial;fill:white}.h{font:700 12px Arial;fill:#111827}.t{font:400 11px Arial;fill:#111827}.small{font:400 11px Arial;fill:#4B5563}</style></defs>
<rect x="40" y="30" width="2520" height="60" rx="14" fill="#022C22"/><text x="1300.0" y="69" text-anchor="middle" class="title">Viaverse Final UML Index — Team Navigation Map</text>
<rect x="60" y="130" width="2480" height="1180" rx="10" fill="none" stroke="#022C22" stroke-width="2"/><text x="76" y="155" class="h">Team Navigation Map</text>
<rect x="120" y="230" width="430" height="170" rx="14" fill="#FFF7ED" stroke="#F97316" stroke-width="2"/>
<text x="335.0" y="297.0" text-anchor="middle" class="h">Product / Founder</text>
<text x="335.0" y="315.0" text-anchor="middle" class="t">Start with:</text>
<text x="335.0" y="333.0" text-anchor="middle" class="t">Part 28, 26, 01, 03, 04, 22, 23, 24</text>
<rect x="650" y="230" width="430" height="170" rx="14" fill="#ECFDF5" stroke="#064E3B" stroke-width="2"/>
<text x="865.0" y="297.0" text-anchor="middle" class="h">Backend Team</text>
<text x="865.0" y="315.0" text-anchor="middle" class="t">Start with:</text>
<text x="865.0" y="333.0" text-anchor="middle" class="t">Part 27, 12, 13, 14, 18, then domain parts</text>
<rect x="1180" y="230" width="430" height="170" rx="14" fill="#EEF2FF" stroke="#6366F1" stroke-width="2"/>
<text x="1395.0" y="297.0" text-anchor="middle" class="h">Client / UX Team</text>
<text x="1395.0" y="315.0" text-anchor="middle" class="t">Start with:</text>
<text x="1395.0" y="333.0" text-anchor="middle" class="t">Part 21, 24, 01-07, 22, 25, 27</text>
<rect x="1710" y="230" width="430" height="170" rx="14" fill="#FEF3C7" stroke="#F59E0B" stroke-width="2"/>
<text x="1925.0" y="297.0" text-anchor="middle" class="h">Platform / DevOps</text>
<text x="1925.0" y="315.0" text-anchor="middle" class="t">Start with:</text>
<text x="1925.0" y="333.0" text-anchor="middle" class="t">Part 19, 17, 18, 13, 27, 28</text>
<rect x="380" y="560" width="430" height="170" rx="14" fill="#FFF7ED" stroke="#F97316" stroke-width="2"/>
<text x="595.0" y="627.0" text-anchor="middle" class="h">Payment / Monetization</text>
<text x="595.0" y="645.0" text-anchor="middle" class="t">Start with:</text>
<text x="595.0" y="663.0" text-anchor="middle" class="t">Part 08, 15, 23, 22, 04, 14</text>
<rect x="910" y="560" width="430" height="170" rx="14" fill="#FEF3C7" stroke="#F59E0B" stroke-width="2"/>
<text x="1125.0" y="627.0" text-anchor="middle" class="h">Security / Privacy / Trust</text>
<text x="1125.0" y="645.0" text-anchor="middle" class="t">Start with:</text>
<text x="1125.0" y="663.0" text-anchor="middle" class="t">Part 10, 14, 18, 25, 09, 20</text>
<rect x="1440" y="560" width="430" height="170" rx="14" fill="#EEF2FF" stroke="#6366F1" stroke-width="2"/>
<text x="1655.0" y="627.0" text-anchor="middle" class="h">Data / Search / AI</text>
<text x="1655.0" y="645.0" text-anchor="middle" class="t">Start with:</text>
<text x="1655.0" y="663.0" text-anchor="middle" class="t">Part 05, 16, 17, 20, 24, 28</text>
<rect x="1970" y="560" width="430" height="170" rx="14" fill="#FFFFFF" stroke="#064E3B" stroke-width="2"/>
<text x="2185.0" y="627.0" text-anchor="middle" class="h">Ops / Support / Admin</text>
<text x="2185.0" y="645.0" text-anchor="middle" class="t">Start with:</text>
<text x="2185.0" y="663.0" text-anchor="middle" class="t">Part 11, 20, 25, 26, 18, 22</text>
<polyline points="550,315 650,315" fill="none" stroke="#4B5563" stroke-width="2" marker-end="url(#arrow)"/>
<text x="658" y="307" class="small">scope → contracts</text>
<polyline points="1080,315 1180,315" fill="none" stroke="#4B5563" stroke-width="2" marker-end="url(#arrow)"/>
<text x="1188" y="307" class="small">API → UI</text>
<polyline points="1080,315 1710,315" fill="none" stroke="#4B5563" stroke-width="2" marker-end="url(#arrow)"/>
<text x="1718" y="307" class="small">deploy/runtime</text>
<polyline points="810,645 910,645" fill="none" stroke="#F97316" stroke-width="2" marker-end="url(#arrowD)" stroke-dasharray="6 5"/>
<text x="918" y="637" class="small">risk/compliance</text>
<polyline points="1340,645 1970,645" fill="none" stroke="#F97316" stroke-width="2" marker-end="url(#arrowD)" stroke-dasharray="6 5"/>
<text x="1978" y="637" class="small">moderation ops</text>
<polyline points="1655,560 1655,470 335,470 335,400" fill="none" stroke="#F97316" stroke-width="2" marker-end="url(#arrowD)" stroke-dasharray="6 5"/>
<text x="343" y="462" class="small">insights</text>
<rect x="120" y="1010" width="1600" height="70" rx="12" fill="#FEF3C7" stroke="#F59E0B" stroke-width="2"/>
<text x="136" y="1034" class="t">Navigation rule:</text>
<text x="136" y="1052" class="t">New team members should not read all 28 parts linearly. Start from their team lane, then follow dependencies.</text>
</svg>
