<svg xmlns="http://www.w3.org/2000/svg" width="2600" height="1800" viewBox="0 0 2600 1800">
<defs><marker id="arrow" markerWidth="10" markerHeight="10" refX="8" refY="3" orient="auto"><path d="M0,0 L0,6 L9,3 z" fill="#4B5563"/></marker><marker id="arrowD" markerWidth="10" markerHeight="10" refX="8" refY="3" orient="auto"><path d="M0,0 L0,6 L9,3 z" fill="#F97316"/></marker>
<style>.title{font:700 24px Arial;fill:white}.h{font:700 12px Arial;fill:#111827}.t{font:400 11px Arial;fill:#111827}.small{font:400 11px Arial;fill:#4B5563}</style></defs>
<rect x="40" y="30" width="2520" height="60" rx="14" fill="#022C22"/><text x="1300.0" y="69" text-anchor="middle" class="title">Viaverse Final UML Index — Recommended Development Order</text>
<rect x="60" y="130" width="2480" height="1260" rx="10" fill="none" stroke="#022C22" stroke-width="2"/><text x="76" y="155" class="h">Recommended Development Order</text>
<rect x="120" y="230" width="420" height="170" rx="14" fill="#ECFDF5" stroke="#064E3B" stroke-width="2"/>
<text x="330.0" y="288.0" text-anchor="middle" class="h">1. Foundation</text>
<text x="330.0" y="306.0" text-anchor="middle" class="t">Part 26 + 27 + 19</text>
<text x="330.0" y="324.0" text-anchor="middle" class="t">Repo, CI/CD, docs, environments,</text>
<text x="330.0" y="342.0" text-anchor="middle" class="t">architecture rules, quality gates</text>
<rect x="650" y="230" width="420" height="170" rx="14" fill="#FFF7ED" stroke="#F97316" stroke-width="2"/>
<text x="860.0" y="288.0" text-anchor="middle" class="h">2. Identity/Profile/Taxonomy</text>
<text x="860.0" y="306.0" text-anchor="middle" class="t">Part 01 + 02 + 21 + 24</text>
<text x="860.0" y="324.0" text-anchor="middle" class="t">Login, account capability,</text>
<text x="860.0" y="342.0" text-anchor="middle" class="t">profile, locale, category model</text>
<rect x="1180" y="230" width="420" height="170" rx="14" fill="#EEF2FF" stroke="#6366F1" stroke-width="2"/>
<text x="1390.0" y="288.0" text-anchor="middle" class="h">3. Request Vertical Slice</text>
<text x="1390.0" y="306.0" text-anchor="middle" class="t">Part 03 + 04 + 05 + 06</text>
<text x="1390.0" y="324.0" text-anchor="middle" class="t">Create request, match, quote,</text>
<text x="1390.0" y="342.0" text-anchor="middle" class="t">notify, basic job lifecycle</text>
<rect x="1710" y="230" width="420" height="170" rx="14" fill="#FEF3C7" stroke="#F59E0B" stroke-width="2"/>
<text x="1920.0" y="288.0" text-anchor="middle" class="h">4. Chat/Media/Safety</text>
<text x="1920.0" y="306.0" text-anchor="middle" class="t">Part 07 + 10 + 25</text>
<text x="1920.0" y="324.0" text-anchor="middle" class="t">Attachments, chat, moderation,</text>
<text x="1920.0" y="342.0" text-anchor="middle" class="t">reporting, retention</text>
<rect x="380" y="560" width="420" height="170" rx="14" fill="#FFF7ED" stroke="#F97316" stroke-width="2"/>
<text x="590.0" y="618.0" text-anchor="middle" class="h">5. Payment/Trust</text>
<text x="590.0" y="636.0" text-anchor="middle" class="t">Part 08 + 09 + 15 + 18</text>
<text x="590.0" y="654.0" text-anchor="middle" class="t">Payment abstraction, review,</text>
<text x="590.0" y="672.0" text-anchor="middle" class="t">privacy/KVKK, audit</text>
<rect x="910" y="560" width="420" height="170" rx="14" fill="#FEF3C7" stroke="#F59E0B" stroke-width="2"/>
<text x="1120.0" y="618.0" text-anchor="middle" class="h">6. Business/Monetization</text>
<text x="1120.0" y="636.0" text-anchor="middle" class="t">Part 22 + 23</text>
<text x="1120.0" y="654.0" text-anchor="middle" class="t">Business account, catalog,</text>
<text x="1120.0" y="672.0" text-anchor="middle" class="t">subscription, commission, ads</text>
<rect x="1440" y="560" width="420" height="170" rx="14" fill="#EEF2FF" stroke="#6366F1" stroke-width="2"/>
<text x="1650.0" y="618.0" text-anchor="middle" class="h">7. Admin/Analytics/AI</text>
<text x="1650.0" y="636.0" text-anchor="middle" class="t">Part 11 + 17 + 20</text>
<text x="1650.0" y="654.0" text-anchor="middle" class="t">Backoffice, support, analytics,</text>
<text x="1650.0" y="672.0" text-anchor="middle" class="t">AI helper, observability</text>
<rect x="1970" y="560" width="420" height="170" rx="14" fill="#ECFDF5" stroke="#064E3B" stroke-width="2"/>
<text x="2180.0" y="618.0" text-anchor="middle" class="h">8. Launch/Scale Mastery</text>
<text x="2180.0" y="636.0" text-anchor="middle" class="t">Part 16 + 28</text>
<text x="2180.0" y="654.0" text-anchor="middle" class="t">SEO/growth, master topology,</text>
<text x="2180.0" y="672.0" text-anchor="middle" class="t">source ownership, launch readiness</text>
<polyline points="540,315 650,315" fill="none" stroke="#4B5563" stroke-width="2" marker-end="url(#arrow)"/>
<text x="658" y="307" class="small">foundation</text>
<polyline points="1070,315 1180,315" fill="none" stroke="#4B5563" stroke-width="2" marker-end="url(#arrow)"/>
<text x="1188" y="307" class="small">core domain</text>
<polyline points="1600,315 1710,315" fill="none" stroke="#4B5563" stroke-width="2" marker-end="url(#arrow)"/>
<text x="1718" y="307" class="small">conversation/media</text>
<polyline points="1920,400 1920,480 590,480 590,560" fill="none" stroke="#4B5563" stroke-width="2" marker-end="url(#arrow)"/>
<text x="598" y="472" class="small">safe transaction</text>
<polyline points="800,645 910,645" fill="none" stroke="#4B5563" stroke-width="2" marker-end="url(#arrow)"/>
<text x="918" y="637" class="small">merchant money</text>
<polyline points="1330,645 1440,645" fill="none" stroke="#4B5563" stroke-width="2" marker-end="url(#arrow)"/>
<text x="1448" y="637" class="small">ops intelligence</text>
<polyline points="1860,645 1970,645" fill="none" stroke="#4B5563" stroke-width="2" marker-end="url(#arrow)"/>
<text x="1978" y="637" class="small">launch</text>
<rect x="120" y="1080" width="1700" height="70" rx="12" fill="#FEF3C7" stroke="#F59E0B" stroke-width="2"/>
<text x="136" y="1104" class="t">Execution rule:</text>
<text x="136" y="1122" class="t">Build vertical slices in this order, but keep the target topology known from day one. Do not implement disconnected screens/services.</text>
</svg>
