<svg xmlns="http://www.w3.org/2000/svg" width="2600" height="1800" viewBox="0 0 2600 1800">
<defs><marker id="arrow" markerWidth="10" markerHeight="10" refX="8" refY="3" orient="auto"><path d="M0,0 L0,6 L9,3 z" fill="#4B5563"/></marker><marker id="arrowD" markerWidth="10" markerHeight="10" refX="8" refY="3" orient="auto"><path d="M0,0 L0,6 L9,3 z" fill="#F97316"/></marker>
<style>.title{font:700 24px Arial;fill:white}.h{font:700 12px Arial;fill:#111827}.t{font:400 11px Arial;fill:#111827}.small{font:400 11px Arial;fill:#4B5563}</style></defs>
<rect x="40" y="30" width="2520" height="60" rx="14" fill="#022C22"/><text x="1300.0" y="69" text-anchor="middle" class="title">Viaverse Final UML Index — Artifact Traceability Matrix</text>
<rect x="60" y="130" width="2480" height="1200" rx="10" fill="none" stroke="#022C22" stroke-width="2"/><text x="76" y="155" class="h">Artifact Traceability Matrix</text>
<rect x="120" y="240" width="430" height="170" rx="14" fill="#FFF7ED" stroke="#F97316" stroke-width="2"/>
<text x="335.0" y="298.0" text-anchor="middle" class="h">Blueprint / Product Decision</text>
<text x="335.0" y="316.0" text-anchor="middle" class="t">PRODUCT_MODEL.md</text>
<text x="335.0" y="334.0" text-anchor="middle" class="t">TECH_STACK_DECISIONS.md</text>
<text x="335.0" y="352.0" text-anchor="middle" class="t">ARCHITECTURE.md</text>
<rect x="650" y="240" width="430" height="170" rx="14" fill="#EEF2FF" stroke="#6366F1" stroke-width="2"/>
<text x="865.0" y="307.0" text-anchor="middle" class="h">UML Part</text>
<text x="865.0" y="325.0" text-anchor="middle" class="t">Use case / activity / sequence</text>
<text x="865.0" y="343.0" text-anchor="middle" class="t">component / class / state</text>
<rect x="1180" y="240" width="430" height="170" rx="14" fill="#FEF3C7" stroke="#F59E0B" stroke-width="2"/>
<text x="1395.0" y="307.0" text-anchor="middle" class="h">ADR</text>
<text x="1395.0" y="325.0" text-anchor="middle" class="t">Why this decision exists</text>
<text x="1395.0" y="343.0" text-anchor="middle" class="t">alternatives / consequences</text>
<rect x="1710" y="240" width="430" height="170" rx="14" fill="#ECFDF5" stroke="#064E3B" stroke-width="2"/>
<text x="1925.0" y="307.0" text-anchor="middle" class="h">Contract</text>
<text x="1925.0" y="325.0" text-anchor="middle" class="t">OpenAPI / event schema</text>
<text x="1925.0" y="343.0" text-anchor="middle" class="t">DTO / protobuf optional</text>
<rect x="380" y="560" width="430" height="170" rx="14" fill="#FFFFFF" stroke="#064E3B" stroke-width="2"/>
<text x="595.0" y="618.0" text-anchor="middle" class="h">Code</text>
<text x="595.0" y="636.0" text-anchor="middle" class="t">Backend use case</text>
<text x="595.0" y="654.0" text-anchor="middle" class="t">KMP feature</text>
<text x="595.0" y="672.0" text-anchor="middle" class="t">Infra module</text>
<rect x="910" y="560" width="430" height="170" rx="14" fill="#ECFDF5" stroke="#064E3B" stroke-width="2"/>
<text x="1125.0" y="627.0" text-anchor="middle" class="h">Test</text>
<text x="1125.0" y="645.0" text-anchor="middle" class="t">Unit / integration</text>
<text x="1125.0" y="663.0" text-anchor="middle" class="t">contract / arch / e2e</text>
<rect x="1440" y="560" width="430" height="170" rx="14" fill="#FFF7ED" stroke="#F97316" stroke-width="2"/>
<text x="1655.0" y="627.0" text-anchor="middle" class="h">Release Evidence</text>
<text x="1655.0" y="645.0" text-anchor="middle" class="t">CI result / deployment</text>
<text x="1655.0" y="663.0" text-anchor="middle" class="t">monitoring / rollback</text>
<rect x="1970" y="560" width="430" height="170" rx="14" fill="#FEF3C7" stroke="#F59E0B" stroke-width="2"/>
<text x="2185.0" y="618.0" text-anchor="middle" class="h">Runbook / Support</text>
<text x="2185.0" y="636.0" text-anchor="middle" class="t">admin workflow</text>
<text x="2185.0" y="654.0" text-anchor="middle" class="t">incident response</text>
<text x="2185.0" y="672.0" text-anchor="middle" class="t">customer support</text>
<polyline points="550,325 650,325" fill="none" stroke="#4B5563" stroke-width="2" marker-end="url(#arrow)"/>
<text x="658" y="317" class="small">visualized as</text>
<polyline points="1080,325 1180,325" fill="none" stroke="#4B5563" stroke-width="2" marker-end="url(#arrow)"/>
<text x="1188" y="317" class="small">decision captured</text>
<polyline points="1610,325 1710,325" fill="none" stroke="#4B5563" stroke-width="2" marker-end="url(#arrow)"/>
<text x="1718" y="317" class="small">contracted as</text>
<polyline points="1925,410 1925,490 595,490 595,560" fill="none" stroke="#4B5563" stroke-width="2" marker-end="url(#arrow)"/>
<text x="603" y="482" class="small">implemented in</text>
<polyline points="810,645 910,645" fill="none" stroke="#4B5563" stroke-width="2" marker-end="url(#arrow)"/>
<text x="918" y="637" class="small">verified by</text>
<polyline points="1340,645 1440,645" fill="none" stroke="#4B5563" stroke-width="2" marker-end="url(#arrow)"/>
<text x="1448" y="637" class="small">gates</text>
<polyline points="1870,645 1970,645" fill="none" stroke="#4B5563" stroke-width="2" marker-end="url(#arrow)"/>
<text x="1978" y="637" class="small">operated by</text>
<polyline points="2185,560 2185,470 335,470 335,410" fill="none" stroke="#F97316" stroke-width="2" marker-end="url(#arrowD)" stroke-dasharray="6 5"/>
<text x="343" y="462" class="small">feedback loop</text>
<rect x="120" y="1030" width="1800" height="70" rx="12" fill="#FEF3C7" stroke="#F59E0B" stroke-width="2"/>
<text x="136" y="1054" class="t">Traceability rule:</text>
<text x="136" y="1072" class="t">No important implementation should exist only in code or chat. It should trace back to blueprint/UML/ADR/contract/test/release evidence.</text>
</svg>
