<svg xmlns="http://www.w3.org/2000/svg" width="2300" height="1600" viewBox="0 0 2300 1600">
<defs>
<marker id="arrow" markerWidth="10" markerHeight="10" refX="8" refY="3" orient="auto" markerUnits="strokeWidth"><path d="M0,0 L0,6 L9,3 z" fill="#4B5563"/></marker>
<marker id="arrowDashed" markerWidth="10" markerHeight="10" refX="8" refY="3" orient="auto" markerUnits="strokeWidth"><path d="M0,0 L0,6 L9,3 z" fill="#F97316"/></marker>
<style>
.title { font: 700 24px Arial, sans-serif; fill: white; }
.h { font: 700 13px Arial, sans-serif; fill: #111827; }
.t { font: 400 12px Arial, sans-serif; fill: #111827; }
.small { font: 400 11px Arial, sans-serif; fill: #4B5563; }
</style>
</defs>
<rect x="40" y="30" width="2220" height="60" rx="14" fill="#022C22"/>
<text x="1150.0" y="69" text-anchor="middle" class="title">Viaverse Locale Resolution / Rendering — Activity Diagram</text>

<rect x="80" y="160" width="260" height="60" rx="14" fill="#022C22" stroke="#022C22" stroke-width="2"/>
<text x="210.0" y="181.0" text-anchor="middle" class="h">START</text>
<text x="210.0" y="201.0" text-anchor="middle" class="t">screen/page/request</text>
<rect x="430" y="140" width="280" height="75" rx="14" fill="#ECFDF5" stroke="#064E3B" stroke-width="2"/>
<text x="570.0" y="177.5" text-anchor="middle" class="h">Read profile locale</text>
<rect x="810" y="140" width="320" height="75" rx="14" fill="#FFFFFF" stroke="#064E3B" stroke-width="2"/>
<text x="970.0" y="177.5" text-anchor="middle" class="h">Read device/browser locale</text>
<rect x="1240" y="140" width="320" height="75" rx="14" fill="#FFFFFF" stroke="#064E3B" stroke-width="2"/>
<text x="1400.0" y="168.5" text-anchor="middle" class="h">Read route/country</text>
<text x="1400.0" y="188.5" text-anchor="middle" class="t">SEO locale</text>
<rect x="1640" y="130" width="300" height="90" rx="14" fill="#FFF7ED" stroke="#F97316" stroke-width="2"/>
<text x="1790.0" y="175.0" text-anchor="middle" class="h">Resolve effective locale</text>
<rect x="1640" y="340" width="220" height="80" rx="14" fill="#EEF2FF" stroke="#6366F1" stroke-width="2"/>
<text x="1750.0" y="380.0" text-anchor="middle" class="h">Supported?</text>
<rect x="1240" y="340" width="330" height="90" rx="14" fill="#FEF3C7" stroke="#F59E0B" stroke-width="2"/>
<text x="1405.0" y="376.0" text-anchor="middle" class="h">Apply fallback chain</text>
<text x="1405.0" y="396.0" text-anchor="middle" class="t">tr-TR → tr → en</text>
<rect x="810" y="340" width="350" height="90" rx="14" fill="#FFFFFF" stroke="#064E3B" stroke-width="2"/>
<text x="985.0" y="376.0" text-anchor="middle" class="h">Load translation bundle</text>
<text x="985.0" y="396.0" text-anchor="middle" class="t">and regional config</text>
<rect x="430" y="340" width="300" height="80" rx="14" fill="#FFFFFF" stroke="#064E3B" stroke-width="2"/>
<text x="580.0" y="380.0" text-anchor="middle" class="h">Format money/date/unit</text>
<rect x="430" y="560" width="260" height="75" rx="14" fill="#ECFDF5" stroke="#064E3B" stroke-width="2"/>
<text x="560.0" y="597.5" text-anchor="middle" class="h">Render UI/content</text>
<rect x="810" y="560" width="340" height="90" rx="14" fill="#FFF7ED" stroke="#F97316" stroke-width="2"/>
<text x="980.0" y="596.0" text-anchor="middle" class="h">If SEO page:</text>
<text x="980.0" y="616.0" text-anchor="middle" class="t">canonical/hreflang/schema</text>
<rect x="1240" y="560" width="330" height="90" rx="14" fill="#FFFFFF" stroke="#064E3B" stroke-width="2"/>
<text x="1405.0" y="596.0" text-anchor="middle" class="h">If notification:</text>
<text x="1405.0" y="616.0" text-anchor="middle" class="t">localized template</text>
<rect x="1240" y="780" width="330" height="80" rx="14" fill="#FEF3C7" stroke="#F59E0B" stroke-width="2"/>
<text x="1405.0" y="811.0" text-anchor="middle" class="h">Track missing keys</text>
<text x="1405.0" y="831.0" text-anchor="middle" class="t">quality event</text>
<rect x="810" y="780" width="280" height="75" rx="14" fill="#FFFFFF" stroke="#064E3B" stroke-width="2"/>
<text x="950.0" y="817.5" text-anchor="middle" class="h">Cache locale assets</text>
<rect x="430" y="800" width="150" height="55" rx="14" fill="#022C22" stroke="#022C22" stroke-width="2"/>
<text x="505.0" y="827.5" text-anchor="middle" class="h">END</text>
<polyline points="340,190 430,177" fill="none" stroke="#4B5563" stroke-width="2" marker-end="url(#arrow)"/>
<polyline points="710,177 810,177" fill="none" stroke="#4B5563" stroke-width="2" marker-end="url(#arrow)"/>
<polyline points="1130,177 1240,177" fill="none" stroke="#4B5563" stroke-width="2" marker-end="url(#arrow)"/>
<polyline points="1560,177 1640,175" fill="none" stroke="#4B5563" stroke-width="2" marker-end="url(#arrow)"/>
<polyline points="1790,220 1790,340" fill="none" stroke="#4B5563" stroke-width="2" marker-end="url(#arrow)"/>
<polyline points="1640,380 1570,385" fill="none" stroke="#F97316" stroke-width="2" marker-end="url(#arrowDashed)" stroke-dasharray="6 5"/>
<text x="1578" y="377" class="small">no</text>
<polyline points="1640,380 1160,385" fill="none" stroke="#4B5563" stroke-width="2" marker-end="url(#arrow)"/>
<text x="1168" y="377" class="small">yes</text>
<polyline points="1240,385 1160,385" fill="none" stroke="#4B5563" stroke-width="2" marker-end="url(#arrow)"/>
<polyline points="810,385 730,380" fill="none" stroke="#4B5563" stroke-width="2" marker-end="url(#arrow)"/>
<polyline points="580,420 580,560" fill="none" stroke="#4B5563" stroke-width="2" marker-end="url(#arrow)"/>
<polyline points="690,597 810,605" fill="none" stroke="#F97316" stroke-width="2" marker-end="url(#arrowDashed)" stroke-dasharray="6 5"/>
<text x="818" y="597" class="small">SEO branch</text>
<polyline points="690,597 1240,605" fill="none" stroke="#F97316" stroke-width="2" marker-end="url(#arrowDashed)" stroke-dasharray="6 5"/>
<text x="1248" y="597" class="small">notification branch</text>
<polyline points="980,650 1405,780" fill="none" stroke="#F97316" stroke-width="2" marker-end="url(#arrowDashed)" stroke-dasharray="6 5"/>
<text x="1413" y="772" class="small">missing translation</text>
<polyline points="1405,650 1405,780" fill="none" stroke="#F97316" stroke-width="2" marker-end="url(#arrowDashed)" stroke-dasharray="6 5"/>
<text x="1413" y="772" class="small">missing template</text>
<polyline points="1240,820 1090,817" fill="none" stroke="#4B5563" stroke-width="2" marker-end="url(#arrow)"/>
<polyline points="810,817 580,827" fill="none" stroke="#4B5563" stroke-width="2" marker-end="url(#arrow)"/>
<rect x="330" y="1060" width="1450" height="60" rx="12" fill="#FEF3C7" stroke="#F59E0B" stroke-width="2"/>
<text x="346" y="1084" class="t">Fallback rule:</text>
<text x="346" y="1102" class="t">Missing translation must not break the app. It falls back visibly in logs/quality metrics, not silently forever.</text>
</svg>
