<svg xmlns="http://www.w3.org/2000/svg" width="2300" height="1600" viewBox="0 0 2300 1600">
<defs>
<marker id="arrow" markerWidth="10" markerHeight="10" refX="8" refY="3" orient="auto" markerUnits="strokeWidth"><path d="M0,0 L0,6 L9,3 z" fill="#4B5563"/></marker>
<marker id="arrowDashed" markerWidth="10" markerHeight="10" refX="8" refY="3" orient="auto" markerUnits="strokeWidth"><path d="M0,0 L0,6 L9,3 z" fill="#F97316"/></marker>
<style>
.title { font: 700 24px Arial, sans-serif; fill: white; }
.h { font: 700 13px Arial, sans-serif; fill: #111827; }
.t { font: 400 12px Arial, sans-serif; fill: #111827; }
.small { font: 400 11px Arial, sans-serif; fill: #4B5563; }
</style>
</defs>
<rect x="40" y="30" width="2220" height="60" rx="14" fill="#022C22"/>
<text x="1150.0" y="69" text-anchor="middle" class="title">Viaverse Localization / Regionalization — Component Diagram</text>

<rect x="80" y="170" width="340" height="140" rx="14" fill="#FFF7ED" stroke="#F97316" stroke-width="2"/>
<text x="250.0" y="204.0" text-anchor="middle" class="h">KMP / Next.js Client</text>
<text x="250.0" y="224.0" text-anchor="middle" class="t">--</text>
<text x="250.0" y="244.0" text-anchor="middle" class="t">resource bundles</text>
<text x="250.0" y="264.0" text-anchor="middle" class="t">locale selector</text>
<text x="250.0" y="284.0" text-anchor="middle" class="t">RTL-ready layout</text>
<rect x="520" y="170" width="340" height="130" rx="14" fill="#ECFDF5" stroke="#064E3B" stroke-width="2"/>
<text x="690.0" y="208.0" text-anchor="middle" class="h">API Gateway / BFF</text>
<text x="690.0" y="228.0" text-anchor="middle" class="t">--</text>
<text x="690.0" y="248.0" text-anchor="middle" class="t">locale headers</text>
<text x="690.0" y="268.0" text-anchor="middle" class="t">localized DTO facade</text>
<rect x="960" y="140" width="360" height="100" rx="14" fill="#FFFFFF" stroke="#064E3B" stroke-width="2"/>
<text x="1140.0" y="181.0" text-anchor="middle" class="h">LocalizationController</text>
<text x="1140.0" y="201.0" text-anchor="middle" class="t">TranslationAdminController</text>
<rect x="960" y="320" width="390" height="180" rx="14" fill="#FFFFFF" stroke="#064E3B" stroke-width="2"/>
<text x="1155.0" y="365.0" text-anchor="middle" class="h">Localization Use Cases</text>
<text x="1155.0" y="385.0" text-anchor="middle" class="t">--</text>
<text x="1155.0" y="405.0" text-anchor="middle" class="t">ResolveLocale</text>
<text x="1155.0" y="425.0" text-anchor="middle" class="t">RenderTemplate</text>
<text x="1155.0" y="445.0" text-anchor="middle" class="t">PublishTranslation</text>
<text x="1155.0" y="465.0" text-anchor="middle" class="t">GenerateSeoLocalePage</text>
<rect x="960" y="590" width="390" height="190" rx="14" fill="#FFFFFF" stroke="#064E3B" stroke-width="2"/>
<text x="1155.0" y="640.0" text-anchor="middle" class="h">Localization Policies</text>
<text x="1155.0" y="660.0" text-anchor="middle" class="t">--</text>
<text x="1155.0" y="680.0" text-anchor="middle" class="t">fallback chain</text>
<text x="1155.0" y="700.0" text-anchor="middle" class="t">regional availability</text>
<text x="1155.0" y="720.0" text-anchor="middle" class="t">legal/currency rules</text>
<text x="1155.0" y="740.0" text-anchor="middle" class="t">quality gates</text>
<rect x="960" y="880" width="390" height="190" rx="14" fill="#FFFFFF" stroke="#064E3B" stroke-width="2"/>
<text x="1155.0" y="930.0" text-anchor="middle" class="h">Ports</text>
<text x="1155.0" y="950.0" text-anchor="middle" class="t">TranslationRepo</text>
<text x="1155.0" y="970.0" text-anchor="middle" class="t">RegionalConfigRepo</text>
<text x="1155.0" y="990.0" text-anchor="middle" class="t">CatalogLocalePort</text>
<text x="1155.0" y="1010.0" text-anchor="middle" class="t">PricingLocalePort</text>
<text x="1155.0" y="1030.0" text-anchor="middle" class="t">OutboxPort</text>
<rect x="1430" y="210" width="360" height="160" rx="14" fill="#FFFFFF" stroke="#064E3B" stroke-width="2"/>
<text x="1610.0" y="245.0" text-anchor="middle" class="h">Translation Store</text>
<text x="1610.0" y="265.0" text-anchor="middle" class="t">--</text>
<text x="1610.0" y="285.0" text-anchor="middle" class="t">keys</text>
<text x="1610.0" y="305.0" text-anchor="middle" class="t">messages</text>
<text x="1610.0" y="325.0" text-anchor="middle" class="t">templates</text>
<text x="1610.0" y="345.0" text-anchor="middle" class="t">versions</text>
<rect x="1430" y="500" width="360" height="160" rx="14" fill="#FFFFFF" stroke="#064E3B" stroke-width="2"/>
<text x="1610.0" y="553.0" text-anchor="middle" class="h">taxonomy-service</text>
<text x="1610.0" y="573.0" text-anchor="middle" class="t">--</text>
<text x="1610.0" y="593.0" text-anchor="middle" class="t">canonical category IDs</text>
<text x="1610.0" y="613.0" text-anchor="middle" class="t">localized names/tags</text>
<rect x="1430" y="800" width="360" height="160" rx="14" fill="#FEF3C7" stroke="#F59E0B" stroke-width="2"/>
<text x="1610.0" y="844.0" text-anchor="middle" class="h">pricing/config-service</text>
<text x="1610.0" y="864.0" text-anchor="middle" class="t">--</text>
<text x="1610.0" y="884.0" text-anchor="middle" class="t">currency</text>
<text x="1610.0" y="904.0" text-anchor="middle" class="t">tax/fees</text>
<text x="1610.0" y="924.0" text-anchor="middle" class="t">country rules</text>
<rect x="1810" y="210" width="360" height="170" rx="14" fill="#EEF2FF" stroke="#6366F1" stroke-width="2"/>
<text x="1990.0" y="259.0" text-anchor="middle" class="h">SEO / Search</text>
<text x="1990.0" y="279.0" text-anchor="middle" class="t">--</text>
<text x="1990.0" y="299.0" text-anchor="middle" class="t">localized slugs</text>
<text x="1990.0" y="319.0" text-anchor="middle" class="t">hreflang</text>
<text x="1990.0" y="339.0" text-anchor="middle" class="t">schema.org</text>
<rect x="1810" y="520" width="360" height="160" rx="14" fill="#FFFFFF" stroke="#064E3B" stroke-width="2"/>
<text x="1990.0" y="573.0" text-anchor="middle" class="h">notification-service</text>
<text x="1990.0" y="593.0" text-anchor="middle" class="t">--</text>
<text x="1990.0" y="613.0" text-anchor="middle" class="t">localized templates</text>
<text x="1990.0" y="633.0" text-anchor="middle" class="t">quiet hour timezone</text>
<rect x="1810" y="830" width="360" height="160" rx="14" fill="#FFF7ED" stroke="#F97316" stroke-width="2"/>
<text x="1990.0" y="874.0" text-anchor="middle" class="h">Kafka / Outbox</text>
<text x="1990.0" y="894.0" text-anchor="middle" class="t">--</text>
<text x="1990.0" y="914.0" text-anchor="middle" class="t">LocaleChanged</text>
<text x="1990.0" y="934.0" text-anchor="middle" class="t">TranslationPublished</text>
<text x="1990.0" y="954.0" text-anchor="middle" class="t">MissingKeyDetected</text>
<polyline points="420,240 520,235" fill="none" stroke="#4B5563" stroke-width="2" marker-end="url(#arrow)"/>
<text x="528" y="227" class="small">locale header</text>
<polyline points="860,235 910,235 910,190 960,190" fill="none" stroke="#4B5563" stroke-width="2" marker-end="url(#arrow)"/>
<text x="918" y="182" class="small">REST</text>
<polyline points="1140,240 1140,320" fill="none" stroke="#4B5563" stroke-width="2" marker-end="url(#arrow)"/>
<text x="1148" y="312" class="small">command/query</text>
<polyline points="1155,500 1155,590" fill="none" stroke="#4B5563" stroke-width="2" marker-end="url(#arrow)"/>
<text x="1163" y="582" class="small">validate</text>
<polyline points="1155,780 1155,880" fill="none" stroke="#4B5563" stroke-width="2" marker-end="url(#arrow)"/>
<text x="1163" y="872" class="small">ports</text>
<polyline points="1350,975 1385,975 1385,290 1430,290" fill="none" stroke="#4B5563" stroke-width="2" marker-end="url(#arrow)"/>
<text x="1393" y="282" class="small">translations</text>
<polyline points="1350,975 1385,975 1385,580 1430,580" fill="none" stroke="#4B5563" stroke-width="2" marker-end="url(#arrow)"/>
<text x="1393" y="572" class="small">localized catalog</text>
<polyline points="1350,975 1430,880" fill="none" stroke="#4B5563" stroke-width="2" marker-end="url(#arrow)"/>
<text x="1438" y="872" class="small">regional pricing</text>
<polyline points="1350,410 1810,295" fill="none" stroke="#4B5563" stroke-width="2" marker-end="url(#arrow)"/>
<text x="1818" y="287" class="small">SEO publish</text>
<polyline points="1350,410 1810,600" fill="none" stroke="#4B5563" stroke-width="2" marker-end="url(#arrow)"/>
<text x="1818" y="592" class="small">template publish</text>
<polyline points="1350,410 1810,910" fill="none" stroke="#4B5563" stroke-width="2" marker-end="url(#arrow)"/>
<text x="1818" y="902" class="small">events</text>
<rect x="80" y="1240" width="1750" height="65" rx="12" fill="#FEF3C7" stroke="#F59E0B" stroke-width="2"/>
<text x="96" y="1264" class="t">Component rule:</text>
<text x="96" y="1282" class="t">Canonical domain values stay language-neutral. Localization layer converts IDs/values into locale-specific labels, slugs, templates and formats.</text>
</svg>
