<svg xmlns="http://www.w3.org/2000/svg" width="2200" height="1550" viewBox="0 0 2200 1550">
<defs>
<marker id="arrow" markerWidth="10" markerHeight="10" refX="8" refY="3" orient="auto" markerUnits="strokeWidth"><path d="M0,0 L0,6 L9,3 z" fill="#4B5563"/></marker>
<marker id="arrowDashed" markerWidth="10" markerHeight="10" refX="8" refY="3" orient="auto" markerUnits="strokeWidth"><path d="M0,0 L0,6 L9,3 z" fill="#F97316"/></marker>
<style>
.title { font: 700 24px Arial, sans-serif; fill: white; }
.h { font: 700 13px Arial, sans-serif; fill: #111827; }
.t { font: 400 12px Arial, sans-serif; fill: #111827; }
.small { font: 400 11px Arial, sans-serif; fill: #4B5563; }
</style>
</defs>
<rect x="40" y="30" width="2120" height="60" rx="14" fill="#022C22"/>
<text x="1100.0" y="69" text-anchor="middle" class="title">Viaverse Admin / Moderation Action — Sequence Diagram</text>

<rect x="80" y="140" width="185" height="60" rx="14" fill="#FFFFFF" stroke="#064E3B" stroke-width="2"/>
<text x="172.5" y="170.0" text-anchor="middle" class="h">Admin UI</text>
<rect x="171" y="220" width="2" height="1030" rx="14" fill="#E5E7EB" stroke="#E5E7EB" stroke-width="2"/>
<text x="172.0" y="735.0" text-anchor="middle" class="h"></text>
<rect x="330" y="140" width="185" height="60" rx="14" fill="#FFFFFF" stroke="#064E3B" stroke-width="2"/>
<text x="422.5" y="170.0" text-anchor="middle" class="h">Admin BFF</text>
<rect x="421" y="220" width="2" height="1030" rx="14" fill="#E5E7EB" stroke="#E5E7EB" stroke-width="2"/>
<text x="422.0" y="735.0" text-anchor="middle" class="h"></text>
<rect x="600" y="140" width="185" height="60" rx="14" fill="#FFFFFF" stroke="#064E3B" stroke-width="2"/>
<text x="692.5" y="170.0" text-anchor="middle" class="h">identity-service</text>
<rect x="691" y="220" width="2" height="1030" rx="14" fill="#E5E7EB" stroke="#E5E7EB" stroke-width="2"/>
<text x="692.0" y="735.0" text-anchor="middle" class="h"></text>
<rect x="870" y="140" width="185" height="60" rx="14" fill="#ECFDF5" stroke="#064E3B" stroke-width="2"/>
<text x="962.5" y="170.0" text-anchor="middle" class="h">admin-ops-service</text>
<rect x="961" y="220" width="2" height="1030" rx="14" fill="#E5E7EB" stroke="#E5E7EB" stroke-width="2"/>
<text x="962.0" y="735.0" text-anchor="middle" class="h"></text>
<rect x="1140" y="140" width="185" height="60" rx="14" fill="#FFFFFF" stroke="#064E3B" stroke-width="2"/>
<text x="1232.5" y="170.0" text-anchor="middle" class="h">Domain Service</text>
<rect x="1231" y="220" width="2" height="1030" rx="14" fill="#E5E7EB" stroke="#E5E7EB" stroke-width="2"/>
<text x="1232.0" y="735.0" text-anchor="middle" class="h"></text>
<rect x="1410" y="140" width="185" height="60" rx="14" fill="#FFFFFF" stroke="#064E3B" stroke-width="2"/>
<text x="1502.5" y="170.0" text-anchor="middle" class="h">audit-service</text>
<rect x="1501" y="220" width="2" height="1030" rx="14" fill="#E5E7EB" stroke="#E5E7EB" stroke-width="2"/>
<text x="1502.0" y="735.0" text-anchor="middle" class="h"></text>
<rect x="1680" y="140" width="185" height="60" rx="14" fill="#FFFFFF" stroke="#064E3B" stroke-width="2"/>
<text x="1772.5" y="170.0" text-anchor="middle" class="h">PostgreSQL</text>
<rect x="1771" y="220" width="2" height="1030" rx="14" fill="#E5E7EB" stroke="#E5E7EB" stroke-width="2"/>
<text x="1772.0" y="735.0" text-anchor="middle" class="h"></text>
<rect x="1940" y="140" width="185" height="60" rx="14" fill="#FFFFFF" stroke="#064E3B" stroke-width="2"/>
<text x="2032.5" y="170.0" text-anchor="middle" class="h">Outbox / Kafka</text>
<rect x="2031" y="220" width="2" height="1030" rx="14" fill="#E5E7EB" stroke="#E5E7EB" stroke-width="2"/>
<text x="2032.0" y="735.0" text-anchor="middle" class="h"></text>
<polyline points="265,260 330,260" fill="none" stroke="#4B5563" stroke-width="2" marker-end="url(#arrow)"/>
<text x="338" y="252" class="small">POST /admin/actions</text>
<polyline points="515,310 600,310" fill="none" stroke="#4B5563" stroke-width="2" marker-end="url(#arrow)"/>
<text x="608" y="302" class="small">validate admin session + MFA</text>
<polyline points="515,390 870,390" fill="none" stroke="#4B5563" stroke-width="2" marker-end="url(#arrow)"/>
<text x="878" y="382" class="small">performAction(command)</text>
<polyline points="870,450 785,450" fill="none" stroke="#4B5563" stroke-width="2" marker-end="url(#arrow)"/>
<text x="793" y="442" class="small">check permission/resource scope</text>
<polyline points="1055,540 1140,540" fill="none" stroke="#4B5563" stroke-width="2" marker-end="url(#arrow)"/>
<text x="1148" y="532" class="small">apply moderation/domain action</text>
<polyline points="1325,600 1680,600" fill="none" stroke="#4B5563" stroke-width="2" marker-end="url(#arrow)"/>
<text x="1688" y="592" class="small">update target state</text>
<polyline points="1055,680 1410,680" fill="none" stroke="#4B5563" stroke-width="2" marker-end="url(#arrow)"/>
<text x="1418" y="672" class="small">write audit log</text>
<polyline points="1595,740 1680,740" fill="none" stroke="#4B5563" stroke-width="2" marker-end="url(#arrow)"/>
<text x="1688" y="732" class="small">append immutable audit record</text>
<polyline points="1055,820 1680,820" fill="none" stroke="#4B5563" stroke-width="2" marker-end="url(#arrow)"/>
<text x="1688" y="812" class="small">store admin case/action</text>
<polyline points="1055,900 1940,900" fill="none" stroke="#4B5563" stroke-width="2" marker-end="url(#arrow)"/>
<text x="1948" y="892" class="small">AdminActionApplied</text>
<polyline points="1940,980 1840,980 1840,1280 170,1280 170,980" fill="none" stroke="#4B5563" stroke-width="2" marker-end="url(#arrow)"/>
<text x="1848" y="1272" class="small">case update / notification</text>
<rect x="80" y="1360" width="1700" height="60" rx="12" fill="#FEF3C7" stroke="#F59E0B" stroke-width="2"/>
<text x="96" y="1384" class="t">Sequence focus:</text>
<text x="96" y="1402" class="t">Admin BFF authenticates admin session. admin-ops-service orchestrates action. Domain service owns target state. Audit is mandatory.</text>
</svg>
