<svg xmlns="http://www.w3.org/2000/svg" width="2200" height="1550" viewBox="0 0 2200 1550">
<defs>
<marker id="arrow" markerWidth="10" markerHeight="10" refX="8" refY="3" orient="auto" markerUnits="strokeWidth"><path d="M0,0 L0,6 L9,3 z" fill="#4B5563"/></marker>
<marker id="arrowDashed" markerWidth="10" markerHeight="10" refX="8" refY="3" orient="auto" markerUnits="strokeWidth"><path d="M0,0 L0,6 L9,3 z" fill="#F97316"/></marker>
<style>
.title { font: 700 24px Arial, sans-serif; fill: white; }
.h { font: 700 13px Arial, sans-serif; fill: #111827; }
.t { font: 400 12px Arial, sans-serif; fill: #111827; }
.small { font: 400 11px Arial, sans-serif; fill: #4B5563; }
</style>
</defs>
<rect x="40" y="30" width="2120" height="60" rx="14" fill="#022C22"/>
<text x="1100.0" y="69" text-anchor="middle" class="title">Viaverse Admin / Moderation / Ops — Class Model</text>

<rect x="80" y="150" width="410" height="290" rx="14" fill="#FFFFFF" stroke="#064E3B" stroke-width="2"/>
<text x="285.0" y="205.0" text-anchor="middle" class="h">AdminCase</text>
<text x="285.0" y="225.0" text-anchor="middle" class="t">--</text>
<text x="285.0" y="245.0" text-anchor="middle" class="t">id: AdminCaseId</text>
<text x="285.0" y="265.0" text-anchor="middle" class="t">caseType: MODERATION | SUPPORT | DISPUTE | CONFIG</text>
<text x="285.0" y="285.0" text-anchor="middle" class="t">status: CaseStatus</text>
<text x="285.0" y="305.0" text-anchor="middle" class="t">subjectType: SubjectType</text>
<text x="285.0" y="325.0" text-anchor="middle" class="t">subjectId: UUID</text>
<text x="285.0" y="345.0" text-anchor="middle" class="t">priority: Priority</text>
<text x="285.0" y="365.0" text-anchor="middle" class="t">assignedTo: AccountId?</text>
<text x="285.0" y="385.0" text-anchor="middle" class="t">createdAt: Instant</text>
<text x="285.0" y="405.0" text-anchor="middle" class="t">closedAt: Instant?</text>
<rect x="590" y="150" width="410" height="270" rx="14" fill="#FFFFFF" stroke="#064E3B" stroke-width="2"/>
<text x="795.0" y="204.0" text-anchor="middle" class="h">AdminAction</text>
<text x="795.0" y="224.0" text-anchor="middle" class="t">--</text>
<text x="795.0" y="244.0" text-anchor="middle" class="t">id: UUID</text>
<text x="795.0" y="264.0" text-anchor="middle" class="t">caseId: AdminCaseId</text>
<text x="795.0" y="284.0" text-anchor="middle" class="t">actorAccountId: AccountId</text>
<text x="795.0" y="304.0" text-anchor="middle" class="t">actionType: AdminActionType</text>
<text x="795.0" y="324.0" text-anchor="middle" class="t">reason: String</text>
<text x="795.0" y="344.0" text-anchor="middle" class="t">evidenceRefs: List&lt;UUID&gt;</text>
<text x="795.0" y="364.0" text-anchor="middle" class="t">resultStatus: ActionResultStatus</text>
<text x="795.0" y="384.0" text-anchor="middle" class="t">createdAt: Instant</text>
<rect x="1100" y="150" width="390" height="220" rx="14" fill="#FFFFFF" stroke="#064E3B" stroke-width="2"/>
<text x="1295.0" y="197.0" text-anchor="middle" class="h">AdminPermission</text>
<text x="1295.0" y="217.0" text-anchor="middle" class="t">--</text>
<text x="1295.0" y="237.0" text-anchor="middle" class="t">roleCode: String</text>
<text x="1295.0" y="257.0" text-anchor="middle" class="t">resourceType: String</text>
<text x="1295.0" y="277.0" text-anchor="middle" class="t">action: String</text>
<text x="1295.0" y="297.0" text-anchor="middle" class="t">scopeRule: String</text>
<text x="1295.0" y="317.0" text-anchor="middle" class="t">requiresMfa: Boolean</text>
<text x="1295.0" y="337.0" text-anchor="middle" class="t">requiresReason: Boolean</text>
<rect x="1590" y="150" width="420" height="290" rx="14" fill="#FFFFFF" stroke="#064E3B" stroke-width="2"/>
<text x="1800.0" y="205.0" text-anchor="middle" class="h">AuditRecord</text>
<text x="1800.0" y="225.0" text-anchor="middle" class="t">--</text>
<text x="1800.0" y="245.0" text-anchor="middle" class="t">id: UUID</text>
<text x="1800.0" y="265.0" text-anchor="middle" class="t">actorAccountId: AccountId</text>
<text x="1800.0" y="285.0" text-anchor="middle" class="t">action: String</text>
<text x="1800.0" y="305.0" text-anchor="middle" class="t">resourceType: String</text>
<text x="1800.0" y="325.0" text-anchor="middle" class="t">resourceId: UUID</text>
<text x="1800.0" y="345.0" text-anchor="middle" class="t">reason: String?</text>
<text x="1800.0" y="365.0" text-anchor="middle" class="t">beforeHash: String?</text>
<text x="1800.0" y="385.0" text-anchor="middle" class="t">afterHash: String?</text>
<text x="1800.0" y="405.0" text-anchor="middle" class="t">createdAt: Instant</text>
<rect x="80" y="560" width="410" height="220" rx="14" fill="#FFFFFF" stroke="#064E3B" stroke-width="2"/>
<text x="285.0" y="598.0" text-anchor="middle" class="h">Appeal</text>
<text x="285.0" y="618.0" text-anchor="middle" class="t">--</text>
<text x="285.0" y="638.0" text-anchor="middle" class="t">id: UUID</text>
<text x="285.0" y="658.0" text-anchor="middle" class="t">caseId: AdminCaseId</text>
<text x="285.0" y="678.0" text-anchor="middle" class="t">submittedBy: AccountId</text>
<text x="285.0" y="698.0" text-anchor="middle" class="t">status: AppealStatus</text>
<text x="285.0" y="718.0" text-anchor="middle" class="t">message: String</text>
<text x="285.0" y="738.0" text-anchor="middle" class="t">resolvedBy: AccountId?</text>
<text x="285.0" y="758.0" text-anchor="middle" class="t">resolvedAt: Instant?</text>
<rect x="590" y="560" width="410" height="240" rx="14" fill="#FFFFFF" stroke="#064E3B" stroke-width="2"/>
<text x="795.0" y="608.0" text-anchor="middle" class="h">PlatformConfigChange</text>
<text x="795.0" y="628.0" text-anchor="middle" class="t">--</text>
<text x="795.0" y="648.0" text-anchor="middle" class="t">id: UUID</text>
<text x="795.0" y="668.0" text-anchor="middle" class="t">configKey: String</text>
<text x="795.0" y="688.0" text-anchor="middle" class="t">oldValueHash: String</text>
<text x="795.0" y="708.0" text-anchor="middle" class="t">newValueHash: String</text>
<text x="795.0" y="728.0" text-anchor="middle" class="t">changedBy: AccountId</text>
<text x="795.0" y="748.0" text-anchor="middle" class="t">reason: String</text>
<text x="795.0" y="768.0" text-anchor="middle" class="t">effectiveAt: Instant</text>
<rect x="1100" y="560" width="390" height="230" rx="14" fill="#FFFFFF" stroke="#064E3B" stroke-width="2"/>
<text x="1295.0" y="612.0" text-anchor="middle" class="h">AdminPolicy</text>
<text x="1295.0" y="632.0" text-anchor="middle" class="t">--</text>
<text x="1295.0" y="652.0" text-anchor="middle" class="t">canViewCase()</text>
<text x="1295.0" y="672.0" text-anchor="middle" class="t">canApplyAction()</text>
<text x="1295.0" y="692.0" text-anchor="middle" class="t">requiresReason()</text>
<text x="1295.0" y="712.0" text-anchor="middle" class="t">requiresMfa()</text>
<text x="1295.0" y="732.0" text-anchor="middle" class="t">canAccessPrivateContent()</text>
<text x="1295.0" y="752.0" text-anchor="middle" class="t">canApproveMoneyAction()</text>
<rect x="1590" y="560" width="400" height="230" rx="14" fill="#FFFFFF" stroke="#064E3B" stroke-width="2"/>
<text x="1790.0" y="612.0" text-anchor="middle" class="h">Admin Events</text>
<text x="1790.0" y="632.0" text-anchor="middle" class="t">--</text>
<text x="1790.0" y="652.0" text-anchor="middle" class="t">AdminCaseOpened</text>
<text x="1790.0" y="672.0" text-anchor="middle" class="t">AdminActionApplied</text>
<text x="1790.0" y="692.0" text-anchor="middle" class="t">AppealSubmitted</text>
<text x="1790.0" y="712.0" text-anchor="middle" class="t">AppealResolved</text>
<text x="1790.0" y="732.0" text-anchor="middle" class="t">ConfigChanged</text>
<text x="1790.0" y="752.0" text-anchor="middle" class="t">AdminAccessDenied</text>
<polyline points="490,270 590,260" fill="none" stroke="#4B5563" stroke-width="2" marker-end="url(#arrow)"/>
<text x="598" y="252" class="small">1 -&gt; many</text>
<polyline points="1000,285 1590,285" fill="none" stroke="#4B5563" stroke-width="2" marker-end="url(#arrow)"/>
<text x="1598" y="277" class="small">creates</text>
<polyline points="1295,370 1295,560" fill="none" stroke="#4B5563" stroke-width="2" marker-end="url(#arrow)"/>
<text x="1303" y="552" class="small">input</text>
<polyline points="1100,650 1000,285" fill="none" stroke="#F97316" stroke-width="2" marker-end="url(#arrowDashed)" stroke-dasharray="6 5"/>
<text x="1008" y="277" class="small">validates</text>
<polyline points="285,440 285,560" fill="none" stroke="#4B5563" stroke-width="2" marker-end="url(#arrow)"/>
<text x="293" y="552" class="small">1 -&gt; many</text>
<polyline points="1000,680 1590,285" fill="none" stroke="#4B5563" stroke-width="2" marker-end="url(#arrow)"/>
<text x="1598" y="277" class="small">creates</text>
<polyline points="490,410 1790,410 1790,560" fill="none" stroke="#4B5563" stroke-width="2" marker-end="url(#arrow)"/>
<text x="1798" y="402" class="small">emits</text>
<polyline points="1000,410 1790,410 1790,560" fill="none" stroke="#4B5563" stroke-width="2" marker-end="url(#arrow)"/>
<text x="1798" y="402" class="small">emits</text>
<polyline points="490,670 1590,670" fill="none" stroke="#4B5563" stroke-width="2" marker-end="url(#arrow)"/>
<text x="1598" y="662" class="small">emits</text>
<polyline points="1000,680 1590,680" fill="none" stroke="#4B5563" stroke-width="2" marker-end="url(#arrow)"/>
<text x="1598" y="672" class="small">emits</text>
<rect x="80" y="1020" width="1500" height="60" rx="12" fill="#FEF3C7" stroke="#F59E0B" stroke-width="2"/>
<text x="96" y="1044" class="t">Audit rule:</text>
<text x="96" y="1062" class="t">AdminAction without reason is invalid for destructive, privacy-sensitive, money or suspension actions.</text>
</svg>
