<svg xmlns="http://www.w3.org/2000/svg" width="2450" height="1700" viewBox="0 0 2450 1700">
<defs><marker id="arrow" markerWidth="10" markerHeight="10" refX="8" refY="3" orient="auto"><path d="M0,0 L0,6 L9,3 z" fill="#4B5563"/></marker><marker id="arrowD" markerWidth="10" markerHeight="10" refX="8" refY="3" orient="auto"><path d="M0,0 L0,6 L9,3 z" fill="#F97316"/></marker>
<style>.title{font:700 24px Arial;fill:white}.h{font:700 12px Arial;fill:#111827}.t{font:400 11px Arial;fill:#111827}.small{font:400 11px Arial;fill:#4B5563}</style></defs>
<rect x="40" y="30" width="2370" height="60" rx="14" fill="#022C22"/><text x="1225.0" y="69" text-anchor="middle" class="title">Viaverse API/Event Contract Ownership — Sequence Diagram</text>
<rect x="80" y="140" width="200" height="60" rx="14" fill="#FFFFFF" stroke="#064E3B" stroke-width="2"/>
<text x="180.0" y="170.0" text-anchor="middle" class="h">Developer</text>
<rect x="350" y="140" width="200" height="60" rx="14" fill="#FFFFFF" stroke="#064E3B" stroke-width="2"/>
<text x="450.0" y="170.0" text-anchor="middle" class="h">Docs / ADR</text>
<rect x="620" y="140" width="200" height="60" rx="14" fill="#FFFFFF" stroke="#064E3B" stroke-width="2"/>
<text x="720.0" y="170.0" text-anchor="middle" class="h">Backend Service</text>
<rect x="890" y="140" width="200" height="60" rx="14" fill="#ECFDF5" stroke="#064E3B" stroke-width="2"/>
<text x="990.0" y="170.0" text-anchor="middle" class="h">contracts/</text>
<rect x="1160" y="140" width="200" height="60" rx="14" fill="#FFFFFF" stroke="#064E3B" stroke-width="2"/>
<text x="1260.0" y="170.0" text-anchor="middle" class="h">CI Contract Tests</text>
<rect x="1430" y="140" width="200" height="60" rx="14" fill="#FFFFFF" stroke="#064E3B" stroke-width="2"/>
<text x="1530.0" y="170.0" text-anchor="middle" class="h">KMP Client</text>
<rect x="1700" y="140" width="200" height="60" rx="14" fill="#FFFFFF" stroke="#064E3B" stroke-width="2"/>
<text x="1800.0" y="170.0" text-anchor="middle" class="h">BFF/Gateway</text>
<rect x="1970" y="140" width="200" height="60" rx="14" fill="#FFFFFF" stroke="#064E3B" stroke-width="2"/>
<text x="2070.0" y="170.0" text-anchor="middle" class="h">Release Gate</text>
<rect x="179" y="220" width="2" height="1030" rx="14" fill="#E5E7EB" stroke="#E5E7EB" stroke-width="2"/>
<text x="180.0" y="735.0" text-anchor="middle" class="h"></text>
<rect x="449" y="220" width="2" height="1030" rx="14" fill="#E5E7EB" stroke="#E5E7EB" stroke-width="2"/>
<text x="450.0" y="735.0" text-anchor="middle" class="h"></text>
<rect x="719" y="220" width="2" height="1030" rx="14" fill="#E5E7EB" stroke="#E5E7EB" stroke-width="2"/>
<text x="720.0" y="735.0" text-anchor="middle" class="h"></text>
<rect x="989" y="220" width="2" height="1030" rx="14" fill="#E5E7EB" stroke="#E5E7EB" stroke-width="2"/>
<text x="990.0" y="735.0" text-anchor="middle" class="h"></text>
<rect x="1259" y="220" width="2" height="1030" rx="14" fill="#E5E7EB" stroke="#E5E7EB" stroke-width="2"/>
<text x="1260.0" y="735.0" text-anchor="middle" class="h"></text>
<rect x="1529" y="220" width="2" height="1030" rx="14" fill="#E5E7EB" stroke="#E5E7EB" stroke-width="2"/>
<text x="1530.0" y="735.0" text-anchor="middle" class="h"></text>
<rect x="1799" y="220" width="2" height="1030" rx="14" fill="#E5E7EB" stroke="#E5E7EB" stroke-width="2"/>
<text x="1800.0" y="735.0" text-anchor="middle" class="h"></text>
<rect x="2069" y="220" width="2" height="1030" rx="14" fill="#E5E7EB" stroke="#E5E7EB" stroke-width="2"/>
<text x="2070.0" y="735.0" text-anchor="middle" class="h"></text>
<polyline points="280,260 350,260" fill="none" stroke="#4B5563" stroke-width="2" marker-end="url(#arrow)"/>
<text x="358" y="252" class="small">propose API/event change</text>
<polyline points="550,330 620,330" fill="none" stroke="#4B5563" stroke-width="2" marker-end="url(#arrow)"/>
<text x="628" y="322" class="small">accepted ADR / issue</text>
<polyline points="820,420 890,420" fill="none" stroke="#4B5563" stroke-width="2" marker-end="url(#arrow)"/>
<text x="898" y="412" class="small">update OpenAPI/event schema</text>
<polyline points="1090,520 1160,520" fill="none" stroke="#4B5563" stroke-width="2" marker-end="url(#arrow)"/>
<text x="1168" y="512" class="small">schema lint + breaking change check</text>
<polyline points="1360,620 1430,620" fill="none" stroke="#4B5563" stroke-width="2" marker-end="url(#arrow)"/>
<text x="1438" y="612" class="small">generate/update client stubs</text>
<polyline points="1360,720 1700,720" fill="none" stroke="#4B5563" stroke-width="2" marker-end="url(#arrow)"/>
<text x="1708" y="712" class="small">verify BFF mapping</text>
<polyline points="1430,830 1360,830" fill="none" stroke="#4B5563" stroke-width="2" marker-end="url(#arrow)"/>
<text x="1368" y="822" class="small">client compile/tests</text>
<polyline points="1700,930 1360,930" fill="none" stroke="#4B5563" stroke-width="2" marker-end="url(#arrow)"/>
<text x="1368" y="922" class="small">BFF contract tests</text>
<polyline points="1360,1040 1970,1040" fill="none" stroke="#4B5563" stroke-width="2" marker-end="url(#arrow)"/>
<text x="1978" y="1032" class="small">contract green</text>
<rect x="80" y="1320" width="1750" height="60" rx="12" fill="#FEF3C7" stroke="#F59E0B" stroke-width="2"/>
<text x="96" y="1344" class="t">Contract rule:</text>
<text x="96" y="1362" class="t">Contracts are versioned artifacts. Backend, BFF and KMP client cannot drift. Breaking changes require versioning or migration plan.</text>
</svg>
