<svg xmlns="http://www.w3.org/2000/svg" width="2300" height="1600" viewBox="0 0 2300 1600">
<defs>
<marker id="arrow" markerWidth="10" markerHeight="10" refX="8" refY="3" orient="auto" markerUnits="strokeWidth"><path d="M0,0 L0,6 L9,3 z" fill="#4B5563"/></marker>
<marker id="arrowDashed" markerWidth="10" markerHeight="10" refX="8" refY="3" orient="auto" markerUnits="strokeWidth"><path d="M0,0 L0,6 L9,3 z" fill="#F97316"/></marker>
<style>
.title { font: 700 24px Arial, sans-serif; fill: white; }
.h { font: 700 13px Arial, sans-serif; fill: #111827; }
.t { font: 400 12px Arial, sans-serif; fill: #111827; }
.small { font: 400 11px Arial, sans-serif; fill: #4B5563; }
</style>
</defs>
<rect x="40" y="30" width="2220" height="60" rx="14" fill="#022C22"/>
<text x="1150.0" y="69" text-anchor="middle" class="title">Viaverse Taxonomy Admin / Publish — Activity Diagram</text>

<rect x="80" y="160" width="270" height="60" rx="14" fill="#022C22" stroke="#022C22" stroke-width="2"/>
<text x="215.0" y="181.0" text-anchor="middle" class="h">START</text>
<text x="215.0" y="201.0" text-anchor="middle" class="t">admin edits taxonomy</text>
<rect x="430" y="140" width="330" height="90" rx="14" fill="#ECFDF5" stroke="#064E3B" stroke-width="2"/>
<text x="595.0" y="176.0" text-anchor="middle" class="h">Create taxonomy draft</text>
<text x="595.0" y="196.0" text-anchor="middle" class="t">category/tag/form</text>
<rect x="860" y="140" width="340" height="90" rx="14" fill="#FFFFFF" stroke="#064E3B" stroke-width="2"/>
<text x="1030.0" y="176.0" text-anchor="middle" class="h">Define rules</text>
<text x="1030.0" y="196.0" text-anchor="middle" class="t">fields/risk/fees/visibility</text>
<rect x="1300" y="140" width="330" height="90" rx="14" fill="#FFF7ED" stroke="#F97316" stroke-width="2"/>
<text x="1465.0" y="176.0" text-anchor="middle" class="h">Add localized labels</text>
<text x="1465.0" y="196.0" text-anchor="middle" class="t">slugs/icons</text>
<rect x="1700" y="140" width="340" height="90" rx="14" fill="#EEF2FF" stroke="#6366F1" stroke-width="2"/>
<text x="1870.0" y="176.0" text-anchor="middle" class="h">Validate tree</text>
<text x="1870.0" y="196.0" text-anchor="middle" class="t">no cycles/no duplicates</text>
<rect x="1700" y="360" width="220" height="80" rx="14" fill="#EEF2FF" stroke="#6366F1" stroke-width="2"/>
<text x="1810.0" y="400.0" text-anchor="middle" class="h">Valid?</text>
<rect x="1300" y="360" width="300" height="80" rx="14" fill="#FEF3C7" stroke="#F59E0B" stroke-width="2"/>
<text x="1450.0" y="391.0" text-anchor="middle" class="h">Return to draft</text>
<text x="1450.0" y="411.0" text-anchor="middle" class="t">with errors</text>
<rect x="860" y="360" width="340" height="90" rx="14" fill="#FFFFFF" stroke="#064E3B" stroke-width="2"/>
<text x="1030.0" y="396.0" text-anchor="middle" class="h">Run impact analysis</text>
<text x="1030.0" y="416.0" text-anchor="middle" class="t">search/forms/SEO</text>
<rect x="430" y="360" width="300" height="80" rx="14" fill="#FEF3C7" stroke="#F59E0B" stroke-width="2"/>
<text x="580.0" y="391.0" text-anchor="middle" class="h">Review/approve</text>
<text x="580.0" y="411.0" text-anchor="middle" class="t">content ops</text>
<rect x="430" y="590" width="300" height="80" rx="14" fill="#FFF7ED" stroke="#F97316" stroke-width="2"/>
<text x="580.0" y="630.0" text-anchor="middle" class="h">Publish new version</text>
<rect x="860" y="590" width="340" height="90" rx="14" fill="#FFFFFF" stroke="#064E3B" stroke-width="2"/>
<text x="1030.0" y="626.0" text-anchor="middle" class="h">Invalidate caches</text>
<text x="1030.0" y="646.0" text-anchor="middle" class="t">client/search/SEO</text>
<rect x="1300" y="590" width="320" height="80" rx="14" fill="#FFFFFF" stroke="#064E3B" stroke-width="2"/>
<text x="1460.0" y="630.0" text-anchor="middle" class="h">Reindex affected entities</text>
<rect x="1300" y="820" width="330" height="80" rx="14" fill="#FFF7ED" stroke="#F97316" stroke-width="2"/>
<text x="1465.0" y="860.0" text-anchor="middle" class="h">Emit TaxonomyPublished</text>
<rect x="860" y="820" width="360" height="90" rx="14" fill="#EEF2FF" stroke="#6366F1" stroke-width="2"/>
<text x="1040.0" y="856.0" text-anchor="middle" class="h">Monitor quality</text>
<text x="1040.0" y="876.0" text-anchor="middle" class="t">misclassification/no-result</text>
<rect x="430" y="840" width="150" height="55" rx="14" fill="#022C22" stroke="#022C22" stroke-width="2"/>
<text x="505.0" y="867.5" text-anchor="middle" class="h">END</text>
<polyline points="350,190 430,185" fill="none" stroke="#4B5563" stroke-width="2" marker-end="url(#arrow)"/>
<polyline points="760,185 860,185" fill="none" stroke="#4B5563" stroke-width="2" marker-end="url(#arrow)"/>
<polyline points="1200,185 1300,185" fill="none" stroke="#4B5563" stroke-width="2" marker-end="url(#arrow)"/>
<polyline points="1630,185 1700,185" fill="none" stroke="#4B5563" stroke-width="2" marker-end="url(#arrow)"/>
<polyline points="1870,230 1870,360" fill="none" stroke="#4B5563" stroke-width="2" marker-end="url(#arrow)"/>
<polyline points="1700,400 1600,400" fill="none" stroke="#F97316" stroke-width="2" marker-end="url(#arrowDashed)" stroke-dasharray="6 5"/>
<text x="1608" y="392" class="small">no</text>
<polyline points="1450,360 1450,300 595,300 595,230" fill="none" stroke="#F97316" stroke-width="2" marker-end="url(#arrowDashed)" stroke-dasharray="6 5"/>
<text x="603" y="292" class="small">fix</text>
<polyline points="1700,400 1200,405" fill="none" stroke="#4B5563" stroke-width="2" marker-end="url(#arrow)"/>
<text x="1208" y="397" class="small">yes</text>
<polyline points="860,405 730,400" fill="none" stroke="#4B5563" stroke-width="2" marker-end="url(#arrow)"/>
<polyline points="580,440 580,590" fill="none" stroke="#4B5563" stroke-width="2" marker-end="url(#arrow)"/>
<polyline points="730,630 860,635" fill="none" stroke="#4B5563" stroke-width="2" marker-end="url(#arrow)"/>
<polyline points="1200,635 1300,630" fill="none" stroke="#4B5563" stroke-width="2" marker-end="url(#arrow)"/>
<polyline points="1460,670 1460,820" fill="none" stroke="#4B5563" stroke-width="2" marker-end="url(#arrow)"/>
<polyline points="1300,860 1220,865" fill="none" stroke="#4B5563" stroke-width="2" marker-end="url(#arrow)"/>
<polyline points="860,865 580,868" fill="none" stroke="#4B5563" stroke-width="2" marker-end="url(#arrow)"/>
<rect x="330" y="1060" width="1600" height="60" rx="12" fill="#FEF3C7" stroke="#F59E0B" stroke-width="2"/>
<text x="346" y="1084" class="t">Publish rule:</text>
<text x="346" y="1102" class="t">Taxonomy changes are versioned. A published version must be backward-compatible with existing requests, provider capabilities and SEO URLs or include explicit migration mapping.</text>
</svg>
