<svg xmlns="http://www.w3.org/2000/svg" width="2300" height="1600" viewBox="0 0 2300 1600">
<defs>
<marker id="arrow" markerWidth="10" markerHeight="10" refX="8" refY="3" orient="auto" markerUnits="strokeWidth"><path d="M0,0 L0,6 L9,3 z" fill="#4B5563"/></marker>
<marker id="arrowDashed" markerWidth="10" markerHeight="10" refX="8" refY="3" orient="auto" markerUnits="strokeWidth"><path d="M0,0 L0,6 L9,3 z" fill="#F97316"/></marker>
<style>
.title { font: 700 24px Arial, sans-serif; fill: white; }
.h { font: 700 13px Arial, sans-serif; fill: #111827; }
.t { font: 400 12px Arial, sans-serif; fill: #111827; }
.small { font: 400 11px Arial, sans-serif; fill: #4B5563; }
</style>
</defs>
<rect x="40" y="30" width="2220" height="60" rx="14" fill="#022C22"/>
<text x="1150.0" y="69" text-anchor="middle" class="title">Viaverse Dynamic Environment / Matching — Sequence Diagram</text>

<rect x="80" y="140" width="200" height="60" rx="14" fill="#FFFFFF" stroke="#064E3B" stroke-width="2"/>
<text x="180.0" y="170.0" text-anchor="middle" class="h">Client</text>
<rect x="179" y="220" width="2" height="1030" rx="14" fill="#E5E7EB" stroke="#E5E7EB" stroke-width="2"/>
<text x="180.0" y="735.0" text-anchor="middle" class="h"></text>
<rect x="350" y="140" width="200" height="60" rx="14" fill="#FFFFFF" stroke="#064E3B" stroke-width="2"/>
<text x="450.0" y="170.0" text-anchor="middle" class="h">API Gateway / BFF</text>
<rect x="449" y="220" width="2" height="1030" rx="14" fill="#E5E7EB" stroke="#E5E7EB" stroke-width="2"/>
<text x="450.0" y="735.0" text-anchor="middle" class="h"></text>
<rect x="620" y="140" width="200" height="60" rx="14" fill="#ECFDF5" stroke="#064E3B" stroke-width="2"/>
<text x="720.0" y="170.0" text-anchor="middle" class="h">taxonomy-service</text>
<rect x="719" y="220" width="2" height="1030" rx="14" fill="#E5E7EB" stroke="#E5E7EB" stroke-width="2"/>
<text x="720.0" y="735.0" text-anchor="middle" class="h"></text>
<rect x="890" y="140" width="200" height="60" rx="14" fill="#FFFFFF" stroke="#064E3B" stroke-width="2"/>
<text x="990.0" y="170.0" text-anchor="middle" class="h">profile/preferences</text>
<rect x="989" y="220" width="2" height="1030" rx="14" fill="#E5E7EB" stroke="#E5E7EB" stroke-width="2"/>
<text x="990.0" y="735.0" text-anchor="middle" class="h"></text>
<rect x="1160" y="140" width="200" height="60" rx="14" fill="#FFFFFF" stroke="#064E3B" stroke-width="2"/>
<text x="1260.0" y="170.0" text-anchor="middle" class="h">search-service</text>
<rect x="1259" y="220" width="2" height="1030" rx="14" fill="#E5E7EB" stroke="#E5E7EB" stroke-width="2"/>
<text x="1260.0" y="735.0" text-anchor="middle" class="h"></text>
<rect x="1430" y="140" width="200" height="60" rx="14" fill="#FFFFFF" stroke="#064E3B" stroke-width="2"/>
<text x="1530.0" y="170.0" text-anchor="middle" class="h">trust-service</text>
<rect x="1529" y="220" width="2" height="1030" rx="14" fill="#E5E7EB" stroke="#E5E7EB" stroke-width="2"/>
<text x="1530.0" y="735.0" text-anchor="middle" class="h"></text>
<rect x="1700" y="140" width="200" height="60" rx="14" fill="#FFFFFF" stroke="#064E3B" stroke-width="2"/>
<text x="1800.0" y="170.0" text-anchor="middle" class="h">analytics/AI</text>
<rect x="1799" y="220" width="2" height="1030" rx="14" fill="#E5E7EB" stroke="#E5E7EB" stroke-width="2"/>
<text x="1800.0" y="735.0" text-anchor="middle" class="h"></text>
<rect x="1970" y="140" width="200" height="60" rx="14" fill="#FFFFFF" stroke="#064E3B" stroke-width="2"/>
<text x="2070.0" y="170.0" text-anchor="middle" class="h">Outbox / Kafka</text>
<rect x="2069" y="220" width="2" height="1030" rx="14" fill="#E5E7EB" stroke="#E5E7EB" stroke-width="2"/>
<text x="2070.0" y="735.0" text-anchor="middle" class="h"></text>
<polyline points="280,260 350,260" fill="none" stroke="#4B5563" stroke-width="2" marker-end="url(#arrow)"/>
<text x="358" y="252" class="small">GET /feed or /matches</text>
<polyline points="550,320 620,320" fill="none" stroke="#4B5563" stroke-width="2" marker-end="url(#arrow)"/>
<text x="628" y="312" class="small">resolve categories/tags/forms</text>
<polyline points="820,410 890,410" fill="none" stroke="#4B5563" stroke-width="2" marker-end="url(#arrow)"/>
<text x="898" y="402" class="small">load dynamic environment
area/interests</text>
<polyline points="820,510 1160,510" fill="none" stroke="#4B5563" stroke-width="2" marker-end="url(#arrow)"/>
<text x="1168" y="502" class="small">build search filters
category + geo + intent</text>
<polyline points="1360,600 1430,600" fill="none" stroke="#4B5563" stroke-width="2" marker-end="url(#arrow)"/>
<text x="1438" y="592" class="small">trust/risk/availability signals</text>
<polyline points="1360,700 1700,700" fill="none" stroke="#4B5563" stroke-width="2" marker-end="url(#arrow)"/>
<text x="1708" y="692" class="small">ranking feedback / AI suggestion</text>
<polyline points="820,810 1970,810" fill="none" stroke="#4B5563" stroke-width="2" marker-end="url(#arrow)"/>
<text x="1978" y="802" class="small">CategoryMapped / DynamicEnvUsed</text>
<polyline points="620,950 550,950" fill="none" stroke="#4B5563" stroke-width="2" marker-end="url(#arrow)"/>
<text x="558" y="942" class="small">filter schema + result hints</text>
<polyline points="350,1040 280,1040" fill="none" stroke="#4B5563" stroke-width="2" marker-end="url(#arrow)"/>
<text x="288" y="1032" class="small">render feed/search</text>
<rect x="80" y="1320" width="1780" height="60" rx="12" fill="#FEF3C7" stroke="#F59E0B" stroke-width="2"/>
<text x="96" y="1344" class="t">Dynamic environment combines area, interests, category intent, provider capability and trust signals. It is not a fixed neighborhood/community boundary.</text>
</svg>
