<svg xmlns="http://www.w3.org/2000/svg" width="2300" height="1600" viewBox="0 0 2300 1600">
<defs>
<marker id="arrow" markerWidth="10" markerHeight="10" refX="8" refY="3" orient="auto" markerUnits="strokeWidth"><path d="M0,0 L0,6 L9,3 z" fill="#4B5563"/></marker>
<marker id="arrowDashed" markerWidth="10" markerHeight="10" refX="8" refY="3" orient="auto" markerUnits="strokeWidth"><path d="M0,0 L0,6 L9,3 z" fill="#F97316"/></marker>
<style>
.title { font: 700 24px Arial, sans-serif; fill: white; }
.h { font: 700 13px Arial, sans-serif; fill: #111827; }
.t { font: 400 12px Arial, sans-serif; fill: #111827; }
.small { font: 400 11px Arial, sans-serif; fill: #4B5563; }
</style>
</defs>
<rect x="40" y="30" width="2220" height="60" rx="14" fill="#022C22"/>
<text x="1150.0" y="69" text-anchor="middle" class="title">Viaverse Taxonomy Version / Category Mapping — State Diagram</text>

<rect x="120" y="180" width="280" height="80" rx="14" fill="#ECFDF5" stroke="#064E3B" stroke-width="2"/>
<text x="260.0" y="220.0" text-anchor="middle" class="h">VERSION_DRAFT</text>
<rect x="520" y="180" width="330" height="80" rx="14" fill="#EEF2FF" stroke="#6366F1" stroke-width="2"/>
<text x="685.0" y="220.0" text-anchor="middle" class="h">VERSION_IN_REVIEW</text>
<rect x="980" y="180" width="350" height="80" rx="14" fill="#FFF7ED" stroke="#F97316" stroke-width="2"/>
<text x="1155.0" y="220.0" text-anchor="middle" class="h">VERSION_PUBLISHED</text>
<rect x="1460" y="180" width="320" height="80" rx="14" fill="#F9FAFB" stroke="#4B5563" stroke-width="2"/>
<text x="1620.0" y="220.0" text-anchor="middle" class="h">VERSION_RETIRED</text>
<rect x="120" y="560" width="240" height="80" rx="14" fill="#FEF3C7" stroke="#F59E0B" stroke-width="2"/>
<text x="240.0" y="600.0" text-anchor="middle" class="h">UNMAPPED</text>
<rect x="520" y="560" width="300" height="80" rx="14" fill="#EEF2FF" stroke="#6366F1" stroke-width="2"/>
<text x="670.0" y="600.0" text-anchor="middle" class="h">AI_SUGGESTED</text>
<rect x="980" y="560" width="220" height="80" rx="14" fill="#ECFDF5" stroke="#064E3B" stroke-width="2"/>
<text x="1090.0" y="600.0" text-anchor="middle" class="h">MAPPED</text>
<rect x="1460" y="560" width="320" height="80" rx="14" fill="#FEF3C7" stroke="#F59E0B" stroke-width="2"/>
<text x="1620.0" y="600.0" text-anchor="middle" class="h">REMAP_REQUIRED</text>
<rect x="980" y="900" width="340" height="80" rx="14" fill="#F9FAFB" stroke="#4B5563" stroke-width="2"/>
<text x="1150.0" y="940.0" text-anchor="middle" class="h">MAPPING_ARCHIVED</text>
<polyline points="400,220 520,220" fill="none" stroke="#4B5563" stroke-width="2" marker-end="url(#arrow)"/>
<text x="528" y="212" class="small">submit</text>
<polyline points="850,220 980,220" fill="none" stroke="#4B5563" stroke-width="2" marker-end="url(#arrow)"/>
<text x="988" y="212" class="small">approve</text>
<polyline points="520,260 400,260" fill="none" stroke="#F97316" stroke-width="2" marker-end="url(#arrowDashed)" stroke-dasharray="6 5"/>
<text x="408" y="252" class="small">changes</text>
<polyline points="1330,220 1460,220" fill="none" stroke="#4B5563" stroke-width="2" marker-end="url(#arrow)"/>
<text x="1468" y="212" class="small">new version</text>
<polyline points="360,600 520,600" fill="none" stroke="#4B5563" stroke-width="2" marker-end="url(#arrow)"/>
<text x="528" y="592" class="small">AI suggestion</text>
<polyline points="820,600 980,600" fill="none" stroke="#4B5563" stroke-width="2" marker-end="url(#arrow)"/>
<text x="988" y="592" class="small">user/admin confirms</text>
<polyline points="360,600 980,600" fill="none" stroke="#4B5563" stroke-width="2" marker-end="url(#arrow)"/>
<text x="988" y="592" class="small">manual select</text>
<polyline points="1200,600 1460,600" fill="none" stroke="#F97316" stroke-width="2" marker-end="url(#arrowDashed)" stroke-dasharray="6 5"/>
<text x="1468" y="592" class="small">taxonomy changed</text>
<polyline points="1460,640 1200,640" fill="none" stroke="#F97316" stroke-width="2" marker-end="url(#arrowDashed)" stroke-dasharray="6 5"/>
<text x="1208" y="632" class="small">migration mapping</text>
<polyline points="1090,640 1090,900" fill="none" stroke="#4B5563" stroke-width="2" marker-end="url(#arrow)"/>
<text x="1098" y="892" class="small">source deleted</text>
<rect x="160" y="1120" width="1600" height="70" rx="12" fill="#FEF3C7" stroke="#F59E0B" stroke-width="2"/>
<text x="176" y="1144" class="t">State rule:</text>
<text x="176" y="1162" class="t">Existing requests/providers must not break when taxonomy changes. Remap-required state and migration mapping protect old data and search continuity.</text>
</svg>
