<svg xmlns="http://www.w3.org/2000/svg" width="2200" height="1550" viewBox="0 0 2200 1550">
<defs>
<marker id="arrow" markerWidth="10" markerHeight="10" refX="8" refY="3" orient="auto" markerUnits="strokeWidth"><path d="M0,0 L0,6 L9,3 z" fill="#4B5563"/></marker>
<marker id="arrowDashed" markerWidth="10" markerHeight="10" refX="8" refY="3" orient="auto" markerUnits="strokeWidth"><path d="M0,0 L0,6 L9,3 z" fill="#F97316"/></marker>
<style>
.title { font: 700 24px Arial, sans-serif; fill: white; }
.h { font: 700 13px Arial, sans-serif; fill: #111827; }
.t { font: 400 12px Arial, sans-serif; fill: #111827; }
.small { font: 400 11px Arial, sans-serif; fill: #4B5563; }
</style>
</defs>
<rect x="40" y="30" width="2120" height="60" rx="14" fill="#022C22"/>
<text x="1100.0" y="69" text-anchor="middle" class="title">Viaverse Media Upload / CDN / Moderation — Use Case Diagram</text>

<rect x="270" y="135" width="1560" height="1130" rx="10" fill="none" stroke="#022C22" stroke-width="2"/>
<text x="286" y="160" class="h">Media Upload / CDN / Moderation Boundary</text>
<rect x="60" y="300" width="185" height="80" rx="14" fill="#FFF7ED" stroke="#F97316" stroke-width="2"/>
<text x="152.5" y="322.0" text-anchor="middle" class="h">«actor»</text>
<text x="152.5" y="342.0" text-anchor="middle" class="t">User</text>
<text x="152.5" y="362.0" text-anchor="middle" class="t">Requester / Worker / Business</text>
<rect x="60" y="820" width="185" height="80" rx="14" fill="#FFF7ED" stroke="#F97316" stroke-width="2"/>
<text x="152.5" y="851.0" text-anchor="middle" class="h">«actor»</text>
<text x="152.5" y="871.0" text-anchor="middle" class="t">Moderation Admin</text>
<rect x="1900" y="250" width="185" height="80" rx="14" fill="#FFF7ED" stroke="#F97316" stroke-width="2"/>
<text x="1992.5" y="281.0" text-anchor="middle" class="h">«actor»</text>
<text x="1992.5" y="301.0" text-anchor="middle" class="t">S3 / Object Storage</text>
<rect x="1900" y="560" width="185" height="80" rx="14" fill="#FFF7ED" stroke="#F97316" stroke-width="2"/>
<text x="1992.5" y="591.0" text-anchor="middle" class="h">«actor»</text>
<text x="1992.5" y="611.0" text-anchor="middle" class="t">CloudFront CDN</text>
<rect x="1900" y="900" width="185" height="80" rx="14" fill="#FFF7ED" stroke="#F97316" stroke-width="2"/>
<text x="1992.5" y="931.0" text-anchor="middle" class="h">«actor»</text>
<text x="1992.5" y="951.0" text-anchor="middle" class="t">AI / Moderation Service</text>
<rect x="360" y="190" width="265" height="82" rx="14" fill="#FFFFFF" stroke="#064E3B" stroke-width="2"/>
<text x="492.5" y="231.0" text-anchor="middle" class="h">Request upload session</text>
<rect x="700" y="190" width="265" height="82" rx="14" fill="#FFFFFF" stroke="#064E3B" stroke-width="2"/>
<text x="832.5" y="222.0" text-anchor="middle" class="h">Validate media policy</text>
<text x="832.5" y="242.0" text-anchor="middle" class="t">context + size + type</text>
<rect x="1040" y="190" width="265" height="82" rx="14" fill="#FFFFFF" stroke="#064E3B" stroke-width="2"/>
<text x="1172.5" y="231.0" text-anchor="middle" class="h">Generate presigned URL</text>
<rect x="1380" y="190" width="265" height="82" rx="14" fill="#FFFFFF" stroke="#064E3B" stroke-width="2"/>
<text x="1512.5" y="231.0" text-anchor="middle" class="h">Client direct upload</text>
<rect x="360" y="450" width="265" height="82" rx="14" fill="#FFFFFF" stroke="#064E3B" stroke-width="2"/>
<text x="492.5" y="491.0" text-anchor="middle" class="h">Confirm upload</text>
<rect x="700" y="450" width="265" height="82" rx="14" fill="#FFFFFF" stroke="#064E3B" stroke-width="2"/>
<text x="832.5" y="491.0" text-anchor="middle" class="h">Strip EXIF / metadata</text>
<rect x="1040" y="450" width="265" height="82" rx="14" fill="#FFFFFF" stroke="#064E3B" stroke-width="2"/>
<text x="1172.5" y="491.0" text-anchor="middle" class="h">Create thumbnail</text>
<rect x="1380" y="450" width="265" height="82" rx="14" fill="#FFFFFF" stroke="#064E3B" stroke-width="2"/>
<text x="1512.5" y="482.0" text-anchor="middle" class="h">Transcode video</text>
<text x="1512.5" y="502.0" text-anchor="middle" class="t">if needed</text>
<rect x="360" y="720" width="265" height="82" rx="14" fill="#FFFFFF" stroke="#064E3B" stroke-width="2"/>
<text x="492.5" y="752.0" text-anchor="middle" class="h">Moderation scan</text>
<text x="492.5" y="772.0" text-anchor="middle" class="t">NSFW / violence / abuse</text>
<rect x="700" y="720" width="265" height="82" rx="14" fill="#FFFFFF" stroke="#064E3B" stroke-width="2"/>
<text x="832.5" y="761.0" text-anchor="middle" class="h">Approve / reject media</text>
<rect x="1040" y="720" width="265" height="82" rx="14" fill="#FFFFFF" stroke="#064E3B" stroke-width="2"/>
<text x="1172.5" y="752.0" text-anchor="middle" class="h">Attach media to context</text>
<text x="1172.5" y="772.0" text-anchor="middle" class="t">request / profile / chat / delivery</text>
<rect x="1380" y="720" width="265" height="82" rx="14" fill="#FFFFFF" stroke="#064E3B" stroke-width="2"/>
<text x="1512.5" y="752.0" text-anchor="middle" class="h">Deliver via CDN</text>
<text x="1512.5" y="772.0" text-anchor="middle" class="t">signed/public URL policy</text>
<rect x="700" y="980" width="265" height="82" rx="14" fill="#FFFFFF" stroke="#064E3B" stroke-width="2"/>
<text x="832.5" y="1021.0" text-anchor="middle" class="h">Report media</text>
<rect x="1040" y="980" width="265" height="82" rx="14" fill="#FFFFFF" stroke="#064E3B" stroke-width="2"/>
<text x="1172.5" y="1021.0" text-anchor="middle" class="h">Admin moderation review</text>
<rect x="1380" y="980" width="265" height="82" rx="14" fill="#FFFFFF" stroke="#064E3B" stroke-width="2"/>
<text x="1512.5" y="994.0" text-anchor="middle" class="h">Emit events</text>
<text x="1512.5" y="1014.0" text-anchor="middle" class="t">MediaUploaded</text>
<text x="1512.5" y="1034.0" text-anchor="middle" class="t">MediaApproved</text>
<text x="1512.5" y="1054.0" text-anchor="middle" class="t">MediaRejected</text>
<polyline points="245,340 270,340 270,231 360,231" fill="none" stroke="#4B5563" stroke-width="2" marker-end="url(#arrow)"/>
<polyline points="625,231 700,231" fill="none" stroke="#4B5563" stroke-width="2" marker-end="url(#arrow)"/>
<polyline points="965,231 1040,231" fill="none" stroke="#4B5563" stroke-width="2" marker-end="url(#arrow)"/>
<text x="1048" y="223" class="small">allowed</text>
<polyline points="1305,231 1380,231" fill="none" stroke="#4B5563" stroke-width="2" marker-end="url(#arrow)"/>
<polyline points="1512,272 1512,360 492,360 492,450" fill="none" stroke="#4B5563" stroke-width="2" marker-end="url(#arrow)"/>
<text x="500" y="352" class="small">callback/confirm</text>
<polyline points="625,491 700,491" fill="none" stroke="#4B5563" stroke-width="2" marker-end="url(#arrow)"/>
<polyline points="965,491 1040,491" fill="none" stroke="#4B5563" stroke-width="2" marker-end="url(#arrow)"/>
<polyline points="1305,491 1380,491" fill="none" stroke="#4B5563" stroke-width="2" marker-end="url(#arrow)"/>
<text x="1388" y="483" class="small">optional</text>
<polyline points="1512,532 1512,650 492,650 492,720" fill="none" stroke="#4B5563" stroke-width="2" marker-end="url(#arrow)"/>
<polyline points="625,761 700,761" fill="none" stroke="#4B5563" stroke-width="2" marker-end="url(#arrow)"/>
<polyline points="965,761 1040,761" fill="none" stroke="#4B5563" stroke-width="2" marker-end="url(#arrow)"/>
<text x="1048" y="753" class="small">approved</text>
<polyline points="1305,761 1380,761" fill="none" stroke="#4B5563" stroke-width="2" marker-end="url(#arrow)"/>
<polyline points="245,340 300,340 300,1021 700,1021" fill="none" stroke="#4B5563" stroke-width="2" marker-end="url(#arrow)"/>
<polyline points="245,860 300,860 300,1021 1040,1021" fill="none" stroke="#4B5563" stroke-width="2" marker-end="url(#arrow)"/>
<polyline points="965,1021 1040,1021" fill="none" stroke="#4B5563" stroke-width="2" marker-end="url(#arrow)"/>
<polyline points="1172,980 1172,880 832,880 832,802" fill="none" stroke="#F97316" stroke-width="2" marker-end="url(#arrowDashed)" stroke-dasharray="6 5"/>
<text x="840" y="872" class="small">override</text>
<polyline points="965,761 1512,900 1512,980" fill="none" stroke="#4B5563" stroke-width="2" marker-end="url(#arrow)"/>
<polyline points="1900,290 1780,290 1780,231 1645,231" fill="none" stroke="#4B5563" stroke-width="2" marker-end="url(#arrow)"/>
<text x="1788" y="223" class="small">object upload</text>
<polyline points="1900,290 1770,290 1770,491 965,491" fill="none" stroke="#4B5563" stroke-width="2" marker-end="url(#arrow)"/>
<text x="1778" y="483" class="small">object processing</text>
<polyline points="1900,600 1780,600 1780,761 1645,761" fill="none" stroke="#4B5563" stroke-width="2" marker-end="url(#arrow)"/>
<text x="1788" y="753" class="small">cache/delivery</text>
<polyline points="1900,940 1780,940 1780,761 625,761" fill="none" stroke="#4B5563" stroke-width="2" marker-end="url(#arrow)"/>
<text x="1788" y="753" class="small">scan result</text>
<rect x="360" y="1210" width="1370" height="58" rx="12" fill="#FEF3C7" stroke="#F59E0B" stroke-width="2"/>
<text x="376" y="1234" class="t">Rules:</text>
<text x="376" y="1252" class="t">Media is uploaded directly to object storage via presigned URL. App stores references and moderation state, not binary blobs.</text>
</svg>
