<svg xmlns="http://www.w3.org/2000/svg" width="2200" height="1550" viewBox="0 0 2200 1550">
<defs>
<marker id="arrow" markerWidth="10" markerHeight="10" refX="8" refY="3" orient="auto" markerUnits="strokeWidth"><path d="M0,0 L0,6 L9,3 z" fill="#4B5563"/></marker>
<marker id="arrowDashed" markerWidth="10" markerHeight="10" refX="8" refY="3" orient="auto" markerUnits="strokeWidth"><path d="M0,0 L0,6 L9,3 z" fill="#F97316"/></marker>
<style>
.title { font: 700 24px Arial, sans-serif; fill: white; }
.h { font: 700 13px Arial, sans-serif; fill: #111827; }
.t { font: 400 12px Arial, sans-serif; fill: #111827; }
.small { font: 400 11px Arial, sans-serif; fill: #4B5563; }
</style>
</defs>
<rect x="40" y="30" width="2120" height="60" rx="14" fill="#022C22"/>
<text x="1100.0" y="69" text-anchor="middle" class="title">Viaverse Media Upload / CDN / Moderation — Activity Diagram</text>

<rect x="80" y="160" width="240" height="60" rx="14" fill="#022C22" stroke="#022C22" stroke-width="2"/>
<text x="200.0" y="181.0" text-anchor="middle" class="h">START</text>
<text x="200.0" y="201.0" text-anchor="middle" class="t">user selects media</text>
<rect x="430" y="150" width="280" height="70" rx="14" fill="#FFF7ED" stroke="#F97316" stroke-width="2"/>
<text x="570.0" y="185.0" text-anchor="middle" class="h">Request upload session</text>
<rect x="820" y="140" width="330" height="90" rx="14" fill="#ECFDF5" stroke="#064E3B" stroke-width="2"/>
<text x="985.0" y="176.0" text-anchor="middle" class="h">Validate context/type/size</text>
<text x="985.0" y="196.0" text-anchor="middle" class="t">and user permission</text>
<rect x="1260" y="140" width="230" height="90" rx="14" fill="#EEF2FF" stroke="#6366F1" stroke-width="2"/>
<text x="1375.0" y="185.0" text-anchor="middle" class="h">Allowed?</text>
<rect x="1600" y="150" width="270" height="75" rx="14" fill="#FEF3C7" stroke="#F59E0B" stroke-width="2"/>
<text x="1735.0" y="187.5" text-anchor="middle" class="h">Reject upload request</text>
<rect x="1260" y="330" width="350" height="90" rx="14" fill="#FFFFFF" stroke="#064E3B" stroke-width="2"/>
<text x="1435.0" y="366.0" text-anchor="middle" class="h">Generate presigned URL</text>
<text x="1435.0" y="386.0" text-anchor="middle" class="t">and MediaAsset PENDING</text>
<rect x="820" y="330" width="300" height="90" rx="14" fill="#FFFFFF" stroke="#064E3B" stroke-width="2"/>
<text x="970.0" y="366.0" text-anchor="middle" class="h">Client uploads directly</text>
<text x="970.0" y="386.0" text-anchor="middle" class="t">to S3</text>
<rect x="430" y="340" width="260" height="70" rx="14" fill="#FFFFFF" stroke="#064E3B" stroke-width="2"/>
<text x="560.0" y="375.0" text-anchor="middle" class="h">Confirm upload</text>
<rect x="430" y="550" width="360" height="95" rx="14" fill="#FFFFFF" stroke="#064E3B" stroke-width="2"/>
<text x="610.0" y="588.5" text-anchor="middle" class="h">Processing job</text>
<text x="610.0" y="608.5" text-anchor="middle" class="t">EXIF strip / thumbnail / transcode</text>
<rect x="900" y="550" width="280" height="80" rx="14" fill="#FFFFFF" stroke="#064E3B" stroke-width="2"/>
<text x="1040.0" y="590.0" text-anchor="middle" class="h">Moderation scan</text>
<rect x="1280" y="550" width="210" height="80" rx="14" fill="#EEF2FF" stroke="#6366F1" stroke-width="2"/>
<text x="1385.0" y="590.0" text-anchor="middle" class="h">Safe?</text>
<rect x="1600" y="550" width="280" height="80" rx="14" fill="#FEF3C7" stroke="#F59E0B" stroke-width="2"/>
<text x="1740.0" y="581.0" text-anchor="middle" class="h">Set REJECTED</text>
<text x="1740.0" y="601.0" text-anchor="middle" class="t">reason hidden/safe</text>
<rect x="1280" y="750" width="260" height="75" rx="14" fill="#FFF7ED" stroke="#F97316" stroke-width="2"/>
<text x="1410.0" y="787.5" text-anchor="middle" class="h">Set APPROVED</text>
<rect x="900" y="750" width="320" height="75" rx="14" fill="#FFFFFF" stroke="#064E3B" stroke-width="2"/>
<text x="1060.0" y="787.5" text-anchor="middle" class="h">Attach to domain context</text>
<rect x="430" y="750" width="330" height="80" rx="14" fill="#FFFFFF" stroke="#064E3B" stroke-width="2"/>
<text x="595.0" y="781.0" text-anchor="middle" class="h">Generate delivery URL</text>
<text x="595.0" y="801.0" text-anchor="middle" class="t">public/signed policy</text>
<rect x="430" y="980" width="300" height="85" rx="14" fill="#FFF7ED" stroke="#F97316" stroke-width="2"/>
<text x="580.0" y="1013.5" text-anchor="middle" class="h">Emit MediaApproved</text>
<text x="580.0" y="1033.5" text-anchor="middle" class="t">or MediaRejected</text>
<rect x="900" y="1000" width="150" height="55" rx="14" fill="#022C22" stroke="#022C22" stroke-width="2"/>
<text x="975.0" y="1027.5" text-anchor="middle" class="h">END</text>
<polyline points="320,190 430,185" fill="none" stroke="#4B5563" stroke-width="2" marker-end="url(#arrow)"/>
<polyline points="710,185 820,185" fill="none" stroke="#4B5563" stroke-width="2" marker-end="url(#arrow)"/>
<polyline points="1150,185 1260,185" fill="none" stroke="#4B5563" stroke-width="2" marker-end="url(#arrow)"/>
<polyline points="1490,185 1600,188" fill="none" stroke="#F97316" stroke-width="2" marker-end="url(#arrowDashed)" stroke-dasharray="6 5"/>
<text x="1608" y="180" class="small">no</text>
<polyline points="1375,230 1375,330" fill="none" stroke="#4B5563" stroke-width="2" marker-end="url(#arrow)"/>
<text x="1383" y="322" class="small">yes</text>
<polyline points="1260,375 1120,375" fill="none" stroke="#4B5563" stroke-width="2" marker-end="url(#arrow)"/>
<text x="1128" y="367" class="small">upload info</text>
<polyline points="820,375 690,375" fill="none" stroke="#4B5563" stroke-width="2" marker-end="url(#arrow)"/>
<polyline points="560,410 560,550" fill="none" stroke="#4B5563" stroke-width="2" marker-end="url(#arrow)"/>
<polyline points="790,598 900,590" fill="none" stroke="#4B5563" stroke-width="2" marker-end="url(#arrow)"/>
<polyline points="1180,590 1280,590" fill="none" stroke="#4B5563" stroke-width="2" marker-end="url(#arrow)"/>
<polyline points="1490,590 1600,590" fill="none" stroke="#F97316" stroke-width="2" marker-end="url(#arrowDashed)" stroke-dasharray="6 5"/>
<text x="1608" y="582" class="small">no</text>
<polyline points="1385,630 1385,750" fill="none" stroke="#4B5563" stroke-width="2" marker-end="url(#arrow)"/>
<text x="1393" y="742" class="small">yes</text>
<polyline points="1280,787 1220,787" fill="none" stroke="#4B5563" stroke-width="2" marker-end="url(#arrow)"/>
<polyline points="900,787 760,790" fill="none" stroke="#4B5563" stroke-width="2" marker-end="url(#arrow)"/>
<polyline points="595,830 595,980" fill="none" stroke="#4B5563" stroke-width="2" marker-end="url(#arrow)"/>
<polyline points="1600,590 1560,590 1560,930 580,930 580,980" fill="none" stroke="#F97316" stroke-width="2" marker-end="url(#arrowDashed)" stroke-dasharray="6 5"/>
<polyline points="730,1022 900,1028" fill="none" stroke="#4B5563" stroke-width="2" marker-end="url(#arrow)"/>
<rect x="330" y="1160" width="1520" height="60" rx="12" fill="#FEF3C7" stroke="#F59E0B" stroke-width="2"/>
<text x="346" y="1184" class="t">Security rule:</text>
<text x="346" y="1202" class="t">Original objects stay private. Delivery uses CDN policy based on context: public profile assets may be public/CDN, private chat/job assets use signed access.</text>
</svg>
