<svg xmlns="http://www.w3.org/2000/svg" width="2200" height="1550" viewBox="0 0 2200 1550">
<defs>
<marker id="arrow" markerWidth="10" markerHeight="10" refX="8" refY="3" orient="auto" markerUnits="strokeWidth"><path d="M0,0 L0,6 L9,3 z" fill="#4B5563"/></marker>
<marker id="arrowDashed" markerWidth="10" markerHeight="10" refX="8" refY="3" orient="auto" markerUnits="strokeWidth"><path d="M0,0 L0,6 L9,3 z" fill="#F97316"/></marker>
<style>
.title { font: 700 24px Arial, sans-serif; fill: white; }
.h { font: 700 13px Arial, sans-serif; fill: #111827; }
.t { font: 400 12px Arial, sans-serif; fill: #111827; }
.small { font: 400 11px Arial, sans-serif; fill: #4B5563; }
</style>
</defs>
<rect x="40" y="30" width="2120" height="60" rx="14" fill="#022C22"/>
<text x="1100.0" y="69" text-anchor="middle" class="title">Viaverse Media Asset — State Diagram</text>

<rect x="120" y="180" width="280" height="80" rx="14" fill="#ECFDF5" stroke="#064E3B" stroke-width="2"/>
<text x="260.0" y="220.0" text-anchor="middle" class="h">PENDING_UPLOAD</text>
<rect x="520" y="180" width="240" height="80" rx="14" fill="#FFF7ED" stroke="#F97316" stroke-width="2"/>
<text x="640.0" y="220.0" text-anchor="middle" class="h">UPLOADED</text>
<rect x="900" y="180" width="260" height="80" rx="14" fill="#EEF2FF" stroke="#6366F1" stroke-width="2"/>
<text x="1030.0" y="220.0" text-anchor="middle" class="h">PROCESSING</text>
<rect x="1280" y="180" width="340" height="80" rx="14" fill="#EEF2FF" stroke="#6366F1" stroke-width="2"/>
<text x="1450.0" y="220.0" text-anchor="middle" class="h">PENDING_MODERATION</text>
<rect x="1280" y="500" width="240" height="80" rx="14" fill="#FFF7ED" stroke="#F97316" stroke-width="2"/>
<text x="1400.0" y="540.0" text-anchor="middle" class="h">APPROVED</text>
<rect x="900" y="500" width="280" height="80" rx="14" fill="#FEF3C7" stroke="#F59E0B" stroke-width="2"/>
<text x="1040.0" y="540.0" text-anchor="middle" class="h">MANUAL_REVIEW</text>
<rect x="520" y="500" width="240" height="80" rx="14" fill="#F9FAFB" stroke="#4B5563" stroke-width="2"/>
<text x="640.0" y="540.0" text-anchor="middle" class="h">REJECTED</text>
<rect x="1280" y="820" width="240" height="80" rx="14" fill="#ECFDF5" stroke="#064E3B" stroke-width="2"/>
<text x="1400.0" y="860.0" text-anchor="middle" class="h">ATTACHED</text>
<rect x="520" y="820" width="240" height="80" rx="14" fill="#F9FAFB" stroke="#4B5563" stroke-width="2"/>
<text x="640.0" y="860.0" text-anchor="middle" class="h">DELETED</text>
<polyline points="400,220 520,220" fill="none" stroke="#4B5563" stroke-width="2" marker-end="url(#arrow)"/>
<text x="528" y="212" class="small">confirm upload</text>
<polyline points="760,220 900,220" fill="none" stroke="#4B5563" stroke-width="2" marker-end="url(#arrow)"/>
<text x="908" y="212" class="small">enqueue</text>
<polyline points="1160,220 1280,220" fill="none" stroke="#4B5563" stroke-width="2" marker-end="url(#arrow)"/>
<text x="1288" y="212" class="small">derivatives ready</text>
<polyline points="1450,260 1450,500" fill="none" stroke="#4B5563" stroke-width="2" marker-end="url(#arrow)"/>
<text x="1458" y="492" class="small">safe</text>
<polyline points="1280,220 1180,220 1180,540" fill="none" stroke="#F97316" stroke-width="2" marker-end="url(#arrowDashed)" stroke-dasharray="6 5"/>
<text x="1188" y="212" class="small">uncertain</text>
<polyline points="1180,540 1280,540" fill="none" stroke="#4B5563" stroke-width="2" marker-end="url(#arrow)"/>
<text x="1288" y="532" class="small">admin approves</text>
<polyline points="900,540 760,540" fill="none" stroke="#4B5563" stroke-width="2" marker-end="url(#arrow)"/>
<text x="768" y="532" class="small">admin rejects</text>
<polyline points="1280,220 640,220 640,500" fill="none" stroke="#F97316" stroke-width="2" marker-end="url(#arrowDashed)" stroke-dasharray="6 5"/>
<text x="648" y="212" class="small">unsafe</text>
<polyline points="1400,580 1400,820" fill="none" stroke="#4B5563" stroke-width="2" marker-end="url(#arrow)"/>
<text x="1408" y="812" class="small">attach to context</text>
<polyline points="1280,540 760,540 760,820" fill="none" stroke="#F97316" stroke-width="2" marker-end="url(#arrowDashed)" stroke-dasharray="6 5"/>
<text x="768" y="532" class="small">owner/admin delete</text>
<polyline points="640,580 640,820" fill="none" stroke="#4B5563" stroke-width="2" marker-end="url(#arrow)"/>
<text x="648" y="812" class="small">cleanup</text>
<rect x="160" y="1060" width="1450" height="70" rx="12" fill="#FEF3C7" stroke="#F59E0B" stroke-width="2"/>
<text x="176" y="1084" class="t">Lifecycle rule:</text>
<text x="176" y="1102" class="t">Only APPROVED media can become visible in public/profile/search surfaces. Chat/job private media can still require per-context authorization.</text>
</svg>
