<svg xmlns="http://www.w3.org/2000/svg" width="1900" height="1300" viewBox="0 0 1900 1300">
<defs>
<marker id="arrow" markerWidth="10" markerHeight="10" refX="8" refY="3" orient="auto" markerUnits="strokeWidth"><path d="M0,0 L0,6 L9,3 z" fill="#4B5563"/></marker>
<marker id="arrowDashed" markerWidth="10" markerHeight="10" refX="8" refY="3" orient="auto" markerUnits="strokeWidth"><path d="M0,0 L0,6 L9,3 z" fill="#F97316"/></marker>
<style>
.title { font: 700 24px Arial, sans-serif; fill: white; }
.h { font: 700 13px Arial, sans-serif; fill: #111827; }
.t { font: 400 12px Arial, sans-serif; fill: #111827; }
.small { font: 400 11px Arial, sans-serif; fill: #4B5563; }
</style>
</defs>
<rect x="40" y="30" width="1820" height="60" rx="14" fill="#022C22"/>
<text x="950.0" y="69" text-anchor="middle" class="title">Viaverse Capability — Activity Diagram</text>

<rect x="80" y="160" width="130" height="50" rx="14" fill="#022C22" stroke="#022C22" stroke-width="2"/>
<text x="145.0" y="185.0" text-anchor="middle" class="h">START</text>
<rect x="300" y="150" width="260" height="70" rx="14" fill="#FFF7ED" stroke="#F97316" stroke-width="2"/>
<text x="430.0" y="185.0" text-anchor="middle" class="h">Open Profile / Mode Switcher</text>
<rect x="660" y="150" width="250" height="70" rx="14" fill="#ECFDF5" stroke="#064E3B" stroke-width="2"/>
<text x="785.0" y="185.0" text-anchor="middle" class="h">Load Account capabilities</text>
<rect x="1020" y="140" width="210" height="90" rx="14" fill="#EEF2FF" stroke="#6366F1" stroke-width="2"/>
<text x="1125.0" y="185.0" text-anchor="middle" class="h">Target mode?</text>
<rect x="390" y="340" width="240" height="70" rx="14" fill="#FFFFFF" stroke="#064E3B" stroke-width="2"/>
<text x="510.0" y="375.0" text-anchor="middle" class="h">Enter Personal Mode</text>
<rect x="760" y="320" width="260" height="90" rx="14" fill="#EEF2FF" stroke="#6366F1" stroke-width="2"/>
<text x="890.0" y="365.0" text-anchor="middle" class="h">Has DO_WORK capability?</text>
<rect x="760" y="470" width="260" height="75" rx="14" fill="#FFFFFF" stroke="#064E3B" stroke-width="2"/>
<text x="890.0" y="507.5" text-anchor="middle" class="h">Run worker onboarding</text>
<rect x="760" y="600" width="280" height="75" rx="14" fill="#FFFFFF" stroke="#064E3B" stroke-width="2"/>
<text x="900.0" y="637.5" text-anchor="middle" class="h">Enable DO_WORK_INDIVIDUALLY</text>
<rect x="1130" y="320" width="260" height="90" rx="14" fill="#EEF2FF" stroke="#6366F1" stroke-width="2"/>
<text x="1260.0" y="365.0" text-anchor="middle" class="h">Has OPERATE_BUSINESS?</text>
<rect x="1130" y="470" width="280" height="75" rx="14" fill="#FFFFFF" stroke="#064E3B" stroke-width="2"/>
<text x="1270.0" y="507.5" text-anchor="middle" class="h">Create / select business profile</text>
<rect x="1130" y="600" width="280" height="75" rx="14" fill="#FFFFFF" stroke="#064E3B" stroke-width="2"/>
<text x="1270.0" y="637.5" text-anchor="middle" class="h">Enable OPERATE_BUSINESS</text>
<rect x="960" y="760" width="300" height="75" rx="14" fill="#FFF7ED" stroke="#F97316" stroke-width="2"/>
<text x="1110.0" y="797.5" text-anchor="middle" class="h">Eligibility / suspension check</text>
<rect x="960" y="900" width="300" height="75" rx="14" fill="#FFFFFF" stroke="#064E3B" stroke-width="2"/>
<text x="1110.0" y="937.5" text-anchor="middle" class="h">Set active mode in session</text>
<rect x="1370" y="910" width="180" height="55" rx="14" fill="#022C22" stroke="#022C22" stroke-width="2"/>
<text x="1460.0" y="937.5" text-anchor="middle" class="h">MODE READY</text>
<polyline points="210,185 300,185" fill="none" stroke="#4B5563" stroke-width="2" marker-end="url(#arrow)"/>
<polyline points="560,185 660,185" fill="none" stroke="#4B5563" stroke-width="2" marker-end="url(#arrow)"/>
<polyline points="910,185 1020,185" fill="none" stroke="#4B5563" stroke-width="2" marker-end="url(#arrow)"/>
<polyline points="1020,185 880,185 880,375 630,375" fill="none" stroke="#4B5563" stroke-width="2" marker-end="url(#arrow)"/>
<text x="888" y="367" class="small">Personal</text>
<polyline points="1125,230 1125,270 890,270 890,320" fill="none" stroke="#4B5563" stroke-width="2" marker-end="url(#arrow)"/>
<text x="898" y="262" class="small">Work</text>
<polyline points="1230,185 1260,185 1260,320" fill="none" stroke="#4B5563" stroke-width="2" marker-end="url(#arrow)"/>
<text x="1268" y="177" class="small">Business</text>
<polyline points="890,410 890,470" fill="none" stroke="#F97316" stroke-width="2" marker-end="url(#arrowDashed)" stroke-dasharray="6 5"/>
<text x="898" y="462" class="small">no</text>
<polyline points="890,545 890,600" fill="none" stroke="#4B5563" stroke-width="2" marker-end="url(#arrow)"/>
<text x="898" y="592" class="small">complete</text>
<polyline points="1260,410 1260,470" fill="none" stroke="#F97316" stroke-width="2" marker-end="url(#arrowDashed)" stroke-dasharray="6 5"/>
<text x="1268" y="462" class="small">no</text>
<polyline points="1260,545 1260,600" fill="none" stroke="#4B5563" stroke-width="2" marker-end="url(#arrow)"/>
<text x="1268" y="592" class="small">complete</text>
<polyline points="630,375 700,375 700,798 960,798" fill="none" stroke="#4B5563" stroke-width="2" marker-end="url(#arrow)"/>
<polyline points="1020,365 1080,365 1080,760" fill="none" stroke="#F97316" stroke-width="2" marker-end="url(#arrowDashed)" stroke-dasharray="6 5"/>
<text x="1088" y="357" class="small">yes</text>
<polyline points="1040,638 1100,638 1100,760" fill="none" stroke="#4B5563" stroke-width="2" marker-end="url(#arrow)"/>
<polyline points="1390,365 1460,365 1460,798 1260,798" fill="none" stroke="#F97316" stroke-width="2" marker-end="url(#arrowDashed)" stroke-dasharray="6 5"/>
<text x="1468" y="790" class="small">yes</text>
<polyline points="1260,675 1260,760" fill="none" stroke="#4B5563" stroke-width="2" marker-end="url(#arrow)"/>
<polyline points="1110,835 1110,900" fill="none" stroke="#4B5563" stroke-width="2" marker-end="url(#arrow)"/>
<text x="1118" y="892" class="small">allowed</text>
<polyline points="1260,938 1370,938" fill="none" stroke="#4B5563" stroke-width="2" marker-end="url(#arrow)"/>
<rect x="300" y="1070" width="1150" height="55" rx="12" fill="#FEF3C7" stroke="#F59E0B" stroke-width="2"/>
<text x="316" y="1094" class="t">If capability is suspended/revoked, mode switch is blocked and user sees the reason + support path.</text>
</svg>
