<svg xmlns="http://www.w3.org/2000/svg" width="2100" height="1450" viewBox="0 0 2100 1450">
<defs>
<marker id="arrow" markerWidth="10" markerHeight="10" refX="8" refY="3" orient="auto" markerUnits="strokeWidth"><path d="M0,0 L0,6 L9,3 z" fill="#4B5563"/></marker>
<marker id="arrowDashed" markerWidth="10" markerHeight="10" refX="8" refY="3" orient="auto" markerUnits="strokeWidth"><path d="M0,0 L0,6 L9,3 z" fill="#F97316"/></marker>
<style>
.title { font: 700 24px Arial, sans-serif; fill: white; }
.h { font: 700 13px Arial, sans-serif; fill: #111827; }
.t { font: 400 12px Arial, sans-serif; fill: #111827; }
.small { font: 400 11px Arial, sans-serif; fill: #4B5563; }
</style>
</defs>
<rect x="40" y="30" width="2020" height="60" rx="14" fill="#022C22"/>
<text x="1050.0" y="69" text-anchor="middle" class="title">Viaverse Worker Onboarding — Use Case Diagram</text>

<rect x="250" y="135" width="1480" height="1010" rx="10" fill="none" stroke="#022C22" stroke-width="2"/>
<text x="266" y="160" class="h">Work Mode / Individual Worker Boundary</text>
<rect x="60" y="320" width="170" height="78" rx="14" fill="#FFF7ED" stroke="#F97316" stroke-width="2"/>
<text x="145.0" y="350.0" text-anchor="middle" class="h">«actor»</text>
<text x="145.0" y="370.0" text-anchor="middle" class="t">Authenticated Account</text>
<rect x="60" y="690" width="170" height="78" rx="14" fill="#FFF7ED" stroke="#F97316" stroke-width="2"/>
<text x="145.0" y="711.0" text-anchor="middle" class="h">«actor»</text>
<text x="145.0" y="731.0" text-anchor="middle" class="t">Worker</text>
<text x="145.0" y="751.0" text-anchor="middle" class="t">DO_WORK</text>
<rect x="1810" y="230" width="170" height="78" rx="14" fill="#FFF7ED" stroke="#F97316" stroke-width="2"/>
<text x="1895.0" y="260.0" text-anchor="middle" class="h">«actor»</text>
<text x="1895.0" y="280.0" text-anchor="middle" class="t">identity-service</text>
<rect x="1810" y="520" width="170" height="78" rx="14" fill="#FFF7ED" stroke="#F97316" stroke-width="2"/>
<text x="1895.0" y="550.0" text-anchor="middle" class="h">«actor»</text>
<text x="1895.0" y="570.0" text-anchor="middle" class="t">media-service</text>
<rect x="1810" y="820" width="170" height="78" rx="14" fill="#FFF7ED" stroke="#F97316" stroke-width="2"/>
<text x="1895.0" y="850.0" text-anchor="middle" class="h">«actor»</text>
<text x="1895.0" y="870.0" text-anchor="middle" class="t">Matching Engine</text>
<rect x="340" y="190" width="250" height="78" rx="14" fill="#FFFFFF" stroke="#064E3B" stroke-width="2"/>
<text x="465.0" y="229.0" text-anchor="middle" class="h">Enable Work Mode</text>
<rect x="660" y="190" width="250" height="78" rx="14" fill="#FFFFFF" stroke="#064E3B" stroke-width="2"/>
<text x="785.0" y="229.0" text-anchor="middle" class="h">Check account eligibility</text>
<rect x="980" y="190" width="250" height="78" rx="14" fill="#FFFFFF" stroke="#064E3B" stroke-width="2"/>
<text x="1105.0" y="229.0" text-anchor="middle" class="h">Create worker profile</text>
<rect x="340" y="390" width="250" height="78" rx="14" fill="#FFFFFF" stroke="#064E3B" stroke-width="2"/>
<text x="465.0" y="420.0" text-anchor="middle" class="h">Select categories</text>
<text x="465.0" y="440.0" text-anchor="middle" class="t">and skills</text>
<rect x="660" y="390" width="250" height="78" rx="14" fill="#FFFFFF" stroke="#064E3B" stroke-width="2"/>
<text x="785.0" y="429.0" text-anchor="middle" class="h">Set service area</text>
<rect x="980" y="390" width="250" height="78" rx="14" fill="#FFFFFF" stroke="#064E3B" stroke-width="2"/>
<text x="1105.0" y="429.0" text-anchor="middle" class="h">Set availability</text>
<rect x="1300" y="390" width="250" height="78" rx="14" fill="#FFFFFF" stroke="#064E3B" stroke-width="2"/>
<text x="1425.0" y="420.0" text-anchor="middle" class="h">Set price preferences</text>
<text x="1425.0" y="440.0" text-anchor="middle" class="t">optional</text>
<rect x="340" y="610" width="250" height="78" rx="14" fill="#FFFFFF" stroke="#064E3B" stroke-width="2"/>
<text x="465.0" y="649.0" text-anchor="middle" class="h">Add portfolio media</text>
<rect x="660" y="610" width="250" height="78" rx="14" fill="#FFFFFF" stroke="#064E3B" stroke-width="2"/>
<text x="785.0" y="640.0" text-anchor="middle" class="h">Submit verification</text>
<text x="785.0" y="660.0" text-anchor="middle" class="t">if required</text>
<rect x="980" y="610" width="250" height="78" rx="14" fill="#FFFFFF" stroke="#064E3B" stroke-width="2"/>
<text x="1105.0" y="649.0" text-anchor="middle" class="h">Publish worker profile</text>
<rect x="1300" y="610" width="250" height="78" rx="14" fill="#FFFFFF" stroke="#064E3B" stroke-width="2"/>
<text x="1425.0" y="649.0" text-anchor="middle" class="h">View opportunity queue</text>
<rect x="980" y="840" width="250" height="78" rx="14" fill="#FFFFFF" stroke="#064E3B" stroke-width="2"/>
<text x="1105.0" y="870.0" text-anchor="middle" class="h">Open matched request</text>
<text x="1105.0" y="890.0" text-anchor="middle" class="t">and send free offer</text>
<rect x="1300" y="840" width="250" height="78" rx="14" fill="#FFFFFF" stroke="#064E3B" stroke-width="2"/>
<text x="1425.0" y="879.0" text-anchor="middle" class="h">Pause / resume work mode</text>
<polyline points="230,360 250,360 250,229 340,229" fill="none" stroke="#4B5563" stroke-width="2" marker-end="url(#arrow)"/>
<polyline points="590,229 660,229" fill="none" stroke="#4B5563" stroke-width="2" marker-end="url(#arrow)"/>
<polyline points="910,229 980,229" fill="none" stroke="#4B5563" stroke-width="2" marker-end="url(#arrow)"/>
<text x="988" y="221" class="small">allowed</text>
<polyline points="1105,268 1105,320 465,320 465,390" fill="none" stroke="#4B5563" stroke-width="2" marker-end="url(#arrow)"/>
<text x="473" y="312" class="small">next</text>
<polyline points="590,429 660,429" fill="none" stroke="#4B5563" stroke-width="2" marker-end="url(#arrow)"/>
<polyline points="910,429 980,429" fill="none" stroke="#4B5563" stroke-width="2" marker-end="url(#arrow)"/>
<polyline points="1230,429 1300,429" fill="none" stroke="#4B5563" stroke-width="2" marker-end="url(#arrow)"/>
<text x="1308" y="421" class="small">optional</text>
<polyline points="1425,468 1425,540 465,540 465,610" fill="none" stroke="#4B5563" stroke-width="2" marker-end="url(#arrow)"/>
<text x="473" y="532" class="small">next</text>
<polyline points="590,649 660,649" fill="none" stroke="#4B5563" stroke-width="2" marker-end="url(#arrow)"/>
<polyline points="910,649 980,649" fill="none" stroke="#4B5563" stroke-width="2" marker-end="url(#arrow)"/>
<text x="988" y="641" class="small">approved/not required</text>
<polyline points="1230,649 1300,649" fill="none" stroke="#4B5563" stroke-width="2" marker-end="url(#arrow)"/>
<polyline points="230,730 250,730 250,649 1300,649" fill="none" stroke="#4B5563" stroke-width="2" marker-end="url(#arrow)"/>
<polyline points="1425,688 1425,780 1105,780 1105,840" fill="none" stroke="#4B5563" stroke-width="2" marker-end="url(#arrow)"/>
<polyline points="230,730 250,730 250,879 1300,879" fill="none" stroke="#4B5563" stroke-width="2" marker-end="url(#arrow)"/>
<polyline points="1810,269 1660,269 1660,229 910,229" fill="none" stroke="#4B5563" stroke-width="2" marker-end="url(#arrow)"/>
<text x="1668" y="221" class="small">capability/status</text>
<polyline points="1810,559 1630,559 1630,649 590,649" fill="none" stroke="#4B5563" stroke-width="2" marker-end="url(#arrow)"/>
<text x="1638" y="641" class="small">media refs</text>
<polyline points="1810,859 1660,859 1660,649 1550,649" fill="none" stroke="#4B5563" stroke-width="2" marker-end="url(#arrow)"/>
<text x="1668" y="641" class="small">matched requests</text>
<rect x="340" y="1060" width="1280" height="58" rx="12" fill="#FEF3C7" stroke="#F59E0B" stroke-width="2"/>
<text x="356" y="1084" class="t">Rules:</text>
<text x="356" y="1102" class="t">Work Mode is a capability over the same Account. Sending offers is free. Worker visibility depends on eligibility, trust, area, category and availability.</text>
</svg>
