<svg xmlns="http://www.w3.org/2000/svg" width="2100" height="1450" viewBox="0 0 2100 1450">
<defs>
<marker id="arrow" markerWidth="10" markerHeight="10" refX="8" refY="3" orient="auto" markerUnits="strokeWidth"><path d="M0,0 L0,6 L9,3 z" fill="#4B5563"/></marker>
<marker id="arrowDashed" markerWidth="10" markerHeight="10" refX="8" refY="3" orient="auto" markerUnits="strokeWidth"><path d="M0,0 L0,6 L9,3 z" fill="#F97316"/></marker>
<style>
.title { font: 700 24px Arial, sans-serif; fill: white; }
.h { font: 700 13px Arial, sans-serif; fill: #111827; }
.t { font: 400 12px Arial, sans-serif; fill: #111827; }
.small { font: 400 11px Arial, sans-serif; fill: #4B5563; }
</style>
</defs>
<rect x="40" y="30" width="2020" height="60" rx="14" fill="#022C22"/>
<text x="1050.0" y="69" text-anchor="middle" class="title">Viaverse Worker Onboarding — Class Model</text>

<rect x="80" y="150" width="350" height="240" rx="14" fill="#FFFFFF" stroke="#064E3B" stroke-width="2"/>
<text x="255.0" y="180.0" text-anchor="middle" class="h">WorkerProfile</text>
<text x="255.0" y="200.0" text-anchor="middle" class="t">--</text>
<text x="255.0" y="220.0" text-anchor="middle" class="t">id: WorkerProfileId</text>
<text x="255.0" y="240.0" text-anchor="middle" class="t">accountId: AccountId</text>
<text x="255.0" y="260.0" text-anchor="middle" class="t">status: WorkerProfileStatus</text>
<text x="255.0" y="280.0" text-anchor="middle" class="t">displayName: String</text>
<text x="255.0" y="300.0" text-anchor="middle" class="t">bio: String?</text>
<text x="255.0" y="320.0" text-anchor="middle" class="t">intro: String?</text>
<text x="255.0" y="340.0" text-anchor="middle" class="t">verificationStatus: VerificationStatus</text>
<text x="255.0" y="360.0" text-anchor="middle" class="t">createdAt: Instant</text>
<text x="255.0" y="380.0" text-anchor="middle" class="t">publishedAt: Instant?</text>
<rect x="520" y="150" width="300" height="150" rx="14" fill="#FFFFFF" stroke="#064E3B" stroke-width="2"/>
<text x="670.0" y="180.0" text-anchor="middle" class="h">WorkerCategory</text>
<text x="670.0" y="200.0" text-anchor="middle" class="t">--</text>
<text x="670.0" y="220.0" text-anchor="middle" class="t">workerProfileId</text>
<text x="670.0" y="240.0" text-anchor="middle" class="t">categoryId</text>
<text x="670.0" y="260.0" text-anchor="middle" class="t">skillLevel: SkillLevel</text>
<text x="670.0" y="280.0" text-anchor="middle" class="t">active: Boolean</text>
<rect x="920" y="150" width="330" height="190" rx="14" fill="#FFFFFF" stroke="#064E3B" stroke-width="2"/>
<text x="1085.0" y="191.0" text-anchor="middle" class="h">ServiceArea</text>
<text x="1085.0" y="211.0" text-anchor="middle" class="t">--</text>
<text x="1085.0" y="231.0" text-anchor="middle" class="t">workerProfileId</text>
<text x="1085.0" y="251.0" text-anchor="middle" class="t">areaType: RADIUS | DISTRICT</text>
<text x="1085.0" y="271.0" text-anchor="middle" class="t">centerPoint: GeoPoint?</text>
<text x="1085.0" y="291.0" text-anchor="middle" class="t">radiusKm: Decimal?</text>
<text x="1085.0" y="311.0" text-anchor="middle" class="t">districtIds: Set&lt;AreaId&gt;</text>
<rect x="1360" y="150" width="330" height="170" rx="14" fill="#FFFFFF" stroke="#064E3B" stroke-width="2"/>
<text x="1525.0" y="190.0" text-anchor="middle" class="h">WorkerAvailability</text>
<text x="1525.0" y="210.0" text-anchor="middle" class="t">--</text>
<text x="1525.0" y="230.0" text-anchor="middle" class="t">workerProfileId</text>
<text x="1525.0" y="250.0" text-anchor="middle" class="t">timezone: String</text>
<text x="1525.0" y="270.0" text-anchor="middle" class="t">weeklySlots: List&lt;TimeSlot&gt;</text>
<text x="1525.0" y="290.0" text-anchor="middle" class="t">pausedUntil: Instant?</text>
<rect x="80" y="520" width="350" height="200" rx="14" fill="#FFFFFF" stroke="#064E3B" stroke-width="2"/>
<text x="255.0" y="557.0" text-anchor="middle" class="h">PortfolioItem</text>
<text x="255.0" y="577.0" text-anchor="middle" class="t">--</text>
<text x="255.0" y="597.0" text-anchor="middle" class="t">id: UUID</text>
<text x="255.0" y="617.0" text-anchor="middle" class="t">workerProfileId</text>
<text x="255.0" y="637.0" text-anchor="middle" class="t">mediaId: MediaId</text>
<text x="255.0" y="657.0" text-anchor="middle" class="t">title: String?</text>
<text x="255.0" y="677.0" text-anchor="middle" class="t">description: String?</text>
<text x="255.0" y="697.0" text-anchor="middle" class="t">status: PortfolioStatus</text>
<rect x="520" y="520" width="330" height="200" rx="14" fill="#FFFFFF" stroke="#064E3B" stroke-width="2"/>
<text x="685.0" y="557.0" text-anchor="middle" class="h">WorkerVerification</text>
<text x="685.0" y="577.0" text-anchor="middle" class="t">--</text>
<text x="685.0" y="597.0" text-anchor="middle" class="t">id: UUID</text>
<text x="685.0" y="617.0" text-anchor="middle" class="t">workerProfileId</text>
<text x="685.0" y="637.0" text-anchor="middle" class="t">required: Boolean</text>
<text x="685.0" y="657.0" text-anchor="middle" class="t">status: VerificationStatus</text>
<text x="685.0" y="677.0" text-anchor="middle" class="t">submittedAt: Instant?</text>
<text x="685.0" y="697.0" text-anchor="middle" class="t">reviewedAt: Instant?</text>
<rect x="960" y="520" width="350" height="210" rx="14" fill="#FFFFFF" stroke="#064E3B" stroke-width="2"/>
<text x="1135.0" y="562.0" text-anchor="middle" class="h">WorkerOpportunity</text>
<text x="1135.0" y="582.0" text-anchor="middle" class="t">--</text>
<text x="1135.0" y="602.0" text-anchor="middle" class="t">id: UUID</text>
<text x="1135.0" y="622.0" text-anchor="middle" class="t">workerProfileId</text>
<text x="1135.0" y="642.0" text-anchor="middle" class="t">requestId: RequestId</text>
<text x="1135.0" y="662.0" text-anchor="middle" class="t">score: Decimal</text>
<text x="1135.0" y="682.0" text-anchor="middle" class="t">reasonCodes: List&lt;ReasonCode&gt;</text>
<text x="1135.0" y="702.0" text-anchor="middle" class="t">status: OpportunityStatus</text>
<rect x="1410" y="520" width="330" height="190" rx="14" fill="#FFFFFF" stroke="#064E3B" stroke-width="2"/>
<text x="1575.0" y="570.0" text-anchor="middle" class="h">WorkerProfilePolicy</text>
<text x="1575.0" y="590.0" text-anchor="middle" class="t">--</text>
<text x="1575.0" y="610.0" text-anchor="middle" class="t">canEnableWorkMode()</text>
<text x="1575.0" y="630.0" text-anchor="middle" class="t">canPublishProfile()</text>
<text x="1575.0" y="650.0" text-anchor="middle" class="t">canReceiveOpportunity()</text>
<text x="1575.0" y="670.0" text-anchor="middle" class="t">requiresVerification()</text>
<rect x="760" y="880" width="390" height="170" rx="14" fill="#FFFFFF" stroke="#064E3B" stroke-width="2"/>
<text x="955.0" y="911.0" text-anchor="middle" class="h">Worker Events</text>
<text x="955.0" y="931.0" text-anchor="middle" class="t">--</text>
<text x="955.0" y="951.0" text-anchor="middle" class="t">WorkerProfileDraftCreated</text>
<text x="955.0" y="971.0" text-anchor="middle" class="t">WorkerProfileUpdated</text>
<text x="955.0" y="991.0" text-anchor="middle" class="t">WorkerProfileActivated</text>
<text x="955.0" y="1011.0" text-anchor="middle" class="t">WorkerAvailabilityChanged</text>
<text x="955.0" y="1031.0" text-anchor="middle" class="t">WorkerProfilePaused</text>
<polyline points="430,235 520,225" fill="none" stroke="#4B5563" stroke-width="2" marker-end="url(#arrow)"/>
<text x="528" y="217" class="small">1 -&gt; many</text>
<polyline points="430,255 920,245" fill="none" stroke="#4B5563" stroke-width="2" marker-end="url(#arrow)"/>
<text x="928" y="237" class="small">1 -&gt; many/one</text>
<polyline points="430,275 1360,235" fill="none" stroke="#4B5563" stroke-width="2" marker-end="url(#arrow)"/>
<text x="1368" y="227" class="small">1 -&gt; one</text>
<polyline points="255,390 255,520" fill="none" stroke="#4B5563" stroke-width="2" marker-end="url(#arrow)"/>
<text x="263" y="512" class="small">1 -&gt; many</text>
<polyline points="430,320 685,320 685,520" fill="none" stroke="#4B5563" stroke-width="2" marker-end="url(#arrow)"/>
<text x="693" y="312" class="small">1 -&gt; optional</text>
<polyline points="430,350 1135,350 1135,520" fill="none" stroke="#4B5563" stroke-width="2" marker-end="url(#arrow)"/>
<text x="1143" y="342" class="small">receives</text>
<polyline points="1410,610 1320,610 1320,430 255,430 255,390" fill="none" stroke="#F97316" stroke-width="2" marker-end="url(#arrowDashed)" stroke-dasharray="6 5"/>
<text x="1328" y="422" class="small">validates</text>
<polyline points="1410,650 1310,625" fill="none" stroke="#4B5563" stroke-width="2" marker-end="url(#arrow)"/>
<text x="1318" y="617" class="small">eligibility</text>
<polyline points="255,390 255,840 955,840 955,880" fill="none" stroke="#4B5563" stroke-width="2" marker-end="url(#arrow)"/>
<text x="963" y="832" class="small">emits</text>
<polyline points="1525,320 1525,840 955,840 955,880" fill="none" stroke="#4B5563" stroke-width="2" marker-end="url(#arrow)"/>
<text x="963" y="832" class="small">emits</text>
<rect x="80" y="1130" width="1420" height="60" rx="12" fill="#FEF3C7" stroke="#F59E0B" stroke-width="2"/>
<text x="96" y="1154" class="t">Rule:</text>
<text x="96" y="1172" class="t">WorkerProfile belongs to Account, but Account remains identity owner. WorkerProfile is marketplace/work capability data.</text>
</svg>
