<svg xmlns="http://www.w3.org/2000/svg" width="2600" height="1800" viewBox="0 0 2600 1800">
<defs><marker id="arrow" markerWidth="10" markerHeight="10" refX="8" refY="3" orient="auto"><path d="M0,0 L0,6 L9,3 z" fill="#4B5563"/></marker><marker id="arrowD" markerWidth="10" markerHeight="10" refX="8" refY="3" orient="auto"><path d="M0,0 L0,6 L9,3 z" fill="#F97316"/></marker>
<style>.title{font:700 24px Arial;fill:white}.h{font:700 12px Arial;fill:#111827}.t{font:400 11px Arial;fill:#111827}.small{font:400 11px Arial;fill:#4B5563}</style></defs>
<rect x="40" y="30" width="2520" height="60" rx="14" fill="#022C22"/><text x="1300.0" y="69" text-anchor="middle" class="title">Viaverse Business / Merchant Operations Master Flow</text>
<rect x="80" y="180" width="260" height="80" rx="14" fill="#FFF7ED" stroke="#F97316" stroke-width="2"/>
<text x="210.0" y="220.0" text-anchor="middle" class="h">Business Owner</text>
<rect x="420" y="180" width="300" height="100" rx="14" fill="#ECFDF5" stroke="#064E3B" stroke-width="2"/>
<text x="570.0" y="221.0" text-anchor="middle" class="h">Business UI</text>
<text x="570.0" y="239.0" text-anchor="middle" class="t">profile / catalog / leads</text>
<rect x="820" y="180" width="300" height="90" rx="14" fill="#FFF7ED" stroke="#F97316" stroke-width="2"/>
<text x="970.0" y="225.0" text-anchor="middle" class="h">BFF / API Gateway</text>
<rect x="1220" y="120" width="320" height="90" rx="14" fill="#FFFFFF" stroke="#064E3B" stroke-width="2"/>
<text x="1380.0" y="156.0" text-anchor="middle" class="h">identity-service</text>
<text x="1380.0" y="174.0" text-anchor="middle" class="t">OPERATE_BUSINESS capability</text>
<rect x="1220" y="300" width="320" height="110" rx="14" fill="#FFF7ED" stroke="#F97316" stroke-width="2"/>
<text x="1380.0" y="346.0" text-anchor="middle" class="h">business-service</text>
<text x="1380.0" y="364.0" text-anchor="middle" class="t">profile / branch / catalog / staff</text>
<rect x="1620" y="120" width="300" height="90" rx="14" fill="#FFFFFF" stroke="#064E3B" stroke-width="2"/>
<text x="1770.0" y="156.0" text-anchor="middle" class="h">media-service</text>
<text x="1770.0" y="174.0" text-anchor="middle" class="t">logo / gallery / docs</text>
<rect x="1620" y="300" width="330" height="110" rx="14" fill="#FEF3C7" stroke="#F59E0B" stroke-width="2"/>
<text x="1785.0" y="346.0" text-anchor="middle" class="h">monetization-service</text>
<text x="1785.0" y="364.0" text-anchor="middle" class="t">trial / plan / gates</text>
<rect x="2020" y="120" width="320" height="90" rx="14" fill="#EEF2FF" stroke="#6366F1" stroke-width="2"/>
<text x="2180.0" y="156.0" text-anchor="middle" class="h">search-service</text>
<text x="2180.0" y="174.0" text-anchor="middle" class="t">public business projection</text>
<rect x="2020" y="300" width="320" height="110" rx="14" fill="#FFFFFF" stroke="#064E3B" stroke-width="2"/>
<text x="2180.0" y="346.0" text-anchor="middle" class="h">marketplace-service</text>
<text x="2180.0" y="364.0" text-anchor="middle" class="t">lead routing / quotes</text>
<rect x="420" y="520" width="300" height="100" rx="14" fill="#FEF3C7" stroke="#F59E0B" stroke-width="2"/>
<text x="570.0" y="561.0" text-anchor="middle" class="h">Admin Console</text>
<text x="570.0" y="579.0" text-anchor="middle" class="t">verification / config</text>
<rect x="820" y="520" width="300" height="100" rx="14" fill="#FFFFFF" stroke="#064E3B" stroke-width="2"/>
<text x="970.0" y="561.0" text-anchor="middle" class="h">trust-service</text>
<text x="970.0" y="579.0" text-anchor="middle" class="t">reviews / badges / quality</text>
<rect x="1220" y="520" width="380" height="100" rx="14" fill="#EEF2FF" stroke="#6366F1" stroke-width="2"/>
<text x="1410.0" y="561.0" text-anchor="middle" class="h">analytics/reporting</text>
<text x="1410.0" y="579.0" text-anchor="middle" class="t">leads / conversion / revenue</text>
<rect x="1620" y="560" width="520" height="100" rx="14" fill="#FFF7ED" stroke="#F97316" stroke-width="2"/>
<text x="1880.0" y="601.0" text-anchor="middle" class="h">Kafka / Outbox</text>
<text x="1880.0" y="619.0" text-anchor="middle" class="t">BusinessCreated / BusinessPublished / SubscriptionStarted</text>
<polyline points="340,220 420,230" fill="none" stroke="#4B5563" stroke-width="2" marker-end="url(#arrow)"/>
<text x="428" y="222" class="small">manage</text>
<polyline points="720,230 820,225" fill="none" stroke="#4B5563" stroke-width="2" marker-end="url(#arrow)"/>
<text x="828" y="217" class="small">API</text>
<polyline points="1120,225 1220,165" fill="none" stroke="#4B5563" stroke-width="2" marker-end="url(#arrow)"/>
<text x="1228" y="157" class="small">capability</text>
<polyline points="1120,225 1220,350" fill="none" stroke="#4B5563" stroke-width="2" marker-end="url(#arrow)"/>
<text x="1228" y="342" class="small">business commands</text>
<polyline points="1540,350 1620,165" fill="none" stroke="#4B5563" stroke-width="2" marker-end="url(#arrow)"/>
<text x="1628" y="157" class="small">media refs</text>
<polyline points="1540,350 1620,355" fill="none" stroke="#4B5563" stroke-width="2" marker-end="url(#arrow)"/>
<text x="1628" y="347" class="small">plan gate</text>
<polyline points="1540,350 2020,165" fill="none" stroke="#4B5563" stroke-width="2" marker-end="url(#arrow)"/>
<text x="2028" y="157" class="small">publish</text>
<polyline points="2180,210 2180,300" fill="none" stroke="#4B5563" stroke-width="2" marker-end="url(#arrow)"/>
<text x="2188" y="292" class="small">visible to leads</text>
<polyline points="2020,355 1540,355" fill="none" stroke="#F97316" stroke-width="2" marker-end="url(#arrowD)" stroke-dasharray="6 5"/>
<text x="1548" y="347" class="small">quote/lead state</text>
<polyline points="720,570 1220,355" fill="none" stroke="#4B5563" stroke-width="2" marker-end="url(#arrow)"/>
<text x="1228" y="347" class="small">verify/config</text>
<polyline points="1220,355 970,520" fill="none" stroke="#4B5563" stroke-width="2" marker-end="url(#arrow)"/>
<text x="978" y="512" class="small">reviews/signals</text>
<polyline points="1380,410 1410,520" fill="none" stroke="#4B5563" stroke-width="2" marker-end="url(#arrow)"/>
<text x="1418" y="512" class="small">metrics</text>
<polyline points="1540,410 1620,610" fill="none" stroke="#F97316" stroke-width="2" marker-end="url(#arrowD)" stroke-dasharray="6 5"/>
<text x="1628" y="602" class="small">events</text>
<polyline points="1785,410 1785,560" fill="none" stroke="#F97316" stroke-width="2" marker-end="url(#arrowD)" stroke-dasharray="6 5"/>
<text x="1793" y="552" class="small">subscription events</text>
<rect x="120" y="760" width="1850" height="65" rx="12" fill="#FEF3C7" stroke="#F59E0B" stroke-width="2"/>
<text x="136" y="784" class="t">Business rule:</text>
<text x="136" y="802" class="t">BusinessAccount is an Account capability, but BusinessAccount owns merchant profile/branches/catalog/staff. Publish requires verification + catalog + branch + subscription gates.</text>
</svg>
