<svg xmlns="http://www.w3.org/2000/svg" width="2300" height="1600" viewBox="0 0 2300 1600">
<defs>
<marker id="arrow" markerWidth="10" markerHeight="10" refX="8" refY="3" orient="auto" markerUnits="strokeWidth"><path d="M0,0 L0,6 L9,3 z" fill="#4B5563"/></marker>
<marker id="arrowDashed" markerWidth="10" markerHeight="10" refX="8" refY="3" orient="auto" markerUnits="strokeWidth"><path d="M0,0 L0,6 L9,3 z" fill="#F97316"/></marker>
<style>
.title { font: 700 24px Arial, sans-serif; fill: white; }
.h { font: 700 13px Arial, sans-serif; fill: #111827; }
.t { font: 400 12px Arial, sans-serif; fill: #111827; }
.small { font: 400 11px Arial, sans-serif; fill: #4B5563; }
</style>
</defs>
<rect x="40" y="30" width="2220" height="60" rx="14" fill="#022C22"/>
<text x="1150.0" y="69" text-anchor="middle" class="title">Viaverse Infrastructure / Deployment — AWS Topology Diagram</text>

<rect x="70" y="170" width="260" height="90" rx="14" fill="#FFF7ED" stroke="#F97316" stroke-width="2"/>
<text x="200.0" y="206.0" text-anchor="middle" class="h">Users</text>
<text x="200.0" y="226.0" text-anchor="middle" class="t">Mobile / Web / Admin</text>
<rect x="430" y="170" width="220" height="80" rx="14" fill="#FFFFFF" stroke="#064E3B" stroke-width="2"/>
<text x="540.0" y="201.0" text-anchor="middle" class="h">Route 53</text>
<text x="540.0" y="221.0" text-anchor="middle" class="t">DNS</text>
<rect x="750" y="170" width="260" height="90" rx="14" fill="#ECFDF5" stroke="#064E3B" stroke-width="2"/>
<text x="880.0" y="206.0" text-anchor="middle" class="h">CloudFront</text>
<text x="880.0" y="226.0" text-anchor="middle" class="t">CDN + TLS edge</text>
<rect x="1090" y="170" width="280" height="90" rx="14" fill="#FEF3C7" stroke="#F59E0B" stroke-width="2"/>
<text x="1230.0" y="206.0" text-anchor="middle" class="h">AWS WAF</text>
<text x="1230.0" y="226.0" text-anchor="middle" class="t">rate rules / bot guard</text>
<rect x="1460" y="170" width="260" height="90" rx="14" fill="#FFF7ED" stroke="#F97316" stroke-width="2"/>
<text x="1590.0" y="206.0" text-anchor="middle" class="h">ALB / Ingress</text>
<text x="1590.0" y="226.0" text-anchor="middle" class="t">public entry</text>
<rect x="70" y="320" width="2100" height="980" rx="10" fill="none" stroke="#022C22" stroke-width="2"/>
<text x="86" y="345" class="h">AWS VPC — Multi-AZ</text>
<rect x="120" y="380" width="1980" height="170" rx="10" fill="none" stroke="#022C22" stroke-width="2"/>
<text x="136" y="405" class="h">Public Subnets</text>
<rect x="120" y="600" width="1980" height="300" rx="10" fill="none" stroke="#022C22" stroke-width="2"/>
<text x="136" y="625" class="h">Private App Subnets</text>
<rect x="120" y="950" width="1980" height="270" rx="10" fill="none" stroke="#022C22" stroke-width="2"/>
<text x="136" y="975" class="h">Private Data Subnets</text>
<rect x="170" y="430" width="240" height="70" rx="14" fill="#FFFFFF" stroke="#064E3B" stroke-width="2"/>
<text x="290.0" y="456.0" text-anchor="middle" class="h">NAT Gateways</text>
<text x="290.0" y="476.0" text-anchor="middle" class="t">per AZ</text>
<rect x="220" y="670" width="420" height="120" rx="14" fill="#ECFDF5" stroke="#064E3B" stroke-width="2"/>
<text x="430.0" y="712.0" text-anchor="middle" class="h">EKS Cluster</text>
<text x="430.0" y="732.0" text-anchor="middle" class="t">Spring Boot microservices</text>
<text x="430.0" y="752.0" text-anchor="middle" class="t">KMP Web BFF / Admin BFF</text>
<rect x="730" y="670" width="360" height="110" rx="14" fill="#FFFFFF" stroke="#064E3B" stroke-width="2"/>
<text x="910.0" y="716.0" text-anchor="middle" class="h">Service Discovery / Ingress</text>
<text x="910.0" y="736.0" text-anchor="middle" class="t">internal service routing</text>
<rect x="1180" y="670" width="340" height="110" rx="14" fill="#FFFFFF" stroke="#064E3B" stroke-width="2"/>
<text x="1350.0" y="716.0" text-anchor="middle" class="h">Workers</text>
<text x="1350.0" y="736.0" text-anchor="middle" class="t">media / outbox / scheduler</text>
<rect x="1610" y="670" width="320" height="110" rx="14" fill="#EEF2FF" stroke="#6366F1" stroke-width="2"/>
<text x="1770.0" y="716.0" text-anchor="middle" class="h">OTel Collector</text>
<text x="1770.0" y="736.0" text-anchor="middle" class="t">sidecars/daemonset</text>
<rect x="220" y="1020" width="310" height="90" rx="14" fill="#FFFFFF" stroke="#064E3B" stroke-width="2"/>
<text x="375.0" y="1056.0" text-anchor="middle" class="h">RDS PostgreSQL</text>
<text x="375.0" y="1076.0" text-anchor="middle" class="t">Multi-AZ</text>
<rect x="620" y="1020" width="320" height="90" rx="14" fill="#FFFFFF" stroke="#064E3B" stroke-width="2"/>
<text x="780.0" y="1056.0" text-anchor="middle" class="h">ElastiCache Redis</text>
<text x="780.0" y="1076.0" text-anchor="middle" class="t">sessions/cache/rate</text>
<rect x="1020" y="1020" width="330" height="90" rx="14" fill="#FFF7ED" stroke="#F97316" stroke-width="2"/>
<text x="1185.0" y="1056.0" text-anchor="middle" class="h">MSK Kafka</text>
<text x="1185.0" y="1076.0" text-anchor="middle" class="t">or managed Kafka</text>
<rect x="1430" y="1020" width="330" height="90" rx="14" fill="#FFFFFF" stroke="#064E3B" stroke-width="2"/>
<text x="1595.0" y="1056.0" text-anchor="middle" class="h">S3 Buckets</text>
<text x="1595.0" y="1076.0" text-anchor="middle" class="t">media/backups/log archive</text>
<rect x="1820" y="1020" width="260" height="90" rx="14" fill="#FFFFFF" stroke="#064E3B" stroke-width="2"/>
<text x="1950.0" y="1056.0" text-anchor="middle" class="h">OpenSearch</text>
<text x="1950.0" y="1076.0" text-anchor="middle" class="t">search + logs</text>
<rect x="220" y="1235" width="420" height="90" rx="14" fill="#FEF3C7" stroke="#F59E0B" stroke-width="2"/>
<text x="430.0" y="1271.0" text-anchor="middle" class="h">KMS + Secrets Manager</text>
<text x="430.0" y="1291.0" text-anchor="middle" class="t">External Secrets sync</text>
<rect x="730" y="1235" width="420" height="90" rx="14" fill="#EEF2FF" stroke="#6366F1" stroke-width="2"/>
<text x="940.0" y="1271.0" text-anchor="middle" class="h">Prometheus / Perses / Jaeger</text>
<text x="940.0" y="1291.0" text-anchor="middle" class="t">observability</text>
<rect x="1240" y="1235" width="330" height="90" rx="14" fill="#FFFFFF" stroke="#064E3B" stroke-width="2"/>
<text x="1405.0" y="1271.0" text-anchor="middle" class="h">GitHub Actions</text>
<text x="1405.0" y="1291.0" text-anchor="middle" class="t">CI/CD + IaC</text>
<rect x="1650" y="1235" width="280" height="90" rx="14" fill="#FFFFFF" stroke="#064E3B" stroke-width="2"/>
<text x="1790.0" y="1271.0" text-anchor="middle" class="h">ECR</text>
<text x="1790.0" y="1291.0" text-anchor="middle" class="t">container registry</text>
<polyline points="330,215 430,210" fill="none" stroke="#4B5563" stroke-width="2" marker-end="url(#arrow)"/>
<text x="438" y="202" class="small">DNS</text>
<polyline points="650,210 750,215" fill="none" stroke="#4B5563" stroke-width="2" marker-end="url(#arrow)"/>
<polyline points="1010,215 1090,215" fill="none" stroke="#4B5563" stroke-width="2" marker-end="url(#arrow)"/>
<polyline points="1370,215 1460,215" fill="none" stroke="#4B5563" stroke-width="2" marker-end="url(#arrow)"/>
<polyline points="1590,260 1590,560 430,560 430,670" fill="none" stroke="#4B5563" stroke-width="2" marker-end="url(#arrow)"/>
<text x="438" y="552" class="small">HTTPS</text>
<polyline points="640,730 730,725" fill="none" stroke="#4B5563" stroke-width="2" marker-end="url(#arrow)"/>
<text x="738" y="717" class="small">internal</text>
<polyline points="1090,725 1180,725" fill="none" stroke="#4B5563" stroke-width="2" marker-end="url(#arrow)"/>
<text x="1188" y="717" class="small">events/jobs</text>
<polyline points="640,760 1610,730" fill="none" stroke="#4B5563" stroke-width="2" marker-end="url(#arrow)"/>
<text x="1618" y="722" class="small">telemetry</text>
<polyline points="430,790 375,1020" fill="none" stroke="#4B5563" stroke-width="2" marker-end="url(#arrow)"/>
<text x="383" y="1012" class="small">SQL</text>
<polyline points="500,790 780,1020" fill="none" stroke="#4B5563" stroke-width="2" marker-end="url(#arrow)"/>
<text x="788" y="1012" class="small">cache</text>
<polyline points="600,790 1185,1020" fill="none" stroke="#4B5563" stroke-width="2" marker-end="url(#arrow)"/>
<text x="1193" y="1012" class="small">events</text>
<polyline points="1350,780 1595,1020" fill="none" stroke="#4B5563" stroke-width="2" marker-end="url(#arrow)"/>
<text x="1603" y="1012" class="small">media/jobs</text>
<polyline points="1520,730 1950,1020" fill="none" stroke="#4B5563" stroke-width="2" marker-end="url(#arrow)"/>
<text x="1958" y="1012" class="small">index/logs</text>
<polyline points="430,1235 430,790" fill="none" stroke="#F97316" stroke-width="2" marker-end="url(#arrowDashed)" stroke-dasharray="6 5"/>
<text x="438" y="782" class="small">secrets</text>
<polyline points="1570,1280 1650,1280" fill="none" stroke="#4B5563" stroke-width="2" marker-end="url(#arrow)"/>
<text x="1658" y="1272" class="small">push images</text>
<polyline points="1790,1235 1790,910 430,910 430,790" fill="none" stroke="#F97316" stroke-width="2" marker-end="url(#arrowDashed)" stroke-dasharray="6 5"/>
<text x="438" y="902" class="small">deploy image</text>
<polyline points="1770,780 940,1235" fill="none" stroke="#4B5563" stroke-width="2" marker-end="url(#arrow)"/>
<text x="948" y="1227" class="small">export</text>
<rect x="120" y="1410" width="1740" height="65" rx="12" fill="#FEF3C7" stroke="#F59E0B" stroke-width="2"/>
<text x="136" y="1434" class="t">Topology rule:</text>
<text x="136" y="1452" class="t">Start managed and boring: AWS edge + EKS + RDS + Redis + Kafka + S3 + OpenSearch. Keep all replaceable through ports/adapters, but do not run duplicate broker stacks.</text>
</svg>
