<svg xmlns="http://www.w3.org/2000/svg" width="2300" height="1600" viewBox="0 0 2300 1600">
<defs>
<marker id="arrow" markerWidth="10" markerHeight="10" refX="8" refY="3" orient="auto" markerUnits="strokeWidth"><path d="M0,0 L0,6 L9,3 z" fill="#4B5563"/></marker>
<marker id="arrowDashed" markerWidth="10" markerHeight="10" refX="8" refY="3" orient="auto" markerUnits="strokeWidth"><path d="M0,0 L0,6 L9,3 z" fill="#F97316"/></marker>
<style>
.title { font: 700 24px Arial, sans-serif; fill: white; }
.h { font: 700 13px Arial, sans-serif; fill: #111827; }
.t { font: 400 12px Arial, sans-serif; fill: #111827; }
.small { font: 400 11px Arial, sans-serif; fill: #4B5563; }
</style>
</defs>
<rect x="40" y="30" width="2220" height="60" rx="14" fill="#022C22"/>
<text x="1150.0" y="69" text-anchor="middle" class="title">Viaverse CI/CD Deployment — Activity Diagram</text>

<rect x="80" y="160" width="280" height="60" rx="14" fill="#022C22" stroke="#022C22" stroke-width="2"/>
<text x="220.0" y="181.0" text-anchor="middle" class="h">START</text>
<text x="220.0" y="201.0" text-anchor="middle" class="t">merge to protected branch</text>
<rect x="450" y="140" width="300" height="80" rx="14" fill="#ECFDF5" stroke="#064E3B" stroke-width="2"/>
<text x="600.0" y="171.0" text-anchor="middle" class="h">GitHub Actions</text>
<text x="600.0" y="191.0" text-anchor="middle" class="t">checkout + cache</text>
<rect x="850" y="140" width="330" height="90" rx="14" fill="#FFFFFF" stroke="#064E3B" stroke-width="2"/>
<text x="1015.0" y="176.0" text-anchor="middle" class="h">Run tests</text>
<text x="1015.0" y="196.0" text-anchor="middle" class="t">unit/integration/contract</text>
<rect x="1290" y="140" width="350" height="90" rx="14" fill="#EEF2FF" stroke="#6366F1" stroke-width="2"/>
<text x="1465.0" y="176.0" text-anchor="middle" class="h">Quality gates</text>
<text x="1465.0" y="196.0" text-anchor="middle" class="t">lint/SAST/dependency scan</text>
<rect x="1730" y="140" width="230" height="90" rx="14" fill="#EEF2FF" stroke="#6366F1" stroke-width="2"/>
<text x="1845.0" y="185.0" text-anchor="middle" class="h">Gates pass?</text>
<rect x="1730" y="340" width="260" height="75" rx="14" fill="#FEF3C7" stroke="#F59E0B" stroke-width="2"/>
<text x="1860.0" y="368.5" text-anchor="middle" class="h">Fail pipeline</text>
<text x="1860.0" y="388.5" text-anchor="middle" class="t">no deploy</text>
<rect x="1290" y="340" width="300" height="75" rx="14" fill="#FFF7ED" stroke="#F97316" stroke-width="2"/>
<text x="1440.0" y="377.5" text-anchor="middle" class="h">Build Docker image</text>
<rect x="850" y="340" width="300" height="75" rx="14" fill="#FFFFFF" stroke="#064E3B" stroke-width="2"/>
<text x="1000.0" y="368.5" text-anchor="middle" class="h">Push to ECR</text>
<text x="1000.0" y="388.5" text-anchor="middle" class="t">immutable tag</text>
<rect x="450" y="340" width="330" height="90" rx="14" fill="#FEF3C7" stroke="#F59E0B" stroke-width="2"/>
<text x="615.0" y="376.0" text-anchor="middle" class="h">Run Flyway migration</text>
<text x="615.0" y="396.0" text-anchor="middle" class="t">pre-deploy gate</text>
<rect x="450" y="580" width="350" height="90" rx="14" fill="#FFF7ED" stroke="#F97316" stroke-width="2"/>
<text x="625.0" y="616.0" text-anchor="middle" class="h">Deploy to EKS</text>
<text x="625.0" y="636.0" text-anchor="middle" class="t">Helm/Kustomize/GitOps</text>
<rect x="850" y="580" width="300" height="80" rx="14" fill="#FFFFFF" stroke="#064E3B" stroke-width="2"/>
<text x="1000.0" y="611.0" text-anchor="middle" class="h">Smoke tests</text>
<text x="1000.0" y="631.0" text-anchor="middle" class="t">health/readiness</text>
<rect x="1290" y="580" width="330" height="90" rx="14" fill="#EEF2FF" stroke="#6366F1" stroke-width="2"/>
<text x="1455.0" y="616.0" text-anchor="middle" class="h">Observe metrics/logs</text>
<text x="1455.0" y="636.0" text-anchor="middle" class="t">error budget</text>
<rect x="1730" y="580" width="220" height="90" rx="14" fill="#EEF2FF" stroke="#6366F1" stroke-width="2"/>
<text x="1840.0" y="625.0" text-anchor="middle" class="h">Healthy?</text>
<rect x="1290" y="820" width="320" height="85" rx="14" fill="#FEF3C7" stroke="#F59E0B" stroke-width="2"/>
<text x="1450.0" y="853.5" text-anchor="middle" class="h">Rollback</text>
<text x="1450.0" y="873.5" text-anchor="middle" class="t">previous image/config</text>
<rect x="850" y="820" width="300" height="80" rx="14" fill="#ECFDF5" stroke="#064E3B" stroke-width="2"/>
<text x="1000.0" y="851.0" text-anchor="middle" class="h">Promote release</text>
<text x="1000.0" y="871.0" text-anchor="middle" class="t">mark version</text>
<rect x="450" y="840" width="150" height="55" rx="14" fill="#022C22" stroke="#022C22" stroke-width="2"/>
<text x="525.0" y="867.5" text-anchor="middle" class="h">END</text>
<polyline points="360,190 450,180" fill="none" stroke="#4B5563" stroke-width="2" marker-end="url(#arrow)"/>
<polyline points="750,180 850,185" fill="none" stroke="#4B5563" stroke-width="2" marker-end="url(#arrow)"/>
<polyline points="1180,185 1290,185" fill="none" stroke="#4B5563" stroke-width="2" marker-end="url(#arrow)"/>
<polyline points="1640,185 1730,185" fill="none" stroke="#4B5563" stroke-width="2" marker-end="url(#arrow)"/>
<polyline points="1845,230 1845,340" fill="none" stroke="#F97316" stroke-width="2" marker-end="url(#arrowDashed)" stroke-dasharray="6 5"/>
<text x="1853" y="332" class="small">no</text>
<polyline points="1730,185 1590,185 1590,377" fill="none" stroke="#4B5563" stroke-width="2" marker-end="url(#arrow)"/>
<text x="1598" y="177" class="small">yes</text>
<polyline points="1290,377 1150,377" fill="none" stroke="#4B5563" stroke-width="2" marker-end="url(#arrow)"/>
<polyline points="850,377 780,385" fill="none" stroke="#4B5563" stroke-width="2" marker-end="url(#arrow)"/>
<polyline points="615,430 615,580" fill="none" stroke="#4B5563" stroke-width="2" marker-end="url(#arrow)"/>
<polyline points="800,625 850,620" fill="none" stroke="#4B5563" stroke-width="2" marker-end="url(#arrow)"/>
<polyline points="1150,620 1290,625" fill="none" stroke="#4B5563" stroke-width="2" marker-end="url(#arrow)"/>
<polyline points="1620,625 1730,625" fill="none" stroke="#4B5563" stroke-width="2" marker-end="url(#arrow)"/>
<polyline points="1730,625 1610,862" fill="none" stroke="#F97316" stroke-width="2" marker-end="url(#arrowDashed)" stroke-dasharray="6 5"/>
<text x="1618" y="854" class="small">no</text>
<polyline points="1450,820 1450,670" fill="none" stroke="#F97316" stroke-width="2" marker-end="url(#arrowDashed)" stroke-dasharray="6 5"/>
<text x="1458" y="662" class="small">verify rollback</text>
<polyline points="1730,625 1660,625 1660,760 1000,760 1000,820" fill="none" stroke="#4B5563" stroke-width="2" marker-end="url(#arrow)"/>
<text x="1668" y="752" class="small">yes</text>
<polyline points="850,860 600,868" fill="none" stroke="#4B5563" stroke-width="2" marker-end="url(#arrow)"/>
<rect x="330" y="1060" width="1500" height="60" rx="12" fill="#FEF3C7" stroke="#F59E0B" stroke-width="2"/>
<text x="346" y="1084" class="t">Deployment rule:</text>
<text x="346" y="1102" class="t">Database migration must be backward-compatible for rolling deploy. No manual production change without pipeline/audit.</text>
</svg>
