<svg xmlns="http://www.w3.org/2000/svg" width="2200" height="1550" viewBox="0 0 2200 1550">
<defs>
<marker id="arrow" markerWidth="10" markerHeight="10" refX="8" refY="3" orient="auto" markerUnits="strokeWidth"><path d="M0,0 L0,6 L9,3 z" fill="#4B5563"/></marker>
<marker id="arrowDashed" markerWidth="10" markerHeight="10" refX="8" refY="3" orient="auto" markerUnits="strokeWidth"><path d="M0,0 L0,6 L9,3 z" fill="#F97316"/></marker>
<style>
.title { font: 700 24px Arial, sans-serif; fill: white; }
.h { font: 700 13px Arial, sans-serif; fill: #111827; }
.t { font: 400 12px Arial, sans-serif; fill: #111827; }
.small { font: 400 11px Arial, sans-serif; fill: #4B5563; }
</style>
</defs>
<rect x="40" y="30" width="2120" height="60" rx="14" fill="#022C22"/>
<text x="1100.0" y="69" text-anchor="middle" class="title">Viaverse Job Lifecycle / Delivery Approval — Use Case Diagram</text>

<rect x="270" y="135" width="1560" height="1130" rx="10" fill="none" stroke="#022C22" stroke-width="2"/>
<text x="286" y="160" class="h">Job Lifecycle Boundary</text>
<rect x="60" y="300" width="185" height="80" rx="14" fill="#FFF7ED" stroke="#F97316" stroke-width="2"/>
<text x="152.5" y="331.0" text-anchor="middle" class="h">«actor»</text>
<text x="152.5" y="351.0" text-anchor="middle" class="t">Requester</text>
<rect x="60" y="820" width="185" height="80" rx="14" fill="#FFF7ED" stroke="#F97316" stroke-width="2"/>
<text x="152.5" y="851.0" text-anchor="middle" class="h">«actor»</text>
<text x="152.5" y="871.0" text-anchor="middle" class="t">Worker / Business</text>
<rect x="1900" y="270" width="185" height="80" rx="14" fill="#FFF7ED" stroke="#F97316" stroke-width="2"/>
<text x="1992.5" y="301.0" text-anchor="middle" class="h">«actor»</text>
<text x="1992.5" y="321.0" text-anchor="middle" class="t">payment-service</text>
<rect x="1900" y="760" width="185" height="80" rx="14" fill="#FFF7ED" stroke="#F97316" stroke-width="2"/>
<text x="1992.5" y="791.0" text-anchor="middle" class="h">«actor»</text>
<text x="1992.5" y="811.0" text-anchor="middle" class="t">Support / Dispute Admin</text>
<rect x="360" y="190" width="265" height="82" rx="14" fill="#FFFFFF" stroke="#064E3B" stroke-width="2"/>
<text x="492.5" y="222.0" text-anchor="middle" class="h">Create Job</text>
<text x="492.5" y="242.0" text-anchor="middle" class="t">from accepted quote</text>
<rect x="700" y="190" width="265" height="82" rx="14" fill="#FFFFFF" stroke="#064E3B" stroke-width="2"/>
<text x="832.5" y="222.0" text-anchor="middle" class="h">Wait for payment</text>
<text x="832.5" y="242.0" text-anchor="middle" class="t">authorization</text>
<rect x="1040" y="190" width="265" height="82" rx="14" fill="#FFFFFF" stroke="#064E3B" stroke-width="2"/>
<text x="1172.5" y="222.0" text-anchor="middle" class="h">Confirm schedule</text>
<text x="1172.5" y="242.0" text-anchor="middle" class="t">and exact address rules</text>
<rect x="1380" y="190" width="265" height="82" rx="14" fill="#FFFFFF" stroke="#064E3B" stroke-width="2"/>
<text x="1512.5" y="231.0" text-anchor="middle" class="h">Start work</text>
<rect x="360" y="440" width="265" height="82" rx="14" fill="#FFFFFF" stroke="#064E3B" stroke-width="2"/>
<text x="492.5" y="472.0" text-anchor="middle" class="h">Use job workspace</text>
<text x="492.5" y="492.0" text-anchor="middle" class="t">chat / attachments</text>
<rect x="700" y="440" width="265" height="82" rx="14" fill="#FFFFFF" stroke="#064E3B" stroke-width="2"/>
<text x="832.5" y="481.0" text-anchor="middle" class="h">Send job updates</text>
<rect x="1040" y="440" width="265" height="82" rx="14" fill="#FFFFFF" stroke="#064E3B" stroke-width="2"/>
<text x="1172.5" y="481.0" text-anchor="middle" class="h">Deliver work</text>
<rect x="1380" y="440" width="265" height="82" rx="14" fill="#FFFFFF" stroke="#064E3B" stroke-width="2"/>
<text x="1512.5" y="481.0" text-anchor="middle" class="h">Review delivery</text>
<rect x="700" y="720" width="265" height="82" rx="14" fill="#FFFFFF" stroke="#064E3B" stroke-width="2"/>
<text x="832.5" y="761.0" text-anchor="middle" class="h">Approve delivery</text>
<rect x="1040" y="720" width="265" height="82" rx="14" fill="#FFFFFF" stroke="#064E3B" stroke-width="2"/>
<text x="1172.5" y="761.0" text-anchor="middle" class="h">Complete job</text>
<rect x="1380" y="720" width="265" height="82" rx="14" fill="#FFFFFF" stroke="#064E3B" stroke-width="2"/>
<text x="1512.5" y="761.0" text-anchor="middle" class="h">Mark payout eligible</text>
<rect x="700" y="980" width="265" height="82" rx="14" fill="#FFFFFF" stroke="#064E3B" stroke-width="2"/>
<text x="832.5" y="1021.0" text-anchor="middle" class="h">Open dispute</text>
<rect x="1040" y="980" width="265" height="82" rx="14" fill="#FFFFFF" stroke="#064E3B" stroke-width="2"/>
<text x="1172.5" y="1021.0" text-anchor="middle" class="h">Cancel job</text>
<rect x="1380" y="980" width="265" height="82" rx="14" fill="#FFFFFF" stroke="#064E3B" stroke-width="2"/>
<text x="1512.5" y="1012.0" text-anchor="middle" class="h">Emit events</text>
<text x="1512.5" y="1032.0" text-anchor="middle" class="t">JobStarted / Delivered / Completed</text>
<polyline points="245,340 270,340 270,231 360,231" fill="none" stroke="#4B5563" stroke-width="2" marker-end="url(#arrow)"/>
<text x="278" y="223" class="small">accepted quote</text>
<polyline points="625,231 700,231" fill="none" stroke="#4B5563" stroke-width="2" marker-end="url(#arrow)"/>
<polyline points="965,231 1040,231" fill="none" stroke="#4B5563" stroke-width="2" marker-end="url(#arrow)"/>
<text x="1048" y="223" class="small">PaymentAuthorized</text>
<polyline points="1305,231 1380,231" fill="none" stroke="#4B5563" stroke-width="2" marker-end="url(#arrow)"/>
<polyline points="245,860 285,860 285,231 1380,231" fill="none" stroke="#4B5563" stroke-width="2" marker-end="url(#arrow)"/>
<polyline points="245,340 290,340 290,481 360,481" fill="none" stroke="#4B5563" stroke-width="2" marker-end="url(#arrow)"/>
<polyline points="245,860 300,860 300,481 360,481" fill="none" stroke="#4B5563" stroke-width="2" marker-end="url(#arrow)"/>
<polyline points="1512,272 1512,360 832,360 832,440" fill="none" stroke="#4B5563" stroke-width="2" marker-end="url(#arrow)"/>
<polyline points="965,481 1040,481" fill="none" stroke="#4B5563" stroke-width="2" marker-end="url(#arrow)"/>
<polyline points="1305,481 1380,481" fill="none" stroke="#4B5563" stroke-width="2" marker-end="url(#arrow)"/>
<polyline points="1512,522 1512,650 832,650 832,720" fill="none" stroke="#4B5563" stroke-width="2" marker-end="url(#arrow)"/>
<text x="840" y="642" class="small">approved</text>
<polyline points="965,761 1040,761" fill="none" stroke="#4B5563" stroke-width="2" marker-end="url(#arrow)"/>
<polyline points="1305,761 1380,761" fill="none" stroke="#4B5563" stroke-width="2" marker-end="url(#arrow)"/>
<polyline points="1380,481 1320,481 1320,900 832,900 832,980" fill="none" stroke="#F97316" stroke-width="2" marker-end="url(#arrowDashed)" stroke-dasharray="6 5"/>
<text x="1328" y="892" class="small">problem</text>
<polyline points="1512,231 1640,231 1640,1021 1305,1021" fill="none" stroke="#F97316" stroke-width="2" marker-end="url(#arrowDashed)" stroke-dasharray="6 5"/>
<text x="1648" y="1013" class="small">allowed states</text>
<polyline points="1172,802 1172,900 1512,900 1512,980" fill="none" stroke="#4B5563" stroke-width="2" marker-end="url(#arrow)"/>
<polyline points="1512,802 1512,980" fill="none" stroke="#4B5563" stroke-width="2" marker-end="url(#arrow)"/>
<polyline points="1900,310 1780,310 1780,231 965,231" fill="none" stroke="#4B5563" stroke-width="2" marker-end="url(#arrow)"/>
<text x="1788" y="223" class="small">payment status</text>
<polyline points="1900,800 1770,800 1770,1021 965,1021" fill="none" stroke="#4B5563" stroke-width="2" marker-end="url(#arrow)"/>
<text x="1778" y="1013" class="small">case review</text>
<rect x="360" y="1210" width="1350" height="58" rx="12" fill="#FEF3C7" stroke="#F59E0B" stroke-width="2"/>
<text x="376" y="1234" class="t">Rules:</text>
<text x="376" y="1252" class="t">Job becomes workable only after payment authorization. Exact address/unsafe contact details become available only in allowed job/payment state.</text>
</svg>
