<svg xmlns="http://www.w3.org/2000/svg" width="2200" height="1550" viewBox="0 0 2200 1550">
<defs>
<marker id="arrow" markerWidth="10" markerHeight="10" refX="8" refY="3" orient="auto" markerUnits="strokeWidth"><path d="M0,0 L0,6 L9,3 z" fill="#4B5563"/></marker>
<marker id="arrowDashed" markerWidth="10" markerHeight="10" refX="8" refY="3" orient="auto" markerUnits="strokeWidth"><path d="M0,0 L0,6 L9,3 z" fill="#F97316"/></marker>
<style>
.title { font: 700 24px Arial, sans-serif; fill: white; }
.h { font: 700 13px Arial, sans-serif; fill: #111827; }
.t { font: 400 12px Arial, sans-serif; fill: #111827; }
.small { font: 400 11px Arial, sans-serif; fill: #4B5563; }
</style>
</defs>
<rect x="40" y="30" width="2120" height="60" rx="14" fill="#022C22"/>
<text x="1100.0" y="69" text-anchor="middle" class="title">Viaverse Job Lifecycle / Delivery Approval — Activity Diagram</text>

<rect x="80" y="160" width="220" height="60" rx="14" fill="#022C22" stroke="#022C22" stroke-width="2"/>
<text x="190.0" y="181.0" text-anchor="middle" class="h">START</text>
<text x="190.0" y="201.0" text-anchor="middle" class="t">QuoteAccepted</text>
<rect x="400" y="150" width="260" height="70" rx="14" fill="#ECFDF5" stroke="#064E3B" stroke-width="2"/>
<text x="530.0" y="185.0" text-anchor="middle" class="h">Create Job draft</text>
<rect x="780" y="140" width="280" height="90" rx="14" fill="#FFF7ED" stroke="#F97316" stroke-width="2"/>
<text x="920.0" y="176.0" text-anchor="middle" class="h">Wait for</text>
<text x="920.0" y="196.0" text-anchor="middle" class="t">PaymentAuthorized</text>
<rect x="1180" y="140" width="220" height="90" rx="14" fill="#EEF2FF" stroke="#6366F1" stroke-width="2"/>
<text x="1290.0" y="185.0" text-anchor="middle" class="h">Payment ok?</text>
<rect x="1510" y="150" width="280" height="80" rx="14" fill="#FEF3C7" stroke="#F59E0B" stroke-width="2"/>
<text x="1650.0" y="181.0" text-anchor="middle" class="h">Block start</text>
<text x="1650.0" y="201.0" text-anchor="middle" class="t">payment failed/retry</text>
<rect x="1180" y="330" width="280" height="75" rx="14" fill="#FFFFFF" stroke="#064E3B" stroke-width="2"/>
<text x="1320.0" y="367.5" text-anchor="middle" class="h">Set READY_TO_START</text>
<rect x="780" y="330" width="280" height="75" rx="14" fill="#FFFFFF" stroke="#064E3B" stroke-width="2"/>
<text x="920.0" y="367.5" text-anchor="middle" class="h">Worker starts work</text>
<rect x="400" y="330" width="300" height="90" rx="14" fill="#FFFFFF" stroke="#064E3B" stroke-width="2"/>
<text x="550.0" y="366.0" text-anchor="middle" class="h">Job workspace</text>
<text x="550.0" y="386.0" text-anchor="middle" class="t">chat / media / updates</text>
<rect x="400" y="560" width="290" height="75" rx="14" fill="#FFF7ED" stroke="#F97316" stroke-width="2"/>
<text x="545.0" y="597.5" text-anchor="middle" class="h">Worker delivers work</text>
<rect x="780" y="560" width="320" height="75" rx="14" fill="#FFFFFF" stroke="#064E3B" stroke-width="2"/>
<text x="940.0" y="597.5" text-anchor="middle" class="h">Requester reviews delivery</text>
<rect x="1180" y="550" width="240" height="90" rx="14" fill="#EEF2FF" stroke="#6366F1" stroke-width="2"/>
<text x="1300.0" y="595.0" text-anchor="middle" class="h">Approve delivery?</text>
<rect x="1510" y="560" width="280" height="75" rx="14" fill="#FEF3C7" stroke="#F59E0B" stroke-width="2"/>
<text x="1650.0" y="597.5" text-anchor="middle" class="h">Request fix / revision</text>
<rect x="1180" y="760" width="230" height="90" rx="14" fill="#EEF2FF" stroke="#6366F1" stroke-width="2"/>
<text x="1295.0" y="805.0" text-anchor="middle" class="h">Open dispute?</text>
<rect x="1510" y="770" width="300" height="85" rx="14" fill="#FEF3C7" stroke="#F59E0B" stroke-width="2"/>
<text x="1660.0" y="803.5" text-anchor="middle" class="h">Create dispute case</text>
<text x="1660.0" y="823.5" text-anchor="middle" class="t">payout blocked</text>
<rect x="780" y="780" width="270" height="75" rx="14" fill="#FFF7ED" stroke="#F97316" stroke-width="2"/>
<text x="915.0" y="817.5" text-anchor="middle" class="h">Set COMPLETED</text>
<rect x="400" y="780" width="300" height="75" rx="14" fill="#FFFFFF" stroke="#064E3B" stroke-width="2"/>
<text x="550.0" y="817.5" text-anchor="middle" class="h">Mark payout eligible</text>
<rect x="400" y="990" width="300" height="75" rx="14" fill="#FFFFFF" stroke="#064E3B" stroke-width="2"/>
<text x="550.0" y="1027.5" text-anchor="middle" class="h">Trigger review prompt</text>
<rect x="780" y="990" width="300" height="85" rx="14" fill="#FFFFFF" stroke="#064E3B" stroke-width="2"/>
<text x="930.0" y="1023.5" text-anchor="middle" class="h">Emit JobCompleted</text>
<text x="930.0" y="1043.5" text-anchor="middle" class="t">PayoutEligible</text>
<rect x="1180" y="1010" width="150" height="55" rx="14" fill="#022C22" stroke="#022C22" stroke-width="2"/>
<text x="1255.0" y="1037.5" text-anchor="middle" class="h">END</text>
<polyline points="300,190 400,185" fill="none" stroke="#4B5563" stroke-width="2" marker-end="url(#arrow)"/>
<polyline points="660,185 780,185" fill="none" stroke="#4B5563" stroke-width="2" marker-end="url(#arrow)"/>
<polyline points="1060,185 1180,185" fill="none" stroke="#4B5563" stroke-width="2" marker-end="url(#arrow)"/>
<polyline points="1400,185 1510,190" fill="none" stroke="#F97316" stroke-width="2" marker-end="url(#arrowDashed)" stroke-dasharray="6 5"/>
<text x="1518" y="182" class="small">no</text>
<polyline points="1290,230 1290,330" fill="none" stroke="#4B5563" stroke-width="2" marker-end="url(#arrow)"/>
<text x="1298" y="322" class="small">yes</text>
<polyline points="1180,367 1060,367" fill="none" stroke="#4B5563" stroke-width="2" marker-end="url(#arrow)"/>
<polyline points="780,367 700,375" fill="none" stroke="#4B5563" stroke-width="2" marker-end="url(#arrow)"/>
<polyline points="550,420 550,560" fill="none" stroke="#4B5563" stroke-width="2" marker-end="url(#arrow)"/>
<polyline points="690,598 780,598" fill="none" stroke="#4B5563" stroke-width="2" marker-end="url(#arrow)"/>
<polyline points="1100,598 1180,595" fill="none" stroke="#4B5563" stroke-width="2" marker-end="url(#arrow)"/>
<polyline points="1420,595 1510,598" fill="none" stroke="#F97316" stroke-width="2" marker-end="url(#arrowDashed)" stroke-dasharray="6 5"/>
<text x="1518" y="590" class="small">needs fix</text>
<polyline points="1510,598 1460,598 1460,700 545,700 545,635" fill="none" stroke="#F97316" stroke-width="2" marker-end="url(#arrowDashed)" stroke-dasharray="6 5"/>
<text x="1468" y="692" class="small">redeliver</text>
<polyline points="1290,640 1290,715 915,715 915,780" fill="none" stroke="#4B5563" stroke-width="2" marker-end="url(#arrow)"/>
<text x="923" y="707" class="small">approved</text>
<polyline points="1290,640 1290,760" fill="none" stroke="#F97316" stroke-width="2" marker-end="url(#arrowDashed)" stroke-dasharray="6 5"/>
<text x="1298" y="752" class="small">problem</text>
<polyline points="1410,805 1510,812" fill="none" stroke="#4B5563" stroke-width="2" marker-end="url(#arrow)"/>
<text x="1518" y="804" class="small">yes</text>
<polyline points="780,817 700,817" fill="none" stroke="#4B5563" stroke-width="2" marker-end="url(#arrow)"/>
<polyline points="550,855 550,990" fill="none" stroke="#4B5563" stroke-width="2" marker-end="url(#arrow)"/>
<polyline points="700,1028 780,1032" fill="none" stroke="#4B5563" stroke-width="2" marker-end="url(#arrow)"/>
<polyline points="1080,1032 1180,1037" fill="none" stroke="#4B5563" stroke-width="2" marker-end="url(#arrow)"/>
<rect x="320" y="1170" width="1450" height="60" rx="12" fill="#FEF3C7" stroke="#F59E0B" stroke-width="2"/>
<text x="336" y="1194" class="t">Approval rule:</text>
<text x="336" y="1212" class="t">Auto-approval after timeout can be added later as configurable policy, but dispute/report path must always be available before payout release.</text>
</svg>
