<svg xmlns="http://www.w3.org/2000/svg" width="2200" height="1550" viewBox="0 0 2200 1550">
<defs>
<marker id="arrow" markerWidth="10" markerHeight="10" refX="8" refY="3" orient="auto" markerUnits="strokeWidth"><path d="M0,0 L0,6 L9,3 z" fill="#4B5563"/></marker>
<marker id="arrowDashed" markerWidth="10" markerHeight="10" refX="8" refY="3" orient="auto" markerUnits="strokeWidth"><path d="M0,0 L0,6 L9,3 z" fill="#F97316"/></marker>
<style>
.title { font: 700 24px Arial, sans-serif; fill: white; }
.h { font: 700 13px Arial, sans-serif; fill: #111827; }
.t { font: 400 12px Arial, sans-serif; fill: #111827; }
.small { font: 400 11px Arial, sans-serif; fill: #4B5563; }
</style>
</defs>
<rect x="40" y="30" width="2120" height="60" rx="14" fill="#022C22"/>
<text x="1100.0" y="69" text-anchor="middle" class="title">Viaverse Job Lifecycle / Delivery Approval — Component Diagram</text>

<rect x="80" y="170" width="320" height="130" rx="14" fill="#FFF7ED" stroke="#F97316" stroke-width="2"/>
<text x="240.0" y="199.0" text-anchor="middle" class="h">KMP / Next.js Client</text>
<text x="240.0" y="219.0" text-anchor="middle" class="t">--</text>
<text x="240.0" y="239.0" text-anchor="middle" class="t">Job workspace</text>
<text x="240.0" y="259.0" text-anchor="middle" class="t">Delivery review</text>
<text x="240.0" y="279.0" text-anchor="middle" class="t">Status timeline</text>
<rect x="500" y="170" width="300" height="120" rx="14" fill="#ECFDF5" stroke="#064E3B" stroke-width="2"/>
<text x="650.0" y="203.0" text-anchor="middle" class="h">API Gateway / App BFF</text>
<text x="650.0" y="223.0" text-anchor="middle" class="t">--</text>
<text x="650.0" y="243.0" text-anchor="middle" class="t">Job API</text>
<text x="650.0" y="263.0" text-anchor="middle" class="t">Workspace API</text>
<rect x="900" y="140" width="260" height="70" rx="14" fill="#FFFFFF" stroke="#064E3B" stroke-width="2"/>
<text x="1030.0" y="175.0" text-anchor="middle" class="h">JobController</text>
<rect x="900" y="260" width="330" height="150" rx="14" fill="#FFFFFF" stroke="#064E3B" stroke-width="2"/>
<text x="1065.0" y="290.0" text-anchor="middle" class="h">Job Use Cases</text>
<text x="1065.0" y="310.0" text-anchor="middle" class="t">--</text>
<text x="1065.0" y="330.0" text-anchor="middle" class="t">StartJob</text>
<text x="1065.0" y="350.0" text-anchor="middle" class="t">DeliverJob</text>
<text x="1065.0" y="370.0" text-anchor="middle" class="t">ApproveDelivery</text>
<text x="1065.0" y="390.0" text-anchor="middle" class="t">CancelJob</text>
<rect x="900" y="490" width="340" height="170" rx="14" fill="#FFFFFF" stroke="#064E3B" stroke-width="2"/>
<text x="1070.0" y="530.0" text-anchor="middle" class="h">Job Policies</text>
<text x="1070.0" y="550.0" text-anchor="middle" class="t">--</text>
<text x="1070.0" y="570.0" text-anchor="middle" class="t">participant authorization</text>
<text x="1070.0" y="590.0" text-anchor="middle" class="t">payment gate</text>
<text x="1070.0" y="610.0" text-anchor="middle" class="t">delivery approval</text>
<text x="1070.0" y="630.0" text-anchor="middle" class="t">address visibility</text>
<rect x="900" y="750" width="340" height="140" rx="14" fill="#FFFFFF" stroke="#064E3B" stroke-width="2"/>
<text x="1070.0" y="784.0" text-anchor="middle" class="h">Ports</text>
<text x="1070.0" y="804.0" text-anchor="middle" class="t">JobRepo</text>
<text x="1070.0" y="824.0" text-anchor="middle" class="t">OutboxPort</text>
<text x="1070.0" y="844.0" text-anchor="middle" class="t">PaymentStatePort</text>
<text x="1070.0" y="864.0" text-anchor="middle" class="t">MessagingPort</text>
<rect x="1340" y="210" width="340" height="130" rx="14" fill="#FFFFFF" stroke="#064E3B" stroke-width="2"/>
<text x="1510.0" y="248.0" text-anchor="middle" class="h">payment-service</text>
<text x="1510.0" y="268.0" text-anchor="middle" class="t">--</text>
<text x="1510.0" y="288.0" text-anchor="middle" class="t">payment authorized</text>
<text x="1510.0" y="308.0" text-anchor="middle" class="t">payout hold/eligible</text>
<rect x="1340" y="440" width="340" height="120" rx="14" fill="#FFFFFF" stroke="#064E3B" stroke-width="2"/>
<text x="1510.0" y="473.0" text-anchor="middle" class="h">messaging-service</text>
<text x="1510.0" y="493.0" text-anchor="middle" class="t">--</text>
<text x="1510.0" y="513.0" text-anchor="middle" class="t">job conversation</text>
<text x="1510.0" y="533.0" text-anchor="middle" class="t">attachments</text>
<rect x="1340" y="700" width="360" height="160" rx="14" fill="#FFFFFF" stroke="#064E3B" stroke-width="2"/>
<text x="1520.0" y="735.0" text-anchor="middle" class="h">PostgreSQL</text>
<text x="1520.0" y="755.0" text-anchor="middle" class="t">--</text>
<text x="1520.0" y="775.0" text-anchor="middle" class="t">job</text>
<text x="1520.0" y="795.0" text-anchor="middle" class="t">job_delivery</text>
<text x="1520.0" y="815.0" text-anchor="middle" class="t">job_update</text>
<text x="1520.0" y="835.0" text-anchor="middle" class="t">outbox_event</text>
<rect x="1780" y="330" width="330" height="160" rx="14" fill="#FFF7ED" stroke="#F97316" stroke-width="2"/>
<text x="1945.0" y="365.0" text-anchor="middle" class="h">Kafka / Outbox</text>
<text x="1945.0" y="385.0" text-anchor="middle" class="t">--</text>
<text x="1945.0" y="405.0" text-anchor="middle" class="t">JobStarted</text>
<text x="1945.0" y="425.0" text-anchor="middle" class="t">JobDelivered</text>
<text x="1945.0" y="445.0" text-anchor="middle" class="t">JobCompleted</text>
<text x="1945.0" y="465.0" text-anchor="middle" class="t">PayoutEligible</text>
<rect x="1780" y="660" width="330" height="120" rx="14" fill="#EEF2FF" stroke="#6366F1" stroke-width="2"/>
<text x="1945.0" y="693.0" text-anchor="middle" class="h">trust/review-service</text>
<text x="1945.0" y="713.0" text-anchor="middle" class="t">--</text>
<text x="1945.0" y="733.0" text-anchor="middle" class="t">review prompt</text>
<text x="1945.0" y="753.0" text-anchor="middle" class="t">trust update later</text>
<polyline points="400,235 500,235" fill="none" stroke="#4B5563" stroke-width="2" marker-end="url(#arrow)"/>
<text x="508" y="227" class="small">HTTPS</text>
<polyline points="800,235 850,235 850,175 900,175" fill="none" stroke="#4B5563" stroke-width="2" marker-end="url(#arrow)"/>
<text x="858" y="167" class="small">REST</text>
<polyline points="1030,210 1030,260" fill="none" stroke="#4B5563" stroke-width="2" marker-end="url(#arrow)"/>
<text x="1038" y="252" class="small">command/query</text>
<polyline points="1065,410 1065,490" fill="none" stroke="#4B5563" stroke-width="2" marker-end="url(#arrow)"/>
<text x="1073" y="482" class="small">validate</text>
<polyline points="1070,660 1070,750" fill="none" stroke="#4B5563" stroke-width="2" marker-end="url(#arrow)"/>
<text x="1078" y="742" class="small">ports</text>
<polyline points="1240,575 1290,575 1290,275 1340,275" fill="none" stroke="#4B5563" stroke-width="2" marker-end="url(#arrow)"/>
<text x="1298" y="267" class="small">payment gate</text>
<polyline points="1240,820 1290,820 1290,500 1340,500" fill="none" stroke="#4B5563" stroke-width="2" marker-end="url(#arrow)"/>
<text x="1298" y="492" class="small">conversation/context</text>
<polyline points="1240,820 1340,780" fill="none" stroke="#4B5563" stroke-width="2" marker-end="url(#arrow)"/>
<text x="1348" y="772" class="small">persist</text>
<polyline points="1230,335 1780,410" fill="none" stroke="#4B5563" stroke-width="2" marker-end="url(#arrow)"/>
<text x="1788" y="402" class="small">events</text>
<polyline points="1945,490 1945,660" fill="none" stroke="#4B5563" stroke-width="2" marker-end="url(#arrow)"/>
<text x="1953" y="652" class="small">review prompt</text>
<rect x="80" y="1040" width="1580" height="65" rx="12" fill="#FEF3C7" stroke="#F59E0B" stroke-width="2"/>
<text x="96" y="1064" class="t">Component boundary:</text>
<text x="96" y="1082" class="t">Job use cases orchestrate work state only. Payment capture/refund/release and dispute decisions stay in payment/dispute flows.</text>
</svg>
