<svg xmlns="http://www.w3.org/2000/svg" width="2200" height="1550" viewBox="0 0 2200 1550">
<defs>
<marker id="arrow" markerWidth="10" markerHeight="10" refX="8" refY="3" orient="auto" markerUnits="strokeWidth"><path d="M0,0 L0,6 L9,3 z" fill="#4B5563"/></marker>
<marker id="arrowDashed" markerWidth="10" markerHeight="10" refX="8" refY="3" orient="auto" markerUnits="strokeWidth"><path d="M0,0 L0,6 L9,3 z" fill="#F97316"/></marker>
<style>
.title { font: 700 24px Arial, sans-serif; fill: white; }
.h { font: 700 13px Arial, sans-serif; fill: #111827; }
.t { font: 400 12px Arial, sans-serif; fill: #111827; }
.small { font: 400 11px Arial, sans-serif; fill: #4B5563; }
</style>
</defs>
<rect x="40" y="30" width="2120" height="60" rx="14" fill="#022C22"/>
<text x="1100.0" y="69" text-anchor="middle" class="title">Viaverse Payment / Wallet — Use Case Diagram</text>

<rect x="270" y="135" width="1560" height="1120" rx="10" fill="none" stroke="#022C22" stroke-width="2"/>
<text x="286" y="160" class="h">Payment / Wallet Boundary</text>
<rect x="60" y="330" width="185" height="80" rx="14" fill="#FFF7ED" stroke="#F97316" stroke-width="2"/>
<text x="152.5" y="361.0" text-anchor="middle" class="h">«actor»</text>
<text x="152.5" y="381.0" text-anchor="middle" class="t">Requester</text>
<rect x="60" y="820" width="185" height="80" rx="14" fill="#FFF7ED" stroke="#F97316" stroke-width="2"/>
<text x="152.5" y="851.0" text-anchor="middle" class="h">«actor»</text>
<text x="152.5" y="871.0" text-anchor="middle" class="t">Worker / Business</text>
<rect x="1900" y="260" width="185" height="80" rx="14" fill="#FFF7ED" stroke="#F97316" stroke-width="2"/>
<text x="1992.5" y="282.0" text-anchor="middle" class="h">«actor»</text>
<text x="1992.5" y="302.0" text-anchor="middle" class="t">Payment Provider</text>
<text x="1992.5" y="322.0" text-anchor="middle" class="t">iyzico / Stripe</text>
<rect x="1900" y="560" width="185" height="80" rx="14" fill="#FFF7ED" stroke="#F97316" stroke-width="2"/>
<text x="1992.5" y="591.0" text-anchor="middle" class="h">«actor»</text>
<text x="1992.5" y="611.0" text-anchor="middle" class="t">Masterpass / Wallet</text>
<rect x="1900" y="900" width="185" height="80" rx="14" fill="#FFF7ED" stroke="#F97316" stroke-width="2"/>
<text x="1992.5" y="931.0" text-anchor="middle" class="h">«actor»</text>
<text x="1992.5" y="951.0" text-anchor="middle" class="t">Payment Admin</text>
<rect x="360" y="190" width="260" height="80" rx="14" fill="#FFFFFF" stroke="#064E3B" stroke-width="2"/>
<text x="490.0" y="230.0" text-anchor="middle" class="h">Accept quote</text>
<rect x="700" y="190" width="260" height="80" rx="14" fill="#FFFFFF" stroke="#064E3B" stroke-width="2"/>
<text x="830.0" y="230.0" text-anchor="middle" class="h">Create payment session</text>
<rect x="1040" y="190" width="260" height="80" rx="14" fill="#FFFFFF" stroke="#064E3B" stroke-width="2"/>
<text x="1170.0" y="230.0" text-anchor="middle" class="h">Choose payment method</text>
<rect x="1380" y="190" width="260" height="80" rx="14" fill="#FFFFFF" stroke="#064E3B" stroke-width="2"/>
<text x="1510.0" y="230.0" text-anchor="middle" class="h">Open provider checkout</text>
<rect x="360" y="440" width="260" height="80" rx="14" fill="#FFFFFF" stroke="#064E3B" stroke-width="2"/>
<text x="490.0" y="471.0" text-anchor="middle" class="h">Pay with saved card</text>
<text x="490.0" y="491.0" text-anchor="middle" class="t">tokenized</text>
<rect x="700" y="440" width="260" height="80" rx="14" fill="#FFFFFF" stroke="#064E3B" stroke-width="2"/>
<text x="830.0" y="471.0" text-anchor="middle" class="h">Add card token</text>
<text x="830.0" y="491.0" text-anchor="middle" class="t">without PAN/CVV storage</text>
<rect x="1040" y="440" width="260" height="80" rx="14" fill="#FFFFFF" stroke="#064E3B" stroke-width="2"/>
<text x="1170.0" y="480.0" text-anchor="middle" class="h">Verify provider callback</text>
<rect x="1380" y="440" width="260" height="80" rx="14" fill="#FFFFFF" stroke="#064E3B" stroke-width="2"/>
<text x="1510.0" y="480.0" text-anchor="middle" class="h">Authorize / capture payment</text>
<rect x="360" y="700" width="260" height="80" rx="14" fill="#FFFFFF" stroke="#064E3B" stroke-width="2"/>
<text x="490.0" y="740.0" text-anchor="middle" class="h">Handle payment failure</text>
<rect x="700" y="700" width="260" height="80" rx="14" fill="#FFFFFF" stroke="#064E3B" stroke-width="2"/>
<text x="830.0" y="731.0" text-anchor="middle" class="h">Calculate commission</text>
<text x="830.0" y="751.0" text-anchor="middle" class="t">5% initial</text>
<rect x="1040" y="700" width="260" height="80" rx="14" fill="#FFFFFF" stroke="#064E3B" stroke-width="2"/>
<text x="1170.0" y="740.0" text-anchor="middle" class="h">Hold payout until completion</text>
<rect x="1380" y="700" width="260" height="80" rx="14" fill="#FFFFFF" stroke="#064E3B" stroke-width="2"/>
<text x="1510.0" y="740.0" text-anchor="middle" class="h">Show payment status</text>
<rect x="700" y="960" width="260" height="80" rx="14" fill="#FFFFFF" stroke="#064E3B" stroke-width="2"/>
<text x="830.0" y="1000.0" text-anchor="middle" class="h">Refund / partial refund</text>
<rect x="1040" y="960" width="260" height="80" rx="14" fill="#FFFFFF" stroke="#064E3B" stroke-width="2"/>
<text x="1170.0" y="1000.0" text-anchor="middle" class="h">Release payout</text>
<rect x="1380" y="960" width="260" height="80" rx="14" fill="#FFFFFF" stroke="#064E3B" stroke-width="2"/>
<text x="1510.0" y="1000.0" text-anchor="middle" class="h">Audit payment admin action</text>
<polyline points="245,370 270,370 270,230 360,230" fill="none" stroke="#4B5563" stroke-width="2" marker-end="url(#arrow)"/>
<polyline points="620,230 700,230" fill="none" stroke="#4B5563" stroke-width="2" marker-end="url(#arrow)"/>
<polyline points="960,230 1040,230" fill="none" stroke="#4B5563" stroke-width="2" marker-end="url(#arrow)"/>
<polyline points="1300,230 1380,230" fill="none" stroke="#4B5563" stroke-width="2" marker-end="url(#arrow)"/>
<text x="1388" y="222" class="small">new payment</text>
<polyline points="1170,270 1170,350 490,350 490,440" fill="none" stroke="#F97316" stroke-width="2" marker-end="url(#arrowDashed)" stroke-dasharray="6 5"/>
<text x="498" y="342" class="small">saved method</text>
<polyline points="620,480 660,480 660,600 1510,600 1510,520" fill="none" stroke="#F97316" stroke-width="2" marker-end="url(#arrowDashed)" stroke-dasharray="6 5"/>
<text x="668" y="592" class="small">tokenized payment</text>
<polyline points="1170,270 1170,330 830,330 830,440" fill="none" stroke="#F97316" stroke-width="2" marker-end="url(#arrowDashed)" stroke-dasharray="6 5"/>
<text x="838" y="322" class="small">add card</text>
<polyline points="1510,270 1510,360 1170,360 1170,440" fill="none" stroke="#4B5563" stroke-width="2" marker-end="url(#arrow)"/>
<text x="1178" y="352" class="small">callback</text>
<polyline points="1300,480 1380,480" fill="none" stroke="#4B5563" stroke-width="2" marker-end="url(#arrow)"/>
<text x="1388" y="472" class="small">valid</text>
<polyline points="1510,520 1510,640 830,640 830,700" fill="none" stroke="#4B5563" stroke-width="2" marker-end="url(#arrow)"/>
<text x="838" y="632" class="small">success</text>
<polyline points="1380,480 1240,480 1240,640 490,640 490,700" fill="none" stroke="#F97316" stroke-width="2" marker-end="url(#arrowDashed)" stroke-dasharray="6 5"/>
<text x="1248" y="632" class="small">failure</text>
<polyline points="960,740 1040,740" fill="none" stroke="#4B5563" stroke-width="2" marker-end="url(#arrow)"/>
<polyline points="1300,740 1380,740" fill="none" stroke="#4B5563" stroke-width="2" marker-end="url(#arrow)"/>
<polyline points="245,860 280,860 280,740 1380,740" fill="none" stroke="#4B5563" stroke-width="2" marker-end="url(#arrow)"/>
<text x="288" y="732" class="small">view status</text>
<polyline points="1900,940 1800,940 1800,1000 960,1000" fill="none" stroke="#4B5563" stroke-width="2" marker-end="url(#arrow)"/>
<text x="1808" y="992" class="small">admin action</text>
<polyline points="1900,940 1800,940 1800,1000 1300,1000" fill="none" stroke="#4B5563" stroke-width="2" marker-end="url(#arrow)"/>
<text x="1808" y="992" class="small">admin action</text>
<polyline points="960,1000 1380,1000" fill="none" stroke="#4B5563" stroke-width="2" marker-end="url(#arrow)"/>
<polyline points="1300,1000 1380,1000" fill="none" stroke="#4B5563" stroke-width="2" marker-end="url(#arrow)"/>
<polyline points="1900,300 1800,300 1800,230 1640,230" fill="none" stroke="#4B5563" stroke-width="2" marker-end="url(#arrow)"/>
<text x="1808" y="222" class="small">hosted/tokenized</text>
<polyline points="1900,300 1780,300 1780,480 1300,480" fill="none" stroke="#4B5563" stroke-width="2" marker-end="url(#arrow)"/>
<text x="1788" y="472" class="small">callback</text>
<polyline points="1900,600 1760,600 1760,480 960,480" fill="none" stroke="#4B5563" stroke-width="2" marker-end="url(#arrow)"/>
<text x="1768" y="472" class="small">card token</text>
<rect x="360" y="1190" width="1350" height="58" rx="12" fill="#FEF3C7" stroke="#F59E0B" stroke-width="2"/>
<text x="376" y="1214" class="t">Rules:</text>
<text x="376" y="1232" class="t">Viaverse never stores PAN/CVV. Stored cards are provider tokens only. Callback verification + idempotency are mandatory.</text>
</svg>
