<svg xmlns="http://www.w3.org/2000/svg" width="2200" height="1550" viewBox="0 0 2200 1550">
<defs>
<marker id="arrow" markerWidth="10" markerHeight="10" refX="8" refY="3" orient="auto" markerUnits="strokeWidth"><path d="M0,0 L0,6 L9,3 z" fill="#4B5563"/></marker>
<marker id="arrowDashed" markerWidth="10" markerHeight="10" refX="8" refY="3" orient="auto" markerUnits="strokeWidth"><path d="M0,0 L0,6 L9,3 z" fill="#F97316"/></marker>
<style>
.title { font: 700 24px Arial, sans-serif; fill: white; }
.h { font: 700 13px Arial, sans-serif; fill: #111827; }
.t { font: 400 12px Arial, sans-serif; fill: #111827; }
.small { font: 400 11px Arial, sans-serif; fill: #4B5563; }
</style>
</defs>
<rect x="40" y="30" width="2120" height="60" rx="14" fill="#022C22"/>
<text x="1100.0" y="69" text-anchor="middle" class="title">Viaverse Payment / Wallet — Component Diagram</text>

<rect x="80" y="170" width="300" height="130" rx="14" fill="#FFF7ED" stroke="#F97316" stroke-width="2"/>
<text x="230.0" y="199.0" text-anchor="middle" class="h">KMP / Next.js Client</text>
<text x="230.0" y="219.0" text-anchor="middle" class="t">--</text>
<text x="230.0" y="239.0" text-anchor="middle" class="t">Payment screen</text>
<text x="230.0" y="259.0" text-anchor="middle" class="t">Wallet UI</text>
<text x="230.0" y="279.0" text-anchor="middle" class="t">Result screen</text>
<rect x="480" y="170" width="300" height="120" rx="14" fill="#ECFDF5" stroke="#064E3B" stroke-width="2"/>
<text x="630.0" y="203.0" text-anchor="middle" class="h">API Gateway / App BFF</text>
<text x="630.0" y="223.0" text-anchor="middle" class="t">--</text>
<text x="630.0" y="243.0" text-anchor="middle" class="t">Payment API</text>
<text x="630.0" y="263.0" text-anchor="middle" class="t">Wallet API</text>
<rect x="890" y="140" width="310" height="80" rx="14" fill="#FFFFFF" stroke="#064E3B" stroke-width="2"/>
<text x="1045.0" y="171.0" text-anchor="middle" class="h">PaymentController</text>
<text x="1045.0" y="191.0" text-anchor="middle" class="t">ProviderCallbackController</text>
<rect x="890" y="280" width="340" height="150" rx="14" fill="#FFFFFF" stroke="#064E3B" stroke-width="2"/>
<text x="1060.0" y="310.0" text-anchor="middle" class="h">Payment Use Cases</text>
<text x="1060.0" y="330.0" text-anchor="middle" class="t">--</text>
<text x="1060.0" y="350.0" text-anchor="middle" class="t">CreatePaymentSession</text>
<text x="1060.0" y="370.0" text-anchor="middle" class="t">HandleCallback</text>
<text x="1060.0" y="390.0" text-anchor="middle" class="t">Refund</text>
<text x="1060.0" y="410.0" text-anchor="middle" class="t">ReleasePayout</text>
<rect x="890" y="500" width="340" height="160" rx="14" fill="#FFFFFF" stroke="#064E3B" stroke-width="2"/>
<text x="1060.0" y="535.0" text-anchor="middle" class="h">Payment Policies</text>
<text x="1060.0" y="555.0" text-anchor="middle" class="t">--</text>
<text x="1060.0" y="575.0" text-anchor="middle" class="t">amount/currency</text>
<text x="1060.0" y="595.0" text-anchor="middle" class="t">job state</text>
<text x="1060.0" y="615.0" text-anchor="middle" class="t">refund/payout auth</text>
<text x="1060.0" y="635.0" text-anchor="middle" class="t">idempotency</text>
<rect x="890" y="740" width="340" height="140" rx="14" fill="#FFFFFF" stroke="#064E3B" stroke-width="2"/>
<text x="1060.0" y="774.0" text-anchor="middle" class="h">Ports</text>
<text x="1060.0" y="794.0" text-anchor="middle" class="t">PaymentProvider</text>
<text x="1060.0" y="814.0" text-anchor="middle" class="t">WalletProvider</text>
<text x="1060.0" y="834.0" text-anchor="middle" class="t">PaymentRepo</text>
<text x="1060.0" y="854.0" text-anchor="middle" class="t">OutboxPort</text>
<rect x="1320" y="220" width="320" height="140" rx="14" fill="#F9FAFB" stroke="#4B5563" stroke-width="2"/>
<text x="1480.0" y="254.0" text-anchor="middle" class="h">Provider Adapters</text>
<text x="1480.0" y="274.0" text-anchor="middle" class="t">--</text>
<text x="1480.0" y="294.0" text-anchor="middle" class="t">iyzico</text>
<text x="1480.0" y="314.0" text-anchor="middle" class="t">Stripe</text>
<text x="1480.0" y="334.0" text-anchor="middle" class="t">Masterpass</text>
<rect x="1320" y="450" width="320" height="130" rx="14" fill="#FFFFFF" stroke="#064E3B" stroke-width="2"/>
<text x="1480.0" y="488.0" text-anchor="middle" class="h">marketplace-service</text>
<text x="1480.0" y="508.0" text-anchor="middle" class="t">--</text>
<text x="1480.0" y="528.0" text-anchor="middle" class="t">job/quote state</text>
<text x="1480.0" y="548.0" text-anchor="middle" class="t">payout block state</text>
<rect x="1320" y="700" width="360" height="160" rx="14" fill="#FFFFFF" stroke="#064E3B" stroke-width="2"/>
<text x="1500.0" y="735.0" text-anchor="middle" class="h">PostgreSQL</text>
<text x="1500.0" y="755.0" text-anchor="middle" class="t">--</text>
<text x="1500.0" y="775.0" text-anchor="middle" class="t">payment_session</text>
<text x="1500.0" y="795.0" text-anchor="middle" class="t">stored_payment_method</text>
<text x="1500.0" y="815.0" text-anchor="middle" class="t">callback_record</text>
<text x="1500.0" y="835.0" text-anchor="middle" class="t">commission_ledger</text>
<rect x="1760" y="330" width="320" height="150" rx="14" fill="#FFF7ED" stroke="#F97316" stroke-width="2"/>
<text x="1920.0" y="369.0" text-anchor="middle" class="h">Kafka / Outbox</text>
<text x="1920.0" y="389.0" text-anchor="middle" class="t">--</text>
<text x="1920.0" y="409.0" text-anchor="middle" class="t">PaymentAuthorized</text>
<text x="1920.0" y="429.0" text-anchor="middle" class="t">RefundIssued</text>
<text x="1920.0" y="449.0" text-anchor="middle" class="t">PayoutReleased</text>
<rect x="1760" y="620" width="320" height="140" rx="14" fill="#EEF2FF" stroke="#6366F1" stroke-width="2"/>
<text x="1920.0" y="663.0" text-anchor="middle" class="h">Admin BFF</text>
<text x="1920.0" y="683.0" text-anchor="middle" class="t">--</text>
<text x="1920.0" y="703.0" text-anchor="middle" class="t">refund/payout actions</text>
<text x="1920.0" y="723.0" text-anchor="middle" class="t">reason + audit</text>
<polyline points="380,235 480,235" fill="none" stroke="#4B5563" stroke-width="2" marker-end="url(#arrow)"/>
<text x="488" y="227" class="small">HTTPS</text>
<polyline points="780,235 840,235 840,180 890,180" fill="none" stroke="#4B5563" stroke-width="2" marker-end="url(#arrow)"/>
<text x="848" y="172" class="small">REST</text>
<polyline points="1045,220 1045,280" fill="none" stroke="#4B5563" stroke-width="2" marker-end="url(#arrow)"/>
<text x="1053" y="272" class="small">command</text>
<polyline points="1060,430 1060,500" fill="none" stroke="#4B5563" stroke-width="2" marker-end="url(#arrow)"/>
<text x="1068" y="492" class="small">validate</text>
<polyline points="1060,660 1060,740" fill="none" stroke="#4B5563" stroke-width="2" marker-end="url(#arrow)"/>
<text x="1068" y="732" class="small">ports</text>
<polyline points="1230,800 1280,800 1280,290 1320,290" fill="none" stroke="#4B5563" stroke-width="2" marker-end="url(#arrow)"/>
<text x="1288" y="282" class="small">adapter calls</text>
<polyline points="1230,580 1320,515" fill="none" stroke="#4B5563" stroke-width="2" marker-end="url(#arrow)"/>
<text x="1328" y="507" class="small">job/quote checks</text>
<polyline points="1230,810 1320,780" fill="none" stroke="#4B5563" stroke-width="2" marker-end="url(#arrow)"/>
<text x="1328" y="772" class="small">persist</text>
<polyline points="1230,355 1760,405" fill="none" stroke="#4B5563" stroke-width="2" marker-end="url(#arrow)"/>
<text x="1768" y="397" class="small">outbox events</text>
<polyline points="1760,690 1690,690 1690,355 1230,355" fill="none" stroke="#4B5563" stroke-width="2" marker-end="url(#arrow)"/>
<text x="1698" y="347" class="small">admin commands</text>
<polyline points="1320,290 1260,290 1260,180 1200,180" fill="none" stroke="#F97316" stroke-width="2" marker-end="url(#arrowDashed)" stroke-dasharray="6 5"/>
<text x="1268" y="172" class="small">callbacks</text>
<rect x="80" y="1040" width="1600" height="65" rx="12" fill="#FEF3C7" stroke="#F59E0B" stroke-width="2"/>
<text x="96" y="1064" class="t">Boundary rule:</text>
<text x="96" y="1082" class="t">Payment domain never stores raw card data. Provider SDKs live only in provider adapters behind PaymentProvider/WalletProvider ports.</text>
</svg>
