<svg xmlns="http://www.w3.org/2000/svg" width="2300" height="1600" viewBox="0 0 2300 1600">
<defs>
<marker id="arrow" markerWidth="10" markerHeight="10" refX="8" refY="3" orient="auto" markerUnits="strokeWidth"><path d="M0,0 L0,6 L9,3 z" fill="#4B5563"/></marker>
<marker id="arrowDashed" markerWidth="10" markerHeight="10" refX="8" refY="3" orient="auto" markerUnits="strokeWidth"><path d="M0,0 L0,6 L9,3 z" fill="#F97316"/></marker>
<style>
.title { font: 700 24px Arial, sans-serif; fill: white; }
.h { font: 700 13px Arial, sans-serif; fill: #111827; }
.t { font: 400 12px Arial, sans-serif; fill: #111827; }
.small { font: 400 11px Arial, sans-serif; fill: #4B5563; }
</style>
</defs>
<rect x="40" y="30" width="2220" height="60" rx="14" fill="#022C22"/>
<text x="1150.0" y="69" text-anchor="middle" class="title">Viaverse AI Assistant Request — Activity Diagram</text>

<rect x="80" y="160" width="240" height="60" rx="14" fill="#022C22" stroke="#022C22" stroke-width="2"/>
<text x="200.0" y="181.0" text-anchor="middle" class="h">START</text>
<text x="200.0" y="201.0" text-anchor="middle" class="t">user asks AI</text>
<rect x="420" y="140" width="280" height="80" rx="14" fill="#ECFDF5" stroke="#064E3B" stroke-width="2"/>
<text x="560.0" y="171.0" text-anchor="middle" class="h">Check session</text>
<text x="560.0" y="191.0" text-anchor="middle" class="t">and capability</text>
<rect x="800" y="140" width="340" height="90" rx="14" fill="#EEF2FF" stroke="#6366F1" stroke-width="2"/>
<text x="970.0" y="176.0" text-anchor="middle" class="h">Classify intent</text>
<text x="970.0" y="196.0" text-anchor="middle" class="t">support/search/safety/action</text>
<rect x="1240" y="140" width="340" height="90" rx="14" fill="#FFF7ED" stroke="#F97316" stroke-width="2"/>
<text x="1410.0" y="176.0" text-anchor="middle" class="h">Build minimal context</text>
<text x="1410.0" y="196.0" text-anchor="middle" class="t">redacted + scoped</text>
<rect x="1640" y="140" width="320" height="90" rx="14" fill="#FEF3C7" stroke="#F59E0B" stroke-width="2"/>
<text x="1800.0" y="176.0" text-anchor="middle" class="h">Privacy guard</text>
<text x="1800.0" y="196.0" text-anchor="middle" class="t">PII/secret redaction</text>
<rect x="1240" y="360" width="330" height="80" rx="14" fill="#FFFFFF" stroke="#064E3B" stroke-width="2"/>
<text x="1405.0" y="391.0" text-anchor="middle" class="h">Retrieve KB/domain docs</text>
<text x="1405.0" y="411.0" text-anchor="middle" class="t">if needed</text>
<rect x="800" y="360" width="250" height="80" rx="14" fill="#EEF2FF" stroke="#6366F1" stroke-width="2"/>
<text x="925.0" y="400.0" text-anchor="middle" class="h">Risky action?</text>
<rect x="420" y="360" width="300" height="80" rx="14" fill="#FEF3C7" stroke="#F59E0B" stroke-width="2"/>
<text x="570.0" y="391.0" text-anchor="middle" class="h">Escalate to human</text>
<text x="570.0" y="411.0" text-anchor="middle" class="t">create ticket</text>
<rect x="800" y="580" width="330" height="90" rx="14" fill="#FFFFFF" stroke="#064E3B" stroke-width="2"/>
<text x="965.0" y="616.0" text-anchor="middle" class="h">Compose prompt</text>
<text x="965.0" y="636.0" text-anchor="middle" class="t">with policy boundaries</text>
<rect x="1240" y="580" width="330" height="90" rx="14" fill="#FFF7ED" stroke="#F97316" stroke-width="2"/>
<text x="1405.0" y="616.0" text-anchor="middle" class="h">Call LLM/model</text>
<text x="1405.0" y="636.0" text-anchor="middle" class="t">with timeout/budget</text>
<rect x="1640" y="580" width="350" height="90" rx="14" fill="#FFFFFF" stroke="#064E3B" stroke-width="2"/>
<text x="1815.0" y="616.0" text-anchor="middle" class="h">Output moderation</text>
<text x="1815.0" y="636.0" text-anchor="middle" class="t">policy + hallucination checks</text>
<rect x="1240" y="800" width="280" height="90" rx="14" fill="#EEF2FF" stroke="#6366F1" stroke-width="2"/>
<text x="1380.0" y="845.0" text-anchor="middle" class="h">Safe/confident?</text>
<rect x="800" y="800" width="320" height="80" rx="14" fill="#FEF3C7" stroke="#F59E0B" stroke-width="2"/>
<text x="960.0" y="831.0" text-anchor="middle" class="h">Fallback answer</text>
<text x="960.0" y="851.0" text-anchor="middle" class="t">or human handoff</text>
<rect x="420" y="800" width="300" height="80" rx="14" fill="#ECFDF5" stroke="#064E3B" stroke-width="2"/>
<text x="570.0" y="831.0" text-anchor="middle" class="h">Return answer</text>
<text x="570.0" y="851.0" text-anchor="middle" class="t">with source hints</text>
<rect x="420" y="1020" width="330" height="80" rx="14" fill="#FFFFFF" stroke="#064E3B" stroke-width="2"/>
<text x="585.0" y="1051.0" text-anchor="middle" class="h">Log privacy-safe event</text>
<text x="585.0" y="1071.0" text-anchor="middle" class="t">feedback hook</text>
<rect x="800" y="1040" width="150" height="55" rx="14" fill="#022C22" stroke="#022C22" stroke-width="2"/>
<text x="875.0" y="1067.5" text-anchor="middle" class="h">END</text>
<polyline points="320,190 420,180" fill="none" stroke="#4B5563" stroke-width="2" marker-end="url(#arrow)"/>
<polyline points="700,180 800,185" fill="none" stroke="#4B5563" stroke-width="2" marker-end="url(#arrow)"/>
<polyline points="1140,185 1240,185" fill="none" stroke="#4B5563" stroke-width="2" marker-end="url(#arrow)"/>
<polyline points="1580,185 1640,185" fill="none" stroke="#4B5563" stroke-width="2" marker-end="url(#arrow)"/>
<polyline points="1800,230 1800,300 1405,300 1405,360" fill="none" stroke="#4B5563" stroke-width="2" marker-end="url(#arrow)"/>
<polyline points="1240,400 1050,400" fill="none" stroke="#4B5563" stroke-width="2" marker-end="url(#arrow)"/>
<polyline points="800,400 720,400" fill="none" stroke="#F97316" stroke-width="2" marker-end="url(#arrowDashed)" stroke-dasharray="6 5"/>
<text x="728" y="392" class="small">yes</text>
<polyline points="925,440 925,580" fill="none" stroke="#4B5563" stroke-width="2" marker-end="url(#arrow)"/>
<text x="933" y="572" class="small">no</text>
<polyline points="1130,625 1240,625" fill="none" stroke="#4B5563" stroke-width="2" marker-end="url(#arrow)"/>
<polyline points="1570,625 1640,625" fill="none" stroke="#4B5563" stroke-width="2" marker-end="url(#arrow)"/>
<polyline points="1640,625 1520,845" fill="none" stroke="#4B5563" stroke-width="2" marker-end="url(#arrow)"/>
<polyline points="1240,845 1120,840" fill="none" stroke="#F97316" stroke-width="2" marker-end="url(#arrowDashed)" stroke-dasharray="6 5"/>
<text x="1128" y="832" class="small">no</text>
<polyline points="1240,845 720,840" fill="none" stroke="#4B5563" stroke-width="2" marker-end="url(#arrow)"/>
<text x="728" y="832" class="small">yes</text>
<polyline points="800,840 720,840" fill="none" stroke="#4B5563" stroke-width="2" marker-end="url(#arrow)"/>
<polyline points="570,880 570,1020" fill="none" stroke="#4B5563" stroke-width="2" marker-end="url(#arrow)"/>
<polyline points="750,1060 800,1068" fill="none" stroke="#4B5563" stroke-width="2" marker-end="url(#arrow)"/>
<rect x="330" y="1190" width="1580" height="60" rx="12" fill="#FEF3C7" stroke="#F59E0B" stroke-width="2"/>
<text x="346" y="1214" class="t">Safety rule:</text>
<text x="346" y="1232" class="t">Use minimal context and redaction before model call. Do not put full private chat, payment data, raw identity documents or secrets into prompts.</text>
</svg>
