<svg xmlns="http://www.w3.org/2000/svg" width="2300" height="1600" viewBox="0 0 2300 1600">
<defs>
<marker id="arrow" markerWidth="10" markerHeight="10" refX="8" refY="3" orient="auto" markerUnits="strokeWidth"><path d="M0,0 L0,6 L9,3 z" fill="#4B5563"/></marker>
<marker id="arrowDashed" markerWidth="10" markerHeight="10" refX="8" refY="3" orient="auto" markerUnits="strokeWidth"><path d="M0,0 L0,6 L9,3 z" fill="#F97316"/></marker>
<style>
.title { font: 700 24px Arial, sans-serif; fill: white; }
.h { font: 700 13px Arial, sans-serif; fill: #111827; }
.t { font: 400 12px Arial, sans-serif; fill: #111827; }
.small { font: 400 11px Arial, sans-serif; fill: #4B5563; }
</style>
</defs>
<rect x="40" y="30" width="2220" height="60" rx="14" fill="#022C22"/>
<text x="1150.0" y="69" text-anchor="middle" class="title">Viaverse AI Assistant / Support — Component Diagram</text>

<rect x="80" y="170" width="330" height="130" rx="14" fill="#FFF7ED" stroke="#F97316" stroke-width="2"/>
<text x="245.0" y="199.0" text-anchor="middle" class="h">KMP / Next.js Client</text>
<text x="245.0" y="219.0" text-anchor="middle" class="t">--</text>
<text x="245.0" y="239.0" text-anchor="middle" class="t">AI help entry</text>
<text x="245.0" y="259.0" text-anchor="middle" class="t">support widget</text>
<text x="245.0" y="279.0" text-anchor="middle" class="t">feedback</text>
<rect x="510" y="170" width="320" height="120" rx="14" fill="#ECFDF5" stroke="#064E3B" stroke-width="2"/>
<text x="670.0" y="203.0" text-anchor="middle" class="h">API Gateway / BFF</text>
<text x="670.0" y="223.0" text-anchor="middle" class="t">--</text>
<text x="670.0" y="243.0" text-anchor="middle" class="t">AI API</text>
<text x="670.0" y="263.0" text-anchor="middle" class="t">Support API</text>
<rect x="930" y="140" width="350" height="90" rx="14" fill="#FFFFFF" stroke="#064E3B" stroke-width="2"/>
<text x="1105.0" y="176.0" text-anchor="middle" class="h">AiAssistantController</text>
<text x="1105.0" y="196.0" text-anchor="middle" class="t">SupportController</text>
<rect x="930" y="310" width="380" height="170" rx="14" fill="#FFFFFF" stroke="#064E3B" stroke-width="2"/>
<text x="1120.0" y="350.0" text-anchor="middle" class="h">AI Use Cases</text>
<text x="1120.0" y="370.0" text-anchor="middle" class="t">--</text>
<text x="1120.0" y="390.0" text-anchor="middle" class="t">AskAssistant</text>
<text x="1120.0" y="410.0" text-anchor="middle" class="t">SummarizeCase</text>
<text x="1120.0" y="430.0" text-anchor="middle" class="t">EscalateToSupport</text>
<text x="1120.0" y="450.0" text-anchor="middle" class="t">CollectFeedback</text>
<rect x="930" y="570" width="380" height="180" rx="14" fill="#FFFFFF" stroke="#064E3B" stroke-width="2"/>
<text x="1120.0" y="615.0" text-anchor="middle" class="h">AI Policies</text>
<text x="1120.0" y="635.0" text-anchor="middle" class="t">--</text>
<text x="1120.0" y="655.0" text-anchor="middle" class="t">privacy guard</text>
<text x="1120.0" y="675.0" text-anchor="middle" class="t">prompt boundary</text>
<text x="1120.0" y="695.0" text-anchor="middle" class="t">tool allowlist</text>
<text x="1120.0" y="715.0" text-anchor="middle" class="t">human escalation</text>
<rect x="930" y="850" width="380" height="190" rx="14" fill="#FFFFFF" stroke="#064E3B" stroke-width="2"/>
<text x="1120.0" y="900.0" text-anchor="middle" class="h">Ports</text>
<text x="1120.0" y="920.0" text-anchor="middle" class="t">LlmPort</text>
<text x="1120.0" y="940.0" text-anchor="middle" class="t">KnowledgeRetrievalPort</text>
<text x="1120.0" y="960.0" text-anchor="middle" class="t">DomainContextPort</text>
<text x="1120.0" y="980.0" text-anchor="middle" class="t">SupportPort</text>
<text x="1120.0" y="1000.0" text-anchor="middle" class="t">OutboxPort</text>
<rect x="1400" y="210" width="360" height="170" rx="14" fill="#FFFFFF" stroke="#064E3B" stroke-width="2"/>
<text x="1580.0" y="250.0" text-anchor="middle" class="h">Knowledge Base</text>
<text x="1580.0" y="270.0" text-anchor="middle" class="t">--</text>
<text x="1580.0" y="290.0" text-anchor="middle" class="t">FAQ</text>
<text x="1580.0" y="310.0" text-anchor="middle" class="t">policies</text>
<text x="1580.0" y="330.0" text-anchor="middle" class="t">product docs</text>
<text x="1580.0" y="350.0" text-anchor="middle" class="t">support macros</text>
<rect x="1400" y="520" width="360" height="160" rx="14" fill="#EEF2FF" stroke="#6366F1" stroke-width="2"/>
<text x="1580.0" y="564.0" text-anchor="middle" class="h">LLM Adapter</text>
<text x="1580.0" y="584.0" text-anchor="middle" class="t">--</text>
<text x="1580.0" y="604.0" text-anchor="middle" class="t">provider switch</text>
<text x="1580.0" y="624.0" text-anchor="middle" class="t">budget/timeout</text>
<text x="1580.0" y="644.0" text-anchor="middle" class="t">content filter</text>
<rect x="1400" y="820" width="360" height="160" rx="14" fill="#FEF3C7" stroke="#F59E0B" stroke-width="2"/>
<text x="1580.0" y="864.0" text-anchor="middle" class="h">support-service</text>
<text x="1580.0" y="884.0" text-anchor="middle" class="t">--</text>
<text x="1580.0" y="904.0" text-anchor="middle" class="t">tickets</text>
<text x="1580.0" y="924.0" text-anchor="middle" class="t">agent workspace</text>
<text x="1580.0" y="944.0" text-anchor="middle" class="t">case timeline</text>
<rect x="1800" y="210" width="360" height="180" rx="14" fill="#FFFFFF" stroke="#064E3B" stroke-width="2"/>
<text x="1980.0" y="246.0" text-anchor="middle" class="h">Domain Context Adapters</text>
<text x="1980.0" y="266.0" text-anchor="middle" class="t">--</text>
<text x="1980.0" y="286.0" text-anchor="middle" class="t">identity</text>
<text x="1980.0" y="306.0" text-anchor="middle" class="t">jobs</text>
<text x="1980.0" y="326.0" text-anchor="middle" class="t">payments</text>
<text x="1980.0" y="346.0" text-anchor="middle" class="t">media</text>
<text x="1980.0" y="366.0" text-anchor="middle" class="t">trust</text>
<rect x="1800" y="530" width="360" height="170" rx="14" fill="#FFFFFF" stroke="#064E3B" stroke-width="2"/>
<text x="1980.0" y="570.0" text-anchor="middle" class="h">PostgreSQL</text>
<text x="1980.0" y="590.0" text-anchor="middle" class="t">--</text>
<text x="1980.0" y="610.0" text-anchor="middle" class="t">ai_session</text>
<text x="1980.0" y="630.0" text-anchor="middle" class="t">ai_message</text>
<text x="1980.0" y="650.0" text-anchor="middle" class="t">support_ticket</text>
<text x="1980.0" y="670.0" text-anchor="middle" class="t">feedback</text>
<rect x="1800" y="850" width="360" height="150" rx="14" fill="#FFF7ED" stroke="#F97316" stroke-width="2"/>
<text x="1980.0" y="889.0" text-anchor="middle" class="h">Kafka / Outbox</text>
<text x="1980.0" y="909.0" text-anchor="middle" class="t">--</text>
<text x="1980.0" y="929.0" text-anchor="middle" class="t">AiAsked</text>
<text x="1980.0" y="949.0" text-anchor="middle" class="t">AiEscalated</text>
<text x="1980.0" y="969.0" text-anchor="middle" class="t">TicketResolved</text>
<polyline points="410,235 510,230" fill="none" stroke="#4B5563" stroke-width="2" marker-end="url(#arrow)"/>
<text x="518" y="222" class="small">HTTPS</text>
<polyline points="830,230 880,230 880,185 930,185" fill="none" stroke="#4B5563" stroke-width="2" marker-end="url(#arrow)"/>
<text x="888" y="177" class="small">REST</text>
<polyline points="1105,230 1105,310" fill="none" stroke="#4B5563" stroke-width="2" marker-end="url(#arrow)"/>
<text x="1113" y="302" class="small">command/query</text>
<polyline points="1120,480 1120,570" fill="none" stroke="#4B5563" stroke-width="2" marker-end="url(#arrow)"/>
<text x="1128" y="562" class="small">validate</text>
<polyline points="1120,750 1120,850" fill="none" stroke="#4B5563" stroke-width="2" marker-end="url(#arrow)"/>
<text x="1128" y="842" class="small">ports</text>
<polyline points="1310,940 1360,940 1360,295 1400,295" fill="none" stroke="#4B5563" stroke-width="2" marker-end="url(#arrow)"/>
<text x="1368" y="287" class="small">retrieve</text>
<polyline points="1310,940 1360,940 1360,600 1400,600" fill="none" stroke="#4B5563" stroke-width="2" marker-end="url(#arrow)"/>
<text x="1368" y="592" class="small">generate</text>
<polyline points="1310,940 1400,900" fill="none" stroke="#4B5563" stroke-width="2" marker-end="url(#arrow)"/>
<text x="1408" y="892" class="small">ticket/escalate</text>
<polyline points="1310,940 1740,940 1740,300 1800,300" fill="none" stroke="#4B5563" stroke-width="2" marker-end="url(#arrow)"/>
<text x="1748" y="292" class="small">scoped context</text>
<polyline points="1310,940 1740,940 1740,615 1800,615" fill="none" stroke="#4B5563" stroke-width="2" marker-end="url(#arrow)"/>
<text x="1748" y="607" class="small">persist</text>
<polyline points="1310,395 1800,925" fill="none" stroke="#4B5563" stroke-width="2" marker-end="url(#arrow)"/>
<text x="1808" y="917" class="small">events</text>
<rect x="80" y="1240" width="1780" height="65" rx="12" fill="#FEF3C7" stroke="#F59E0B" stroke-width="2"/>
<text x="96" y="1264" class="t">Component rule:</text>
<text x="96" y="1282" class="t">AI layer is an orchestration boundary, not a domain source-of-truth. It reads scoped context and creates support/AI records; business state changes stay in domain services.</text>
</svg>
