<svg xmlns="http://www.w3.org/2000/svg" width="2000" height="1400" viewBox="0 0 2000 1400">
<defs>
<marker id="arrow" markerWidth="10" markerHeight="10" refX="8" refY="3" orient="auto" markerUnits="strokeWidth"><path d="M0,0 L0,6 L9,3 z" fill="#4B5563"/></marker>
<marker id="arrowDashed" markerWidth="10" markerHeight="10" refX="8" refY="3" orient="auto" markerUnits="strokeWidth"><path d="M0,0 L0,6 L9,3 z" fill="#F97316"/></marker>
<style>
.title { font: 700 24px Arial, sans-serif; fill: white; }
.h { font: 700 13px Arial, sans-serif; fill: #111827; }
.t { font: 400 12px Arial, sans-serif; fill: #111827; }
.small { font: 400 11px Arial, sans-serif; fill: #4B5563; }
</style>
</defs>
<rect x="40" y="30" width="1920" height="60" rx="14" fill="#022C22"/>
<text x="1000.0" y="69" text-anchor="middle" class="title">Viaverse Request Creation — Activity Diagram</text>

<rect x="80" y="160" width="130" height="50" rx="14" fill="#022C22" stroke="#022C22" stroke-width="2"/>
<text x="145.0" y="185.0" text-anchor="middle" class="h">START</text>
<rect x="300" y="150" width="220" height="70" rx="14" fill="#FFF7ED" stroke="#F97316" stroke-width="2"/>
<text x="410.0" y="185.0" text-anchor="middle" class="h">Tap central Create</text>
<rect x="620" y="150" width="250" height="70" rx="14" fill="#ECFDF5" stroke="#064E3B" stroke-width="2"/>
<text x="745.0" y="185.0" text-anchor="middle" class="h">Select Request a service</text>
<rect x="970" y="150" width="260" height="70" rx="14" fill="#FFFFFF" stroke="#064E3B" stroke-width="2"/>
<text x="1100.0" y="185.0" text-anchor="middle" class="h">Enter title + description</text>
<rect x="1330" y="140" width="280" height="90" rx="14" fill="#EEF2FF" stroke="#6366F1" stroke-width="2"/>
<text x="1470.0" y="176.0" text-anchor="middle" class="h">AI suggests category</text>
<text x="1470.0" y="196.0" text-anchor="middle" class="t">and budget guidance</text>
<rect x="1330" y="300" width="280" height="70" rx="14" fill="#FFFFFF" stroke="#064E3B" stroke-width="2"/>
<text x="1470.0" y="335.0" text-anchor="middle" class="h">User confirms category</text>
<rect x="970" y="300" width="270" height="70" rx="14" fill="#FFFFFF" stroke="#064E3B" stroke-width="2"/>
<text x="1105.0" y="335.0" text-anchor="middle" class="h">Choose budget mode/range</text>
<rect x="620" y="300" width="280" height="90" rx="14" fill="#FFFFFF" stroke="#064E3B" stroke-width="2"/>
<text x="760.0" y="336.0" text-anchor="middle" class="h">Set approximate location</text>
<text x="760.0" y="356.0" text-anchor="middle" class="t">and exact address if needed</text>
<rect x="300" y="310" width="240" height="70" rx="14" fill="#FFFFFF" stroke="#064E3B" stroke-width="2"/>
<text x="420.0" y="345.0" text-anchor="middle" class="h">Set timing + urgency</text>
<rect x="300" y="500" width="210" height="80" rx="14" fill="#EEF2FF" stroke="#6366F1" stroke-width="2"/>
<text x="405.0" y="540.0" text-anchor="middle" class="h">Attach media?</text>
<rect x="620" y="500" width="310" height="90" rx="14" fill="#FFFFFF" stroke="#064E3B" stroke-width="2"/>
<text x="775.0" y="536.0" text-anchor="middle" class="h">Request upload URL</text>
<text x="775.0" y="556.0" text-anchor="middle" class="t">and confirm uploaded media</text>
<rect x="970" y="510" width="260" height="70" rx="14" fill="#FFFFFF" stroke="#064E3B" stroke-width="2"/>
<text x="1100.0" y="545.0" text-anchor="middle" class="h">Set visibility/matching</text>
<rect x="1330" y="510" width="240" height="70" rx="14" fill="#FFF7ED" stroke="#F97316" stroke-width="2"/>
<text x="1450.0" y="545.0" text-anchor="middle" class="h">Preview request</text>
<rect x="1330" y="700" width="220" height="90" rx="14" fill="#EEF2FF" stroke="#6366F1" stroke-width="2"/>
<text x="1440.0" y="745.0" text-anchor="middle" class="h">Publish now?</text>
<rect x="970" y="710" width="230" height="70" rx="14" fill="#FFFFFF" stroke="#064E3B" stroke-width="2"/>
<text x="1085.0" y="745.0" text-anchor="middle" class="h">Save as DRAFT</text>
<rect x="1330" y="860" width="280" height="90" rx="14" fill="#FFFFFF" stroke="#064E3B" stroke-width="2"/>
<text x="1470.0" y="896.0" text-anchor="middle" class="h">Validate required fields</text>
<text x="1470.0" y="916.0" text-anchor="middle" class="t">and capability</text>
<rect x="970" y="860" width="280" height="90" rx="14" fill="#FFFFFF" stroke="#064E3B" stroke-width="2"/>
<text x="1110.0" y="896.0" text-anchor="middle" class="h">Persist PUBLISHED</text>
<text x="1110.0" y="916.0" text-anchor="middle" class="t">request + outbox</text>
<rect x="620" y="860" width="300" height="90" rx="14" fill="#FFF7ED" stroke="#F97316" stroke-width="2"/>
<text x="770.0" y="887.0" text-anchor="middle" class="h">Emit events</text>
<text x="770.0" y="907.0" text-anchor="middle" class="t">ServiceRequestPublished</text>
<text x="770.0" y="927.0" text-anchor="middle" class="t">MatchingRequested</text>
<rect x="300" y="880" width="180" height="55" rx="14" fill="#022C22" stroke="#022C22" stroke-width="2"/>
<text x="390.0" y="907.5" text-anchor="middle" class="h">REQUEST READY</text>
<polyline points="210,185 300,185" fill="none" stroke="#4B5563" stroke-width="2" marker-end="url(#arrow)"/>
<polyline points="520,185 620,185" fill="none" stroke="#4B5563" stroke-width="2" marker-end="url(#arrow)"/>
<polyline points="870,185 970,185" fill="none" stroke="#4B5563" stroke-width="2" marker-end="url(#arrow)"/>
<polyline points="1230,185 1330,185" fill="none" stroke="#4B5563" stroke-width="2" marker-end="url(#arrow)"/>
<polyline points="1470,230 1470,300" fill="none" stroke="#4B5563" stroke-width="2" marker-end="url(#arrow)"/>
<text x="1478" y="292" class="small">editable</text>
<polyline points="1330,335 1240,335" fill="none" stroke="#4B5563" stroke-width="2" marker-end="url(#arrow)"/>
<polyline points="970,335 900,335 900,345 900,345 900,345 900,345 900,345 900,345 900,345 900,345 900,345 900,345 620,345" fill="none" stroke="#4B5563" stroke-width="2" marker-end="url(#arrow)"/>
<polyline points="620,345 540,345" fill="none" stroke="#4B5563" stroke-width="2" marker-end="url(#arrow)"/>
<polyline points="420,380 420,500" fill="none" stroke="#4B5563" stroke-width="2" marker-end="url(#arrow)"/>
<polyline points="510,540 620,540" fill="none" stroke="#4B5563" stroke-width="2" marker-end="url(#arrow)"/>
<text x="628" y="532" class="small">yes</text>
<polyline points="405,580 405,650 1100,650 1100,580" fill="none" stroke="#F97316" stroke-width="2" marker-end="url(#arrowDashed)" stroke-dasharray="6 5"/>
<text x="1108" y="642" class="small">no</text>
<polyline points="930,545 970,545" fill="none" stroke="#4B5563" stroke-width="2" marker-end="url(#arrow)"/>
<text x="978" y="537" class="small">media refs</text>
<polyline points="1230,545 1330,545" fill="none" stroke="#4B5563" stroke-width="2" marker-end="url(#arrow)"/>
<polyline points="1450,580 1450,700" fill="none" stroke="#4B5563" stroke-width="2" marker-end="url(#arrow)"/>
<polyline points="1330,745 1200,745" fill="none" stroke="#4B5563" stroke-width="2" marker-end="url(#arrow)"/>
<text x="1208" y="737" class="small">no</text>
<polyline points="1440,790 1440,860" fill="none" stroke="#4B5563" stroke-width="2" marker-end="url(#arrow)"/>
<text x="1448" y="852" class="small">yes</text>
<polyline points="1330,905 1250,905" fill="none" stroke="#4B5563" stroke-width="2" marker-end="url(#arrow)"/>
<polyline points="970,905 920,905" fill="none" stroke="#4B5563" stroke-width="2" marker-end="url(#arrow)"/>
<polyline points="620,905 480,905" fill="none" stroke="#4B5563" stroke-width="2" marker-end="url(#arrow)"/>
<rect x="300" y="1050" width="1200" height="60" rx="12" fill="#FEF3C7" stroke="#F59E0B" stroke-width="2"/>
<text x="316" y="1074" class="t">Privacy rule:</text>
<text x="316" y="1092" class="t">Public/matching data uses approximate area. Exact address becomes visible only after allowed job/payment state.</text>
</svg>
