<svg xmlns="http://www.w3.org/2000/svg" width="2000" height="1400" viewBox="0 0 2000 1400">
<defs>
<marker id="arrow" markerWidth="10" markerHeight="10" refX="8" refY="3" orient="auto" markerUnits="strokeWidth"><path d="M0,0 L0,6 L9,3 z" fill="#4B5563"/></marker>
<marker id="arrowDashed" markerWidth="10" markerHeight="10" refX="8" refY="3" orient="auto" markerUnits="strokeWidth"><path d="M0,0 L0,6 L9,3 z" fill="#F97316"/></marker>
<style>
.title { font: 700 24px Arial, sans-serif; fill: white; }
.h { font: 700 13px Arial, sans-serif; fill: #111827; }
.t { font: 400 12px Arial, sans-serif; fill: #111827; }
.small { font: 400 11px Arial, sans-serif; fill: #4B5563; }
</style>
</defs>
<rect x="40" y="30" width="1920" height="60" rx="14" fill="#022C22"/>
<text x="1000.0" y="69" text-anchor="middle" class="title">Viaverse Request Creation — Sequence Diagram</text>

<rect x="80" y="140" width="165" height="55" rx="14" fill="#FFFFFF" stroke="#064E3B" stroke-width="2"/>
<text x="162.5" y="167.5" text-anchor="middle" class="h">KMP / Web Client</text>
<rect x="162" y="210" width="2" height="920" rx="14" fill="#E5E7EB" stroke="#E5E7EB" stroke-width="2"/>
<text x="163.0" y="670.0" text-anchor="middle" class="h"></text>
<rect x="330" y="140" width="165" height="55" rx="14" fill="#FFFFFF" stroke="#064E3B" stroke-width="2"/>
<text x="412.5" y="167.5" text-anchor="middle" class="h">API Gateway / App BFF</text>
<rect x="412" y="210" width="2" height="920" rx="14" fill="#E5E7EB" stroke="#E5E7EB" stroke-width="2"/>
<text x="413.0" y="670.0" text-anchor="middle" class="h"></text>
<rect x="580" y="140" width="165" height="55" rx="14" fill="#ECFDF5" stroke="#064E3B" stroke-width="2"/>
<text x="662.5" y="167.5" text-anchor="middle" class="h">marketplace-service</text>
<rect x="662" y="210" width="2" height="920" rx="14" fill="#E5E7EB" stroke="#E5E7EB" stroke-width="2"/>
<text x="663.0" y="670.0" text-anchor="middle" class="h"></text>
<rect x="830" y="140" width="165" height="55" rx="14" fill="#FFFFFF" stroke="#064E3B" stroke-width="2"/>
<text x="912.5" y="167.5" text-anchor="middle" class="h">AI Provider Adapter</text>
<rect x="912" y="210" width="2" height="920" rx="14" fill="#E5E7EB" stroke="#E5E7EB" stroke-width="2"/>
<text x="913.0" y="670.0" text-anchor="middle" class="h"></text>
<rect x="1080" y="140" width="165" height="55" rx="14" fill="#FFFFFF" stroke="#064E3B" stroke-width="2"/>
<text x="1162.5" y="167.5" text-anchor="middle" class="h">media-service</text>
<rect x="1162" y="210" width="2" height="920" rx="14" fill="#E5E7EB" stroke="#E5E7EB" stroke-width="2"/>
<text x="1163.0" y="670.0" text-anchor="middle" class="h"></text>
<rect x="1330" y="140" width="165" height="55" rx="14" fill="#FFFFFF" stroke="#064E3B" stroke-width="2"/>
<text x="1412.5" y="167.5" text-anchor="middle" class="h">MapProvider</text>
<rect x="1412" y="210" width="2" height="920" rx="14" fill="#E5E7EB" stroke="#E5E7EB" stroke-width="2"/>
<text x="1413.0" y="670.0" text-anchor="middle" class="h"></text>
<rect x="1580" y="140" width="165" height="55" rx="14" fill="#FFFFFF" stroke="#064E3B" stroke-width="2"/>
<text x="1662.5" y="167.5" text-anchor="middle" class="h">PostgreSQL</text>
<rect x="1662" y="210" width="2" height="920" rx="14" fill="#E5E7EB" stroke="#E5E7EB" stroke-width="2"/>
<text x="1663.0" y="670.0" text-anchor="middle" class="h"></text>
<rect x="1810" y="140" width="165" height="55" rx="14" fill="#FFFFFF" stroke="#064E3B" stroke-width="2"/>
<text x="1892.5" y="167.5" text-anchor="middle" class="h">Outbox / Kafka</text>
<rect x="1892" y="210" width="2" height="920" rx="14" fill="#E5E7EB" stroke="#E5E7EB" stroke-width="2"/>
<text x="1893.0" y="670.0" text-anchor="middle" class="h"></text>
<polyline points="245,250 330,250" fill="none" stroke="#4B5563" stroke-width="2" marker-end="url(#arrow)"/>
<text x="338" y="242" class="small">POST /service-requests draft</text>
<polyline points="495,290 580,290" fill="none" stroke="#4B5563" stroke-width="2" marker-end="url(#arrow)"/>
<text x="588" y="282" class="small">createDraft(command)</text>
<polyline points="745,330 1580,330" fill="none" stroke="#4B5563" stroke-width="2" marker-end="url(#arrow)"/>
<text x="1588" y="322" class="small">insert ServiceRequest DRAFT</text>
<polyline points="245,430 330,430" fill="none" stroke="#4B5563" stroke-width="2" marker-end="url(#arrow)"/>
<text x="338" y="422" class="small">POST /ai/request-suggestions</text>
<polyline points="495,470 830,470" fill="none" stroke="#4B5563" stroke-width="2" marker-end="url(#arrow)"/>
<text x="838" y="462" class="small">suggest category/budget</text>
<polyline points="245,590 330,590" fill="none" stroke="#4B5563" stroke-width="2" marker-end="url(#arrow)"/>
<text x="338" y="582" class="small">POST /media/upload-sessions</text>
<polyline points="495,630 1080,630" fill="none" stroke="#4B5563" stroke-width="2" marker-end="url(#arrow)"/>
<text x="1088" y="622" class="small">createUploadSession</text>
<polyline points="1245,670 1580,670" fill="none" stroke="#4B5563" stroke-width="2" marker-end="url(#arrow)"/>
<text x="1588" y="662" class="small">store MediaAsset pending</text>
<polyline points="245,780 330,780" fill="none" stroke="#4B5563" stroke-width="2" marker-end="url(#arrow)"/>
<text x="338" y="772" class="small">PATCH draft with fields/media</text>
<polyline points="495,820 580,820" fill="none" stroke="#4B5563" stroke-width="2" marker-end="url(#arrow)"/>
<text x="588" y="812" class="small">updateDraft</text>
<polyline points="745,860 1330,860" fill="none" stroke="#4B5563" stroke-width="2" marker-end="url(#arrow)"/>
<text x="1338" y="852" class="small">geocode / area normalize</text>
<polyline points="745,900 1580,900" fill="none" stroke="#4B5563" stroke-width="2" marker-end="url(#arrow)"/>
<text x="1588" y="892" class="small">update draft</text>
<polyline points="245,1010 330,1010" fill="none" stroke="#4B5563" stroke-width="2" marker-end="url(#arrow)"/>
<text x="338" y="1002" class="small">POST /publish</text>
<polyline points="495,1030 580,1030" fill="none" stroke="#4B5563" stroke-width="2" marker-end="url(#arrow)"/>
<text x="588" y="1022" class="small">publishRequest</text>
<polyline points="745,1060 1580,1060" fill="none" stroke="#4B5563" stroke-width="2" marker-end="url(#arrow)"/>
<text x="1588" y="1052" class="small">validate + set PUBLISHED + outbox</text>
<polyline points="745,1100 1810,1100" fill="none" stroke="#4B5563" stroke-width="2" marker-end="url(#arrow)"/>
<text x="1818" y="1092" class="small">ServiceRequestPublished + MatchingRequested</text>
<rect x="80" y="1190" width="1600" height="60" rx="12" fill="#FEF3C7" stroke="#F59E0B" stroke-width="2"/>
<text x="96" y="1214" class="t">Sequence focus:</text>
<text x="96" y="1232" class="t">Draft-first flow. Media is attached by reference. Publish changes status and writes outbox events in same transaction.</text>
</svg>
