<svg xmlns="http://www.w3.org/2000/svg" width="2200" height="1550" viewBox="0 0 2200 1550">
<defs>
<marker id="arrow" markerWidth="10" markerHeight="10" refX="8" refY="3" orient="auto" markerUnits="strokeWidth"><path d="M0,0 L0,6 L9,3 z" fill="#4B5563"/></marker>
<marker id="arrowDashed" markerWidth="10" markerHeight="10" refX="8" refY="3" orient="auto" markerUnits="strokeWidth"><path d="M0,0 L0,6 L9,3 z" fill="#F97316"/></marker>
<style>
.title { font: 700 24px Arial, sans-serif; fill: white; }
.h { font: 700 13px Arial, sans-serif; fill: #111827; }
.t { font: 400 12px Arial, sans-serif; fill: #111827; }
.small { font: 400 11px Arial, sans-serif; fill: #4B5563; }
</style>
</defs>
<rect x="40" y="30" width="2120" height="60" rx="14" fill="#022C22"/>
<text x="1100.0" y="69" text-anchor="middle" class="title">Viaverse Search / SEO / Growth / AI Discovery — Use Case Diagram</text>

<rect x="270" y="135" width="1560" height="1130" rx="10" fill="none" stroke="#022C22" stroke-width="2"/>
<text x="286" y="160" class="h">Search / Discovery / SEO / Growth Boundary</text>
<rect x="60" y="300" width="185" height="80" rx="14" fill="#FFF7ED" stroke="#F97316" stroke-width="2"/>
<text x="152.5" y="331.0" text-anchor="middle" class="h">«actor»</text>
<text x="152.5" y="351.0" text-anchor="middle" class="t">User</text>
<rect x="60" y="820" width="185" height="80" rx="14" fill="#FFF7ED" stroke="#F97316" stroke-width="2"/>
<text x="152.5" y="851.0" text-anchor="middle" class="h">«actor»</text>
<text x="152.5" y="871.0" text-anchor="middle" class="t">Guest / Search Engine</text>
<rect x="1900" y="230" width="185" height="80" rx="14" fill="#FFF7ED" stroke="#F97316" stroke-width="2"/>
<text x="1992.5" y="261.0" text-anchor="middle" class="h">«actor»</text>
<text x="1992.5" y="281.0" text-anchor="middle" class="t">Domain Services</text>
<rect x="1900" y="560" width="185" height="80" rx="14" fill="#FFF7ED" stroke="#F97316" stroke-width="2"/>
<text x="1992.5" y="591.0" text-anchor="middle" class="h">«actor»</text>
<text x="1992.5" y="611.0" text-anchor="middle" class="t">Growth / Admin</text>
<rect x="1900" y="900" width="185" height="80" rx="14" fill="#FFF7ED" stroke="#F97316" stroke-width="2"/>
<text x="1992.5" y="931.0" text-anchor="middle" class="h">«actor»</text>
<text x="1992.5" y="951.0" text-anchor="middle" class="t">AI Assistant</text>
<rect x="360" y="190" width="265" height="82" rx="14" fill="#FFFFFF" stroke="#064E3B" stroke-width="2"/>
<text x="492.5" y="231.0" text-anchor="middle" class="h">Search dynamic environment</text>
<rect x="700" y="190" width="265" height="82" rx="14" fill="#FFFFFF" stroke="#064E3B" stroke-width="2"/>
<text x="832.5" y="222.0" text-anchor="middle" class="h">Filter by category</text>
<text x="832.5" y="242.0" text-anchor="middle" class="t">location / budget / rating</text>
<rect x="1040" y="190" width="265" height="82" rx="14" fill="#FFFFFF" stroke="#064E3B" stroke-width="2"/>
<text x="1172.5" y="222.0" text-anchor="middle" class="h">Rank results</text>
<text x="1172.5" y="242.0" text-anchor="middle" class="t">relevance + trust + freshness</text>
<rect x="1380" y="190" width="265" height="82" rx="14" fill="#FFFFFF" stroke="#064E3B" stroke-width="2"/>
<text x="1512.5" y="222.0" text-anchor="middle" class="h">AI-assisted search</text>
<text x="1512.5" y="242.0" text-anchor="middle" class="t">intent + category suggestion</text>
<rect x="360" y="450" width="265" height="82" rx="14" fill="#FFFFFF" stroke="#064E3B" stroke-width="2"/>
<text x="492.5" y="482.0" text-anchor="middle" class="h">Index public entities</text>
<text x="492.5" y="502.0" text-anchor="middle" class="t">request / worker / business</text>
<rect x="700" y="450" width="265" height="82" rx="14" fill="#FFFFFF" stroke="#064E3B" stroke-width="2"/>
<text x="832.5" y="491.0" text-anchor="middle" class="h">Apply visibility/privacy rules</text>
<rect x="1040" y="450" width="265" height="82" rx="14" fill="#FFFFFF" stroke="#064E3B" stroke-width="2"/>
<text x="1172.5" y="482.0" text-anchor="middle" class="h">Generate SEO pages</text>
<text x="1172.5" y="502.0" text-anchor="middle" class="t">category/city/service</text>
<rect x="1380" y="450" width="265" height="82" rx="14" fill="#FFFFFF" stroke="#064E3B" stroke-width="2"/>
<text x="1512.5" y="482.0" text-anchor="middle" class="h">Generate sitemap</text>
<text x="1512.5" y="502.0" text-anchor="middle" class="t">schema.org metadata</text>
<rect x="360" y="720" width="265" height="82" rx="14" fill="#FFFFFF" stroke="#064E3B" stroke-width="2"/>
<text x="492.5" y="752.0" text-anchor="middle" class="h">Track impression/click</text>
<text x="492.5" y="772.0" text-anchor="middle" class="t">privacy-safe analytics</text>
<rect x="700" y="720" width="265" height="82" rx="14" fill="#FFFFFF" stroke="#064E3B" stroke-width="2"/>
<text x="832.5" y="752.0" text-anchor="middle" class="h">Recommend relevant content</text>
<text x="832.5" y="772.0" text-anchor="middle" class="t">feed/search blend</text>
<rect x="1040" y="720" width="265" height="82" rx="14" fill="#FFFFFF" stroke="#064E3B" stroke-width="2"/>
<text x="1172.5" y="761.0" text-anchor="middle" class="h">Experiment / A-B test</text>
<rect x="1380" y="720" width="265" height="82" rx="14" fill="#FFFFFF" stroke="#064E3B" stroke-width="2"/>
<text x="1512.5" y="752.0" text-anchor="middle" class="h">Native sponsored placement</text>
<text x="1512.5" y="772.0" text-anchor="middle" class="t">non-blocking</text>
<rect x="700" y="980" width="265" height="82" rx="14" fill="#FFFFFF" stroke="#064E3B" stroke-width="2"/>
<text x="832.5" y="1021.0" text-anchor="middle" class="h">Manage SEO/growth config</text>
<rect x="1040" y="980" width="265" height="82" rx="14" fill="#FFFFFF" stroke="#064E3B" stroke-width="2"/>
<text x="1172.5" y="1021.0" text-anchor="middle" class="h">Monitor search quality</text>
<rect x="1380" y="980" width="265" height="82" rx="14" fill="#FFFFFF" stroke="#064E3B" stroke-width="2"/>
<text x="1512.5" y="994.0" text-anchor="middle" class="h">Emit events</text>
<text x="1512.5" y="1014.0" text-anchor="middle" class="t">SearchPerformed</text>
<text x="1512.5" y="1034.0" text-anchor="middle" class="t">EntityIndexed</text>
<text x="1512.5" y="1054.0" text-anchor="middle" class="t">SeoPageUpdated</text>
<polyline points="245,340 270,340 270,231 360,231" fill="none" stroke="#4B5563" stroke-width="2" marker-end="url(#arrow)"/>
<polyline points="625,231 700,231" fill="none" stroke="#4B5563" stroke-width="2" marker-end="url(#arrow)"/>
<polyline points="965,231 1040,231" fill="none" stroke="#4B5563" stroke-width="2" marker-end="url(#arrow)"/>
<polyline points="1305,231 1380,231" fill="none" stroke="#F97316" stroke-width="2" marker-end="url(#arrowDashed)" stroke-dasharray="6 5"/>
<text x="1388" y="223" class="small">optional</text>
<polyline points="1900,270 1780,270 1780,491 625,491" fill="none" stroke="#4B5563" stroke-width="2" marker-end="url(#arrow)"/>
<text x="1788" y="483" class="small">publish events</text>
<polyline points="625,491 700,491" fill="none" stroke="#4B5563" stroke-width="2" marker-end="url(#arrow)"/>
<polyline points="965,491 1040,491" fill="none" stroke="#4B5563" stroke-width="2" marker-end="url(#arrow)"/>
<text x="1048" y="483" class="small">public only</text>
<polyline points="1305,491 1380,491" fill="none" stroke="#4B5563" stroke-width="2" marker-end="url(#arrow)"/>
<polyline points="245,340 300,340 300,761 360,761" fill="none" stroke="#4B5563" stroke-width="2" marker-end="url(#arrow)"/>
<polyline points="625,761 700,761" fill="none" stroke="#4B5563" stroke-width="2" marker-end="url(#arrow)"/>
<polyline points="965,761 1040,761" fill="none" stroke="#4B5563" stroke-width="2" marker-end="url(#arrow)"/>
<polyline points="1305,761 1380,761" fill="none" stroke="#4B5563" stroke-width="2" marker-end="url(#arrow)"/>
<text x="1388" y="753" class="small">eligible inventory</text>
<polyline points="245,860 320,860 320,491 1040,491" fill="none" stroke="#4B5563" stroke-width="2" marker-end="url(#arrow)"/>
<text x="328" y="483" class="small">SEO landing</text>
<polyline points="245,860 330,860 330,491 1380,491" fill="none" stroke="#4B5563" stroke-width="2" marker-end="url(#arrow)"/>
<text x="338" y="483" class="small">crawl</text>
<polyline points="1900,600 1780,600 1780,1021 965,1021" fill="none" stroke="#4B5563" stroke-width="2" marker-end="url(#arrow)"/>
<polyline points="1900,600 1770,600 1770,1021 1305,1021" fill="none" stroke="#4B5563" stroke-width="2" marker-end="url(#arrow)"/>
<polyline points="1305,1021 1380,1021" fill="none" stroke="#4B5563" stroke-width="2" marker-end="url(#arrow)"/>
<polyline points="1512,532 1512,980" fill="none" stroke="#4B5563" stroke-width="2" marker-end="url(#arrow)"/>
<polyline points="1900,940 1780,940 1780,231 1645,231" fill="none" stroke="#4B5563" stroke-width="2" marker-end="url(#arrow)"/>
<text x="1788" y="223" class="small">intent/category</text>
<polyline points="1900,940 1770,940 1770,761 965,761" fill="none" stroke="#4B5563" stroke-width="2" marker-end="url(#arrow)"/>
<text x="1778" y="753" class="small">personalization guardrails</text>
<rect x="360" y="1210" width="1360" height="58" rx="12" fill="#FEF3C7" stroke="#F59E0B" stroke-width="2"/>
<text x="376" y="1234" class="t">Rules:</text>
<text x="376" y="1252" class="t">Search can use relevance/trust/freshness/availability. Sponsored placement cannot bypass safety, privacy or relevance gates.</text>
</svg>
