<svg xmlns="http://www.w3.org/2000/svg" width="2200" height="1550" viewBox="0 0 2200 1550">
<defs>
<marker id="arrow" markerWidth="10" markerHeight="10" refX="8" refY="3" orient="auto" markerUnits="strokeWidth"><path d="M0,0 L0,6 L9,3 z" fill="#4B5563"/></marker>
<marker id="arrowDashed" markerWidth="10" markerHeight="10" refX="8" refY="3" orient="auto" markerUnits="strokeWidth"><path d="M0,0 L0,6 L9,3 z" fill="#F97316"/></marker>
<style>
.title { font: 700 24px Arial, sans-serif; fill: white; }
.h { font: 700 13px Arial, sans-serif; fill: #111827; }
.t { font: 400 12px Arial, sans-serif; fill: #111827; }
.small { font: 400 11px Arial, sans-serif; fill: #4B5563; }
</style>
</defs>
<rect x="40" y="30" width="2120" height="60" rx="14" fill="#022C22"/>
<text x="1100.0" y="69" text-anchor="middle" class="title">Viaverse Search / SEO / Indexing — Sequence Diagram</text>

<rect x="80" y="140" width="185" height="60" rx="14" fill="#FFFFFF" stroke="#064E3B" stroke-width="2"/>
<text x="172.5" y="170.0" text-anchor="middle" class="h">Client / Guest</text>
<rect x="171" y="220" width="2" height="1030" rx="14" fill="#E5E7EB" stroke="#E5E7EB" stroke-width="2"/>
<text x="172.0" y="735.0" text-anchor="middle" class="h"></text>
<rect x="330" y="140" width="185" height="60" rx="14" fill="#FFFFFF" stroke="#064E3B" stroke-width="2"/>
<text x="422.5" y="170.0" text-anchor="middle" class="h">API Gateway / Web BFF</text>
<rect x="421" y="220" width="2" height="1030" rx="14" fill="#E5E7EB" stroke="#E5E7EB" stroke-width="2"/>
<text x="422.0" y="735.0" text-anchor="middle" class="h"></text>
<rect x="600" y="140" width="185" height="60" rx="14" fill="#ECFDF5" stroke="#064E3B" stroke-width="2"/>
<text x="692.5" y="170.0" text-anchor="middle" class="h">search-service</text>
<rect x="691" y="220" width="2" height="1030" rx="14" fill="#E5E7EB" stroke="#E5E7EB" stroke-width="2"/>
<text x="692.0" y="735.0" text-anchor="middle" class="h"></text>
<rect x="870" y="140" width="185" height="60" rx="14" fill="#FFFFFF" stroke="#064E3B" stroke-width="2"/>
<text x="962.5" y="170.0" text-anchor="middle" class="h">AI intent service</text>
<rect x="961" y="220" width="2" height="1030" rx="14" fill="#E5E7EB" stroke="#E5E7EB" stroke-width="2"/>
<text x="962.0" y="735.0" text-anchor="middle" class="h"></text>
<rect x="1140" y="140" width="185" height="60" rx="14" fill="#FFFFFF" stroke="#064E3B" stroke-width="2"/>
<text x="1232.5" y="170.0" text-anchor="middle" class="h">OpenSearch</text>
<rect x="1231" y="220" width="2" height="1030" rx="14" fill="#E5E7EB" stroke="#E5E7EB" stroke-width="2"/>
<text x="1232.0" y="735.0" text-anchor="middle" class="h"></text>
<rect x="1410" y="140" width="185" height="60" rx="14" fill="#FFFFFF" stroke="#064E3B" stroke-width="2"/>
<text x="1502.5" y="170.0" text-anchor="middle" class="h">trust-gamification</text>
<rect x="1501" y="220" width="2" height="1030" rx="14" fill="#E5E7EB" stroke="#E5E7EB" stroke-width="2"/>
<text x="1502.0" y="735.0" text-anchor="middle" class="h"></text>
<rect x="1680" y="140" width="185" height="60" rx="14" fill="#FFFFFF" stroke="#064E3B" stroke-width="2"/>
<text x="1772.5" y="170.0" text-anchor="middle" class="h">analytics-service</text>
<rect x="1771" y="220" width="2" height="1030" rx="14" fill="#E5E7EB" stroke="#E5E7EB" stroke-width="2"/>
<text x="1772.0" y="735.0" text-anchor="middle" class="h"></text>
<rect x="1940" y="140" width="185" height="60" rx="14" fill="#FFFFFF" stroke="#064E3B" stroke-width="2"/>
<text x="2032.5" y="170.0" text-anchor="middle" class="h">Kafka / Outbox</text>
<rect x="2031" y="220" width="2" height="1030" rx="14" fill="#E5E7EB" stroke="#E5E7EB" stroke-width="2"/>
<text x="2032.0" y="735.0" text-anchor="middle" class="h"></text>
<polyline points="265,260 330,260" fill="none" stroke="#4B5563" stroke-width="2" marker-end="url(#arrow)"/>
<text x="338" y="252" class="small">GET /search?q=...</text>
<polyline points="515,310 600,310" fill="none" stroke="#4B5563" stroke-width="2" marker-end="url(#arrow)"/>
<text x="608" y="302" class="small">search(command)</text>
<polyline points="785,370 870,370" fill="none" stroke="#4B5563" stroke-width="2" marker-end="url(#arrow)"/>
<text x="878" y="362" class="small">optional intent/category</text>
<polyline points="785,460 1140,460" fill="none" stroke="#4B5563" stroke-width="2" marker-end="url(#arrow)"/>
<text x="1148" y="452" class="small">geo/category/full-text query</text>
<polyline points="785,540 1410,540" fill="none" stroke="#4B5563" stroke-width="2" marker-end="url(#arrow)"/>
<text x="1418" y="532" class="small">trust/risk summaries</text>
<polyline points="690,640 800,640 800,700 690,700 690,640" fill="none" stroke="#4B5563" stroke-width="2" marker-end="url(#arrow)"/>
<text x="808" y="692" class="small">rank + privacy gates + sponsored after gates</text>
<polyline points="785,800 1680,800" fill="none" stroke="#4B5563" stroke-width="2" marker-end="url(#arrow)"/>
<text x="1688" y="792" class="small">impression event</text>
<polyline points="600,900 515,900" fill="none" stroke="#4B5563" stroke-width="2" marker-end="url(#arrow)"/>
<text x="523" y="892" class="small">result cards + reason hints</text>
<polyline points="330,960 265,960" fill="none" stroke="#4B5563" stroke-width="2" marker-end="url(#arrow)"/>
<text x="273" y="952" class="small">render results</text>
<polyline points="1940,1080 785,1080" fill="none" stroke="#4B5563" stroke-width="2" marker-end="url(#arrow)"/>
<text x="793" y="1072" class="small">EntityPublished / Updated / Removed</text>
<polyline points="785,1140 1140,1140" fill="none" stroke="#4B5563" stroke-width="2" marker-end="url(#arrow)"/>
<text x="1148" y="1132" class="small">update search projection</text>
<rect x="80" y="1340" width="1700" height="60" rx="12" fill="#FEF3C7" stroke="#F59E0B" stroke-width="2"/>
<text x="96" y="1364" class="t">Sequence focus:</text>
<text x="96" y="1382" class="t">Search-service owns projections and ranking. It consumes public entity events; source-of-truth remains domain services.</text>
</svg>
