<svg xmlns="http://www.w3.org/2000/svg" width="2200" height="1550" viewBox="0 0 2200 1550">
<defs>
<marker id="arrow" markerWidth="10" markerHeight="10" refX="8" refY="3" orient="auto" markerUnits="strokeWidth"><path d="M0,0 L0,6 L9,3 z" fill="#4B5563"/></marker>
<marker id="arrowDashed" markerWidth="10" markerHeight="10" refX="8" refY="3" orient="auto" markerUnits="strokeWidth"><path d="M0,0 L0,6 L9,3 z" fill="#F97316"/></marker>
<style>
.title { font: 700 24px Arial, sans-serif; fill: white; }
.h { font: 700 13px Arial, sans-serif; fill: #111827; }
.t { font: 400 12px Arial, sans-serif; fill: #111827; }
.small { font: 400 11px Arial, sans-serif; fill: #4B5563; }
</style>
</defs>
<rect x="40" y="30" width="2120" height="60" rx="14" fill="#022C22"/>
<text x="1100.0" y="69" text-anchor="middle" class="title">Viaverse Dispute / Refund / Payout — Component Diagram</text>

<rect x="80" y="170" width="320" height="130" rx="14" fill="#FFF7ED" stroke="#F97316" stroke-width="2"/>
<text x="240.0" y="199.0" text-anchor="middle" class="h">KMP / Next.js Client</text>
<text x="240.0" y="219.0" text-anchor="middle" class="t">--</text>
<text x="240.0" y="239.0" text-anchor="middle" class="t">Open dispute</text>
<text x="240.0" y="259.0" text-anchor="middle" class="t">Evidence upload</text>
<text x="240.0" y="279.0" text-anchor="middle" class="t">Case status</text>
<rect x="80" y="460" width="320" height="130" rx="14" fill="#EEF2FF" stroke="#6366F1" stroke-width="2"/>
<text x="240.0" y="489.0" text-anchor="middle" class="h">Admin UI</text>
<text x="240.0" y="509.0" text-anchor="middle" class="t">--</text>
<text x="240.0" y="529.0" text-anchor="middle" class="t">Case review</text>
<text x="240.0" y="549.0" text-anchor="middle" class="t">Resolution</text>
<text x="240.0" y="569.0" text-anchor="middle" class="t">Audit reason</text>
<rect x="500" y="170" width="320" height="130" rx="14" fill="#ECFDF5" stroke="#064E3B" stroke-width="2"/>
<text x="660.0" y="208.0" text-anchor="middle" class="h">API Gateway / App BFF</text>
<text x="660.0" y="228.0" text-anchor="middle" class="t">--</text>
<text x="660.0" y="248.0" text-anchor="middle" class="t">Dispute API</text>
<text x="660.0" y="268.0" text-anchor="middle" class="t">Admin Dispute API</text>
<rect x="920" y="140" width="330" height="90" rx="14" fill="#FFFFFF" stroke="#064E3B" stroke-width="2"/>
<text x="1085.0" y="176.0" text-anchor="middle" class="h">DisputeController</text>
<text x="1085.0" y="196.0" text-anchor="middle" class="t">AdminDisputeController</text>
<rect x="920" y="300" width="360" height="160" rx="14" fill="#FFFFFF" stroke="#064E3B" stroke-width="2"/>
<text x="1100.0" y="335.0" text-anchor="middle" class="h">Dispute Use Cases</text>
<text x="1100.0" y="355.0" text-anchor="middle" class="t">--</text>
<text x="1100.0" y="375.0" text-anchor="middle" class="t">OpenDispute</text>
<text x="1100.0" y="395.0" text-anchor="middle" class="t">SubmitEvidence</text>
<text x="1100.0" y="415.0" text-anchor="middle" class="t">ResolveDispute</text>
<text x="1100.0" y="435.0" text-anchor="middle" class="t">CloseDispute</text>
<rect x="920" y="540" width="360" height="170" rx="14" fill="#FFFFFF" stroke="#064E3B" stroke-width="2"/>
<text x="1100.0" y="580.0" text-anchor="middle" class="h">Dispute Policies</text>
<text x="1100.0" y="600.0" text-anchor="middle" class="t">--</text>
<text x="1100.0" y="620.0" text-anchor="middle" class="t">participant/state</text>
<text x="1100.0" y="640.0" text-anchor="middle" class="t">SLA/timeout</text>
<text x="1100.0" y="660.0" text-anchor="middle" class="t">money decision</text>
<text x="1100.0" y="680.0" text-anchor="middle" class="t">audit requirement</text>
<rect x="920" y="800" width="360" height="160" rx="14" fill="#FFFFFF" stroke="#064E3B" stroke-width="2"/>
<text x="1100.0" y="835.0" text-anchor="middle" class="h">Ports</text>
<text x="1100.0" y="855.0" text-anchor="middle" class="t">DisputeRepo</text>
<text x="1100.0" y="875.0" text-anchor="middle" class="t">PaymentPort</text>
<text x="1100.0" y="895.0" text-anchor="middle" class="t">JobPort</text>
<text x="1100.0" y="915.0" text-anchor="middle" class="t">MessagingPort</text>
<text x="1100.0" y="935.0" text-anchor="middle" class="t">OutboxPort</text>
<rect x="1380" y="220" width="360" height="130" rx="14" fill="#FFFFFF" stroke="#064E3B" stroke-width="2"/>
<text x="1560.0" y="258.0" text-anchor="middle" class="h">marketplace-service</text>
<text x="1560.0" y="278.0" text-anchor="middle" class="t">--</text>
<text x="1560.0" y="298.0" text-anchor="middle" class="t">job state</text>
<text x="1560.0" y="318.0" text-anchor="middle" class="t">participant validation</text>
<rect x="1380" y="450" width="360" height="140" rx="14" fill="#FFFFFF" stroke="#064E3B" stroke-width="2"/>
<text x="1560.0" y="484.0" text-anchor="middle" class="h">payment-service</text>
<text x="1560.0" y="504.0" text-anchor="middle" class="t">--</text>
<text x="1560.0" y="524.0" text-anchor="middle" class="t">block payout</text>
<text x="1560.0" y="544.0" text-anchor="middle" class="t">refund</text>
<text x="1560.0" y="564.0" text-anchor="middle" class="t">release payout</text>
<rect x="1380" y="700" width="360" height="130" rx="14" fill="#FFFFFF" stroke="#064E3B" stroke-width="2"/>
<text x="1560.0" y="738.0" text-anchor="middle" class="h">messaging-service</text>
<text x="1560.0" y="758.0" text-anchor="middle" class="t">--</text>
<text x="1560.0" y="778.0" text-anchor="middle" class="t">message refs</text>
<text x="1560.0" y="798.0" text-anchor="middle" class="t">evidence refs</text>
<rect x="1780" y="220" width="340" height="160" rx="14" fill="#FFFFFF" stroke="#064E3B" stroke-width="2"/>
<text x="1950.0" y="255.0" text-anchor="middle" class="h">PostgreSQL</text>
<text x="1950.0" y="275.0" text-anchor="middle" class="t">--</text>
<text x="1950.0" y="295.0" text-anchor="middle" class="t">dispute_case</text>
<text x="1950.0" y="315.0" text-anchor="middle" class="t">evidence</text>
<text x="1950.0" y="335.0" text-anchor="middle" class="t">resolution</text>
<text x="1950.0" y="355.0" text-anchor="middle" class="t">audit_log</text>
<rect x="1780" y="520" width="340" height="180" rx="14" fill="#FFF7ED" stroke="#F97316" stroke-width="2"/>
<text x="1950.0" y="565.0" text-anchor="middle" class="h">Kafka / Outbox</text>
<text x="1950.0" y="585.0" text-anchor="middle" class="t">--</text>
<text x="1950.0" y="605.0" text-anchor="middle" class="t">DisputeOpened</text>
<text x="1950.0" y="625.0" text-anchor="middle" class="t">RefundIssued</text>
<text x="1950.0" y="645.0" text-anchor="middle" class="t">PayoutReleased</text>
<text x="1950.0" y="665.0" text-anchor="middle" class="t">RiskSignalUpdated</text>
<rect x="1780" y="820" width="340" height="130" rx="14" fill="#FEF3C7" stroke="#F59E0B" stroke-width="2"/>
<text x="1950.0" y="858.0" text-anchor="middle" class="h">trust/risk-service</text>
<text x="1950.0" y="878.0" text-anchor="middle" class="t">--</text>
<text x="1950.0" y="898.0" text-anchor="middle" class="t">risk score update</text>
<text x="1950.0" y="918.0" text-anchor="middle" class="t">badge impacts</text>
<polyline points="400,235 500,235" fill="none" stroke="#4B5563" stroke-width="2" marker-end="url(#arrow)"/>
<text x="508" y="227" class="small">HTTPS</text>
<polyline points="400,525 450,525 450,260 500,260" fill="none" stroke="#4B5563" stroke-width="2" marker-end="url(#arrow)"/>
<text x="458" y="252" class="small">HTTPS admin</text>
<polyline points="820,235 870,235 870,185 920,185" fill="none" stroke="#4B5563" stroke-width="2" marker-end="url(#arrow)"/>
<text x="878" y="177" class="small">REST</text>
<polyline points="1085,230 1085,300" fill="none" stroke="#4B5563" stroke-width="2" marker-end="url(#arrow)"/>
<text x="1093" y="292" class="small">command/query</text>
<polyline points="1100,460 1100,540" fill="none" stroke="#4B5563" stroke-width="2" marker-end="url(#arrow)"/>
<text x="1108" y="532" class="small">validate</text>
<polyline points="1100,710 1100,800" fill="none" stroke="#4B5563" stroke-width="2" marker-end="url(#arrow)"/>
<text x="1108" y="792" class="small">ports</text>
<polyline points="1280,625 1330,625 1330,285 1380,285" fill="none" stroke="#4B5563" stroke-width="2" marker-end="url(#arrow)"/>
<text x="1338" y="277" class="small">job validation</text>
<polyline points="1280,875 1330,875 1330,520 1380,520" fill="none" stroke="#4B5563" stroke-width="2" marker-end="url(#arrow)"/>
<text x="1338" y="512" class="small">block/refund/release</text>
<polyline points="1280,875 1380,765" fill="none" stroke="#4B5563" stroke-width="2" marker-end="url(#arrow)"/>
<text x="1388" y="757" class="small">evidence refs</text>
<polyline points="1280,875 1710,875 1710,300 1780,300" fill="none" stroke="#4B5563" stroke-width="2" marker-end="url(#arrow)"/>
<text x="1718" y="292" class="small">persist/audit</text>
<polyline points="1280,380 1730,380 1730,610 1780,610" fill="none" stroke="#4B5563" stroke-width="2" marker-end="url(#arrow)"/>
<text x="1738" y="602" class="small">events</text>
<polyline points="1950,700 1950,820" fill="none" stroke="#4B5563" stroke-width="2" marker-end="url(#arrow)"/>
<text x="1958" y="812" class="small">risk update</text>
<rect x="80" y="1120" width="1640" height="65" rx="12" fill="#FEF3C7" stroke="#F59E0B" stroke-width="2"/>
<text x="96" y="1144" class="t">Component rule:</text>
<text x="96" y="1162" class="t">Dispute service decides case outcome and audit; payment-service executes money movement. Both sides must use idempotency/correlation IDs.</text>
</svg>
