<svg xmlns="http://www.w3.org/2000/svg" width="2400" height="1650" viewBox="0 0 2400 1650">
<defs>
<marker id="arrow" markerWidth="10" markerHeight="10" refX="8" refY="3" orient="auto" markerUnits="strokeWidth"><path d="M0,0 L0,6 L9,3 z" fill="#4B5563"/></marker>
<marker id="arrowDashed" markerWidth="10" markerHeight="10" refX="8" refY="3" orient="auto" markerUnits="strokeWidth"><path d="M0,0 L0,6 L9,3 z" fill="#F97316"/></marker>
<style>
.title { font: 700 24px Arial, sans-serif; fill: white; }
.h { font: 700 13px Arial, sans-serif; fill: #111827; }
.t { font: 400 12px Arial, sans-serif; fill: #111827; }
.small { font: 400 11px Arial, sans-serif; fill: #4B5563; }
</style>
</defs>
<rect x="40" y="30" width="2320" height="60" rx="14" fill="#022C22"/>
<text x="1200.0" y="69" text-anchor="middle" class="title">Viaverse Team Execution / Delivery Loop — Activity Diagram</text>

<rect x="80" y="160" width="280" height="60" rx="14" fill="#022C22" stroke="#022C22" stroke-width="2"/>
<text x="220.0" y="181.0" text-anchor="middle" class="h">START</text>
<text x="220.0" y="201.0" text-anchor="middle" class="t">roadmap item selected</text>
<rect x="450" y="140" width="330" height="90" rx="14" fill="#ECFDF5" stroke="#064E3B" stroke-width="2"/>
<text x="615.0" y="176.0" text-anchor="middle" class="h">Define bounded scope</text>
<text x="615.0" y="196.0" text-anchor="middle" class="t">use case + acceptance</text>
<rect x="880" y="140" width="340" height="90" rx="14" fill="#FFFFFF" stroke="#064E3B" stroke-width="2"/>
<text x="1050.0" y="176.0" text-anchor="middle" class="h">Design domain model</text>
<text x="1050.0" y="196.0" text-anchor="middle" class="t">API/event contracts</text>
<rect x="1320" y="140" width="360" height="90" rx="14" fill="#FFF7ED" stroke="#F97316" stroke-width="2"/>
<text x="1500.0" y="176.0" text-anchor="middle" class="h">Break into tasks</text>
<text x="1500.0" y="196.0" text-anchor="middle" class="t">backend/client/infra/docs</text>
<rect x="1740" y="140" width="330" height="90" rx="14" fill="#EEF2FF" stroke="#6366F1" stroke-width="2"/>
<text x="1905.0" y="176.0" text-anchor="middle" class="h">Create feature branch</text>
<text x="1905.0" y="196.0" text-anchor="middle" class="t">from main/develop</text>
<rect x="1740" y="360" width="300" height="80" rx="14" fill="#ECFDF5" stroke="#064E3B" stroke-width="2"/>
<text x="1890.0" y="400.0" text-anchor="middle" class="h">Implement vertical slice</text>
<rect x="1320" y="360" width="350" height="80" rx="14" fill="#FFFFFF" stroke="#064E3B" stroke-width="2"/>
<text x="1495.0" y="400.0" text-anchor="middle" class="h">Unit/integration/contract tests</text>
<rect x="880" y="360" width="320" height="80" rx="14" fill="#FEF3C7" stroke="#F59E0B" stroke-width="2"/>
<text x="1040.0" y="391.0" text-anchor="middle" class="h">Code review</text>
<text x="1040.0" y="411.0" text-anchor="middle" class="t">architecture rules</text>
<rect x="450" y="360" width="280" height="80" rx="14" fill="#FFFFFF" stroke="#064E3B" stroke-width="2"/>
<text x="590.0" y="400.0" text-anchor="middle" class="h">Manual QA / UX pass</text>
<rect x="450" y="590" width="300" height="80" rx="14" fill="#FFF7ED" stroke="#F97316" stroke-width="2"/>
<text x="600.0" y="630.0" text-anchor="middle" class="h">Update docs/UML/ADRs</text>
<rect x="880" y="590" width="280" height="75" rx="14" fill="#ECFDF5" stroke="#064E3B" stroke-width="2"/>
<text x="1020.0" y="627.5" text-anchor="middle" class="h">Merge with CI green</text>
<rect x="1320" y="590" width="300" height="80" rx="14" fill="#EEF2FF" stroke="#6366F1" stroke-width="2"/>
<text x="1470.0" y="621.0" text-anchor="middle" class="h">Deploy to env</text>
<text x="1470.0" y="641.0" text-anchor="middle" class="t">smoke test</text>
<rect x="1740" y="590" width="320" height="80" rx="14" fill="#FFFFFF" stroke="#064E3B" stroke-width="2"/>
<text x="1900.0" y="621.0" text-anchor="middle" class="h">Observe metrics/logs</text>
<text x="1900.0" y="641.0" text-anchor="middle" class="t">feedback</text>
<rect x="1320" y="840" width="280" height="80" rx="14" fill="#EEF2FF" stroke="#6366F1" stroke-width="2"/>
<text x="1460.0" y="880.0" text-anchor="middle" class="h">Definition of Done?</text>
<rect x="880" y="840" width="300" height="80" rx="14" fill="#FEF3C7" stroke="#F59E0B" stroke-width="2"/>
<text x="1030.0" y="871.0" text-anchor="middle" class="h">Return to backlog</text>
<text x="1030.0" y="891.0" text-anchor="middle" class="t">fix gaps</text>
<rect x="450" y="860" width="300" height="60" rx="14" fill="#022C22" stroke="#022C22" stroke-width="2"/>
<text x="600.0" y="881.0" text-anchor="middle" class="h">END</text>
<text x="600.0" y="901.0" text-anchor="middle" class="t">phase increment complete</text>
<polyline points="360,190 450,185" fill="none" stroke="#4B5563" stroke-width="2" marker-end="url(#arrow)"/>
<polyline points="780,185 880,185" fill="none" stroke="#4B5563" stroke-width="2" marker-end="url(#arrow)"/>
<polyline points="1220,185 1320,185" fill="none" stroke="#4B5563" stroke-width="2" marker-end="url(#arrow)"/>
<polyline points="1680,185 1740,185" fill="none" stroke="#4B5563" stroke-width="2" marker-end="url(#arrow)"/>
<polyline points="1905,230 1905,360" fill="none" stroke="#4B5563" stroke-width="2" marker-end="url(#arrow)"/>
<polyline points="1740,400 1670,400" fill="none" stroke="#4B5563" stroke-width="2" marker-end="url(#arrow)"/>
<polyline points="1320,400 1200,400" fill="none" stroke="#4B5563" stroke-width="2" marker-end="url(#arrow)"/>
<polyline points="880,400 730,400" fill="none" stroke="#4B5563" stroke-width="2" marker-end="url(#arrow)"/>
<polyline points="590,440 590,590" fill="none" stroke="#4B5563" stroke-width="2" marker-end="url(#arrow)"/>
<polyline points="750,630 880,628" fill="none" stroke="#4B5563" stroke-width="2" marker-end="url(#arrow)"/>
<polyline points="1160,628 1320,630" fill="none" stroke="#4B5563" stroke-width="2" marker-end="url(#arrow)"/>
<polyline points="1620,630 1740,630" fill="none" stroke="#4B5563" stroke-width="2" marker-end="url(#arrow)"/>
<polyline points="1900,670 1900,760 1460,760 1460,840" fill="none" stroke="#4B5563" stroke-width="2" marker-end="url(#arrow)"/>
<polyline points="1320,880 1180,880" fill="none" stroke="#F97316" stroke-width="2" marker-end="url(#arrowDashed)" stroke-dasharray="6 5"/>
<text x="1188" y="872" class="small">no</text>
<polyline points="1030,840 1030,760 615,760 615,230" fill="none" stroke="#F97316" stroke-width="2" marker-end="url(#arrowDashed)" stroke-dasharray="6 5"/>
<text x="623" y="752" class="small">re-scope</text>
<polyline points="1320,880 750,890" fill="none" stroke="#4B5563" stroke-width="2" marker-end="url(#arrow)"/>
<text x="758" y="882" class="small">yes</text>
<rect x="330" y="1110" width="1600" height="60" rx="12" fill="#FEF3C7" stroke="#F59E0B" stroke-width="2"/>
<text x="346" y="1134" class="t">Execution rule:</text>
<text x="346" y="1152" class="t">Every task must connect to a use case, bounded context, contract, test, and documentation update. Avoid random screen/API coding without domain traceability.</text>
</svg>
