<svg xmlns="http://www.w3.org/2000/svg" width="2400" height="1650" viewBox="0 0 2400 1650">
<defs>
<marker id="arrow" markerWidth="10" markerHeight="10" refX="8" refY="3" orient="auto" markerUnits="strokeWidth"><path d="M0,0 L0,6 L9,3 z" fill="#4B5563"/></marker>
<marker id="arrowDashed" markerWidth="10" markerHeight="10" refX="8" refY="3" orient="auto" markerUnits="strokeWidth"><path d="M0,0 L0,6 L9,3 z" fill="#F97316"/></marker>
<style>
.title { font: 700 24px Arial, sans-serif; fill: white; }
.h { font: 700 13px Arial, sans-serif; fill: #111827; }
.t { font: 400 12px Arial, sans-serif; fill: #111827; }
.small { font: 400 11px Arial, sans-serif; fill: #4B5563; }
</style>
</defs>
<rect x="40" y="30" width="2320" height="60" rx="14" fill="#022C22"/>
<text x="1200.0" y="69" text-anchor="middle" class="title">Viaverse Release Gate / Go-Live Decision — Sequence Diagram</text>

<rect x="80" y="140" width="200" height="60" rx="14" fill="#FFFFFF" stroke="#064E3B" stroke-width="2"/>
<text x="180.0" y="170.0" text-anchor="middle" class="h">Product Lead</text>
<rect x="179" y="220" width="2" height="1030" rx="14" fill="#E5E7EB" stroke="#E5E7EB" stroke-width="2"/>
<text x="180.0" y="735.0" text-anchor="middle" class="h"></text>
<rect x="350" y="140" width="200" height="60" rx="14" fill="#FFFFFF" stroke="#064E3B" stroke-width="2"/>
<text x="450.0" y="170.0" text-anchor="middle" class="h">GitHub / CI</text>
<rect x="449" y="220" width="2" height="1030" rx="14" fill="#E5E7EB" stroke="#E5E7EB" stroke-width="2"/>
<text x="450.0" y="735.0" text-anchor="middle" class="h"></text>
<rect x="620" y="140" width="200" height="60" rx="14" fill="#FFFFFF" stroke="#064E3B" stroke-width="2"/>
<text x="720.0" y="170.0" text-anchor="middle" class="h">QA</text>
<rect x="719" y="220" width="2" height="1030" rx="14" fill="#E5E7EB" stroke="#E5E7EB" stroke-width="2"/>
<text x="720.0" y="735.0" text-anchor="middle" class="h"></text>
<rect x="890" y="140" width="200" height="60" rx="14" fill="#FFFFFF" stroke="#064E3B" stroke-width="2"/>
<text x="990.0" y="170.0" text-anchor="middle" class="h">Security/Privacy</text>
<rect x="989" y="220" width="2" height="1030" rx="14" fill="#E5E7EB" stroke="#E5E7EB" stroke-width="2"/>
<text x="990.0" y="735.0" text-anchor="middle" class="h"></text>
<rect x="1160" y="140" width="200" height="60" rx="14" fill="#FFFFFF" stroke="#064E3B" stroke-width="2"/>
<text x="1260.0" y="170.0" text-anchor="middle" class="h">Platform/Ops</text>
<rect x="1259" y="220" width="2" height="1030" rx="14" fill="#E5E7EB" stroke="#E5E7EB" stroke-width="2"/>
<text x="1260.0" y="735.0" text-anchor="middle" class="h"></text>
<rect x="1430" y="140" width="200" height="60" rx="14" fill="#FFFFFF" stroke="#064E3B" stroke-width="2"/>
<text x="1530.0" y="170.0" text-anchor="middle" class="h">Observability</text>
<rect x="1529" y="220" width="2" height="1030" rx="14" fill="#E5E7EB" stroke="#E5E7EB" stroke-width="2"/>
<text x="1530.0" y="735.0" text-anchor="middle" class="h"></text>
<rect x="1700" y="140" width="200" height="60" rx="14" fill="#FFFFFF" stroke="#064E3B" stroke-width="2"/>
<text x="1800.0" y="170.0" text-anchor="middle" class="h">Admin/Support</text>
<rect x="1799" y="220" width="2" height="1030" rx="14" fill="#E5E7EB" stroke="#E5E7EB" stroke-width="2"/>
<text x="1800.0" y="735.0" text-anchor="middle" class="h"></text>
<rect x="1970" y="140" width="200" height="60" rx="14" fill="#ECFDF5" stroke="#064E3B" stroke-width="2"/>
<text x="2070.0" y="170.0" text-anchor="middle" class="h">Release Owner</text>
<rect x="2069" y="220" width="2" height="1030" rx="14" fill="#E5E7EB" stroke="#E5E7EB" stroke-width="2"/>
<text x="2070.0" y="735.0" text-anchor="middle" class="h"></text>
<polyline points="280,260 350,260" fill="none" stroke="#4B5563" stroke-width="2" marker-end="url(#arrow)"/>
<text x="358" y="252" class="small">tag release candidate</text>
<polyline points="550,330 620,330" fill="none" stroke="#4B5563" stroke-width="2" marker-end="url(#arrow)"/>
<text x="628" y="322" class="small">build + test artifacts</text>
<polyline points="550,430 890,430" fill="none" stroke="#4B5563" stroke-width="2" marker-end="url(#arrow)"/>
<text x="898" y="422" class="small">SAST/dependency/IaC scan</text>
<polyline points="550,530 1160,530" fill="none" stroke="#4B5563" stroke-width="2" marker-end="url(#arrow)"/>
<text x="1168" y="522" class="small">deploy to staging</text>
<polyline points="1360,620 1430,620" fill="none" stroke="#4B5563" stroke-width="2" marker-end="url(#arrow)"/>
<text x="1438" y="612" class="small">smoke + metrics</text>
<polyline points="820,740 1970,740" fill="none" stroke="#4B5563" stroke-width="2" marker-end="url(#arrow)"/>
<text x="1978" y="732" class="small">QA signoff</text>
<polyline points="1090,830 1970,830" fill="none" stroke="#4B5563" stroke-width="2" marker-end="url(#arrow)"/>
<text x="1978" y="822" class="small">security/privacy signoff</text>
<polyline points="1630,920 1970,920" fill="none" stroke="#4B5563" stroke-width="2" marker-end="url(#arrow)"/>
<text x="1978" y="912" class="small">SLO/error budget signoff</text>
<polyline points="1900,1010 1970,1010" fill="none" stroke="#4B5563" stroke-width="2" marker-end="url(#arrow)"/>
<text x="1978" y="1002" class="small">support/admin readiness</text>
<polyline points="1970,1120 550,1120" fill="none" stroke="#F97316" stroke-width="2" marker-end="url(#arrowDashed)" stroke-dasharray="6 5"/>
<text x="558" y="1112" class="small">promote or block</text>
<rect x="80" y="1320" width="1780" height="60" rx="12" fill="#FEF3C7" stroke="#F59E0B" stroke-width="2"/>
<text x="96" y="1344" class="t">Gate focus:</text>
<text x="96" y="1362" class="t">Go-live requires product acceptance, QA evidence, security/privacy review, operational readiness, observability and rollback plan.</text>
</svg>
