<svg xmlns="http://www.w3.org/2000/svg" width="2400" height="1650" viewBox="0 0 2400 1650">
<defs>
<marker id="arrow" markerWidth="10" markerHeight="10" refX="8" refY="3" orient="auto" markerUnits="strokeWidth"><path d="M0,0 L0,6 L9,3 z" fill="#4B5563"/></marker>
<marker id="arrowDashed" markerWidth="10" markerHeight="10" refX="8" refY="3" orient="auto" markerUnits="strokeWidth"><path d="M0,0 L0,6 L9,3 z" fill="#F97316"/></marker>
<style>
.title { font: 700 24px Arial, sans-serif; fill: white; }
.h { font: 700 13px Arial, sans-serif; fill: #111827; }
.t { font: 400 12px Arial, sans-serif; fill: #111827; }
.small { font: 400 11px Arial, sans-serif; fill: #4B5563; }
</style>
</defs>
<rect x="40" y="30" width="2320" height="60" rx="14" fill="#022C22"/>
<text x="1200.0" y="69" text-anchor="middle" class="title">Viaverse Roadmap / Deliverable / Definition of Done — Class Model</text>

<rect x="80" y="150" width="420" height="240" rx="14" fill="#FFFFFF" stroke="#064E3B" stroke-width="2"/>
<text x="290.0" y="207.0" text-anchor="middle" class="h">RoadmapPhase</text>
<text x="290.0" y="227.0" text-anchor="middle" class="t">--</text>
<text x="290.0" y="247.0" text-anchor="middle" class="t">code: String</text>
<text x="290.0" y="267.0" text-anchor="middle" class="t">name: String</text>
<text x="290.0" y="287.0" text-anchor="middle" class="t">goal: String</text>
<text x="290.0" y="307.0" text-anchor="middle" class="t">entryCriteria: List&lt;String&gt;</text>
<text x="290.0" y="327.0" text-anchor="middle" class="t">exitCriteria: List&lt;String&gt;</text>
<text x="290.0" y="347.0" text-anchor="middle" class="t">status: PhaseStatus</text>
<rect x="600" y="150" width="390" height="230" rx="14" fill="#FFFFFF" stroke="#064E3B" stroke-width="2"/>
<text x="795.0" y="202.0" text-anchor="middle" class="h">Epic</text>
<text x="795.0" y="222.0" text-anchor="middle" class="t">--</text>
<text x="795.0" y="242.0" text-anchor="middle" class="t">id: UUID</text>
<text x="795.0" y="262.0" text-anchor="middle" class="t">phaseCode: String</text>
<text x="795.0" y="282.0" text-anchor="middle" class="t">boundedContext: String</text>
<text x="795.0" y="302.0" text-anchor="middle" class="t">businessOutcome: String</text>
<text x="795.0" y="322.0" text-anchor="middle" class="t">priority: Int</text>
<text x="795.0" y="342.0" text-anchor="middle" class="t">status: EpicStatus</text>
<rect x="1090" y="150" width="420" height="270" rx="14" fill="#FFFFFF" stroke="#064E3B" stroke-width="2"/>
<text x="1300.0" y="222.0" text-anchor="middle" class="h">EngineeringTask</text>
<text x="1300.0" y="242.0" text-anchor="middle" class="t">--</text>
<text x="1300.0" y="262.0" text-anchor="middle" class="t">id: UUID</text>
<text x="1300.0" y="282.0" text-anchor="middle" class="t">epicId: UUID</text>
<text x="1300.0" y="302.0" text-anchor="middle" class="t">type: BACKEND | CLIENT | INFRA | DOCS | QA</text>
<text x="1300.0" y="322.0" text-anchor="middle" class="t">owner: String</text>
<text x="1300.0" y="342.0" text-anchor="middle" class="t">acceptanceCriteria: List&lt;String&gt;</text>
<text x="1300.0" y="362.0" text-anchor="middle" class="t">status: TaskStatus</text>
<rect x="1600" y="150" width="420" height="240" rx="14" fill="#FFFFFF" stroke="#064E3B" stroke-width="2"/>
<text x="1810.0" y="207.0" text-anchor="middle" class="h">ContractArtifact</text>
<text x="1810.0" y="227.0" text-anchor="middle" class="t">--</text>
<text x="1810.0" y="247.0" text-anchor="middle" class="t">id: UUID</text>
<text x="1810.0" y="267.0" text-anchor="middle" class="t">type: REST | EVENT | DB | UI | ADR</text>
<text x="1810.0" y="287.0" text-anchor="middle" class="t">path: String</text>
<text x="1810.0" y="307.0" text-anchor="middle" class="t">version: String</text>
<text x="1810.0" y="327.0" text-anchor="middle" class="t">owner: String</text>
<text x="1810.0" y="347.0" text-anchor="middle" class="t">reviewed: Boolean</text>
<rect x="80" y="560" width="420" height="250" rx="14" fill="#FFFFFF" stroke="#064E3B" stroke-width="2"/>
<text x="290.0" y="622.0" text-anchor="middle" class="h">DefinitionOfDone</text>
<text x="290.0" y="642.0" text-anchor="middle" class="t">--</text>
<text x="290.0" y="662.0" text-anchor="middle" class="t">code: String</text>
<text x="290.0" y="682.0" text-anchor="middle" class="t">requiresTests: Boolean</text>
<text x="290.0" y="702.0" text-anchor="middle" class="t">requiresDocs: Boolean</text>
<text x="290.0" y="722.0" text-anchor="middle" class="t">requiresObservability: Boolean</text>
<text x="290.0" y="742.0" text-anchor="middle" class="t">requiresSecurityReview: Boolean</text>
<text x="290.0" y="762.0" text-anchor="middle" class="t">requiresRollbackPlan: Boolean</text>
<rect x="600" y="560" width="420" height="260" rx="14" fill="#FFFFFF" stroke="#064E3B" stroke-width="2"/>
<text x="810.0" y="627.0" text-anchor="middle" class="h">DeliveryRisk</text>
<text x="810.0" y="647.0" text-anchor="middle" class="t">--</text>
<text x="810.0" y="667.0" text-anchor="middle" class="t">id: UUID</text>
<text x="810.0" y="687.0" text-anchor="middle" class="t">scope: PHASE | EPIC | TASK</text>
<text x="810.0" y="707.0" text-anchor="middle" class="t">riskType: TECH | PRODUCT | LEGAL | COST</text>
<text x="810.0" y="727.0" text-anchor="middle" class="t">severity: Severity</text>
<text x="810.0" y="747.0" text-anchor="middle" class="t">mitigation: String</text>
<text x="810.0" y="767.0" text-anchor="middle" class="t">status: RiskStatus</text>
<rect x="1120" y="560" width="420" height="260" rx="14" fill="#FFFFFF" stroke="#064E3B" stroke-width="2"/>
<text x="1330.0" y="627.0" text-anchor="middle" class="h">ADR</text>
<text x="1330.0" y="647.0" text-anchor="middle" class="t">--</text>
<text x="1330.0" y="667.0" text-anchor="middle" class="t">id: String</text>
<text x="1330.0" y="687.0" text-anchor="middle" class="t">title: String</text>
<text x="1330.0" y="707.0" text-anchor="middle" class="t">status: PROPOSED | ACCEPTED | SUPERSEDED</text>
<text x="1330.0" y="727.0" text-anchor="middle" class="t">context: String</text>
<text x="1330.0" y="747.0" text-anchor="middle" class="t">decision: String</text>
<text x="1330.0" y="767.0" text-anchor="middle" class="t">consequences: String</text>
<rect x="1640" y="560" width="420" height="250" rx="14" fill="#FFFFFF" stroke="#064E3B" stroke-width="2"/>
<text x="1850.0" y="622.0" text-anchor="middle" class="h">Delivery Events</text>
<text x="1850.0" y="642.0" text-anchor="middle" class="t">--</text>
<text x="1850.0" y="662.0" text-anchor="middle" class="t">PhaseStarted</text>
<text x="1850.0" y="682.0" text-anchor="middle" class="t">EpicReady</text>
<text x="1850.0" y="702.0" text-anchor="middle" class="t">TaskBlocked</text>
<text x="1850.0" y="722.0" text-anchor="middle" class="t">ContractChanged</text>
<text x="1850.0" y="742.0" text-anchor="middle" class="t">ReleaseCandidateCreated</text>
<text x="1850.0" y="762.0" text-anchor="middle" class="t">GoLiveApproved</text>
<polyline points="500,260 600,260" fill="none" stroke="#4B5563" stroke-width="2" marker-end="url(#arrow)"/>
<text x="608" y="252" class="small">1 -&gt; many</text>
<polyline points="990,260 1090,280" fill="none" stroke="#4B5563" stroke-width="2" marker-end="url(#arrow)"/>
<text x="1098" y="272" class="small">1 -&gt; many</text>
<polyline points="1510,280 1600,270" fill="none" stroke="#4B5563" stroke-width="2" marker-end="url(#arrow)"/>
<text x="1608" y="262" class="small">produces/updates</text>
<polyline points="500,680 1090,300" fill="none" stroke="#F97316" stroke-width="2" marker-end="url(#arrowDashed)" stroke-dasharray="6 5"/>
<text x="1098" y="292" class="small">validates</text>
<polyline points="810,560 795,380" fill="none" stroke="#4B5563" stroke-width="2" marker-end="url(#arrow)"/>
<text x="803" y="372" class="small">risks</text>
<polyline points="1330,560 1810,390" fill="none" stroke="#4B5563" stroke-width="2" marker-end="url(#arrow)"/>
<text x="1818" y="382" class="small">governs</text>
<polyline points="500,410 1850,560" fill="none" stroke="#4B5563" stroke-width="2" marker-end="url(#arrow)"/>
<text x="1858" y="552" class="small">emits</text>
<polyline points="1510,420 1850,560" fill="none" stroke="#4B5563" stroke-width="2" marker-end="url(#arrow)"/>
<text x="1858" y="552" class="small">emits</text>
<polyline points="1540,690 1640,690" fill="none" stroke="#4B5563" stroke-width="2" marker-end="url(#arrow)"/>
<text x="1648" y="682" class="small">emits</text>
<rect x="80" y="1030" width="1700" height="60" rx="12" fill="#FEF3C7" stroke="#F59E0B" stroke-width="2"/>
<text x="96" y="1054" class="t">Model rule:</text>
<text x="96" y="1072" class="t">Roadmap items are traceable: Phase → Epic → Task → Contract/Code/Test/Docs. Decisions live as ADRs, not hidden in chat messages.</text>
</svg>
